<svg xmlns="http://www.w3.org/2000/svg" width="26.94" height="29.601" viewBox="0 0 26.94 29.601">
  <path id="Shape" d="M22.449,29.6H4.491A4.471,4.471,0,0,1,0,25.161V4.44A4.471,4.471,0,0,1,4.491,0H18.014a4.5,4.5,0,0,1,3.408,1.542l1.93,2.2L25.8,6.5A4.36,4.36,0,0,1,26.94,9.441v15.72A4.471,4.471,0,0,1,22.449,29.6ZM4.491,2.959a1.491,1.491,0,0,0-1.5,1.481V25.161a1.491,1.491,0,0,0,1.5,1.48H22.449a1.491,1.491,0,0,0,1.5-1.48V10.36H17.961a1.491,1.491,0,0,1-1.5-1.481V2.959H4.491Zm14.966.86V7.4h3.155L21.1,5.692Zm-7.1,18.38h0a1.519,1.519,0,0,1-1.122-.5L8.6,18.739a1.473,1.473,0,0,1-.367-1.074,1.456,1.456,0,0,1,.512-1.017,1.48,1.48,0,0,1,.978-.368,1.538,1.538,0,0,1,1.132.5l1.461,1.643,3.733-4.558a1.516,1.516,0,0,1,2.11-.218,1.476,1.476,0,0,1,.216,2.081l-4.851,5.92a1.475,1.475,0,0,1-1.136.547Z" fill="#eff1f2"/>
</svg>
