<svg xmlns="http://www.w3.org/2000/svg" width="59" height="59" viewBox="0 0 59 59">
  <g id="Group_827" data-name="Group 827" transform="translate(-942 -362)">
    <rect id="Rectangle_1618" data-name="Rectangle 1618" width="59" height="59" rx="10" transform="translate(942 362)" fill="#00263e"/>
    <path id="Shape" d="M16.477,29.6H4.489A4.469,4.469,0,0,1,0,25.161V8.88A4.469,4.469,0,0,1,4.489,4.441,4.47,4.47,0,0,1,8.977,0h10.15a4.542,4.542,0,0,1,3.461,1.6l1.407,1.671,1.874,2.159A4.462,4.462,0,0,1,26.95,8.316v12.4a4.47,4.47,0,0,1-4.489,4.441h-1.5A4.47,4.47,0,0,1,16.477,29.6ZM4.489,7.4a1.49,1.49,0,0,0-1.5,1.48V25.161a1.49,1.49,0,0,0,1.5,1.48H16.477a1.49,1.49,0,0,0,1.5-1.48h-9A4.469,4.469,0,0,1,4.489,20.72ZM8.977,2.959a1.49,1.49,0,0,0-1.5,1.481V20.72a1.49,1.49,0,0,0,1.5,1.48H22.461a1.49,1.49,0,0,0,1.5-1.48V8.88H17.973a1.49,1.49,0,0,1-1.5-1.48V2.959h-7.5ZM19.469,3V5.92h2.885L21.7,5.18,20.28,3.492A1.511,1.511,0,0,0,19.469,3Zm0,16.244H11.988a1.481,1.481,0,1,1,0-2.961h7.481a1.481,1.481,0,1,1,0,2.961Zm0-5.18H11.988a1.48,1.48,0,1,1,0-2.959h7.481a1.48,1.48,0,1,1,0,2.959Z" transform="translate(958.36 376.838)" fill="#eff1f2"/>
  </g>
</svg>
