<svg xmlns="http://www.w3.org/2000/svg" width="59" height="59" viewBox="0 0 59 59">
  <g id="Group_828" data-name="Group 828" transform="translate(-1001 -421)">
    <rect id="Rectangle_1619" data-name="Rectangle 1619" width="59" height="59" rx="10" transform="translate(1001 421)" fill="#00263e"/>
    <g id="Group_1" data-name="Group 1" transform="translate(692.84 -1075.445)">
      <path id="Shape" d="M20.54,28.442h-9.48a1.58,1.58,0,1,1,0-3.159H14.22V22.122H4.741A4.745,4.745,0,0,1,0,17.383V4.741A4.746,4.746,0,0,1,4.741,0h22.12A4.745,4.745,0,0,1,31.6,4.741V17.383a4.744,4.744,0,0,1-4.739,4.739H17.379v3.161H20.54a1.58,1.58,0,0,1,0,3.159ZM4.741,3.159A1.583,1.583,0,0,0,3.159,4.741V17.383a1.582,1.582,0,0,0,1.581,1.58h22.12a1.581,1.581,0,0,0,1.58-1.58V4.741a1.582,1.582,0,0,0-1.58-1.581Z" transform="translate(321.71 1511.539)" fill="#eff1f2"/>
      <path id="Shape-2" data-name="Shape" d="M4.238,10.66H.514A.544.544,0,0,1,0,10.127V.533A.544.544,0,0,1,.514,0h9.633a.544.544,0,0,1,.513.533V4.264a.544.544,0,0,1-.513.533H4.816v5.33a.46.46,0,0,1-.192.373A.427.427,0,0,1,4.238,10.66ZM1.092,1.066V9.594H3.724v-1.6H2.633a.533.533,0,0,1,0-1.066H3.724V4.8H2.633a.533.533,0,0,1,0-1.066H3.724V2.665a.544.544,0,0,1,.514-.533.557.557,0,0,1,.578.533V3.731H6.935V2.665a.544.544,0,0,1,.514-.533.5.5,0,0,1,.514.533V3.731H9.568V1.066Z" transform="translate(326.497 1515.158)" fill="#eff1f2"/>
      <path id="Shape-3" data-name="Shape" d="M8.1,8.795a4.16,4.16,0,0,1-1.817-.424,4.474,4.474,0,0,1-1.892.424A4.4,4.4,0,0,1,4.389,0,4.473,4.473,0,0,1,6.282.424,4.161,4.161,0,0,1,8.1,0a4.471,4.471,0,0,1,3.169,1.288,4.379,4.379,0,0,1,0,6.219A4.471,4.471,0,0,1,8.1,8.795Zm0-7.539a4.11,4.11,0,0,0-.606.061A4.483,4.483,0,0,1,8.779,4.4,4.5,4.5,0,0,1,7.493,7.47a3.418,3.418,0,0,0,.606.068A3.164,3.164,0,0,0,11.277,4.4,3.164,3.164,0,0,0,8.1,1.256Zm-3.709,0A3.164,3.164,0,0,0,1.211,4.4,3.163,3.163,0,0,0,4.389,7.539a2.775,2.775,0,0,0,.606-.068A4.5,4.5,0,0,1,3.708,4.4,4.483,4.483,0,0,1,4.995,1.317,3.33,3.33,0,0,0,4.389,1.256Z" transform="translate(336.015 1519.898)" fill="#eff1f2"/>
    </g>
  </g>
</svg>
