<svg xmlns="http://www.w3.org/2000/svg" width="31.6" height="34.481" viewBox="0 0 31.6 34.481">
  <g id="Group_818" data-name="Group 818" transform="translate(-1186.55 -430)">
    <path id="Shape" d="M22.8,31.6a2.234,2.234,0,0,1-1.388-.485l-3.807-2.969a7.008,7.008,0,0,1-6.092-4.49,3.188,3.188,0,0,1-.534.045,3.331,3.331,0,0,1-2.268-.909,3.228,3.228,0,0,1-1-2.369v-.961A9.63,9.63,0,0,1,0,10.026v-.2A9.815,9.815,0,0,1,9.784,0h7.292a9.815,9.815,0,0,1,9.784,9.824,10.054,10.054,0,0,1-.533,3.229,7.758,7.758,0,0,1-1.239,15v1.278A2.281,2.281,0,0,1,22.8,31.6Zm1.963-15.713a9.667,9.667,0,0,1-7.653,3.759L14.3,21.929a3.836,3.836,0,0,0,3.769,3.082h.077a1.652,1.652,0,0,1,1.028.358l2.76,2.145v-.8a1.7,1.7,0,0,1,1.694-1.7h.19a4.609,4.609,0,0,0,.953-9.123ZM9.784,3.175A6.645,6.645,0,0,0,3.159,9.824v.2a6.44,6.44,0,0,0,6.416,6.449,1.26,1.26,0,0,1,.913.38,1.237,1.237,0,0,1,.3.49,1.522,1.522,0,0,1,.075.418v2.661a.1.1,0,0,0,.1.1.082.082,0,0,0,.056-.022l4.588-3.707a1.4,1.4,0,0,1,.894-.319h.572a6.65,6.65,0,0,0,0-13.3Z" transform="translate(1186.55 432.88)" fill="#eff1f2"/>
    <text id="ع" transform="translate(1203 444)" fill="#eff1f2" font-size="12" font-family="DINNextLTArabic-Regular, DIN Next LT Arabic"><tspan x="-6.552" y="0">ع</tspan></text>
    <text id="A" transform="translate(1210 456)" fill="#eff1f2" font-size="8" font-family="DINNextLTArabic-Regular, DIN Next LT Arabic"><tspan x="-4.856" y="0">A</tspan></text>
  </g>
</svg>
