<svg xmlns="http://www.w3.org/2000/svg" width="59" height="59" viewBox="0 0 59 59">
  <g id="Group_830" data-name="Group 830" transform="translate(-1001 -539)">
    <rect id="Rectangle_1621" data-name="Rectangle 1621" width="59" height="59" rx="10" transform="translate(1001 539)" fill="#00263e"/>
    <g id="Group_823" data-name="Group 823" transform="translate(0 3)">
      <path id="Path" d="M15.8,12.642a4.745,4.745,0,0,0-4.74,4.74v9.48a1.58,1.58,0,1,1-3.16,0V17.325a5.383,5.383,0,0,1-.78.057c-.19,0-.362-.01-.533-.025a1.411,1.411,0,0,1-.267.025H5.635A2.476,2.476,0,0,0,3.16,19.864V23.7A1.58,1.58,0,1,1,0,23.7V19.864a5.64,5.64,0,0,1,2.627-4.772,5.454,5.454,0,0,1-1.047-3.24A5.532,5.532,0,0,1,7.119,6.32,5.446,5.446,0,0,1,9.5,6.865,5.149,5.149,0,0,1,9.48,6.32a6.32,6.32,0,1,1,12.64,0,5.149,5.149,0,0,1-.019.544,5.527,5.527,0,0,1,7.919,4.988,5.454,5.454,0,0,1-1.047,3.24A5.64,5.64,0,0,1,31.6,19.864V23.7a1.58,1.58,0,1,1-3.16,0V19.864a2.476,2.476,0,0,0-2.475-2.482H25.28a1.411,1.411,0,0,1-.267-.025c-.171.015-.343.025-.514.025a5.451,5.451,0,0,1-.8-.057v9.537a1.58,1.58,0,1,1-3.16,0v-9.48A4.733,4.733,0,0,0,15.8,12.642Z" transform="translate(1014.55 550.482)" fill="#eff1f2"/>
      <path id="Path-2" data-name="Path" d="M3.16,6.32A3.16,3.16,0,1,1,6.32,3.16,3.156,3.156,0,0,1,3.16,6.32Z" transform="translate(1027.189 553.642)" fill="#00263e"/>
      <path id="Path-3" data-name="Path" d="M2.379,0A2.371,2.371,0,1,0,4.74,2.372,2.376,2.376,0,0,0,2.379,0Z" transform="translate(1019.29 559.962)" fill="#00263e"/>
      <path id="Path-4" data-name="Path" d="M2.379,0A2.371,2.371,0,1,0,4.74,2.372,2.376,2.376,0,0,0,2.379,0Z" transform="translate(1036.668 559.962)" fill="#00263e"/>
    </g>
  </g>
</svg>
