<svg xmlns="http://www.w3.org/2000/svg" width="59" height="59" viewBox="0 0 59 59">
  <g id="Group_831" data-name="Group 831" transform="translate(-942 -598)">
    <rect id="Rectangle_1622" data-name="Rectangle 1622" width="59" height="59" rx="10" transform="translate(942 598)" fill="#00263e"/>
    <path id="Shape" d="M13.8,27.6a13.794,13.794,0,1,1,9.762-4.042A13.817,13.817,0,0,1,13.8,27.6ZM9.71,15.179a18.975,18.975,0,0,0,1.878,7.32,14.025,14.025,0,0,0,1.3,2.117c.045.065.094.13.15.2.264.017.529.027.765.027s.481-.008.781-.027a2.428,2.428,0,0,0,.15-.2,13.771,13.771,0,0,0,1.3-2.117,18.966,18.966,0,0,0,1.879-7.32Zm10.957,0a21.617,21.617,0,0,1-2.177,8.553l-.051.09a11.04,11.04,0,0,0,6.318-8.643Zm-17.807,0a10.947,10.947,0,0,0,2.06,5.174,11.115,11.115,0,0,0,4.242,3.469l-.033-.09a21.61,21.61,0,0,1-2.179-8.553ZM18.439,3.78l.051.087a21.649,21.649,0,0,1,2.177,8.553h4.09a11.035,11.035,0,0,0-6.318-8.64ZM13.8,2.759c-.255,0-.519.009-.765.027-.047.057-.1.124-.15.2a13.984,13.984,0,0,0-1.3,2.119A18.968,18.968,0,0,0,9.71,12.42h8.2A18.961,18.961,0,0,0,16.028,5.1a13.73,13.73,0,0,0-1.3-2.119c-.04-.058-.094-.132-.15-.2C14.312,2.768,14.064,2.759,13.8,2.759ZM9.161,3.78a11.077,11.077,0,0,0-6.3,8.64h4.09A21.644,21.644,0,0,1,9.128,3.867Z" transform="translate(958 614)" fill="#eff1f2"/>
  </g>
</svg>
