<svg xmlns="http://www.w3.org/2000/svg" width="528.64" height="440.122" viewBox="0 0 528.64 440.122">
    <defs>
        <style>
            .prefix__cls-11,.prefix__cls-12,.prefix__cls-13,.prefix__cls-14,.prefix__cls-17,.prefix__cls-20,.prefix__cls-4,.prefix__cls-6,.prefix__cls-7,.prefix__cls-8,.prefix__cls-9{fill-rule:evenodd}.prefix__cls-11,.prefix__cls-13,.prefix__cls-20,.prefix__cls-23,.prefix__cls-6{fill:none}.prefix__cls-13,.prefix__cls-17,.prefix__cls-23{stroke:#18233d}.prefix__cls-11,.prefix__cls-13,.prefix__cls-23,.prefix__cls-6{stroke-linecap:round}.prefix__cls-3,.prefix__cls-8{fill:#18233d}.prefix__cls-4{fill:#4385ff}.prefix__cls-11,.prefix__cls-20,.prefix__cls-6{stroke:#fff}.prefix__cls-7{fill:#ffd1ab}.prefix__cls-9{fill:#85a9ff}.prefix__cls-12{fill:#cf8b54}.prefix__cls-14,.prefix__cls-17{fill:#fff}.prefix__cls-16{fill:#e5e9f3}
        </style>
    </defs>
    <g id="prefix__Page-1" transform="translate(0 1.68)">
        <g id="prefix__Desktop-HD" transform="translate(-136 -101)">
            <g id="prefix__Greeting-_Welcome_" data-name="Greeting-(Welcome)" transform="translate(136 99)">
                <path id="prefix__Rectangle" d="M175-57.32h111a82 82 0 0 0 82-82 82 82 0 0 0-82-82H15v4a160 160 0 0 0 160 160z" transform="rotate(180 191.5 0)" style="fill-rule:evenodd;fill:#ceebf6"/>
                <path id="prefix__Rectangle-2" d="M214 17.32h37.5a29.5 29.5 0 0 1 29.5 29.5 29.5 29.5 0 0 1-29.5 29.5H155a59 59 0 0 1 59-59z" data-name="Rectangle" style="stroke-width:.8px;stroke-linecap:round;stroke:#18233d;fill:none;fill-rule:evenodd"/>
                <g id="prefix__Group-3" transform="translate(190 42)">
                    <ellipse id="prefix__Oval" cx="5.618" cy="5.5" class="prefix__cls-3" rx="5.618" ry="5.5"/>
                    <ellipse id="prefix__Oval-2" cx="5.618" cy="5.5" class="prefix__cls-3" data-name="Oval" rx="5.618" ry="5.5" transform="translate(24.882)"/>
                    <ellipse id="prefix__Oval-3" cx="5.618" cy="5.5" class="prefix__cls-3" data-name="Oval" rx="5.618" ry="5.5" transform="translate(49.763)"/>
                </g>
                <g id="prefix__Group-4" transform="translate(128.857 .32)">
                    <path id="prefix__Path-129" d="M185 202.895l-3.522 6.424a100 100 0 0 0-11.92 39.217l-5.781 65.029 48.031-.814 12.075-60.926 12.407 60.926h42.154v-53.037a100 100 0 0 0-13.4-50.013l-3.931-6.806z" class="prefix__cls-4"/>
                    <path id="prefix__Path-133" d="M183.771 202.306q10.929 13.335 39.151 15.175t42.04-10.778z" style="fill:#2f61bf;fill-rule:evenodd"/>
                    <path id="prefix__Path-130" d="M256.185 208.393q12.124 24.607 15 41.107t2.507 48.314" class="prefix__cls-6"/>
                    <path id="prefix__Path-130-2" d="M173.185-204.393q12.124-24.607 15-41.107t2.507-48.314" class="prefix__cls-6" data-name="Path-130" transform="rotate(180 181.961 0)"/>
                    <path id="prefix__Path-126" d="M131.842 145.175l-16.432 17.316a103.973 103.973 0 0 0-38.839 7.009q-17.04 6.531-56.445 20.757a32 32 0 0 0-14.8 10.983L0 208.393h32.008l2.582-8.616q76.948-14.392 89.937-18.444t32-18.843z" class="prefix__cls-7"/>
                    <path id="prefix__Path-125" d="M210.809 94.706q-20.386 3.908-32.481 8.1t-47.486 42.356L152.788 166l18.038-10.617q1.716 44.256 16.336 51.187c14.62 6.931 67.087 7.932 75.952 1.931q8.865-6 18.982-59.844L302.1 163l12.9-34.383q-31.02-24.985-36.982-25.81T226.5 91.263z" class="prefix__cls-8"/>
                    <path id="prefix__Path-128" d="M296.328 161.273q10.132 15.951 25.575 14.018c15.442-1.933 16.329-35.047 9.107-41.228s-18.316-16.336-29.587-8.58q-11.27 7.755-5.095 35.79z" class="prefix__cls-9"/>
                    <path id="prefix__Rectangle-3" d="M191.143 98.259l7-2.209v119h-7z" class="prefix__cls-4" data-name="Rectangle"/>
                    <path id="prefix__Rectangle-4" d="M251.143 96.05l7 2.072V215.05h-7z" class="prefix__cls-4" data-name="Rectangle"/>
                    <path id="prefix__Rectangle-5" d="M0 0H8V33H0z" data-name="Rectangle" transform="translate(220.643 99.18)" style="stroke:#fff;fill:none"/>
                    <path id="prefix__Path-5" d="M136.541 142.613c-2.887-2.8-6.508 1.2-10.433 5.221s-6.22 3.655-2.024 7.919 17.679 24.774 20.932 22.9 4.463-9.156 6.8-9.156 5.958-.657 2.332-7.009-14.72-17.076-17.607-19.875z" class="prefix__cls-9"/>
                    <g id="prefix__Group-2" transform="scale(-1) rotate(6.02 -134.993 -3341.307)">
                        <path id="prefix__Path-112" d="M3.1-142.671C3.1-154.358 5.722-169 17.775-169s18.331 20.887 15.192 46.891q-3.139 26-8.975 68.386l.31.362a67.984 67.984 0 0 1 12.882 22.719l3.544 5.619a1.752 1.752 0 0 1-.387 2.3 2.268 2.268 0 0 1-2.571.182l-1.728-1.019a16.849 16.849 0 0 1-5.15-4.727l-3.507-4.92L30.2-6.764a2.409 2.409 0 0 1-1.92 2.616 2.228 2.228 0 0 1-2.619-1.707l-4.121-18.8-1.607 22.35A2.483 2.483 0 0 1 17.456 0a2.445 2.445 0 0 1-2.441-2.308l-1.256-22.35L9.074-7.515a2.359 2.359 0 0 1-2.8 1.678A2.325 2.325 0 0 1 4.51-8.55q3.743-19.1 3.213-18.308-.511.768-3.936 9.088a2.044 2.044 0 0 1-2.418 1.2 1.841 1.841 0 0 1-1.315-2.21l4.96-20.598 2.148-13.49Q3.1-130.985 3.1-142.671z" class="prefix__cls-7"/>
                        <path id="prefix__Path-113" d="M27-32q-12-6.123-12-11" class="prefix__cls-11"/>
                        <path id="prefix__Path-114" d="M6-27q7.236 4.218 18 2.506" class="prefix__cls-11"/>
                    </g>
                    <g id="prefix__Group" transform="translate(201.143 14)">
                        <path id="prefix__Path-103" d="M9.02 42.458a58.37 58.37 0 0 1 1.523 22.892C9.02 76.736 9.02 81.15 6.557 82.97Q15.822 93 25 93t17.623-10.03Q37.2 80.526 37.2 67.554t.738-28.76z" class="prefix__cls-7"/>
                        <path id="prefix__Path-105" d="M5.167 40.59c-6.342-9.847-8.309-28.414 5.5-32.505.938-14 32.363-7.948 36.361 6.968S42.8 51.089 31.226 53.618 11.509 50.436 5.167 40.59z" class="prefix__cls-8"/>
                        <path id="prefix__Path" d="M37.914 48.023a163.264 163.264 0 0 0-.768 20.006 53.693 53.693 0 0 0 .768 7.216Q13.165 63.571 11.061 58.827a65.594 65.594 0 0 0-.394-9.135z" class="prefix__cls-12"/>
                        <path id="prefix__Path-2" d="M8.651 29.008c3.791-2.212 4.873-6.569 7.405-13.956C22.6 25.509 28.841 26.391 39.545 28.99c-.7 18.932 1.205 1.8 3.146 2.007a4.289 4.289 0 0 1 1.247-.184 4.574 4.574 0 0 1 0 9.143 4.326 4.326 0 0 1-2.961-1.176C37.4 49.5 29.86 63.256 21.4 61.969q-9.177-1.4-14.4-23.506a4.3 4.3 0 0 1-.931.1 4.574 4.574 0 0 1 0-9.143c.172 0 .135 7.353.931 7.07q.789-.281 1.651-7.482z" class="prefix__cls-7" data-name="Path"/>
                        <path id="prefix__Path-123" d="M7.79 34.842q.474 9.672 2.051 12.794c1.577 3.122 5.033 8.754 6.751 9.285 1.277-3.188 3.076-2.7 7.584-2.7q4.508 0 5.332 2.248a24.108 24.108 0 0 0 6.129-7.117 29.005 29.005 0 0 0 3.983-12.49l.99-2.02.374 4.594q-1.424 14.738-5.835 19.4c-4.411 4.663-16.882 8.811-22.988 0q-6.107-8.811-5.6-23.657z" class="prefix__cls-8"/>
                        <path id="prefix__Path-124" d="M22.271 45.832a4.105 4.105 0 0 0-4.188-.332c-2.5.955-4.153 2.343-3.329 2.923q.825.58 7.849-1.255 6.9 1.384 8.134.692c1.23-.692-3.406-2.42-4.777-2.758a5.927 5.927 0 0 0-3.689.73z" class="prefix__cls-8"/>
                        <path id="prefix__Path-104" d="M22.384 32.771q.868 3.308-2.458 12.084l3.493 1.245" class="prefix__cls-13"/>
                        <path id="prefix__Path-109" d="M27.3 29.044a7.594 7.594 0 0 1 7.845.709" class="prefix__cls-13"/>
                        <path id="prefix__Path-109-2" d="M11.475 29.029a7.593 7.593 0 0 1 7.845.7" class="prefix__cls-13" data-name="Path-109" transform="rotate(-6 15.395 28.99)"/>
                        <ellipse id="prefix__Oval-4" cx="1.23" cy="1.237" class="prefix__cls-3" data-name="Oval" rx="1.23" ry="1.237" transform="translate(29.508 31.544)"/>
                        <ellipse id="prefix__Oval-5" cx="1.23" cy="1.237" class="prefix__cls-3" data-name="Oval" rx="1.23" ry="1.237" transform="translate(14.754 31.544)"/>
                        <path id="prefix__Path-110" d="M18.852 49.43l7.5-.57q-1.066 3.8-3.751 3.8t-3.749-3.23z" class="prefix__cls-14"/>
                        <path id="prefix__Path-107" d="M42.623 36.491l2.459-.825" class="prefix__cls-13"/>
                        <path id="prefix__Path-107-2" d="M4.1-34.842l2.459.825" class="prefix__cls-13" data-name="Path-107" transform="rotate(180 5.328 0)"/>
                        <path id="prefix__Path-108" d="M20.492 12.579Q27.016 23.971 40.984 26.6" class="prefix__cls-6"/>
                    </g>
                </g>
                <path id="prefix__Rectangle-6" d="M0 0H484V16H0z" data-name="Rectangle" transform="translate(1.5 384.82)" style="fill:#fff;stroke:#18233d"/>
                <g id="prefix__Group-10" transform="translate(446 183.32)">
                    <ellipse id="prefix__Oval-6" cx="10.395" cy="16.984" class="prefix__cls-16" data-name="Oval" rx="10.395" ry="16.984" transform="rotate(-13 28.581 -52.022)"/>
                    <path id="prefix__Path-50" d="M22.195 3.076l12.7 49.981-13.049 139.321" class="prefix__cls-13"/>
                    <ellipse id="prefix__Oval-7" cx="15.374" cy="25.063" class="prefix__cls-16" data-name="Oval" rx="15.374" ry="25.063" transform="rotate(29 -21.402 120.477)"/>
                    <path id="prefix__Path-52" d="M31.521 96.3l39.017-61.819" class="prefix__cls-13"/>
                    <ellipse id="prefix__Oval-8" cx="15.355" cy="25.094" class="prefix__cls-16" data-name="Oval" rx="15.355" ry="25.094" transform="rotate(-10 412.8 32.792)"/>
                    <ellipse id="prefix__Oval-9" cx="15.368" cy="25.073" class="prefix__cls-16" data-name="Oval" rx="15.368" ry="25.073" transform="rotate(24 -296.001 167.469)"/>
                    <path id="prefix__Path-51" d="M15.724 69.509l10.661 74.761" class="prefix__cls-13"/>
                    <path id="prefix__Path-53" d="M22.129 192.378l34.914-50.225" class="prefix__cls-13"/>
                </g>
                <path id="prefix__Rectangle-7" d="M141.5 302.82h161v-67.5a38.5 38.5 0 0 0-38.5-38.5h-84a38.5 38.5 0 0 0-38.5 38.5z" class="prefix__cls-17" data-name="Rectangle"/>
                <path id="prefix__Rectangle-8" d="M156 196.32h88a39 39 0 0 1 39 39v68H117v-68a39 39 0 0 1 39-39z" data-name="Rectangle" style="fill:#e5e9f3;fill-rule:evenodd"/>
                <g id="prefix__Path-119" transform="translate(0 288.32)">
                    <g id="prefix__Path-119-_-Path-120-Mask" data-name="Path-119-+-Path-120-Mask">
                        <path id="prefix__Mask" d="M65.416 0h356.168L487 97H0z" style="fill:#d7e3ff"/>
                        <path id="prefix__Path-122" d="M132.814 41.207c9.648 7.293 46.567-8.7 44.071-13.965s-20.43 3.558-30.478 3.558-23.242 3.115-13.593 10.407z" class="prefix__cls-20"/>
                        <path id="prefix__Path-121" d="M269 38.483c14.3 2.057 52.863-8.146 78.629-15.814S332.3 4.9 294.31 15 254.7 36.426 269 38.483z" class="prefix__cls-20"/>
                        <path id="prefix__Path-119-2" d="M25 28.178q38.285 26.755 86.773 4.922C160.26 11.269 206.6 4.511 199.2 21.747S134.576 48.51 134.576 78.14s162.146-43.463 182.443 22.13" class="prefix__cls-20" data-name="Path-119"/>
                        <path id="prefix__Path-120" d="M290.894-5.5c-3.387 0-96.784 39.451-57.216 54q39.567 14.549 214.084-30.925Q570.828 57.844 486 72.175C401.172 86.507 342.053 59.9 392.687 123.2s-34.287 4.387-34.287-18.7 16.337-43.908 89.358-43.908 36.25-33.458 8.956-26.311-3.938 18.584-44.193 18.584-179.951 15.454-205.537 7.727S196.655 43.5 252.613-3" class="prefix__cls-20"/>
                        <path id="prefix__Path-3" d="M9.26 58.932q22.2 5.242 83.4-5.15c61.204-10.393-9.86 42.257 48.34 46.487" class="prefix__cls-20"/>
                        <path id="prefix__Path-4" d="M46.633 19.006Q68.294 33 120.425 15t90.657-20.5" class="prefix__cls-20"/>
                    </g>
                </g>
                <g id="prefix__Group-3-2" data-name="Group-3" transform="translate(78 99.32)">
                    <path id="prefix__Path-111" d="M59.459 122.579a114.684 114.684 0 0 1 53.693-13.186c17.848 0 41.84 4.458 60.7 16.156q18.86 11.7 30.793 63.305H53.06Q29 200.3 16.039 194.051t-9.11-27.426q35.319-34.925 52.53-44.046z" class="prefix__cls-9"/>
                    <circle id="prefix__Oval-10" cx="2.5" cy="2.5" r="2.5" class="prefix__cls-16" data-name="Oval" transform="translate(115 142)"/>
                    <circle id="prefix__Oval-11" cx="2.5" cy="2.5" r="2.5" class="prefix__cls-16" data-name="Oval" transform="translate(115 162)"/>
                    <circle id="prefix__Oval-12" cx="2.5" cy="2.5" r="2.5" class="prefix__cls-16" data-name="Oval" transform="translate(115 181)"/>
                    <path id="prefix__Path-117" d="M53.06 188.854l22.8-24.987-5.955 24.833z" style="fill:#4873db;opacity:.219;fill-rule:evenodd"/>
                    <path id="prefix__Path-116" d="M4.238 154.608q-8.148 19.382 0 29.781c8.148 10.4 22.518 14.3 33.283 2.041q10.765-12.262-2.1-40.569z" style="fill:#a5c0ff;fill-rule:evenodd"/>
                    <path id="prefix__Path-115" d="M112 139.5l-1.665 49.354" class="prefix__cls-6"/>
                    <path id="prefix__Path-2-2" d="M99.23 106.909c-4.142 1.335-9.643 2.315-10.7 7.7q-1.058 5.381 0 29.4l23.907-8.947 23.444 7.557q.688-29.193-2.557-33.061t-13.267-3.358q-16.685-.626-20.827.709z" class="prefix__cls-8" data-name="Path-2"/>
                    <g id="prefix__Group-8" transform="translate(88)">
                        <g id="prefix__Group-2-2" data-name="Group">
                            <ellipse id="prefix__Oval-13" cx="16.803" cy="16.904" class="prefix__cls-3" data-name="Oval" rx="16.803" ry="16.904" transform="translate(16.393)"/>
                            <ellipse id="prefix__Oval-14" cx="13.115" cy="13.193" class="prefix__cls-16" data-name="Oval" rx="13.115" ry="13.193" transform="translate(18.033 19.789)"/>
                            <path id="prefix__Path-103-2" d="M11.9 71.648a58.37 58.37 0 0 1 1.525 22.892C11.9 105.926 9.8 108.58 6.557 109.97L24.045 141l18.578-31.855q-9.169-.638-9.169-13.61a251.733 251.733 0 0 1 1.826-28.746z" class="prefix__cls-7" data-name="Path-103"/>
                            <path id="prefix__Path-105-2" d="M5.167 67.59c-6.341-9.847-8.986-31.054 4.823-35.146 14.743-17.553 34.644-10.079 38.642 4.837S47.686 70.474 36.112 73s-24.603 4.436-30.945-5.41z" class="prefix__cls-8" data-name="Path-105"/>
                            <path id="prefix__Path-3-2" d="M34.542 76.163c-.212 1.7-.47 5.532-.9 12.307Q33.111 97 34 100.777q-18.039-8.186-20.143-12.931a63.874 63.874 0 0 0-.309-8.965z" class="prefix__cls-12" data-name="Path"/>
                            <path id="prefix__Path-4-2" d="M6.571 56.451q5.686-3.318 9.485-14.4C14.578 49.351 30.679 56.687 42.691 58a4.289 4.289 0 0 1 1.247-.184 4.574 4.574 0 0 1 0 9.143 4.326 4.326 0 0 1-2.961-1.176C37.4 76.5 29.86 90.256 21.4 88.969q-9.177-1.4-14.4-23.506a4.3 4.3 0 0 1-.931.1 4.574 4.574 0 0 1 0-9.143 4.325 4.325 0 0 1 .51.03z" class="prefix__cls-7" data-name="Path"/>
                            <path id="prefix__Path-104-2" d="M22.384 59.771q.868 3.308-2.458 12.084l3.493 1.245" class="prefix__cls-13" data-name="Path-104"/>
                            <path id="prefix__Path-109-3" d="M27.3 56.044a7.594 7.594 0 0 1 7.845.709" class="prefix__cls-13" data-name="Path-109"/>
                            <path id="prefix__Path-109-4" d="M11.475 56.029a7.593 7.593 0 0 1 7.845.7" class="prefix__cls-13" data-name="Path-109" transform="rotate(-6 15.396 55.988)"/>
                            <ellipse id="prefix__Oval-15" cx="1.23" cy="1.237" class="prefix__cls-3" data-name="Oval" rx="1.23" ry="1.237" transform="translate(29.508 58.544)"/>
                            <ellipse id="prefix__Oval-16" cx="1.23" cy="1.237" class="prefix__cls-3" data-name="Oval" rx="1.23" ry="1.237" transform="translate(14.754 58.544)"/>
                            <path id="prefix__Path-110-2" d="M18.852 76.43l7.5-.57q-1.066 3.8-3.751 3.8t-3.749-3.23z" class="prefix__cls-14" data-name="Path-110"/>
                            <path id="prefix__Path-107-3" d="M42.623 63.491l2.459-.825" class="prefix__cls-13" data-name="Path-107"/>
                            <path id="prefix__Path-107-4" d="M4.1-61.842l2.459.825" class="prefix__cls-13" data-name="Path-107" transform="rotate(180 5.328 0)"/>
                            <path id="prefix__Path-108-2" d="M20.492 39.579Q27.016 50.971 40.984 53.6" class="prefix__cls-6" data-name="Path-108"/>
                        </g>
                    </g>
                    <g id="prefix__Group-6" transform="translate(91 52.68)">
                        <circle id="prefix__Oval-17" cx="9" cy="9" r="9" class="prefix__cls-23" data-name="Oval" transform="translate(21)"/>
                        <circle id="prefix__Oval-18" cx="9" cy="9" r="9" class="prefix__cls-23" data-name="Oval"/>
                        <path id="prefix__Path-132" d="M16.926 4.073a5.07 5.07 0 0 1 5.074 0" class="prefix__cls-13"/>
                    </g>
                    <g id="prefix__Group-2-3" data-name="Group-2" transform="translate(0 20)">
                        <path id="prefix__Path-112-2" d="M3.1 142.671C3.1 154.358 5.722 169 17.775 169s18.331-20.887 15.192-46.891q-3.139-26-8.975-68.386l.31-.362a67.984 67.984 0 0 0 12.882-22.719l3.544-5.619a1.752 1.752 0 0 0-.387-2.3 2.268 2.268 0 0 0-2.571-.182l-1.728 1.019a16.849 16.849 0 0 0-5.15 4.727l-3.507 4.92L30.2 6.764a2.409 2.409 0 0 0-1.92-2.616 2.228 2.228 0 0 0-2.619 1.707l-4.121 18.8-1.607-22.35A2.483 2.483 0 0 0 17.456 0a2.445 2.445 0 0 0-2.441 2.308l-1.256 22.35L9.074 7.515a2.359 2.359 0 0 0-2.8-1.678A2.325 2.325 0 0 0 4.51 8.55q3.743 19.1 3.213 18.308-.511-.768-3.936-9.088a2.044 2.044 0 0 0-2.418-1.2 1.841 1.841 0 0 0-1.315 2.21l4.96 20.598 2.148 13.49Q3.1 130.985 3.1 142.671z" class="prefix__cls-7" data-name="Path-112"/>
                        <path id="prefix__Path-113-2" d="M27 32q-12 6.123-12 11" class="prefix__cls-6" data-name="Path-113"/>
                        <path id="prefix__Path-114-2" d="M6 27q7.236-4.218 18-2.506" class="prefix__cls-6" data-name="Path-114"/>
                    </g>
                    <path id="prefix__Path-118" d="M170.6 160.349q-3.94 25.789-8.666 28.352" class="prefix__cls-6"/>
                </g>
                <path id="prefix__Path-127" d="M145.838 196.32q-1.824 17-4.838 17c-3.014 0-1.634-4.261-1.634-7.183v-7.119z" class="prefix__cls-7"/>
                <g id="prefix__Group-7" transform="translate(187.376 264.32)">
                    <path id="prefix__Path-131" d="M17.928 72.5H134.2l-24.49-37.256L.5 32.513V38.9z" class="prefix__cls-17"/>
                    <path id="prefix__Path-131-2" d="M19.66 69.5H134.2l-24.124-37.249H.813z" class="prefix__cls-17" data-name="Path-131"/>
                    <path id="prefix__Rectangle-9" d="M32.135.5L18.154 72.893l1.733 2.6 114.336-2.983L150.186 3.1 148.454.5z" class="prefix__cls-17" data-name="Rectangle"/>
                    <path id="prefix__Rectangle-10" d="M33.722 3h117l-14.1 73h-117z" data-name="Rectangle" style="fill:#0acc94;fill-rule:evenodd"/>
                    <circle id="prefix__Oval-19" cx="5.5" cy="5.5" r="5.5" data-name="Oval" transform="translate(80.624 34)" style="fill:#fff"/>
                </g>
            </g>
        </g>
    </g>
</svg>
