<svg xmlns="http://www.w3.org/2000/svg" width="398.565" height="294.691" viewBox="0 0 398.565 294.691">
    <defs>
        <style>
            .prefix__cls-1{fill:#ceebf6}.prefix__cls-1,.prefix__cls-16,.prefix__cls-17,.prefix__cls-2,.prefix__cls-21,.prefix__cls-4,.prefix__cls-9{fill-rule:evenodd}.prefix__cls-2,.prefix__cls-9{fill:none;stroke:#18233d;stroke-linecap:round}.prefix__cls-2{stroke-width:.8px}.prefix__cls-3,.prefix__cls-4{fill:#18233d}.prefix__cls-5{fill:#2760cb}.prefix__cls-6{fill:#fff}.prefix__cls-17,.prefix__cls-8{fill:#d7e3ff}.prefix__cls-10{fill:#19243d}.prefix__cls-16{fill:#ffd1ab}.prefix__cls-21{fill:#4385ff}
        </style>
    </defs>
    <g id="prefix__Page-1">
        <g id="prefix__Desktop-HD">
            <g id="prefix__the-job-you-search-is-aavailable_-submit-your-CV" data-name="the-job-you-search-is-aavailable,-submit-your-CV">
                <path id="prefix__Rectangle" d="M167.581 123h153.025a86.1 86.1 0 0 1 86.1 86.1 86.1 86.1 0 0 1-86.1 86.1H37v-41.619A130.581 130.581 0 0 1 167.581 123z" class="prefix__cls-1" transform="translate(-8.143 -22.616)"/>
                <g id="prefix__Group-13" transform="rotate(180 39.96 89.775)">
                    <path id="prefix__Rectangle-2" d="M32.645 32.645h20.4a16.323 16.323 0 0 0 16.326-16.322A16.323 16.323 0 0 0 53.049 0H0a32.645 32.645 0 0 0 32.645 32.645z" class="prefix__cls-2" data-name="Rectangle"/>
                    <g id="prefix__Group-3" transform="translate(17.139 13.058)">
                        <ellipse id="prefix__Oval" cx="3.082" cy="2.856" class="prefix__cls-3" rx="3.082" ry="2.856"/>
                        <ellipse id="prefix__Oval-2" cx="3.082" cy="2.856" class="prefix__cls-3" data-name="Oval" rx="3.082" ry="2.856" transform="translate(13.649)"/>
                        <ellipse id="prefix__Oval-3" cx="3.082" cy="2.856" class="prefix__cls-3" data-name="Oval" rx="3.082" ry="2.856" transform="translate(27.297)"/>
                    </g>
                </g>
                <path id="prefix__Rectangle-3" d="M58.762 58.762H96.3a29.381 29.381 0 0 0 29.381-29.381A29.381 29.381 0 0 0 96.3 0H0a58.762 58.762 0 0 0 58.762 58.762z" class="prefix__cls-1" data-name="Rectangle" transform="rotate(180 64.213 37.134)"/>
                <g id="prefix__Mobile" transform="translate(231.674 9.794)">
                    <path id="prefix__Rectangle-4" d="M17.78 0h95.862a7.345 7.345 0 0 1 7.345 7.345v.016l-.425 195.056a7.345 7.345 0 0 1-7.345 7.329H17.355a7.345 7.345 0 0 1-7.345-7.346v-.016l.425-195.055A7.345 7.345 0 0 1 17.78 0z" class="prefix__cls-4" data-name="Rectangle" transform="translate(-2.257)"/>
                    <rect id="prefix__Rectangle-5" width="4" height="44" class="prefix__cls-5" data-name="Rectangle" rx="2" transform="translate(111.891 21.206)"/>
                    <rect id="prefix__Rectangle-6" width="4" height="44" class="prefix__cls-6" data-name="Rectangle" rx="2" transform="translate(112.891 21.206)"/>
                    <path id="prefix__Rectangle-7" d="M7.872.5A6.937 6.937 0 0 0 .935 7.422L.51 202.478v.015a6.937 6.937 0 0 0 6.937 6.937h95.862a6.937 6.937 0 0 0 6.937-6.922l.425-195.056v-.015A6.937 6.937 0 0 0 103.734.5z" data-name="Rectangle" transform="translate(-.51 -.092)" style="fill:#fff;stroke:#18233d;fill-rule:evenodd"/>
                    <g id="prefix__Oval-4" data-name="Oval" transform="translate(47.905 195.056)">
                        <circle id="prefix__Mask" cx="5.5" cy="5.5" r="5.5" class="prefix__cls-5" transform="translate(-.014 .151)"/>
                        <circle id="prefix__Ellipse_73" cx="5.5" cy="5.5" r="5.5" class="prefix__cls-6" data-name="Ellipse 73" transform="translate(1.986 .151)"/>
                    </g>
                    <g id="prefix__Rectangle-_-Rectangle-_-Rectangle-_-Rectangle-Mask" data-name="Rectangle-+-Rectangle-+-Rectangle-+-Rectangle-Mask" transform="translate(2.857 3.265)">
                        <path id="prefix__Mask-2" d="M7.355 0H31.9a3.175 3.175 0 0 1 3.034 2.241 3.175 3.175 0 0 0 3.034 2.241h25.4a5.933 5.933 0 0 0 4.644-2.241A5.933 5.933 0 0 1 72.666 0h24.08a7.345 7.345 0 0 1 7.345 7.33l.368 173.836a7.345 7.345 0 0 1-7.33 7.361H7.723A7.345 7.345 0 0 1 .378 181.2L.01 7.361A7.345 7.345 0 0 1 7.34 0h.016z" class="prefix__cls-8" data-name="Mask" transform="translate(-.01)"/>
                        <path id="prefix__Rectangle-8" d="M9.194 97h88.143a4.081 4.081 0 0 1 4.081 4.081v34.278a4.081 4.081 0 0 1-4.081 4.081H9.194a4.081 4.081 0 0 1-4.081-4.081v-34.278A4.081 4.081 0 0 1 9.194 97z" class="prefix__cls-2" data-name="Rectangle" transform="translate(-.948 -17.835)"/>
                        <g id="prefix__Group-2" transform="translate(15.681 88.142)">
                            <g id="prefix__Group_508" data-name="Group 508" transform="rotate(180 36.703 12.242)">
                                <path id="prefix__Path-96" d="M0 0h23.095" class="prefix__cls-9" transform="translate(33.989 19.995)"/>
                                <path id="prefix__Path-96-2" d="M0 0h39.418" class="prefix__cls-9" data-name="Path-96" transform="translate(33.989 11.834)"/>
                                <path id="prefix__Path-96-3" d="M0 0h8.161" class="prefix__cls-9" data-name="Path-96" transform="translate(33.989 3.673)"/>
                                <circle id="prefix__Oval-5" cx="12.242" cy="12.242" r="12.242" class="prefix__cls-6" data-name="Oval"/>
                            </g>
                        </g>
                        <path id="prefix__Rectangle-9" d="M9.194 32h88.143a4.081 4.081 0 0 1 4.081 4.081v34.277a4.081 4.081 0 0 1-4.081 4.081H9.194a4.081 4.081 0 0 1-4.081-4.081V36.081A4.081 4.081 0 0 1 9.194 32z" class="prefix__cls-2" data-name="Rectangle" transform="translate(-.948 -5.884)"/>
                        <path id="prefix__Rectangle-10" d="M9.194 162h88.143a4.081 4.081 0 0 1 4.081 4.081v34.278a4.081 4.081 0 0 1-4.081 4.081H9.194a4.081 4.081 0 0 1-4.081-4.081v-34.278A4.081 4.081 0 0 1 9.194 162z" class="prefix__cls-2" data-name="Rectangle" transform="translate(-.948 -29.786)"/>
                        <g id="prefix__Group-2-2" data-name="Group-2" transform="translate(15.681 141.191)">
                            <g id="prefix__Group_509" data-name="Group 509" transform="rotate(180 36.703 12.242)">
                                <path id="prefix__Path-96-4" d="M0 0h23.095" class="prefix__cls-9" data-name="Path-96" transform="translate(33.989 19.995)"/>
                                <path id="prefix__Path-96-5" d="M0 0h39.418" class="prefix__cls-9" data-name="Path-96" transform="translate(33.989 11.834)"/>
                                <path id="prefix__Path-96-6" d="M0 0h8.161" class="prefix__cls-9" data-name="Path-96" transform="translate(33.989 3.673)"/>
                                <circle id="prefix__Oval-6" cx="12.242" cy="12.242" r="12.242" class="prefix__cls-6" data-name="Oval"/>
                            </g>
                        </g>
                    </g>
                    <rect id="prefix__Rectangle-11" width="18" height="1" class="prefix__cls-10" data-name="Rectangle" rx=".5" transform="translate(46.891 4.206)"/>
                    <circle id="prefix__Oval-7" cx="1.5" cy="1.5" r="1.5" class="prefix__cls-10" data-name="Oval" transform="translate(40.891 3.206)"/>
                    <path id="prefix__Path-106" d="M139 53h3.265" transform="translate(-25.974 -9.745)" style="stroke:#85b0ff;stroke-width:1.8px;fill:none;fill-rule:evenodd"/>
                </g>
                <rect id="prefix__Rectangle-12" width="258.714" height="78.349" data-name="Rectangle" rx="7" transform="translate(70.888 46.112)" style="fill:#fff;stroke-linecap:round;stroke:#18233d"/>
                <path id="prefix__Path-96-7" d="M198.224 84.5h23.095" class="prefix__cls-9" data-name="Path-96" transform="translate(-37.787 -15.537)"/>
                <path id="prefix__Path-96-8" d="M198.224 94.5h39.418" class="prefix__cls-9" data-name="Path-96" transform="translate(-37.787 -17.375)"/>
                <path id="prefix__Path-96-9" d="M198.224 104.5h8.161" class="prefix__cls-9" data-name="Path-96" transform="translate(-37.787 -19.214)"/>
                <path id="prefix__Path-96-10" d="M198.224 114.5h39.418" class="prefix__cls-9" data-name="Path-96" transform="translate(-37.787 -21.053)"/>
                <path id="prefix__Path-96-11" d="M198.224 124.5h32.645" class="prefix__cls-9" data-name="Path-96" transform="translate(-37.787 -22.891)"/>
                <path id="prefix__Path-229" d="M0 27.117l16.477 26.34L69.526 0" transform="rotate(4 -792.76 3431.44)" style="stroke-width:10px;stroke:#0acc94;fill:none;fill-rule:evenodd"/>
                <g id="prefix__Group-11" transform="translate(81.047)">
                    <path id="prefix__Path-153" d="M11.261 96.521a60.284 60.284 0 0 1 17.931-2.412A73.73 73.73 0 0 1 54.13 98.24a14.69 14.69 0 0 1 9.694 12.481L65 123.366H2L1 111.8a14.69 14.69 0 0 1 10.261-15.279z" transform="translate(-.948 -17.303)" style="fill:#85a9ff;fill-rule:evenodd"/>
                    <g id="prefix__Group-8" transform="translate(10.977)">
                        <g id="prefix__Group">
                            <ellipse id="prefix__Oval-8" cx="12.066" cy="12.133" class="prefix__cls-3" data-name="Oval" rx="12.066" ry="12.133" transform="translate(11.772)"/>
                            <ellipse id="prefix__Oval-9" cx="9.418" cy="9.47" data-name="Oval" rx="9.418" ry="9.47" transform="translate(12.949 14.205)" style="fill:#e5e9f3"/>
                            <path id="prefix__Path-103" d="M9.607 62.23A41.883 41.883 0 0 1 10.7 78.662C9.607 86.835 8.1 88.74 5.77 89.738l12.558 22.273 13.34-22.865q-6.584-.458-6.584-9.77A180.625 180.625 0 0 1 26.4 58.743z" class="prefix__cls-16" transform="translate(-1.061 -10.801)"/>
                            <path id="prefix__Path-157" d="M9.959 103.9q6.734 4.95 18.872 0L19.1 120.314z" class="prefix__cls-17" transform="translate(-1.831 -19.104)"/>
                            <path id="prefix__Path-105" d="M3.711 52.116c-4.554-7.068-6.453-22.29 3.463-25.227 10.587-12.6 24.877-7.235 27.748 3.472s-.68 23.826-8.99 25.639-17.667 3.184-22.221-3.884z" class="prefix__cls-4" transform="translate(0 -3.6)"/>
                            <path id="prefix__Path" d="M27 66.987c-.152 1.217-.338 3.971-.643 8.834a33.733 33.733 0 0 0 .254 8.834q-12.953-5.877-14.464-9.282a45.832 45.832 0 0 0-.222-6.435z" transform="translate(-2.192 -12.317)" style="fill:#cf8b54;fill-rule:evenodd"/>
                            <path id="prefix__Path-2" d="M4.984 47.321q4.083-2.382 6.816-10.335c-1.061 5.239 10.5 10.5 19.126 11.445a3.081 3.081 0 0 1 .9-.132 3.283 3.283 0 0 1 0 6.563 3.107 3.107 0 0 1-2.126-.844c-2.572 7.694-7.983 17.569-14.061 16.645q-6.59-1-10.343-16.873a3.089 3.089 0 0 1-.669.073 3.283 3.283 0 0 1 0-6.563 3.107 3.107 0 0 1 .366.022z" class="prefix__cls-16" data-name="Path" transform="translate(-.265 -6.801)"/>
                            <path id="prefix__Path-104" d="M19.3 52.569q.623 2.375-1.765 8.674l2.508.9" class="prefix__cls-9" transform="translate(-3.224 -9.666)"/>
                            <path id="prefix__Path-109" d="M24.024 49.165a5.455 5.455 0 0 1 5.633.509" class="prefix__cls-9" transform="translate(-4.417 -8.937)"/>
                            <path id="prefix__Path-109-2" d="M0 .562a5.454 5.454 0 0 1 5.633.506" class="prefix__cls-9" data-name="Path-109" transform="rotate(-6 385.274 -58.256)"/>
                            <ellipse id="prefix__Oval-10" cx=".883" cy=".888" class="prefix__cls-3" data-name="Oval" rx=".883" ry=".888" transform="translate(21.189 42.023)"/>
                            <ellipse id="prefix__Oval-11" cx=".883" cy=".888" class="prefix__cls-3" data-name="Oval" rx=".883" ry=".888" transform="translate(10.595 42.023)"/>
                            <path id="prefix__Path-110" d="M16.588 67.129l5.387-.41q-.765 2.725-2.693 2.725t-2.694-2.315z" transform="translate(-3.05 -12.268)" style="fill:#fff;fill-rule:evenodd"/>
                            <path id="prefix__Path-107" d="M37.5 55.708l1.766-.592" class="prefix__cls-9" transform="translate(-6.895 -10.134)"/>
                            <path id="prefix__Path-107-2" d="M0 0l1.766.592" class="prefix__cls-9" data-name="Path-107" transform="rotate(180 2.354 22.195)"/>
                            <path id="prefix__Path-108" d="M18.03 34.81q4.685 8.178 14.715 10.062" transform="translate(-3.315 -6.4)" style="stroke:#fff;stroke-linecap:round;fill:none;fill-rule:evenodd"/>
                        </g>
                    </g>
                    <path id="prefix__Path-154" d="M24.362 88.636a8.359 8.359 0 0 0-3.119 9.325l2 6.323a9.4 9.4 0 0 0 8.96 6.566 9.163 9.163 0 0 0 8.8-6.614l1.906-6.582A8.468 8.468 0 0 0 40 88.636" class="prefix__cls-9" transform="translate(-4.608 -16.297)"/>
                    <path id="prefix__Path-155" d="M35 108.217a8.929 8.929 0 0 0 8.929 8.929h.615a9.544 9.544 0 0 0 9.544-9.544V79.04a4.72 4.72 0 0 1 4.72-4.72" class="prefix__cls-9" transform="translate(-7.21 -13.665)"/>
                    <path id="prefix__Path-156" d="M30.557 113.912l-.483 1.929 2.915.972 1.167 2.913 1.654-.534-.335-2.622 2.095-.73-.612-1.929a11.726 11.726 0 0 1-3.308.507 9.65 9.65 0 0 1-3.093-.506z" class="prefix__cls-21" transform="translate(-6.303 -20.945)"/>
                    <path id="prefix__Path-158" d="M63.321 73.33l5.312-4.4v8.989z" class="prefix__cls-21" transform="translate(-12.416 -12.675)"/>
                    <rect id="prefix__Rectangle-13" width=".816" height="10.767" class="prefix__cls-3" data-name="Rectangle" rx=".408" transform="translate(55.499 55.271)"/>
                </g>
                <g id="prefix__Group-4" transform="translate(0 28.39)">
                    <g id="prefix__Group-26" transform="rotate(-165.02 143.384 116.597)">
                        <g id="prefix__Group-3-2" data-name="Group-3" transform="translate(0 118.923)">
                            <ellipse id="prefix__Oval-12" cx="55.905" cy="56.721" class="prefix__cls-5" data-name="Oval" rx="55.905" ry="56.721"/>
                            <ellipse id="prefix__Oval-13" cx="55.905" cy="56.721" class="prefix__cls-6" data-name="Oval" rx="55.905" ry="56.721" transform="translate(5.054 6.25)"/>
                            <g id="prefix___" data-name="$" transform="translate(12.879 14.579)">
                                <ellipse id="prefix__Mask-3" cx="47.367" cy="47.609" data-name="Mask" rx="47.367" ry="47.609" style="stroke:#19243d;fill:none"/>
                                <path id="prefix__Path-229-2" d="M0 27.117l16.477 26.34L69.526 0" data-name="Path-229" transform="rotate(168 35.467 46.341)" style="stroke-width:16px;stroke:#0acc94;fill:none;fill-rule:evenodd"/>
                            </g>
                        </g>
                        <g id="prefix__Group-25" transform="rotate(23 61.398 301.783)">
                            <rect id="prefix__Rectangle-14" width="11.469" height="40.449" class="prefix__cls-8" data-name="Rectangle" rx="2" transform="translate(2.921 92.688)"/>
                            <rect id="prefix__Rectangle-15" width="17.204" height="115.891" class="prefix__cls-10" data-name="Rectangle" rx="5"/>
                        </g>
                    </g>
                    <g id="prefix__Group-2-3" data-name="Group" transform="rotate(92 39.333 174.311)">
                        <path id="prefix__Path-88" d="M72.884 144.015l-40.24-48.04q-.514-.613-1.014-1.238L11.476 69.556a28.565 28.565 0 0 1-5.5-24.431L8.427 34.8.221 6.955A5.385 5.385 0 0 1 4.678.094a10.83 10.83 0 0 1 10.043 4.178L21 12.516a9.491 9.491 0 0 1 16.02-2.195l4.128 5.028a8.158 8.158 0 0 1 13.47-1.017l5.782 7.294a10.8 10.8 0 0 1 12.02 5.507l.573 1.1a43.115 43.115 0 0 1 4.871 18.095l1.622 36.911 39.244 32.337z" style="fill:#ffb391;fill-rule:evenodd"/>
                        <path id="prefix__Path-95" d="M7.464 17.62l4.744 8.221L7.8 23.487a11.426 11.426 0 0 1-5.953-8.664L0 0z" transform="translate(8.531 35.207)" style="fill:#ff9b6f;fill-rule:evenodd"/>
                        <path id="prefix__Path-89" d="M0 0l7.9 17.945" class="prefix__cls-9" transform="translate(8.531 35.207)"/>
                        <path id="prefix__Path-90" d="M0 0v3.264a6.529 6.529 0 0 0 2.309 4.981L3.59 9.331z" class="prefix__cls-4" transform="translate(13.558 45.256)"/>
                        <path id="prefix__Path-91" d="M0 0l7.9 14.356" class="prefix__cls-9" transform="translate(20.739 12.237)"/>
                        <path id="prefix__Path-92" d="M0 0l3.883 6.964" class="prefix__cls-9" transform="translate(40.845 15.108)"/>
                        <path id="prefix__Path-92-2" d="M0 0l3.883 6.964" class="prefix__cls-9" data-name="Path-92" transform="translate(59.515 20.851)"/>
                        <path id="prefix__Path-3" d="M74.143 116.066L0 30.18Q18.721 1.667 43.122 0l27.59 17.8z" class="prefix__cls-17" data-name="Path" transform="translate(54.448 94.485)"/>
                    </g>
                </g>
            </g>
        </g>
    </g>
</svg>
