<svg xmlns="http://www.w3.org/2000/svg" width="16" height="16" viewBox="0 0 16 16">
    <g fill="none" fill-rule="evenodd">
        <g fill="#02D000" fill-rule="nonzero">
            <g>
                <g>
                    <g>
                        <path d="M13 3h-1.2c-.5-1.7-2-3-3.8-3-1.9 0-3.4 1.3-3.9 3H3C1.3 3 0 4.3 0 6v7c0 1.7 1.3 3 3 3h10c1.7 0 3-1.3 3-3V6c0-1.7-1.3-3-3-3zM8 2c.7 0 1.4.4 1.7 1H6.3c.3-.6.9-1 1.7-1zm6 11c0 .6-.4 1-1 1H3c-.6 0-1-.4-1-1V9.7C4 11.1 5.7 12 8 12s4-.9 6-2.3V13zm0-6.4c-.9 1.8-2.9 3-5 3.3V8c0-.6-.4-1-1-1s-1 .4-1 1v1.9c-2.1-.3-4.1-1.5-5-3.3V6c0-.6.4-1 1-1h10c.6 0 1 .4 1 1v.6z" transform="translate(-1055 -316) translate(329 164) translate(40 146) translate(686 6)"/>
                    </g>
                </g>
            </g>
        </g>
    </g>
</svg>
