<svg xmlns="http://www.w3.org/2000/svg" xmlns:xlink="http://www.w3.org/1999/xlink" width="1996" height="1648.501" viewBox="0 0 1996 1648.501">
  <defs>
    <linearGradient id="linear-gradient" x1="0.5" y1="-0.835" x2="0.5" y2="0.692" gradientUnits="objectBoundingBox">
      <stop offset="0" stop-color="#3a4662"/>
      <stop offset="1" stop-color="#18233d"/>
    </linearGradient>
    <filter id="Path_5258" x="-0.667" y="-122.895" width="1997.335" height="301.384" filterUnits="userSpaceOnUse">
      <feOffset dy="-5" input="SourceAlpha"/>
      <feGaussianBlur stdDeviation="12.5" result="blur"/>
      <feFlood flood-opacity="0.078"/>
      <feComposite operator="in" in2="blur"/>
      <feComposite in="SourceGraphic"/>
    </filter>
    <filter id="Path_5257" x="-0.667" y="-5271.524" width="1997.335" height="8377.486" filterUnits="userSpaceOnUse">
      <feOffset dy="-5" input="SourceAlpha"/>
      <feGaussianBlur stdDeviation="12.5" result="blur-2"/>
      <feFlood flood-opacity="0.078"/>
      <feComposite operator="in" in2="blur-2"/>
      <feComposite in="SourceGraphic"/>
    </filter>
    <filter id="Subtraction_3" x="0" y="0" width="1996" height="1648.501" filterUnits="userSpaceOnUse">
      <feOffset dy="-5" input="SourceAlpha"/>
      <feGaussianBlur stdDeviation="12.5" result="blur-3"/>
      <feFlood flood-opacity="0.078"/>
      <feComposite operator="in" in2="blur-3"/>
      <feComposite in="SourceGraphic"/>
    </filter>
  </defs>
  <g transform="matrix(1, 0, 0, 1, 0, 0)" filter="url(#Subtraction_3)">
    <path id="Subtraction_3-2" data-name="Subtraction 3" d="M-4601.5,1609.5h-1921V139.345c39.842-8.573,80.237-16.723,120.065-24.222,39.848-7.5,80.243-14.566,120.063-20.992,39.835-6.429,80.23-12.405,120.063-17.763s80.231-10.247,120.061-14.533,80.233-8.089,120.061-11.3,80.219-5.93,120.063-8.073c39.824-2.143,80.219-3.773,120.063-4.844S-5601.836,36-5562,36s80.231.543,120.064,1.615,80.235,2.7,120.063,4.844,80.229,4.859,120.061,8.073,80.228,7.017,120.062,11.3,80.22,9.175,120.061,14.533,80.23,11.334,120.062,17.763,80.219,13.49,120.063,20.992c39.823,7.5,80.22,15.648,120.065,24.222V1609.5Z" transform="translate(6560 6.5)" fill="url(#linear-gradient)"/>
  </g>
</svg>
