<svg xmlns="http://www.w3.org/2000/svg" id="prefix__Page-1" width="445.996" height="298" viewBox="0 0 445.996 298">
    <defs>
        <style>
            .prefix__cls-10,.prefix__cls-11,.prefix__cls-12,.prefix__cls-13,.prefix__cls-14,.prefix__cls-16,.prefix__cls-2,.prefix__cls-25,.prefix__cls-26,.prefix__cls-3,.prefix__cls-4,.prefix__cls-5,.prefix__cls-8,.prefix__cls-9{fill-rule:evenodd}.prefix__cls-2,.prefix__cls-5{fill:#fff}.prefix__cls-13,.prefix__cls-16,.prefix__cls-2,.prefix__cls-4{stroke:#18233d}.prefix__cls-11,.prefix__cls-13,.prefix__cls-14,.prefix__cls-16,.prefix__cls-2,.prefix__cls-4{stroke-linecap:round}.prefix__cls-3{fill:#d7e3ff}.prefix__cls-11,.prefix__cls-13,.prefix__cls-14,.prefix__cls-16,.prefix__cls-4{fill:none}.prefix__cls-6,.prefix__cls-9{fill:#18233d}.prefix__cls-8{fill:#ffd1ab}.prefix__cls-10{fill:#cf8b54}.prefix__cls-11,.prefix__cls-14{stroke:#fff}.prefix__cls-12{fill:#4385ff}.prefix__cls-13,.prefix__cls-14{stroke-width:.6px}.prefix__cls-16{stroke-width:.5px}.prefix__cls-19{fill:#ffb0aa}.prefix__cls-20{fill:#ff7b7b}.prefix__cls-25{fill:#ffb391}.prefix__cls-26{fill:#ff9b6f}
        </style>
    </defs>
    <g id="prefix__Desktop-HD">
        <g id="prefix__various-jobs-online">
            <path id="prefix__Rectangle" d="M108.858 162.607H268.4a81.3 81.3 0 0 0 81.3-81.3A81.3 81.3 0 0 0 268.4 0H0v53.749a108.858 108.858 0 0 0 108.858 108.858z" transform="rotate(180 211.431 124.956)" style="fill-rule:evenodd;fill:#ceebf6"/>
            <path id="prefix__Rectangle-2" d="M204.452 68.1h112.021a8.5 8.5 0 0 1 8.474 7.784l3.7 43.511a8.5 8.5 0 0 1-7.754 9.194q-.359.031-.72.031H208.149a8.5 8.5 0 0 1-8.474-7.784l-3.7-43.511a8.5 8.5 0 0 1 7.754-9.194q.362-.031.723-.031z" class="prefix__cls-2" data-name="Rectangle" transform="translate(-63.25 -21.768)"/>
            <g id="prefix__Group-7" transform="translate(139.622)">
                <path id="prefix__Rectangle-3" d="M9.227 50.133h112.021a8.164 8.164 0 0 1 8.135 7.473l3.7 43.511a8.164 8.164 0 0 1-7.444 8.826q-.345.029-.691.029H12.925A8.164 8.164 0 0 1 4.79 102.5l-3.7-43.511a8.164 8.164 0 0 1 7.444-8.826q.347-.03.693-.03z" class="prefix__cls-3" data-name="Rectangle" transform="translate(-1.062 -16.024)"/>
                <g id="prefix__Group-5" transform="translate(71.113 51.761)">
                    <path id="prefix__Path-159" d="M0 .44h41.305" class="prefix__cls-4" transform="translate(0 -.44)"/>
                    <path id="prefix__Path-159-2" d="M1.76 13.633H28.7" class="prefix__cls-4" data-name="Path-159" transform="translate(-.562 -4.657)"/>
                    <path id="prefix__Path-159-3" d="M2.64 25.946h36.516" class="prefix__cls-4" data-name="Path-159" transform="translate(-.844 -8.592)"/>
                </g>
                <g id="prefix__Group-11" transform="translate(8.683)">
                    <path id="prefix__Path-153" d="M9.545 96.12a50.256 50.256 0 0 1 14.948-2.011 61.465 61.465 0 0 1 20.79 3.444 12.247 12.247 0 0 1 8.082 10.4l.978 10.542H1.821l-.828-9.642A12.247 12.247 0 0 1 9.545 96.12z" class="prefix__cls-5" transform="translate(-.948 -30.08)"/>
                    <g id="prefix__Group-8" transform="translate(9.151)">
                        <g id="prefix__Group">
                            <ellipse id="prefix__Oval" cx="10.059" cy="10.115" class="prefix__cls-6" rx="10.059" ry="10.115" transform="translate(9.814)"/>
                            <ellipse id="prefix__Oval-2" cx="7.851" cy="7.895" data-name="Oval" rx="7.851" ry="7.895" transform="translate(10.795 11.842)" style="fill:#e5e9f3"/>
                            <path id="prefix__Path-103" d="M8.969 61.65a34.915 34.915 0 0 1 .912 13.7c-.912 6.814-2.17 8.4-4.111 9.233l10.468 18.567L27.36 84.088q-5.489-.382-5.489-8.144a150.576 150.576 0 0 1 1.093-17.2z" class="prefix__cls-8" transform="translate(-1.844 -18.776)"/>
                            <path id="prefix__Path-157" d="M9.959 103.9q5.614 4.127 15.733 0l-8.114 13.685z" class="prefix__cls-3" transform="translate(-3.183 -33.21)"/>
                            <path id="prefix__Path-105" d="M3.093 46.7C-.7 40.812-2.286 28.122 5.98 25.673c8.825-10.5 20.739-6.031 23.132 2.894s-.567 19.862-7.495 21.376S6.89 52.6 3.093 46.7z" class="prefix__cls-9" transform="translate(0 -6.259)"/>
                            <path id="prefix__Path" d="M24.488 66.987c-.127 1.015-.281 3.31-.536 7.365a28.121 28.121 0 0 0 .211 7.365q-10.8-4.9-12.058-7.738a38.207 38.207 0 0 0-.185-5.364z" class="prefix__cls-10" transform="translate(-3.81 -21.411)"/>
                            <path id="prefix__Path-2" d="M4.395 45.6q3.4-1.986 5.678-8.616c-.885 4.368 8.754 8.757 15.944 9.541a2.569 2.569 0 0 1 .746-.11 2.737 2.737 0 0 1 0 5.471 2.59 2.59 0 0 1-1.772-.7C22.847 57.6 18.336 65.831 13.27 65.06q-5.494-.835-8.622-14.066a2.575 2.575 0 0 1-.558.061 2.737 2.737 0 0 1 0-5.471 2.59 2.59 0 0 1 .305.018z" class="prefix__cls-8" data-name="Path" transform="translate(-.461 -11.822)"/>
                            <path id="prefix__Path-104" d="M19 52.569q.519 1.98-1.471 7.231l2.091.746" class="prefix__cls-4" transform="translate(-5.604 -16.803)"/>
                            <path id="prefix__Path-109" d="M24.024 49.072a4.547 4.547 0 0 1 4.7.424" class="prefix__cls-4" transform="translate(-7.679 -15.536)"/>
                            <path id="prefix__Path-109-2" d="M0 .468A4.547 4.547 0 0 1 4.7.89" class="prefix__cls-4" data-name="Path-109" transform="rotate(-6 321.186 -48.566)"/>
                            <ellipse id="prefix__Oval-3" cx=".736" cy=".74" class="prefix__cls-6" data-name="Oval" rx=".736" ry=".74" transform="translate(17.664 35.032)"/>
                            <ellipse id="prefix__Oval-4" cx=".736" cy=".74" class="prefix__cls-6" data-name="Oval" rx=".736" ry=".74" transform="translate(8.832 35.032)"/>
                            <path id="prefix__Path-110" d="M16.588 67.061l4.491-.341q-.638 2.272-2.245 2.272t-2.246-1.931z" class="prefix__cls-5" transform="translate(-5.302 -21.326)"/>
                            <path id="prefix__Path-107" d="M37.5 55.61l1.472-.493" class="prefix__cls-4" transform="translate(-11.987 -17.617)"/>
                            <path id="prefix__Path-107-2" d="M0 0l1.472.493" class="prefix__cls-4" data-name="Path-107" transform="rotate(180 1.962 18.503)"/>
                            <path id="prefix__Path-108" d="M18.03 34.81q3.905 6.818 12.27 8.39" class="prefix__cls-11" transform="translate(-5.763 -11.127)"/>
                        </g>
                    </g>
                    <path id="prefix__Path-154" d="M23.778 88.636a6.968 6.968 0 0 0-2.6 7.774l1.665 5.271a7.833 7.833 0 0 0 7.469 5.473 7.639 7.639 0 0 0 7.337-5.513l1.589-5.487a7.059 7.059 0 0 0-2.423-7.518" class="prefix__cls-4" transform="translate(-7.31 -28.331)"/>
                    <path id="prefix__Path-155" d="M35 102.578a7.443 7.443 0 0 0 7.443 7.443h.513a7.956 7.956 0 0 0 7.956-7.956v-23.81a3.935 3.935 0 0 1 3.935-3.935" class="prefix__cls-4" transform="translate(-11.833 -23.755)"/>
                    <path id="prefix__Path-156" d="M30.477 113.912l-.4 1.608 2.43.81.973 2.429 1.379-.445-.279-2.186 1.746-.609-.51-1.608a9.776 9.776 0 0 1-2.758.423 8.045 8.045 0 0 1-2.581-.422z" class="prefix__cls-12" transform="translate(-10.258 -36.41)"/>
                    <path id="prefix__Path-158" d="M63.321 72.6l4.428-3.665v7.494z" class="prefix__cls-12" transform="translate(-20.885 -22.034)"/>
                    <rect id="prefix__Rectangle-4" width=".68" height="8.976" class="prefix__cls-6" data-name="Rectangle" rx=".34" transform="translate(46.266 46.076)"/>
                </g>
            </g>
            <g id="prefix__Group-12" transform="translate(276.966 50.523)">
                <path id="prefix__Rectangle-5" d="M9.067-.5h112.022a8.5 8.5 0 0 1 8.474 7.784l3.7 43.511a8.5 8.5 0 0 1-7.754 9.194q-.359.031-.72.031H12.765a8.5 8.5 0 0 1-8.474-7.784L.593 8.725A8.5 8.5 0 0 1 8.347-.469q.36-.031.72-.031z" class="prefix__cls-2" data-name="Rectangle" transform="translate(-.562 .5)"/>
                <g id="prefix__Group-5-2" data-name="Group-5" transform="translate(66.827 20.541)">
                    <path id="prefix__Path-159-4" d="M0 .44h41.305" class="prefix__cls-4" data-name="Path-159" transform="translate(0 -.44)"/>
                    <path id="prefix__Path-159-5" d="M1.76 13.633H28.7" class="prefix__cls-4" data-name="Path-159" transform="translate(-.562 -4.657)"/>
                    <path id="prefix__Path-159-6" d="M2.64 25.946h36.516" class="prefix__cls-4" data-name="Path-159" transform="translate(-.844 -8.592)"/>
                </g>
                <g id="prefix__Group-6" transform="translate(16.171 5.196)">
                    <g id="prefix__Group-2">
                        <path id="prefix__Path-153-2" d="M5.736 42.906a30.537 30.537 0 0 1 9.064-1.217 37.386 37.386 0 0 1 12.6 2.076 7.348 7.348 0 0 1 4.859 6.241l.59 6.317H1.1l-.5-5.768a7.348 7.348 0 0 1 5.136-7.649z" class="prefix__cls-9" data-name="Path-153" transform="translate(-.575 -13.394)"/>
                        <path id="prefix__Path-160" d="M25.208 41.689l1.223.824-2.7 13.811h-8.59l-2.2-13.811 1.932-.824z" class="prefix__cls-5" transform="translate(-4.526 -13.394)"/>
                        <path id="prefix__Path-161" d="M14.177 50.942l5.011-2.6 5.54 2.106 1.7-7.934-1.223-.824H13.713l-.776.824z" class="prefix__cls-3" transform="translate(-4.526 -13.394)"/>
                        <g id="prefix__Group-2-2" data-name="Group" transform="translate(6.593)">
                            <path id="prefix__Path-103-2" d="M4.378 21.788a20.8 20.8 0 0 1 .551 8.219c-.551 4.088-.551 5.673-1.442 6.326l4.661 5.8 3.844.489 4.543-6.289q-1.962-.877-1.962-5.535t.267-10.326z" class="prefix__cls-8" data-name="Path-103" transform="translate(-1.224 -6.612)"/>
                            <path id="prefix__Path-105-2" d="M1.921 14.605C-.374 11.07-1.086 4.4 3.911 2.935 4.25-2.091 15.62.081 17.066 5.437s-1.53 12.938-5.717 13.846-7.134-1.142-9.428-4.678z" class="prefix__cls-9" data-name="Path-105" transform="translate(-.16 -.101)"/>
                            <path id="prefix__Path-3" d="M15.531 25.343a58.172 58.172 0 0 0-.278 7.183 19.135 19.135 0 0 0 .278 2.591q-8.955-4.191-9.716-5.895a23.371 23.371 0 0 0-.142-3.28z" class="prefix__cls-10" data-name="Path" transform="translate(-1.922 -8.169)"/>
                            <path id="prefix__Path-4" d="M3.409 12.954C4.78 12.16 5.172 10.6 6.088 7.943c2.369 3.754 4.625 4.071 8.5 5-.252 6.8.436.645 1.138.721a1.563 1.563 0 0 1 .451-.066 1.642 1.642 0 0 1 0 3.283 1.572 1.572 0 0 1-1.071-.422c-1.3 3.848-4.022 8.788-7.085 8.326q-3.32-.5-5.211-8.439a1.567 1.567 0 0 1-.337.036 1.642 1.642 0 0 1 0-3.283c.062 0 .049 2.64.337 2.538q.29-.098.599-2.683z" class="prefix__cls-8" data-name="Path" transform="translate(-.388 -2.607)"/>
                            <path id="prefix__Path-123" d="M3.927 18.387a13.351 13.351 0 0 0 .742 4.593c.571 1.12 1.821 3.143 2.442 3.333.462-1.145 1.113-.971 2.744-.971q1.631 0 1.929.807A8.676 8.676 0 0 0 14 23.594a10.359 10.359 0 0 0 1.441-4.482l.358-.725.135 1.649q-.513 5.291-2.109 6.964c-1.6 1.674-6.108 3.163-8.317 0Q3.3 23.838 3.481 18.508z" class="prefix__cls-9" transform="translate(-1.217 -5.945)"/>
                            <path id="prefix__Path-124" d="M10.529 24.049a1.5 1.5 0 0 0-1.515-.119c-.906.343-1.5.841-1.2 1.049q.3.208 2.84-.451a6.769 6.769 0 0 0 2.943.248c.445-.248-1.232-.869-1.728-.99a2.159 2.159 0 0 0-1.34.263z" class="prefix__cls-9" transform="translate(-2.581 -7.662)"/>
                            <path id="prefix__Path-104-2" d="M11.486 17.293q.314 1.188-.889 4.339l1.264.448" class="prefix__cls-13" data-name="Path-104" transform="translate(-3.496 -5.596)"/>
                            <path id="prefix__Path-109-3" d="M14.52 15.2a2.765 2.765 0 0 1 2.838.255" class="prefix__cls-13" data-name="Path-109" transform="translate(-4.75 -4.836)"/>
                            <path id="prefix__Path-109-4" d="M0 .28a2.765 2.765 0 0 1 2.838.255" class="prefix__cls-13" data-name="Path-109" transform="rotate(-6 99.535 -33.27)"/>
                            <circle id="prefix__Oval-5" cx=".68" cy=".68" r=".68" class="prefix__cls-6" data-name="Oval" transform="translate(10.332 11.021)"/>
                            <circle id="prefix__Oval-6" cx=".68" cy=".68" r=".68" class="prefix__cls-6" data-name="Oval" transform="translate(4.994 11.021)"/>
                            <path id="prefix__Path-110-2" d="M10.025 25.989l2.714-.2q-.386 1.363-1.357 1.363t-1.357-1.163z" class="prefix__cls-5" data-name="Path-110" transform="translate(-3.314 -8.31)"/>
                            <path id="prefix__Path-107-3" d="M22.666 19.118l.89-.3" class="prefix__cls-13" data-name="Path-107" transform="translate(-7.354 -6.085)"/>
                            <path id="prefix__Path-107-4" d="M0 0l.89.3" class="prefix__cls-13" data-name="Path-107" transform="rotate(180 1.131 6.22)"/>
                            <path id="prefix__Path-108-2" d="M10.9 6.638a10.261 10.261 0 0 0 7.414 5.033" class="prefix__cls-14" data-name="Path-108" transform="translate(-3.592 -2.19)"/>
                        </g>
                        <path id="prefix__Path-2-2" d="M19.752 52.309l4.179.092 1.185.821-1.863 2.3h-2.589l-2.382-2.3z" class="prefix__cls-9" data-name="Path-2" transform="translate(-6.234 -16.788)"/>
                        <path id="prefix__Path-3-2" d="M21.262 57.028l-1.109 4.2H24.4l-.553-4.2z" class="prefix__cls-9" data-name="Path-3" transform="translate(-6.832 -18.296)"/>
                    </g>
                    <path id="prefix__Path-162" d="M36.156 44.009l1.131 6.56-3.21 1.115 2.63 3.282-1.556 2.1" class="prefix__cls-14" transform="translate(-11.283 -14.135)"/>
                    <path id="prefix__Path-162-2" d="M2.078 13.655L3.21 6.794 0 5.628 2.63 2.2 1.074 0" class="prefix__cls-14" data-name="Path-162" transform="rotate(180 4.022 21.465)"/>
                </g>
            </g>
            <path id="prefix__Rectangle-6" d="M549.575 31h25.514a20.071 20.071 0 0 1 20.071 20.071 20.071 20.071 0 0 1-20.071 20.071h-65.656A40.142 40.142 0 0 1 549.575 31z" data-name="Rectangle" transform="translate(-163.451 -9.909)" style="stroke-width:.8px;fill:none;stroke-linecap:round;stroke:#18233d;fill-rule:evenodd"/>
            <g id="prefix__Group-3" transform="translate(367.754 37.42)">
                <ellipse id="prefix__Oval-7" cx="3.823" cy="3.742" class="prefix__cls-6" data-name="Oval" rx="3.823" ry="3.742"/>
                <ellipse id="prefix__Oval-8" cx="3.823" cy="3.742" class="prefix__cls-6" data-name="Oval" rx="3.823" ry="3.742" transform="translate(16.929)"/>
                <ellipse id="prefix__Oval-9" cx="3.823" cy="3.742" class="prefix__cls-6" data-name="Oval" rx="3.823" ry="3.742" transform="translate(33.857)"/>
            </g>
            <path id="prefix__Rectangle-7" d="M215.89 173.645h112.021a8.5 8.5 0 0 1 8.474 7.784l3.7 43.511a8.5 8.5 0 0 1-7.754 9.194q-.359.031-.72.031H219.588a8.5 8.5 0 0 1-8.474-7.784l-3.7-43.511a8.5 8.5 0 0 1 7.754-9.194q.361-.031.722-.031z" class="prefix__cls-2" data-name="Rectangle" transform="translate(-66.906 -55.503)"/>
            <g id="prefix__Group-5-3" data-name="Group-5" transform="translate(210.734 136.126)">
                <path id="prefix__Path-159-7" d="M0 .44h41.305" class="prefix__cls-4" data-name="Path-159" transform="translate(0 -.44)"/>
                <path id="prefix__Path-159-8" d="M1.76 13.633H28.7" class="prefix__cls-4" data-name="Path-159" transform="translate(-.562 -4.657)"/>
                <path id="prefix__Path-159-9" d="M2.64 25.946h36.516" class="prefix__cls-4" data-name="Path-159" transform="translate(-.844 -8.592)"/>
            </g>
            <g id="prefix__Group-10" transform="translate(159.12 130.434)">
                <path id="prefix__Path-153-3" d="M3.378 38.473A22.536 22.536 0 0 1 11.99 37a29.31 29.31 0 0 1 11.056 2.054 4.9 4.9 0 0 1 3.048 4.1l.552 6.091H.857l-.49-5.836a4.9 4.9 0 0 1 3.011-4.936z" class="prefix__cls-9" data-name="Path-153" transform="translate(-.35 -12.311)"/>
                <g id="prefix__Group-8-2" data-name="Group-8" transform="translate(3.459)">
                    <g id="prefix__Group-3-2" data-name="Group">
                        <path id="prefix__Path-105-3" d="M1.332 21.843C-.48 18.92.408 4.948 4.354 3.734c4.212-5.21 9.9-2.992 11.04 1.436s1.458 17.837-1.849 18.588-10.401 1.007-12.213-1.915z" class="prefix__cls-9" data-name="Path-105" transform="translate(-.433 -.712)"/>
                        <path id="prefix__Path-103-3" d="M6.28 21.578a17.976 17.976 0 0 1 .435 6.794c-.435 3.38-1.036 4.167-1.962 4.58l5 9.21 5.308-9.455q-2.62-.189-2.62-4.04a77.578 77.578 0 0 1 .522-8.532z" class="prefix__cls-8" data-name="Path-103" transform="translate(-1.814 -6.921)"/>
                        <path id="prefix__Path-157-2" d="M6.753 42.534q2.679 2.047 7.509 0l-3.873 6.788z" class="prefix__cls-3" data-name="Path-157" transform="translate(-2.453 -14.08)"/>
                        <path id="prefix__Path-5" d="M13.688 24.225c-.061.5-.134 1.642-.256 3.653a14.489 14.489 0 0 0 .1 3.653Q8.379 29.1 7.778 27.693a19.69 19.69 0 0 0-.088-2.661z" class="prefix__cls-10" data-name="Path" transform="translate(-2.753 -8.228)"/>
                        <path id="prefix__Path-6" d="M4.1 13.619q1.625-.985 2.71-4.274c-.422 2.166 4.178 4.343 7.61 4.732a1.183 1.183 0 0 1 .356-.055 1.36 1.36 0 0 1 0 2.714 1.212 1.212 0 0 1-.846-.349c-1.024 3.181-3.176 7.265-5.595 6.882q-2.622-.414-4.115-6.977a1.185 1.185 0 0 1-.266.03 1.36 1.36 0 0 1 0-2.714 1.19 1.19 0 0 1 .146.009z" class="prefix__cls-8" data-name="Path" transform="translate(-1.154 -3.472)"/>
                        <path id="prefix__Path-104-3" d="M11.07 17.074a7.372 7.372 0 0 1-.7 3.587l1 .37" class="prefix__cls-16" data-name="Path-104" transform="translate(-3.609 -5.942)"/>
                        <path id="prefix__Path-109-5" d="M13.466 15.34a2.1 2.1 0 0 1 2.241.211" class="prefix__cls-16" data-name="Path-109" transform="translate(-4.599 -5.314)"/>
                        <path id="prefix__Path-109-6" d="M0 .236a2.1 2.1 0 0 1 2.242.2" class="prefix__cls-16" data-name="Path-109" transform="rotate(-6 96.701 -36.328)"/>
                        <circle id="prefix__Oval-10" cx=".68" cy=".68" r=".68" class="prefix__cls-6" data-name="Oval" transform="translate(9.168 10.455)"/>
                        <circle id="prefix__Oval-11" cx=".68" cy=".68" r=".68" class="prefix__cls-6" data-name="Oval" transform="translate(4.952 10.455)"/>
                        <path id="prefix__Path-110-3" d="M9.917 24.262l2.143-.169q-.3 1.127-1.072 1.127t-1.071-.958z" class="prefix__cls-5" data-name="Path-110" transform="translate(-3.465 -8.185)"/>
                        <path id="prefix__Path-107-5" d="M19.9 18.583l.7-.245" class="prefix__cls-16" data-name="Path-107" transform="translate(-6.655 -6.346)"/>
                        <path id="prefix__Path-107-6" d="M0 0l.7.245" class="prefix__cls-16" data-name="Path-107" transform="rotate(180 1.47 5.873)"/>
                        <path id="prefix__Path-108-3" d="M10.605 8.266a8.11 8.11 0 0 0 5.855 4.16" data-name="Path-108" transform="translate(-3.685 -3.127)" style="stroke-width:.5px;stroke:#fff;fill:none;stroke-linecap:round;fill-rule:evenodd"/>
                    </g>
                </g>
            </g>
            <path id="prefix__Rectangle-8" d="M428.817 216.741h112.021a8.5 8.5 0 0 1 8.474 7.784l3.7 43.511a8.5 8.5 0 0 1-7.754 9.194q-.359.03-.72.031H432.515a8.5 8.5 0 0 1-8.474-7.784l-3.7-43.511a8.5 8.5 0 0 1 7.754-9.194q.361-.031.722-.031z" class="prefix__cls-2" data-name="Rectangle" transform="translate(-134.965 -69.278)"/>
            <g id="prefix__Group-9" transform="translate(294.068 112.354)">
                <path id="prefix__Rectangle-9" d="M9.227 35.34h112.021a8.164 8.164 0 0 1 8.135 7.473l3.7 43.511a8.164 8.164 0 0 1-7.444 8.826q-.345.029-.691.029H12.925a8.164 8.164 0 0 1-8.135-7.473L1.092 44.2a8.164 8.164 0 0 1 7.444-8.826q.345-.034.691-.034z" data-name="Rectangle" transform="translate(-1.062 -11.859)" style="fill:#0acc94;fill-rule:evenodd"/>
                <g id="prefix__Group-5-4" data-name="Group-5" transform="translate(69.48 37.697)">
                    <path id="prefix__Path-159-10" d="M0 .44h41.305" class="prefix__cls-11" data-name="Path-159" transform="translate(0 -.44)"/>
                    <path id="prefix__Path-159-11" d="M1.76 13.633H28.7" class="prefix__cls-11" data-name="Path-159" transform="translate(-.562 -4.657)"/>
                    <path id="prefix__Path-159-12" d="M2.64 25.946h36.516" class="prefix__cls-11" data-name="Path-159" transform="translate(-.844 -8.592)"/>
                </g>
                <path id="prefix__Path-153-4" d="M20.1 82.207A50.256 50.256 0 0 1 35.052 80.2a61.465 61.465 0 0 1 20.79 3.444 12.247 12.247 0 0 1 8.082 10.4l.978 10.542H12.379l-.828-9.642A12.247 12.247 0 0 1 20.1 82.207z" class="prefix__cls-5" data-name="Path-153" transform="translate(-4.401 -26.196)"/>
                <g id="prefix__Group-4" data-name="Group" transform="translate(21.008 7.439)">
                    <path id="prefix__Path-103-4" d="M7.244 36.313a34.915 34.915 0 0 1 .912 13.7c-.912 6.814-.912 9.455-2.386 10.544q5.546 6 11.04 6t10.55-6q-3.246-1.462-3.246-9.225t.442-17.21z" class="prefix__cls-8" data-name="Path-103" transform="translate(-2.025 -11.02)"/>
                    <path id="prefix__Path-105-4" d="M3.178 24.342C-.618 18.45-1.8 7.34 6.47 4.891c.562-8.377 19.374-4.756 21.767 4.17s-2.531 21.564-9.459 23.077-11.803-1.904-15.6-7.796z" class="prefix__cls-9" data-name="Path-105" transform="translate(-.265 -.168)"/>
                    <path id="prefix__Path-7" d="M25.7 42.238a97.658 97.658 0 0 0-.46 11.971 32.118 32.118 0 0 0 .46 4.318Q10.881 51.541 9.621 48.7a39.235 39.235 0 0 0-.236-5.466z" class="prefix__cls-10" data-name="Path" transform="translate(-3.18 -13.615)"/>
                    <path id="prefix__Path-8" d="M5.64 21.59c2.269-1.324 2.917-3.931 4.433-8.351 3.919 6.257 7.653 6.785 14.061 8.34-.416 11.329.721 1.074 1.883 1.2a2.569 2.569 0 0 1 .746-.11 2.737 2.737 0 0 1 0 5.471 2.59 2.59 0 0 1-1.772-.7c-2.145 6.414-6.655 14.646-11.722 13.876q-5.494-.835-8.622-14.066a2.575 2.575 0 0 1-.558.061 2.737 2.737 0 0 1 0-5.471c.1 0 .081 4.4.558 4.231q.477-.171.993-4.481z" class="prefix__cls-8" data-name="Path" transform="translate(-.642 -4.346)"/>
                    <path id="prefix__Path-104-4" d="M19 28.822q.519 1.98-1.471 7.231l2.091.746" class="prefix__cls-4" data-name="Path-104" transform="translate(-5.784 -9.327)"/>
                    <path id="prefix__Path-109-7" d="M24.024 25.325a4.547 4.547 0 0 1 4.7.424" class="prefix__cls-4" data-name="Path-109" transform="translate(-7.859 -8.06)"/>
                    <path id="prefix__Path-109-8" d="M0 .468A4.547 4.547 0 0 1 4.7.89" class="prefix__cls-4" data-name="Path-109" transform="rotate(-6 165.86 -54.974)"/>
                    <ellipse id="prefix__Oval-12" cx=".736" cy=".74" class="prefix__cls-6" data-name="Oval" rx=".736" ry=".74" transform="translate(17.484 18.761)"/>
                    <ellipse id="prefix__Oval-13" cx=".736" cy=".74" class="prefix__cls-6" data-name="Oval" rx=".736" ry=".74" transform="translate(8.652 18.761)"/>
                    <path id="prefix__Path-110-4" d="M16.588 43.314l4.491-.341q-.638 2.272-2.245 2.272t-2.246-1.931z" class="prefix__cls-5" data-name="Path-110" transform="translate(-5.483 -13.85)"/>
                    <path id="prefix__Path-107-7" d="M37.5 31.863l1.472-.493" class="prefix__cls-4" data-name="Path-107" transform="translate(-12.168 -10.141)"/>
                    <path id="prefix__Path-107-8" d="M0 0l1.472.493" class="prefix__cls-4" data-name="Path-107" transform="rotate(180 1.872 10.367)"/>
                    <path id="prefix__Path-108-4" d="M18.03 11.063q3.905 6.817 12.267 8.388" class="prefix__cls-11" data-name="Path-108" transform="translate(-5.944 -3.65)"/>
                </g>
                <g id="prefix__Group-3-3" data-name="Group-3" transform="rotate(-9 41.2 -97.547)">
                    <path id="prefix__Path-9" d="M17.621 2.37V0H15.9v2.369C0 2.6 0 9.26 0 9.26c0 4.091 3.062 4.5 5.157 4.338 2.944-.231 8.383 1.778 11.23 1.778s9.034-2.009 11.978-1.778c2.1.164 5.157.938 5.157-3.153.001-.001 0-7.803-15.901-8.075z" class="prefix__cls-19" data-name="Path"/>
                    <path id="prefix__Path-10" d="M14.034.911A122.435 122.435 0 0 0 28.734 0l-.218 3.917a67.531 67.531 0 0 1-14.8 2.137A50.286 50.286 0 0 1 .218 3.917L0 0a104.6 104.6 0 0 0 14.034.911z" class="prefix__cls-20" data-name="Path" transform="translate(2.594 12.948)"/>
                </g>
                <g id="prefix__Group-4-2" data-name="Group-4" transform="translate(.733 66.823)">
                    <path id="prefix__Path-11" d="M31.609 11.027a1.378 1.378 0 0 0-.16.282c-.5 1.117-.106 2.493 1.985 4.06a4.931 4.931 0 0 1 1.3 6.507c-1.362 2.469-4.417 4.033-8.506 4.033A52.251 52.251 0 0 1 9.69 23.41C3.226 21.132-.5 17.437-.5 12.156c0-5.389 5.328-9.4 13.784-11.407C20.8-1.037 29.681-.9 35.229 1.1c4.755 1.715 4.083 6.042-.539 7.885-.113.04-.316.122-.58.245a9.384 9.384 0 0 0-1.291.722 5.431 5.431 0 0 0-1.21 1.075z" class="prefix__cls-2" data-name="Path" transform="translate(.5 .5)"/>
                    <path id="prefix__Path-12" d="M35.195 4.434a1.868 1.868 0 0 0 1.934 1.8h1.381a1.873 1.873 0 0 0 1.99 1.789 1.909 1.909 0 0 0 1.875-1.87V4.69a2.136 2.136 0 0 0-2.21-2.052h-3.036a1.868 1.868 0 0 0-1.934 1.8z" data-name="Path" transform="translate(-10.909 -.503)" style="fill:#ffd3b3"/>
                    <ellipse id="prefix__Oval-14" cx="3.292" cy="1.496" data-name="Oval" rx="3.292" ry="1.496" transform="translate(14.707 2.734)" style="fill:#ffe352"/>
                    <ellipse id="prefix__Oval-15" cx="3.292" cy="1.496" class="prefix__cls-19" data-name="Oval" rx="3.292" ry="1.496" transform="translate(7.524 5.127)"/>
                    <ellipse id="prefix__Oval-16" cx="3.292" cy="1.496" data-name="Oval" rx="3.292" ry="1.496" transform="translate(2.136 10.513)" style="fill:#98ca69"/>
                    <ellipse id="prefix__Oval-17" cx="3.292" cy="1.496" data-name="Oval" rx="3.292" ry="1.496" transform="translate(8.122 15.898)" style="fill:#80d6fb"/>
                    <ellipse id="prefix__Oval-18" cx="3.292" cy="1.496" class="prefix__cls-20" data-name="Oval" rx="3.292" ry="1.496" transform="translate(18.299 19.489)"/>
                </g>
            </g>
            <g id="prefix__Group-5-5" data-name="Group" transform="translate(343.032 158.574)">
                <path id="prefix__Path-88" d="M49.894 139.426l-6.045-23.1A59.872 59.872 0 0 0 32.67 94.063l-9.262-11.572a23.813 23.813 0 0 1-4.581-20.367l2.039-8.611L.375 6.264A4.533 4.533 0 0 1 2.1.64 4.071 4.071 0 0 1 7.6 1.7l23.743 33.24A7.912 7.912 0 0 1 44.7 33.11l3.439 4.19a6.8 6.8 0 0 1 11.229-.848l4.824 6.08a9 9 0 0 1 10.02 4.591l.478.914a35.942 35.942 0 0 1 4.061 15.085L80.1 93.894l22.86 45.532z" class="prefix__cls-25" transform="translate(-.001)"/>
                <path id="prefix__Path-95" d="M37.017 93.845l3.955 6.853-3.672-1.962a9.525 9.525 0 0 1-4.963-7.223L30.8 79.157z" class="prefix__cls-26" transform="translate(-9.844 -25.301)"/>
                <path id="prefix__Path-89" d="M30.8 79.157l6.585 14.96" class="prefix__cls-4" transform="translate(-9.844 -25.301)"/>
                <path id="prefix__Path-90" d="M36.954 91.47v2.721a5.443 5.443 0 0 0 1.924 4.153l1.069.905z" class="prefix__cls-9" transform="translate(-11.812 -29.237)"/>
                <path id="prefix__Path-91" d="M45.753 51.012l6.585 11.968" class="prefix__cls-4" transform="translate(-14.625 -16.305)"/>
                <path id="prefix__Path-92" d="M70.389 54.53l3.237 5.806" class="prefix__cls-4" transform="translate(-22.499 -17.43)"/>
                <path id="prefix__Path-92-2" d="M93.266 61.566l3.234 5.806" class="prefix__cls-4" data-name="Path-92" transform="translate(-29.811 -19.679)"/>
            </g>
            <path id="prefix__Rectangle-10" d="M223.809 286.223H335.83a8.5 8.5 0 0 1 8.474 7.784l3.7 43.511a8.5 8.5 0 0 1-7.754 9.194q-.359.031-.72.031H227.506a8.5 8.5 0 0 1-8.474-7.784l-3.7-43.511a8.5 8.5 0 0 1 7.754-9.194q.362-.031.723-.031z" class="prefix__cls-2" data-name="Rectangle" transform="translate(-69.437 -91.487)"/>
            <g id="prefix__Group-5-6" data-name="Group-5" transform="translate(214.524 213.941)">
                <path id="prefix__Path-159-13" d="M0 .44h41.305" class="prefix__cls-4" data-name="Path-159" transform="translate(0 -.44)"/>
                <path id="prefix__Path-159-14" d="M1.76 13.633H28.7" class="prefix__cls-4" data-name="Path-159" transform="translate(-.562 -4.657)"/>
                <path id="prefix__Path-159-15" d="M2.64 25.946h36.516" class="prefix__cls-4" data-name="Path-159" transform="translate(-.844 -8.592)"/>
            </g>
            <g id="prefix__Group-6-2" data-name="Group-6" transform="translate(163.868 198.596)">
                <g id="prefix__Group-2-3" data-name="Group-2">
                    <path id="prefix__Path-153-5" d="M5.736 42.906a30.537 30.537 0 0 1 9.064-1.217 37.386 37.386 0 0 1 12.6 2.076 7.348 7.348 0 0 1 4.859 6.241l.59 6.317H1.1l-.5-5.768a7.348 7.348 0 0 1 5.136-7.649z" class="prefix__cls-9" data-name="Path-153" transform="translate(-.575 -13.394)"/>
                    <path id="prefix__Path-160-2" d="M25.208 41.689l1.223.824-2.7 13.811h-8.59l-2.2-13.811 1.932-.824z" class="prefix__cls-5" data-name="Path-160" transform="translate(-4.526 -13.394)"/>
                    <path id="prefix__Path-161-2" d="M14.177 50.942l5.011-2.6 5.54 2.106 1.7-7.934-1.223-.824H13.713l-.776.824z" class="prefix__cls-3" data-name="Path-161" transform="translate(-4.526 -13.394)"/>
                    <g id="prefix__Group-6-3" data-name="Group" transform="translate(6.593)">
                        <path id="prefix__Path-103-5" d="M4.378 21.788a20.8 20.8 0 0 1 .551 8.219c-.551 4.088-.551 5.673-1.442 6.326l4.661 5.8 3.844.489 4.543-6.289q-1.962-.877-1.962-5.535t.267-10.326z" class="prefix__cls-8" data-name="Path-103" transform="translate(-1.224 -6.612)"/>
                        <path id="prefix__Path-105-5" d="M1.921 14.605C-.374 11.07-1.086 4.4 3.911 2.935 4.25-2.091 15.62.081 17.066 5.437s-1.53 12.938-5.717 13.846-7.134-1.142-9.428-4.678z" class="prefix__cls-9" data-name="Path-105" transform="translate(-.16 -.101)"/>
                        <path id="prefix__Path-13" d="M15.531 25.343a58.172 58.172 0 0 0-.278 7.183 19.135 19.135 0 0 0 .278 2.591q-8.955-4.191-9.716-5.895a23.371 23.371 0 0 0-.142-3.28z" class="prefix__cls-10" data-name="Path" transform="translate(-1.922 -8.169)"/>
                        <path id="prefix__Path-14" d="M3.409 12.954C4.78 12.16 5.172 10.6 6.088 7.943c2.369 3.754 4.625 4.071 8.5 5-.252 6.8.436.645 1.138.721a1.563 1.563 0 0 1 .451-.066 1.642 1.642 0 0 1 0 3.283 1.572 1.572 0 0 1-1.071-.422c-1.3 3.848-4.022 8.788-7.085 8.326q-3.32-.5-5.211-8.439a1.567 1.567 0 0 1-.337.036 1.642 1.642 0 0 1 0-3.283c.062 0 .049 2.64.337 2.538q.29-.098.599-2.683z" class="prefix__cls-8" data-name="Path" transform="translate(-.388 -2.607)"/>
                        <path id="prefix__Path-124-2" d="M10.529 24.049a1.5 1.5 0 0 0-1.515-.119c-.906.343-1.5.841-1.2 1.049q.3.208 2.84-.451a6.769 6.769 0 0 0 2.943.248c.445-.248-1.232-.869-1.728-.99a2.159 2.159 0 0 0-1.34.263z" class="prefix__cls-9" data-name="Path-124" transform="translate(-2.581 -7.662)"/>
                        <path id="prefix__Path-104-5" d="M11.486 17.293q.314 1.188-.889 4.339l1.264.448" class="prefix__cls-13" data-name="Path-104" transform="translate(-3.496 -5.596)"/>
                        <path id="prefix__Path-109-9" d="M14.52 15.2a2.765 2.765 0 0 1 2.838.255" class="prefix__cls-13" data-name="Path-109" transform="translate(-4.75 -4.836)"/>
                        <path id="prefix__Path-109-10" d="M0 .28a2.765 2.765 0 0 1 2.838.255" class="prefix__cls-13" data-name="Path-109" transform="rotate(-6 99.535 -33.27)"/>
                        <circle id="prefix__Oval-19" cx=".68" cy=".68" r=".68" class="prefix__cls-6" data-name="Oval" transform="translate(10.332 11.021)"/>
                        <circle id="prefix__Oval-20" cx=".68" cy=".68" r=".68" class="prefix__cls-6" data-name="Oval" transform="translate(4.994 11.021)"/>
                        <path id="prefix__Path-110-5" d="M10.025 25.989l2.714-.2q-.386 1.363-1.357 1.363t-1.357-1.163z" class="prefix__cls-5" data-name="Path-110" transform="translate(-3.314 -8.31)"/>
                        <path id="prefix__Path-107-9" d="M22.666 19.118l.89-.3" class="prefix__cls-13" data-name="Path-107" transform="translate(-7.354 -6.085)"/>
                        <path id="prefix__Path-107-10" d="M0 0l.89.3" class="prefix__cls-13" data-name="Path-107" transform="rotate(180 1.131 6.22)"/>
                        <path id="prefix__Path-108-5" d="M10.9 6.638a10.261 10.261 0 0 0 7.414 5.033" class="prefix__cls-14" data-name="Path-108" transform="translate(-3.592 -2.19)"/>
                    </g>
                    <path id="prefix__Path-2-3" d="M19.752 52.309l4.179.092 1.185.821-1.863 2.3h-2.589l-2.382-2.3z" class="prefix__cls-9" data-name="Path-2" transform="translate(-6.234 -16.788)"/>
                    <path id="prefix__Path-3-3" d="M21.262 57.028l-1.109 4.2H24.4l-.553-4.2z" class="prefix__cls-9" data-name="Path-3" transform="translate(-6.832 -18.296)"/>
                </g>
                <path id="prefix__Path-162-3" d="M36.156 44.009l1.131 6.56-3.21 1.115 2.63 3.282-1.556 2.1" class="prefix__cls-14" data-name="Path-162" transform="translate(-11.283 -14.135)"/>
                <path id="prefix__Path-162-4" d="M2.078 13.655L3.21 6.794 0 5.628 2.63 2.2 1.074 0" class="prefix__cls-14" data-name="Path-162" transform="rotate(180 4.022 21.465)"/>
            </g>
            <g id="prefix__Group-7-2" data-name="Group" transform="rotate(180 78.613 149)">
                <path id="prefix__Path-88-2" d="M83.474 0l-39.55 98.974a59.872 59.872 0 0 1-8.854 15.2l-11.663 14.568a23.813 23.813 0 0 0-4.581 20.367l2.039 8.611-20.49 47.249a4.533 4.533 0 0 0 1.72 5.624 4.071 4.071 0 0 0 5.5-1.065l23.745-33.235a7.912 7.912 0 0 0 13.355 1.83l3.441-4.191a6.8 6.8 0 0 0 11.229.848l4.824-6.08a9 9 0 0 0 10.02-4.591l.478-.914a38.653 38.653 0 0 0 4.3-15.071l3.022-40.894L146.664 0z" class="prefix__cls-25" data-name="Path-88" transform="translate(0 13.165)"/>
                <path id="prefix__Path-163" d="M41.21 1.025Q81.8-5.493 93.772 29.43L81.893 77.518 0 77.158z" class="prefix__cls-3" transform="rotate(180 78.613 38.759)"/>
                <path id="prefix__Path-95-2" d="M6.222 6.853L10.177 0 6.5 1.963a9.525 9.525 0 0 0-4.959 7.222L0 21.542z" class="prefix__cls-26" data-name="Path-95" transform="translate(20.952 149)"/>
                <path id="prefix__Path-89-2" d="M0 14.96L6.585 0" class="prefix__cls-4" data-name="Path-89" transform="translate(20.952 155.582)"/>
                <path id="prefix__Path-90-2" d="M0 7.779V5.058A5.443 5.443 0 0 1 1.924.905L2.993 0z" class="prefix__cls-9" data-name="Path-90" transform="translate(25.142 154.386)"/>
                <path id="prefix__Path-91-2" d="M0 11.968L6.585 0" class="prefix__cls-4" data-name="Path-91" transform="translate(31.128 177.723)"/>
                <path id="prefix__Path-92-3" d="M0 5.806L3.237 0" class="prefix__cls-4" data-name="Path-92" transform="translate(47.89 181.492)"/>
                <path id="prefix__Path-92-4" d="M0 5.806L3.237 0" class="prefix__cls-4" data-name="Path-92" transform="translate(63.454 176.705)"/>
            </g>
        </g>
    </g>
</svg>
