<?xml version="1.0" encoding="UTF-8"?>
<svg width="106px" height="88px" viewBox="0 0 106 88" version="1.1" xmlns="http://www.w3.org/2000/svg" xmlns:xlink="http://www.w3.org/1999/xlink">
    <!-- Generator: Sketch 59.1 (86144) - https://sketch.com -->
    <title>Clients</title>
    <desc>Created with Sketch.</desc>
    <g id="Page-1" stroke="none" stroke-width="1" fill="none" fill-rule="evenodd">
        <g id="01-HomePage-02" transform="translate(-947.000000, -1539.000000)">
            <g id="Clients" transform="translate(947.000000, 1539.000000)">
                <path d="M14.4284748,80.356257 L15,80.4915445 L14.4284748,80.643743 C11.0889415,81.4723788 8.47987825,84.0935738 7.6411904,87.4250282 L7.49915455,88 L7.3571187,87.4250282 C6.51843084,84.0935738 3.9093676,81.4723788 0.571525194,80.643743 L0,80.4915445 L0.571525194,80.356257 C3.9093676,79.5107103 6.51843084,76.9064262 7.3571187,73.5749718 L7.49915455,73 L7.6411904,73.5749718 C8.47987825,76.9064262 11.0889415,79.5107103 14.4284748,80.356257" id="Fill-3209" fill="#FFBE1B"></path>
                <path d="M22.505848,13.3842239 L23,13.5 L22.505848,13.6323155 C19.6103483,14.3600509 17.3494788,16.6094148 16.6239512,19.5203562 L16.5016527,20 L16.3743961,19.5203562 C15.6488685,16.6094148 13.3896517,14.3600509 10.494152,13.6323155 L10,13.5 L10.494152,13.3842239 C13.3896517,12.6564885 15.6488685,10.3905852 16.3743961,7.49618321 L16.5016527,7 L16.6239512,7.49618321 C17.3494788,10.3905852 19.6103483,12.6564885 22.505848,13.3842239" id="Fill-3210" fill="#330D84"></path>
                <path d="M105.354232,41.8258065 L106,42.0082949 L105.354232,42.1741935 C101.567398,43.1695853 98.6097179,46.3050691 97.6598746,50.3198157 L97.5,51 L97.3354232,50.3198157 C96.3887147,46.3050691 93.4326019,43.1695853 89.645768,42.1741935 L89,42.0082949 L89.645768,41.8258065 C93.4326019,40.8304147 96.3887147,37.6949309 97.3354232,33.6967742 L97.5,33 L97.6598746,33.6967742 C98.6097179,37.6949309 101.567398,40.8304147 105.354232,41.8258065" id="Fill-3211" fill="#5D8EF9"></path>
                <path d="M90.6206089,26.90625 L91,27 L90.6206089,27.09375 C88.392662,27.65625 86.6533958,29.390625 86.0944575,31.625 L86.0007806,32 L85.90242,31.625 C85.3450429,29.390625 83.607338,27.65625 81.3809524,27.09375 L81,27 L81.3809524,26.90625 C83.607338,26.34375 85.3450429,24.609375 85.90242,22.375 L86.0007806,22 L86.0944575,22.375 C86.6533958,24.609375 88.392662,26.34375 90.6206089,26.90625" id="Fill-3212" fill="#5D8EF9"></path>
                <path d="M76.9657803,29.3514619 C76.6608475,29.0685848 76.3233491,28.9853857 75.9888112,29.0020255 C75.427794,33.5446984 75.0355261,35.32516 75.0355261,35.32516 C75.0355261,35.32516 75.0207236,35.2586007 75,35.1754015 C75.0458879,36.6064267 75.0828943,37.9043332 75.109539,38.9692822 C75.3685838,39.0192017 75.6409509,39.0192017 75.8970353,38.8860831 C76.7511431,38.4035281 77.5356789,34.6262872 77.8213683,33.4115798 C78.1055775,32.1968724 78.1943929,30.4663304 76.9657803,29.3514619" id="Fill-3213" fill="#F4B831"></path>
                <path d="M38.9296883,38.0960587 C38.9296883,38.0960587 38.0679962,34.3379065 37.7613175,31.8601866 C37.7119498,31.4610908 37.3155115,30.3968353 36.8547456,29 C36.5749948,29.016629 36.2997321,29.1164029 36.0469092,29.3492088 C34.8037388,30.4633513 34.8920024,32.1927665 35.1822251,33.4066829 C35.4694558,34.6205993 36.2608362,38.3953805 37.1255204,38.8776213 C37.8076933,39.2434591 38.6185217,38.6947024 38.9341763,38.4618965 C38.9341763,38.3122356 38.9356723,38.1792036 38.9356723,38.0295427 C38.9476402,37.9630267 38.9715761,37.7801078 39,37.530673 C38.9566162,37.8965108 38.9296883,38.0960587 38.9296883,38.0960587" id="Fill-3214" fill="#F4B831"></path>
                <path d="M74.9210322,27.4445481 C74.9636662,25.3096562 75.1883145,22.8463194 74.9423492,21.2697838 C74.6947441,19.7096705 73.87322,17.1642225 71.9842064,17 C71.9842064,17 63.5639941,26.4427911 45.5134202,25.2603895 C43.7621472,25.1454337 42.2060067,24.8662556 40.8171226,24.4721217 C39.0953655,25.8023236 38.4788125,27.4938148 38.5263658,28.8897057 C38.6854233,33.5536234 38.085268,37.7248737 38.0065591,38.2339633 C38.0016398,39.0058089 38,39.7283877 38,40.4016997 C38,45.2134177 40.9532234,48.317222 45.3363252,51.6673601 C47.7812203,53.5394961 51.2968844,55.4608988 53.5286096,56.5119225 C55.0880297,57.2345013 59.6744628,57.0867011 60.9321654,56.5119225 C63.288513,55.4116321 65.6694572,54.2949194 68.1504272,52.3406722 C72.2186934,49.1547566 76,45.5582848 76,41.5019902 C76,40.483811 75.9327695,38.2175411 75.8343834,35.4093371 C75.64581,34.6867583 74.8439631,31.385887 74.9210322,27.4445481" id="Fill-3215" fill="#FFE37B"></path>
                <path d="M65.9211426,56.0824176 C65.7712857,55.3241758 65.5328845,54.7252747 65.454834,54 C63.7861149,55.1208791 61.4603195,55.8123068 59.8415527,56.6035156 C58.6442585,57.1804387 54.1712774,56.8076923 52.6867574,56.0824176 C51.2412627,55.3571429 49.2306825,54.2362637 47.3605932,53 C47.2887867,53.7087912 47.162345,54.8626374 47,55.7527473 L56.5,62.668457 L65.454834,56.6035156 L65.9211426,56.0824176 Z" id="Fill-3216" fill="#FFBE1B"></path>
                <path d="M76.0792727,8.27148341 C74.0097413,5.71152781 71.421604,4.40677625 68.5578552,4.77012478 C66.3790578,1.89636818 62.928208,-0.283723037 57.4469668,0.0300779717 C48.8328889,0.542069091 48.7366696,5.11695748 42.1480905,7.11537443 C35.5578806,9.13030722 32.9077714,3.8452376 30.2609239,5.66198028 C27.6157073,7.47872296 29.1764177,14.3658293 34.5288228,20.063795 C34.0836045,24.7708101 37.0566192,30.6999976 37.2066562,31.806559 C37.5409776,34.2674196 38.4803394,38 38.4803394,38 C38.4803394,38 39.1734449,33.5407225 39.0038379,28.5364222 C38.9565436,27.1325756 39.5697381,25.4314438 41.2821164,24.0936606 C42.6634348,24.4900408 44.2110985,24.7708101 45.9528318,24.886421 C63.905079,26.0755617 72.2794239,16.5789522 72.2794239,16.5789522 C74.1581475,16.7441106 74.9751965,19.3040662 75.2214528,20.8730713 C75.4660783,22.4585922 75.2426537,24.9359685 75.2002519,27.0830281 C75.1138176,31.5588214 76.1477679,35.2418543 76.1477679,35.2418543 C76.1477679,35.2418543 76.6370188,33.2434373 77.3170776,28.0739786 C77.7068475,25.101127 81.5702989,15.0429789 76.0792727,8.27148341" id="Fill-3217" fill="#330D84"></path>
                <path d="M82.534301,63.7099799 L72.3412158,60.5117214 L67.1495162,58.1339585 C67.312412,58.8539853 67.2882195,59.4735432 67.2882195,59.4735432 C67.2882195,59.4735432 62.4513425,68.8841259 62.2787697,68.3315472 C61.043342,64.4132619 57.0806188,62.6718017 56.6903139,62.5043537 C56.1887238,62.738781 52.4872791,64.4969859 51.1776612,68.2813128 C50.9921857,68.8338915 46.1327291,59.3898192 46.1327291,59.3898192 C46.1327291,59.3898192 46.1085366,58.7200268 46.2859479,58 L41.1506974,60.4782317 L30.5302122,63.7434695 C24.878856,65.4849297 21,70.8600134 21,76.9886135 L21,83 L92,83 L92,76.9383791 C92,70.8432686 88.1534006,65.4681849 82.534301,63.7099799" id="Fill-3218" fill="#5D8EF9"></path>
                <path d="M48,83 L44.2086322,59 L40.8364107,60.6454294 L30.3815712,63.8864266 C24.8183582,65.6149584 21,70.9501385 21,77.033241 L21,83 L48,83" id="Fill-3219" fill="#330D84"></path>
                <path d="M42.6877452,72.7783934 C42.6619722,73.5761773 39.2387212,76.0360111 39.2129483,77.1495845 C39.2023359,77.565097 40.3560534,80.0914127 41.7765964,83 L48,83 L44.3796619,59 L42.8924125,59.7645429 C41.0231173,62.2908587 38.0182974,66.4792244 38.0001047,67.4099723 C37.9743318,68.7562327 42.7135181,71.9806094 42.6877452,72.7783934" id="Fill-3220" fill="#5932AE"></path>
                <path d="M92,83 L92,77.0742779 C92,71.0330124 88.041385,65.5529574 82.2738228,63.8528198 L71.4349539,60.6341128 L67.9388631,59 L64,83 L92,83" id="Fill-3221" fill="#330D84"></path>
                <path d="M70.2262642,83 C71.6457312,80.1114168 72.7985748,77.6024759 72.7879704,77.1898212 C72.762217,76.0839065 69.341559,73.6409904 69.3158056,72.8486933 C69.2900522,72.0563961 74.0256487,68.8541953 73.9998953,67.5171939 C73.9817165,66.5928473 70.9791725,62.2517194 69.1112933,59.7427785 L67.6251704,59 L64,83 L70.2262642,83" id="Fill-3222" fill="#5932AE"></path>
                <path d="M58.5616181,70.6876933 C57.9379983,71.0034828 55.3672875,71.1032058 54.7753528,70.6876933 L53,83 L59,83 L58.5616181,70.6876933 Z" id="Fill-3223" fill="#330D84"></path>
                <path d="M56.4585136,63 C56.0555033,63.1691293 53.7068674,64.1377786 52,66.1365789 C52.6112888,67.3051083 54.2216369,70.3340594 54.7753528,70.6876933 C55.4662277,71.1489549 58.0349953,71.0567026 58.5616181,70.6876933 C58.9951082,70.395561 60.4801505,67.2436067 61,66.1212035 C59.2592662,64.0762771 56.7768579,63.1230031 56.4585136,63" id="Fill-3224" fill="#5932AE"></path>
                <path d="M56.4605713,62.668457 C56.4605713,62.668457 52.5010112,64.2834716 51.1776612,68.2813128 C51.0029364,68.8242295 46.0011868,59.2410482 46.0011868,59.2410482 C46.0011868,59.2410482 45.9616839,58.1716668 46.3384816,57.2503536 C46.7152793,56.3454925 47.1589282,56 47.1589282,56 L56.4605713,62.668457 Z" id="Fill-3225" fill="#8AC9F9"></path>
                <path d="M56,63 C56.640625,62.8005371 61.0547178,64.2732486 62.2787697,68.3315472 C62.4410666,68.8759531 67.6251704,59 67.6251704,59 C67.6251704,59 67.0396527,58.1776237 66.6619712,57.2702805 C66.2842898,56.3464401 65.842903,56 65.842903,56 L56,63 Z" id="Fill-3226" fill="#8AC9F9"></path>
            </g>
        </g>
    </g>
</svg>