<svg xmlns="http://www.w3.org/2000/svg" width="12" height="16" viewBox="0 0 12 16">
    <g fill="none" fill-rule="evenodd">
        <g fill="#02D000" fill-rule="nonzero">
            <g>
                <g>
                    <g transform="translate(-1059 -692) translate(329 164) translate(40 522) translate(690 6)">
                        <path d="M6 0C2.7 0 0 2.7 0 6c0 1.3.4 2.5 1.1 3.5v.1l4 6c.3.2.6.4.9.4.3 0 .6-.2.8-.4l4-6v-.1c.8-1 1.2-2.2 1.2-3.5 0-3.3-2.7-6-6-6zm3.2 8.3l-.1.2v.1L6 13.2 2.9 8.6v-.1l-.1-.1v-.1C2.3 7.6 2 6.8 2 6c0-2.2 1.8-4 4-4s4 1.8 4 4c0 .8-.3 1.6-.8 2.3z"/>
                        <circle cx="6" cy="6" r="2"/>
                    </g>
                </g>
            </g>
        </g>
    </g>
</svg>
