<?xml version="1.0" encoding="UTF-8"?>
<svg width="68px" height="73px" viewBox="0 0 68 73" version="1.1" xmlns="http://www.w3.org/2000/svg" xmlns:xlink="http://www.w3.org/1999/xlink">
    <!-- Generator: Sketch 59.1 (86144) - https://sketch.com -->
    <title>continue</title>
    <desc>Created with Sketch.</desc>
    <g id="Page-1" stroke="none" stroke-width="1" fill="none" fill-rule="evenodd" stroke-linecap="round">
        <g id="01-HomePage-02" transform="translate(-284.000000, -2228.000000)" stroke="#7062C0" stroke-width="3">
            <g id="continue" transform="translate(286.000000, 2230.000000)">
                <path d="M44.2273487,0 L18.2490525,0 C15.0991336,-0.0101549118 12.0302948,0.988565432 9.50039836,2.84723254 C6.9962791,4.72089241 4.76650346,6.92933114 2.87474117,9.40948829 C0.998116489,11.9151759 -0.0102530238,14.9546488 0,18.0744259 L0,65.3684252 C0,67.3740886 1.64169884,69 3.66674003,69 L51.3333386,69 C53.3583798,69 55,67.3740886 55,65.3684252 L55,44.5231855" id="Path" stroke-linejoin="round"></path>
                <path d="M15,8 L15,15.2 L5.625,15.2 C2.51839828,15.2 0,17.6176624 0,20.6 L0,26" id="Path" stroke-linejoin="round"></path>
                <path d="M46,32.4655256 L35.6413538,42.824509 C30.4785079,47.9838613 24.9202099,49.3094011 22.3058326,46.6949387 L22.3058326,46.6949387 C19.6914553,44.0804763 21.0132904,38.5219974 26.1761363,33.3589834 L36.5494288,23" id="Path"></path>
                <path d="M40,17.7795208 L50.9903092,6.76921114 C53.3478242,4.41026295 57.1670873,4.41026295 59.5246023,6.76921114 L61.2321875,8.47990388 C63.5892708,10.8421266 63.5892708,14.6711449 61.2321875,17.0333676 L50.3109083,28" id="Path"></path>
                <line x1="19.09" y1="48.91" x2="21.91" y2="46.09" id="Path"></line>
                <line x1="40" y1="18" x2="50" y2="28" id="Path"></line>
                <path d="M61.8443769,17 C63.0901691,18.0296773 63.8623388,19.5205331 63.9833136,21.1297218 C64.1042883,22.7389105 63.5636566,24.3279388 62.4857451,25.5313848 L56,32" id="Path"></path>
                <path d="M10,57.0704759 C10.5514757,58.6552787 12.3010836,59.7830643 14.3515806,59.8754759 C16.3651754,59.9277161 18.3405749,59.4270419 19.9502148,58.4564759 C21.3845137,57.6704759 23.0472519,56.6384759 24.6538165,57.1634759 C25.6611962,57.4904759 26.2266769,58.3364759 27.0280868,58.9274759 C29.5836618,60.2762956 32.8781377,60.3322744 35.5028087,59.0714759 C38.0631237,57.8071389 40.9935912,57.1046289 44,57.0344759" id="Path" stroke-linejoin="round"></path>
            </g>
        </g>
    </g>
</svg>