<?xml version="1.0" encoding="UTF-8"?>
<svg width="99px" height="87px" viewBox="0 0 99 87" version="1.1" xmlns="http://www.w3.org/2000/svg" xmlns:xlink="http://www.w3.org/1999/xlink">
    <!-- Generator: Sketch 59.1 (86144) - https://sketch.com -->
    <title>Data</title>
    <desc>Created with Sketch.</desc>
    <g id="Page-1" stroke="none" stroke-width="1" fill="none" fill-rule="evenodd">
        <g id="01-HomePage-02" transform="translate(-391.000000, -1535.000000)">
            <g id="Data" transform="translate(391.000000, 1535.000000)">
                <polygon id="Fill-3231" fill="#FFBE1B" points="13 84 30 84 30 51 13 51"></polygon>
                <path d="M97.2743165,87 L1.72400967,87 C0.771619862,87 0,86.2345566 0,85.2860725 L0,15.7139275 C0,14.7654434 0.771619862,14 1.72400967,14 C2.67807328,14 3.44969314,14.7654434 3.44969314,15.7139275 L3.44969314,83.572145 L97.2743165,83.572145 C98.2267063,83.572145 99,84.3375883 99,85.2860725 C99,86.2345566 98.2267063,87 97.2743165,87" id="Fill-3232" fill="#332967"></path>
                <path d="M97.2743165,87 L1.72400967,87 C0.771619862,87 0,86.2345566 0,85.2860725 L0,15.7139275 C0,14.7654434 0.771619862,14 1.72400967,14 C2.67807328,14 3.44969314,14.7654434 3.44969314,15.7139275 L3.44969314,83.572145 L97.2743165,83.572145 C98.2267063,83.572145 99,84.3375883 99,85.2860725 C99,86.2345566 98.2267063,87 97.2743165,87" id="Fill-3233" fill="#5932AE"></path>
                <polygon id="Fill-3234" fill="#5D8EF9" points="64 84 81 84 81 34 64 34"></polygon>
                <polygon id="Fill-3235" fill="#330D84" points="38 84 55 84 55 24 38 24"></polygon>
                <path d="M29.3913043,34.8411703 L30,34.9916405 L29.3913043,35.1588297 C25.826087,36.0449321 23.0451505,38.8202717 22.1521739,42.3981191 L21.9983278,43 L21.8461538,42.3981191 C20.9531773,38.8202717 18.1705686,36.0449321 14.6070234,35.1588297 L14,34.9916405 L14.6070234,34.8411703 C18.1705686,33.9550679 20.9531773,31.1797283 21.8461538,27.6018809 L21.9983278,27 L22.1521739,27.6018809 C23.0451505,31.1797283 25.826087,33.9550679 29.3913043,34.8411703" id="Fill-3236" fill="#330D84"></path>
                <path d="M54.3148115,8.82957619 L55,9.00811542 L54.3148115,9.17042381 C50.3043478,10.1767358 47.1755367,13.3092876 46.1704853,17.3183048 L46,18 L45.827891,17.3183048 C44.8228396,13.3092876 41.6940285,10.1767358 37.6819412,9.17042381 L37,9.00811542 L37.6819412,8.82957619 C41.6940285,7.8232642 44.8228396,4.69071235 45.827891,0.681695221 L46,0 L46.1704853,0.681695221 C47.1755367,4.69071235 50.3043478,7.8232642 54.3148115,8.82957619" id="Fill-3237" fill="#FFBE1B"></path>
            </g>
        </g>
    </g>
</svg>