<svg xmlns="http://www.w3.org/2000/svg" xmlns:xlink="http://www.w3.org/1999/xlink" width="150.574" height="209.028" viewBox="0 0 150.574 209.028">
    <defs>
        <linearGradient id="prefix__linear-gradient" x1="-6.8" x2="-5.8" y1=".5" y2=".5" gradientUnits="objectBoundingBox">
            <stop offset="0" stop-color="#fff"/>
            <stop offset=".369" stop-color="#fcfdff"/>
            <stop offset=".618" stop-color="#f3f8fd"/>
            <stop offset=".831" stop-color="#e4f0fb"/>
            <stop offset="1" stop-color="#d2e5f9"/>
        </linearGradient>
        <linearGradient id="prefix__linear-gradient-2" x1="-7.36" x2="-6.037" y1=".046" y2=".954" gradientUnits="objectBoundingBox">
            <stop offset=".013" stop-color="#009160"/>
            <stop offset=".693" stop-color="#00a095"/>
            <stop offset="1" stop-color="#2289b2"/>
        </linearGradient>
        <linearGradient id="prefix__linear-gradient-3" x1="-147.47" x2="-146.47" y1=".5" y2=".5" gradientUnits="objectBoundingBox">
            <stop offset=".006" stop-color="#fafeff"/>
            <stop offset="1" stop-color="#e6e9fb"/>
        </linearGradient>
        <linearGradient id="prefix__linear-gradient-4" x1="-143.094" x2="-142.094" y1=".5" y2=".5" xlink:href="#prefix__linear-gradient-3"/>
        <linearGradient id="prefix__linear-gradient-5" x1="-25.294" x2="-24.294" y1=".5" y2=".5" xlink:href="#prefix__linear-gradient-3"/>
        <linearGradient id="prefix__linear-gradient-6" x2="1" y1=".5" y2=".5" gradientUnits="objectBoundingBox">
            <stop offset=".347" stop-color="#71a546"/>
            <stop offset=".737" stop-color="#169048"/>
        </linearGradient>
        <linearGradient id="prefix__linear-gradient-7" x2="1" y1=".5" y2=".5" gradientUnits="objectBoundingBox">
            <stop offset=".263" stop-color="#169048"/>
            <stop offset=".653" stop-color="#71a546"/>
        </linearGradient>
        <linearGradient id="prefix__linear-gradient-8" x1="0" x2="1.001" y1=".5" y2=".5" xlink:href="#prefix__linear-gradient-3"/>
        <linearGradient id="prefix__linear-gradient-9" x1="0" x2="1" y1=".5" y2=".5" xlink:href="#prefix__linear-gradient-3"/>
        <linearGradient id="prefix__linear-gradient-10" x1="-.001" x2="1" y1=".5" y2=".5" xlink:href="#prefix__linear-gradient-3"/>
        <linearGradient id="prefix__linear-gradient-11" x2="1" y1=".5" y2=".5" gradientUnits="objectBoundingBox">
            <stop offset="0" stop-color="#7ab5c7"/>
            <stop offset=".729" stop-color="#a0ddf5"/>
        </linearGradient>
        <linearGradient id="prefix__linear-gradient-12" x2="1" y1=".5" y2=".5" gradientUnits="objectBoundingBox">
            <stop offset="0" stop-color="#2289b2"/>
            <stop offset=".307" stop-color="#00a095"/>
            <stop offset=".987" stop-color="#009160"/>
        </linearGradient>
        <linearGradient id="prefix__linear-gradient-13" x2="1" y1=".5" y2=".5" gradientUnits="objectBoundingBox">
            <stop offset=".054" stop-color="#a0ddf5"/>
            <stop offset=".589" stop-color="#7ab5c7"/>
        </linearGradient>
        <linearGradient id="prefix__linear-gradient-14" x2="1" y1=".5" y2=".5" gradientUnits="objectBoundingBox">
            <stop offset=".295" stop-color="#ffd855"/>
            <stop offset=".748" stop-color="#ffaf16"/>
        </linearGradient>
        <linearGradient id="prefix__linear-gradient-15" x1="0" x2="1" y1=".5" y2=".5" xlink:href="#prefix__linear-gradient-14"/>
        <linearGradient id="prefix__linear-gradient-16" x1="13.538" x2="14.538" y1=".5" y2=".5" gradientUnits="objectBoundingBox">
            <stop offset=".517" stop-color="#5c90fe"/>
            <stop offset=".861" stop-color="#5483fb"/>
        </linearGradient>
        <linearGradient id="prefix__linear-gradient-17" x1="6.293" x2="7.293" y1=".5" y2=".5" gradientUnits="objectBoundingBox">
            <stop offset="0" stop-color="#559f47"/>
            <stop offset=".066" stop-color="#4a9c47"/>
            <stop offset=".204" stop-color="#5aa047"/>
            <stop offset=".786" stop-color="#009160"/>
        </linearGradient>
        <linearGradient id="prefix__linear-gradient-18" x1="5.534" x2="5.159" y1="-.063" y2="1.062" gradientUnits="objectBoundingBox">
            <stop offset="0" stop-color="#5c90fe" stop-opacity="0"/>
            <stop offset=".219" stop-color="#6093fd" stop-opacity=".133"/>
            <stop offset=".453" stop-color="#6d9df9" stop-opacity=".271"/>
            <stop offset=".694" stop-color="#82aef4" stop-opacity=".416"/>
            <stop offset=".938" stop-color="#a0c5eb" stop-opacity=".561"/>
            <stop offset="1" stop-color="#a9cce9" stop-opacity=".6"/>
        </linearGradient>
        <linearGradient id="prefix__linear-gradient-19" x2="1" y1=".501" y2=".501" gradientUnits="objectBoundingBox">
            <stop offset="0" stop-color="#ffe985"/>
            <stop offset=".994" stop-color="#fa742b"/>
        </linearGradient>
        <linearGradient id="prefix__linear-gradient-20" x1="-.001" x2="1.001" y1=".5" y2=".5" xlink:href="#prefix__linear-gradient-19"/>
        <linearGradient id="prefix__linear-gradient-21" x1="21.059" x2="20.263" y1=".508" y2=".492" gradientUnits="objectBoundingBox">
            <stop offset=".147" stop-color="#4a9c47"/>
            <stop offset=".589" stop-color="#71a546"/>
        </linearGradient>
        <linearGradient id="prefix__linear-gradient-22" x1="51.66" x2="50.572" y1=".503" y2=".497" gradientUnits="objectBoundingBox">
            <stop offset="0" stop-color="#71a546"/>
            <stop offset=".867" stop-color="#00935c"/>
        </linearGradient>
        <linearGradient id="prefix__linear-gradient-23" x1="12.901" x2="13.902" y1=".5" y2=".5" xlink:href="#prefix__linear-gradient-16"/>
        <linearGradient id="prefix__linear-gradient-24" x1="36.098" x2="37.097" y1=".5" y2=".5" gradientUnits="objectBoundingBox">
            <stop offset="0" stop-color="#5c90fe"/>
            <stop offset="1" stop-color="#2e42eb"/>
        </linearGradient>
        <linearGradient id="prefix__linear-gradient-25" x1="33.551" x2="34.551" y1=".5" y2=".5" xlink:href="#prefix__linear-gradient-24"/>
        <linearGradient id="prefix__linear-gradient-26" x1="14.567" x2="15.567" y1=".5" y2=".5" gradientUnits="objectBoundingBox">
            <stop offset=".006"/>
            <stop offset="1" stop-color="#4d4d4d"/>
        </linearGradient>
        <linearGradient id="prefix__linear-gradient-27" x1="-6.366" x2="-5.832" y1="33.562" y2="33.562" gradientUnits="objectBoundingBox">
            <stop offset=".005" stop-color="#ffc9d5"/>
            <stop offset="1" stop-color="#ffabb3"/>
        </linearGradient>
        <linearGradient id="prefix__linear-gradient-28" x1=".618" x2="1.686" y1=".388" y2=".388" xlink:href="#prefix__linear-gradient-27"/>
        <linearGradient id="prefix__linear-gradient-29" x1="0" x2="1" y1=".501" y2=".501" xlink:href="#prefix__linear-gradient-27"/>
        <linearGradient id="prefix__linear-gradient-30" x1="0" x2="1" y1=".5" y2=".5" xlink:href="#prefix__linear-gradient-27"/>
        <linearGradient id="prefix__linear-gradient-31" x1="0" x2="1" y1=".5" y2=".5" xlink:href="#prefix__linear-gradient-26"/>
        <linearGradient id="prefix__linear-gradient-32" x1="3.256" x2="2.912" y1="-.013" y2="1.014" gradientUnits="objectBoundingBox">
            <stop offset="0" stop-color="#5c90fe" stop-opacity="0"/>
            <stop offset=".199" stop-color="#6295fc" stop-opacity=".118"/>
            <stop offset=".466" stop-color="#73a2f8" stop-opacity=".278"/>
            <stop offset=".771" stop-color="#8fb8f0" stop-opacity=".463"/>
            <stop offset="1" stop-color="#a9cce9" stop-opacity=".6"/>
        </linearGradient>
        <linearGradient id="prefix__linear-gradient-33" x1="0" x2="1" y1=".5" y2=".5" xlink:href="#prefix__linear-gradient-26"/>
        <linearGradient id="prefix__linear-gradient-34" x1="0" x2="1" y1=".5" y2=".5" xlink:href="#prefix__linear-gradient-26"/>
        <linearGradient id="prefix__linear-gradient-35" x1=".001" x2="1" y1=".5" y2=".5" xlink:href="#prefix__linear-gradient"/>
        <linearGradient id="prefix__linear-gradient-36" x1="0" x2=".999" y1=".501" y2=".501" xlink:href="#prefix__linear-gradient-26"/>
        <linearGradient id="prefix__linear-gradient-37" x1="0" x2="1" y1=".5" y2=".5" xlink:href="#prefix__linear-gradient-26"/>
        <linearGradient id="prefix__linear-gradient-38" x1="0" x2="1" y1=".5" y2=".5" xlink:href="#prefix__linear-gradient-26"/>
        <linearGradient id="prefix__linear-gradient-39" x1="0" x2="1" y1=".5" y2=".5" xlink:href="#prefix__linear-gradient-26"/>
        <linearGradient id="prefix__linear-gradient-40" x1="0" x2="1" y1=".5" y2=".5" xlink:href="#prefix__linear-gradient"/>
        <linearGradient id="prefix__linear-gradient-41" x1="0" x2="1" y1=".5" y2=".5" xlink:href="#prefix__linear-gradient-26"/>
        <linearGradient id="prefix__linear-gradient-42" x1="0" x2="1" y1=".5" y2=".5" xlink:href="#prefix__linear-gradient-26"/>
        <linearGradient id="prefix__linear-gradient-43" x1="0" x2="1" y1=".5" y2=".5" xlink:href="#prefix__linear-gradient-26"/>
        <linearGradient id="prefix__linear-gradient-44" x1="0" x2="1" y1=".5" y2=".5" xlink:href="#prefix__linear-gradient-26"/>
        <linearGradient id="prefix__linear-gradient-45" x1="0" x2="1" y1=".5" y2=".5" xlink:href="#prefix__linear-gradient-26"/>
        <linearGradient id="prefix__linear-gradient-46" x1=".001" x2="1" y1=".5" y2=".5" xlink:href="#prefix__linear-gradient-26"/>
        <linearGradient id="prefix__linear-gradient-47" x1="0" x2="1" y1=".5" y2=".5" xlink:href="#prefix__linear-gradient-26"/>
        <linearGradient id="prefix__linear-gradient-48" x1="0" x2="1" y1=".5" y2=".5" xlink:href="#prefix__linear-gradient-26"/>
        <linearGradient id="prefix__linear-gradient-49" x1="0" x2="1" y1=".5" y2=".5" xlink:href="#prefix__linear-gradient"/>
        <linearGradient id="prefix__linear-gradient-50" x1="0" x2="1" y1=".5" y2=".5" xlink:href="#prefix__linear-gradient"/>
        <linearGradient id="prefix__linear-gradient-51" x1="0" x2="1.001" y1=".5" y2=".5" xlink:href="#prefix__linear-gradient-14"/>
        <linearGradient id="prefix__linear-gradient-52" x1="-.001" x2="1" y1=".5" y2=".5" xlink:href="#prefix__linear-gradient-14"/>
        <style>
            .prefix__cls-3{fill:#ebedf5}.prefix__cls-4{fill:#086483}.prefix__cls-5{fill:#fff}.prefix__cls-26{fill:#08804c}.prefix__cls-36{fill:#055b34}
        </style>
    </defs>
    <g id="prefix___222" data-name="222" transform="translate(-427.63 -139.936)">
        <g id="prefix__Group_861" data-name="Group 861" transform="translate(469.036 139.936)">
            <path id="prefix__Path_1397" d="M609.609 146.9c3.456-1.82 6.266-.358 6.276 3.268l.333 107.679c.011 3.626-2.782 8.04-6.234 9.86l-47.352 24.946c-3.456 1.82-6.269.362-6.28-3.264l-.333-107.679c-.011-3.626 2.785-8.04 6.241-9.86z" data-name="Path 1397" transform="translate(-551.873 -143.922)"/>
            <path id="prefix__Path_1398" d="M565.293 177.157a9.088 9.088 0 0 0-4.573 7.227l.333 107.679c.007 2.654 2.072 3.725 4.605 2.395l47.352-24.946a9.088 9.088 0 0 0 4.573-7.227l-.333-107.679c-.007-2.654-2.072-3.725-4.605-2.395l-9.232 4.861a.818.818 0 0 0-.415.656l.007 2.367a4.948 4.948 0 0 1-2.5 3.942l-23.052 12.145c-1.38.727-2.5.145-2.508-1.306l-.007-2.367c0-.245-.188-.337-.419-.216z" data-name="Path 1398" transform="translate(-554.906 -147.487)"/>
            <path id="prefix__Path_1399" d="M544.335 175.262c0-.092.007-.184.014-.277l.011-.128v-.053c0-.018 0-.064.007-.1.011-.092.021-.184.035-.28s.028-.192.046-.287v-.011a.013.013 0 0 1 0-.011c.014-.089.032-.181.05-.27s.043-.2.067-.3c.007-.035.018-.071.028-.106s.011-.043.014-.06l.032-.131c.028-.1.057-.2.089-.3.021-.075.046-.149.071-.224a.18.18 0 0 1 .014-.039.173.173 0 0 1 .014-.039c.032-.1.067-.2.1-.294s.075-.2.11-.291c.007-.018.014-.035.021-.057s.011-.028.018-.043l.075-.181c.039-.092.082-.184.121-.277l.1-.2c0-.011.011-.021.014-.032s.011-.025.018-.039l.138-.277.16-.3.025-.046a.526.526 0 0 1 .035-.06c.043-.078.089-.16.135-.238.057-.1.121-.2.181-.294.032-.05.06-.1.092-.149l.035-.057c.053-.085.114-.167.17-.248.085-.124.167-.248.252-.369.014-.018.025-.039.039-.057.128-.174.259-.348.4-.514.092-.114.185-.224.277-.333.078-.089.153-.177.234-.263l.007-.007c.078-.089.16-.174.241-.259s.16-.167.245-.245a.413.413 0 0 0 .039-.039l.043-.043c.057-.057.114-.11.174-.163.089-.082.174-.16.263-.238.028-.025.057-.046.082-.071s.043-.035.06-.053c.043-.035.085-.075.131-.11.092-.075.184-.149.277-.22l.124-.092.064-.046c.021-.014.06-.046.092-.067l.273-.192c.067-.046.135-.089.2-.131a.311.311 0 0 0 .035-.025.318.318 0 0 1 .035-.021q.133-.085.266-.16l.266-.149c.021-.011.043-.021.06-.032l47.352-24.946.2-.1c.085-.043.17-.082.255-.121.057-.025.11-.046.163-.071.014-.007.028-.011.043-.018l.05-.021c.085-.035.167-.067.252-.1s.17-.06.252-.085a.2.2 0 0 0 .043-.014l.039-.011c.057-.018.114-.035.17-.05.085-.025.174-.046.259-.064.043-.011.082-.018.124-.025l.053-.011c.025 0 .053-.011.082-.018.092-.018.185-.028.273-.043.057-.007.11-.011.167-.014h.114a2.742 2.742 0 0 1 .295-.007c.043 0 .085 0 .128.007s.064 0 .1 0h.1c.124.011.245.025.362.046h.007c.025 0 .05.014.078.018.121.025.241.053.355.089l.028.011a3.178 3.178 0 0 1 .479.2l4.144 2.2a3.179 3.179 0 0 0-.479-.2 2.84 2.84 0 0 0-.38-.1.564.564 0 0 0-.075-.018 3.375 3.375 0 0 0-.468-.053.864.864 0 0 0-.1 0 4.28 4.28 0 0 0-.475.007h-.057a4.44 4.44 0 0 0-.518.075l-.053.011a5.458 5.458 0 0 0-.55.142l-.039.011c-.2.06-.394.135-.592.216-.014.007-.028.011-.043.018-.2.085-.412.184-.617.294l-47.366 24.943c-.213.11-.419.234-.624.362a.307.307 0 0 0-.035.025c-.192.124-.38.252-.568.39-.021.014-.043.032-.06.046-.181.135-.358.277-.532.422l-.064.053c-.177.153-.348.309-.518.472l-.043.043c-.181.177-.358.358-.529.546a13.132 13.132 0 0 0-.947 1.171c-.089.121-.17.245-.255.369-.067.1-.142.2-.206.305-.032.05-.06.1-.092.149-.11.174-.216.351-.316.532a.543.543 0 0 1-.035.06c-.121.216-.234.44-.341.66-.007.011-.011.025-.018.035-.1.216-.2.436-.291.656-.007.014-.011.028-.018.046-.092.227-.174.454-.248.681a.2.2 0 0 1-.014.043c-.071.22-.135.436-.192.656a.414.414 0 0 0-.014.064c-.057.224-.106.451-.145.671a.027.027 0 0 1 0 .014c-.039.224-.067.451-.089.671v.057c-.018.224-.028.444-.028.66l.334 107.679c0 .216.014.426.032.628 0 .018 0 .035.007.053q.032.277.085.532c0 .021.011.046.014.067a4.658 4.658 0 0 0 .135.475l.032.085c.053.142.11.277.174.408l.021.046a3.008 3.008 0 0 0 .252.415.469.469 0 0 0 .039.05 2.76 2.76 0 0 0 .241.291l.1.1a2.558 2.558 0 0 0 .234.206c.035.028.067.057.1.082a2.729 2.729 0 0 0 .362.231l-4.144-2.2a2.972 2.972 0 0 1-.362-.231c-.035-.025-.067-.053-.1-.082-.082-.064-.16-.135-.234-.206l-.1-.1a3.183 3.183 0 0 1-.241-.291.468.468 0 0 1-.039-.05s-.007-.007-.007-.011a4.2 4.2 0 0 1-.238-.39s0-.011-.007-.014l-.021-.043c-.043-.085-.085-.174-.124-.266-.018-.046-.035-.1-.053-.142l-.032-.085a.641.641 0 0 0-.028-.075c-.032-.1-.057-.192-.082-.291-.007-.035-.014-.071-.025-.106s-.011-.046-.014-.067-.018-.067-.021-.1c-.018-.089-.032-.181-.046-.273-.007-.05-.011-.1-.018-.156 0-.018 0-.035-.007-.053a.385.385 0 0 1-.007-.064c-.007-.089-.014-.177-.018-.27s-.007-.181-.007-.277v-.018l-.333-107.679c-.009-.097-.009-.182-.006-.267z" class="prefix__cls-3" data-name="Path 1399" transform="translate(-544.333 -139.936)"/>
            <g id="prefix__Group_855" data-name="Group 855" transform="translate(5.857 3.219)">
                <path id="prefix__Path_1400" d="M692.832 168.375l-.032-.209c-.018-.121-.035-.238-.057-.358-.014-.078-.032-.16-.046-.238-.021-.114-.046-.231-.071-.344l-.043-.188c-.067-.294-.146-.593-.234-.887-.014-.046-.028-.092-.043-.135-.075-.248-.16-.5-.248-.749l-.032-.089c-.089-.248-.184-.493-.287-.742l-.074-.181c-.085-.206-.177-.408-.273-.614l-.053-.114c-.11-.231-.223-.461-.341-.688-.028-.057-.06-.114-.092-.174-.1-.181-.2-.365-.3-.543-.032-.053-.06-.11-.092-.163-.131-.224-.266-.447-.4-.667-.025-.043-.053-.082-.078-.121-.124-.192-.252-.383-.38-.575-.035-.053-.074-.106-.11-.16-.16-.227-.323-.454-.493-.678-.028-.035-.057-.071-.085-.11-.177-.231-.362-.461-.55-.685-.021-.025-.039-.05-.06-.071-.234-.28-.479-.55-.727-.812-.028-.028-.053-.06-.082-.089-.156-.167-.316-.33-.479-.486-.021-.021-.039-.039-.06-.057-.142-.138-.287-.273-.433-.408-.039-.035-.082-.071-.121-.11-.216-.2-.436-.387-.66-.568-.014-.011-.028-.025-.042-.035-.231-.188-.465-.365-.7-.536l-.135-.1c-.231-.163-.465-.323-.7-.472-.043-.028-.089-.053-.131-.082-.248-.153-.5-.3-.749-.433l10.857-5.7c.252.135.5.28.752.433.043.028.089.053.131.082.238.149.472.305.7.472l.135.1c.238.17.472.348.7.536a.185.185 0 0 1 .039.035c.224.181.444.373.664.568.025.021.05.039.071.06s.032.032.05.046c.146.135.291.27.436.412l.057.053q.245.239.479.49a.325.325 0 0 1 .032.035c.014.018.032.035.046.053.248.266.49.536.727.816 0 .007.011.011.014.018l.043.053c.188.224.369.454.55.685.018.025.039.046.057.071s.018.025.028.035c.17.224.333.447.493.678.014.021.032.043.046.06s.043.067.064.1c.131.188.255.38.38.575.018.028.039.057.057.089l.021.035c.138.22.273.443.4.667.011.018.021.035.032.057s.039.075.06.11q.154.271.3.543c.021.035.042.075.06.11l.032.064c.117.227.231.458.341.688 0 .011.011.018.014.028.014.028.025.057.039.085.1.2.185.408.273.614.014.035.032.067.046.1s.018.053.028.078c.1.245.2.493.287.742 0 .007.007.018.011.025l.021.064c.089.248.17.5.248.749l.032.092.011.043c.089.3.167.593.234.887l.021.082.021.1c.025.114.05.231.071.344.014.078.032.16.046.238.021.121.039.241.057.358.007.057.021.114.028.17v.039c.036.252.06.5.078.752 0 .053.007.11.011.163.014.255.025.507.025.756l-10.857 5.7c0-.248-.007-.5-.025-.756 0-.053-.007-.11-.011-.163q-.017-.37-.07-.748z" class="prefix__cls-4" data-name="Path 1400" transform="translate(-639.87 -149.01)"/>
                <path id="prefix__Path_1401" d="M662.272 184.445l-.032-.209c-.018-.121-.036-.238-.057-.358-.014-.078-.032-.16-.046-.238-.021-.114-.046-.231-.071-.344l-.043-.188c-.067-.294-.146-.593-.234-.887-.014-.046-.028-.092-.043-.135-.074-.248-.16-.5-.248-.749l-.032-.089c-.089-.248-.185-.493-.287-.742l-.075-.181c-.085-.206-.177-.408-.273-.614-.018-.039-.036-.075-.053-.114-.11-.231-.224-.461-.341-.688-.028-.057-.06-.114-.092-.174-.1-.181-.2-.365-.3-.543-.032-.053-.06-.11-.092-.163-.131-.224-.266-.447-.4-.667-.025-.043-.053-.082-.078-.121-.124-.192-.252-.383-.38-.575-.035-.053-.075-.106-.11-.16-.16-.227-.323-.454-.493-.678-.028-.035-.057-.071-.085-.11-.177-.231-.362-.461-.55-.685-.021-.025-.039-.05-.06-.071-.234-.28-.479-.55-.727-.812-.028-.028-.053-.06-.082-.089-.156-.167-.316-.33-.479-.486-.021-.021-.039-.039-.06-.057-.142-.138-.287-.273-.433-.408-.039-.035-.082-.071-.121-.11-.216-.2-.436-.387-.66-.568-.014-.011-.028-.025-.043-.035-.231-.188-.465-.365-.7-.536l-.135-.1c-.231-.163-.465-.323-.7-.472-.043-.028-.089-.053-.131-.082-.248-.153-.5-.3-.749-.433l10.857-5.7c.252.135.5.28.752.433.043.028.089.053.131.082.238.149.472.305.7.472l.135.1c.238.17.472.348.7.536a.184.184 0 0 1 .039.035c.224.181.444.373.664.568.025.021.05.039.071.06s.032.032.05.046c.145.135.291.27.436.412l.057.053q.245.239.479.49a.319.319 0 0 1 .032.035c.014.018.032.035.046.053.248.266.49.536.727.816 0 .007.011.011.014.018l.043.053c.188.224.369.454.55.685.018.025.039.046.057.071s.018.025.028.035c.17.224.333.447.493.678.014.021.032.043.046.06s.043.067.064.1c.131.188.255.38.38.575.018.028.039.057.057.089l.021.035c.138.22.273.443.4.667.011.018.021.035.032.057s.039.075.06.11q.154.271.3.543c.021.035.043.075.06.11l.032.064c.117.227.231.458.341.688 0 .011.011.018.014.028.014.028.025.057.039.085.1.2.184.408.273.614.014.035.032.067.046.1s.018.053.028.078c.1.245.2.493.287.742 0 .007.007.018.011.025l.021.064c.089.248.17.5.248.749l.032.092.011.043c.089.3.167.593.234.887l.021.082.021.1c.025.114.05.231.071.344.014.078.032.16.046.238.021.121.039.241.057.358.007.057.021.114.028.17v.039c.035.252.06.5.078.752 0 .053.007.11.011.163.014.255.025.507.025.756l-10.857 5.7c0-.248-.007-.5-.025-.756 0-.053-.007-.11-.011-.163q-.02-.37-.068-.748z" class="prefix__cls-5" data-name="Path 1401" transform="translate(-620.153 -159.378)"/>
                <path id="prefix__Path_1402" d="M631.7 200.515l-.032-.209c-.018-.121-.035-.238-.057-.358-.014-.078-.032-.16-.046-.238-.021-.114-.046-.231-.071-.344l-.043-.188c-.067-.294-.146-.592-.234-.887-.014-.046-.028-.092-.043-.135-.075-.248-.16-.5-.248-.749l-.032-.089c-.089-.248-.185-.493-.287-.742l-.074-.181c-.085-.206-.177-.408-.273-.614l-.053-.114c-.11-.231-.223-.461-.341-.688-.028-.057-.06-.114-.092-.174-.1-.181-.2-.365-.3-.543-.032-.053-.06-.11-.092-.163-.131-.224-.266-.447-.4-.667-.025-.043-.053-.082-.078-.121-.124-.192-.252-.383-.38-.575-.035-.053-.074-.106-.11-.16-.16-.227-.323-.454-.493-.678-.028-.035-.057-.071-.085-.11-.177-.231-.362-.461-.55-.685-.021-.025-.039-.05-.06-.071-.234-.28-.479-.55-.727-.812-.028-.028-.053-.06-.082-.089-.156-.167-.316-.33-.479-.486-.021-.021-.039-.039-.06-.057-.142-.138-.287-.273-.433-.408-.039-.035-.082-.071-.121-.11-.216-.2-.436-.387-.66-.568-.014-.011-.028-.025-.043-.035-.231-.188-.465-.365-.7-.536l-.135-.1c-.231-.163-.465-.323-.7-.472-.043-.028-.089-.053-.131-.082-.248-.153-.5-.3-.749-.433l10.857-5.7c.252.135.5.28.752.433.043.028.089.053.131.082.238.149.472.305.7.472l.135.1c.238.17.472.348.7.536a.187.187 0 0 1 .039.035c.223.181.443.373.663.568.025.021.05.039.071.06s.032.032.05.046c.146.135.291.27.436.412l.057.053q.245.24.479.49a.326.326 0 0 1 .032.035c.014.018.032.035.046.053.248.266.49.536.727.816 0 .007.011.011.014.018l.043.053c.188.224.369.454.55.685.018.025.039.046.057.071s.018.025.028.035c.17.224.333.447.493.678.014.021.032.043.046.06s.043.067.064.1c.131.188.255.38.38.575.018.028.039.057.057.089l.021.035c.138.22.273.443.4.667.011.018.021.035.032.057s.039.074.06.11q.154.271.3.543c.021.035.043.075.06.11l.032.064c.117.227.231.458.341.688 0 .011.011.018.014.028.014.028.025.057.039.085.1.2.185.408.273.614.014.035.032.067.046.1s.018.053.028.078c.1.245.2.493.287.742 0 .007.007.018.011.025l.021.064c.089.248.17.5.248.749l.032.092.011.043c.089.3.167.592.234.887l.021.082.021.1c.025.114.05.231.071.344.014.078.032.16.046.238.021.121.039.241.057.358.007.057.021.114.028.17v.039c.036.252.06.5.078.752 0 .053.007.11.011.163.014.255.025.507.025.756l-10.857 5.7c0-.248-.007-.5-.025-.756 0-.053-.007-.11-.011-.163-.01-.248-.034-.496-.068-.748z" class="prefix__cls-4" data-name="Path 1402" transform="translate(-600.429 -169.747)"/>
                <path id="prefix__Path_1403" d="M601.132 216.575l-.032-.209c-.018-.121-.035-.238-.057-.358-.014-.078-.032-.16-.046-.238-.021-.114-.046-.231-.071-.344l-.043-.188c-.067-.294-.145-.592-.234-.887-.014-.046-.028-.092-.043-.135-.074-.248-.16-.5-.248-.749l-.032-.089c-.089-.248-.184-.493-.287-.742l-.075-.181c-.085-.206-.177-.408-.273-.614l-.053-.114c-.11-.231-.224-.461-.341-.688-.028-.057-.06-.114-.092-.174-.1-.181-.2-.365-.3-.543-.032-.053-.06-.11-.092-.163-.131-.224-.266-.447-.4-.667-.025-.043-.053-.082-.078-.121-.124-.192-.252-.383-.38-.575-.036-.053-.075-.106-.11-.16-.16-.227-.323-.454-.493-.678-.028-.035-.057-.071-.085-.11-.177-.231-.362-.461-.55-.685-.021-.025-.039-.05-.06-.071-.234-.28-.479-.55-.727-.812-.028-.028-.053-.06-.082-.089-.156-.167-.316-.33-.479-.486-.021-.021-.039-.039-.06-.057-.142-.138-.287-.273-.433-.408-.039-.035-.082-.071-.121-.11-.216-.2-.436-.387-.66-.568-.014-.011-.028-.025-.043-.035-.231-.188-.465-.365-.7-.536l-.135-.1c-.231-.163-.465-.323-.7-.472-.043-.028-.089-.053-.131-.082-.248-.153-.5-.3-.749-.433l10.857-5.7c.252.135.5.28.752.433.043.028.089.053.131.082.238.149.472.305.7.472l.135.1c.238.17.472.348.7.536a.184.184 0 0 1 .039.035c.224.181.443.373.664.568.025.021.05.039.071.06s.032.032.05.046c.145.135.291.27.436.412l.057.053q.245.24.479.49a.309.309 0 0 1 .032.035c.014.018.032.035.046.053.248.266.49.536.727.816 0 .007.011.011.014.018l.043.053c.188.224.369.454.55.685.018.025.039.046.057.071s.018.025.028.035c.17.224.333.447.493.678.014.021.032.043.046.06s.043.067.064.1c.131.188.255.38.38.575.018.028.039.057.057.089l.021.035c.138.22.273.444.4.667.011.018.021.035.032.057s.039.074.06.11q.154.271.3.543c.021.035.043.075.06.11l.032.064c.117.227.231.458.341.688 0 .011.011.018.014.028.014.028.025.057.039.085.1.2.185.408.273.614.014.035.032.067.046.1s.018.053.028.078c.1.245.2.493.287.742 0 .007.007.018.011.025l.021.064c.089.248.17.5.248.749l.032.092.011.043c.089.3.167.592.234.887l.021.082.021.1c.025.114.05.231.071.344.014.078.032.16.046.238.021.121.039.241.057.358.007.057.021.114.028.17v.039c.035.252.06.5.078.752 0 .053.007.11.011.163.014.255.025.507.025.756l-10.857 5.7c0-.248-.007-.5-.025-.756l-.011-.163q-.021-.37-.068-.748z" class="prefix__cls-5" data-name="Path 1403" transform="translate(-580.706 -180.109)"/>
                <path id="prefix__Path_1404" d="M560.918 229.33l-.078 10.186 9.69 5.152c.042-5.585-4.297-12.51-9.612-15.338z" data-name="Path 1404" transform="translate(-560.84 -200.832)" style="fill:#07566b"/>
                <path id="prefix__Path_1405" d="M570.562 232.645l-.032-.209c-.018-.121-.035-.238-.057-.358-.014-.078-.032-.16-.046-.238-.021-.114-.046-.231-.071-.344l-.043-.188c-.067-.294-.145-.593-.234-.887-.014-.046-.028-.092-.043-.135-.074-.248-.16-.5-.248-.749l-.032-.089c-.089-.248-.185-.493-.287-.742l-.075-.181c-.085-.206-.177-.408-.273-.614l-.053-.114c-.11-.231-.224-.461-.341-.688-.028-.057-.06-.114-.092-.174-.1-.181-.2-.365-.3-.543-.032-.053-.06-.11-.092-.163-.131-.224-.266-.447-.4-.667-.025-.043-.053-.082-.078-.121-.124-.192-.252-.383-.38-.575-.035-.053-.074-.106-.11-.16-.16-.227-.323-.454-.493-.678-.028-.035-.057-.071-.085-.11-.177-.231-.362-.461-.55-.685-.021-.025-.039-.05-.06-.071-.234-.28-.479-.55-.727-.812-.028-.028-.053-.06-.082-.089-.156-.167-.316-.33-.479-.486-.021-.021-.039-.039-.06-.057-.142-.138-.287-.273-.433-.408-.039-.035-.082-.071-.121-.11-.216-.2-.436-.387-.66-.568-.014-.011-.028-.025-.043-.035-.231-.188-.465-.365-.7-.536l-.135-.1c-.231-.163-.465-.323-.7-.472-.043-.028-.089-.053-.131-.082-.248-.153-.5-.3-.749-.433l10.857-5.7c.252.135.5.28.752.433.043.028.089.053.131.082.238.149.472.305.7.472l.135.1c.238.17.472.348.7.536a.184.184 0 0 1 .039.035c.224.181.443.373.663.568.025.021.05.039.071.06s.032.032.05.046c.145.135.291.27.436.412l.057.053q.245.239.479.49a.315.315 0 0 1 .032.035c.014.018.032.035.046.053.248.266.49.536.727.816 0 .007.011.011.014.018l.043.053c.188.224.369.454.55.685.018.025.039.046.057.071s.018.025.028.035c.17.224.333.447.493.678.014.021.032.043.046.06s.043.067.064.1c.131.188.255.38.38.575.018.028.039.057.057.089l.021.035c.138.22.273.443.4.667.011.018.021.035.032.057s.039.075.06.11q.154.271.3.543c.021.035.043.075.06.11l.032.064c.117.227.231.458.341.688 0 .011.011.018.014.028.014.028.025.057.039.085.1.2.185.408.273.614.014.035.032.067.046.1s.018.053.028.078c.1.245.2.493.287.742 0 .007.007.018.011.025l.021.064c.089.248.17.5.248.749l.032.092.011.043c.089.3.167.593.234.887l.021.082.021.1c.025.114.05.231.071.344.014.078.032.16.046.238.021.121.039.241.057.358.007.057.021.114.028.17v.039c.035.252.06.5.078.752l.011.163c.014.255.025.507.025.756l-10.857 5.7c0-.248-.007-.5-.025-.756 0-.053-.007-.11-.011-.163-.007-.244-.035-.493-.067-.748z" class="prefix__cls-4" data-name="Path 1405" transform="translate(-560.982 -190.477)"/>
            </g>
            <g id="prefix__Group_856" data-name="Group 856" transform="translate(20.319 56.899)">
                <path id="prefix__Path_1406" d="M627.681 300.669c1.6-.844 2.906-.167 2.909 1.511l.075 24.315a5.742 5.742 0 0 1-2.892 4.566l-23.19 12.216c-1.6.844-2.906.17-2.909-1.511l-.075-24.315a5.743 5.743 0 0 1 2.892-4.566z" data-name="Path 1406" transform="translate(-601.6 -300.306)" style="fill:#323157"/>
            </g>
            <g id="prefix__Group_860" data-name="Group 860" transform="translate(26.516 68.838)">
                <g id="prefix__Group_857" data-name="Group 857" transform="translate(10.188 13.509)">
                    <path id="prefix__Path_1407" d="M649.228 372.21a2.871 2.871 0 0 0-1.448 2.289c0 .841.656 1.178 1.458.756a2.871 2.871 0 0 0 1.448-2.288c-.004-.838-.657-1.179-1.458-.757z" data-name="Path 1407" transform="translate(-647.78 -372.029)"/>
                </g>
                <g id="prefix__Group_858" data-name="Group 858" transform="translate(3.578 16.993)">
                    <path id="prefix__Path_1408" d="M630.6 382.03a2.871 2.871 0 0 0-1.448 2.288c0 .841.656 1.178 1.458.756a2.861 2.861 0 0 0 1.444-2.285c-.005-.84-.654-1.181-1.454-.759z" data-name="Path 1408" transform="translate(-629.15 -381.849)"/>
                </g>
                <g id="prefix__Group_859" data-name="Group 859">
                    <path id="prefix__Path_1409" d="M619.554 338.2a.475.475 0 0 1 .248-.06l2.249.174c.153.011.245.131.245.319l.011 2.2 12.947-6.819a.342.342 0 0 1 .4 0 .438.438 0 0 1 .067.433l-2.186 7.93a1.025 1.025 0 0 1-.465.6l-10.743 5.659v1.707l10.722-5.648c.273-.145.493-.028.493.255a.974.974 0 0 1-.49.777l-11.215 5.907c-.27.142-.493.028-.493-.255l-.007-2.739-.021-6.773-.007-2.413-2-.156c-.234-.021-.316-.294-.181-.614a.982.982 0 0 1 .426-.484zm2.771 9.4l10.392-5.475 1.852-6.72-12.258 6.457.014 5.737" data-name="Path 1409" transform="translate(-619.067 -333.955)"/>
                </g>
            </g>
        </g>
        <g id="prefix__Group_869" data-name="Group 869" transform="translate(442.706 234.886)">
            <g id="prefix__Group_863" data-name="Group 863">
                <g id="prefix__Group_862" data-name="Group 862" transform="translate(.77 .404)">
                    <path id="prefix__Path_1410" d="M489.044 408.784c.426-.224.773-.046.773.4l.035 11.29.011 3-2.863-1.491-13.9 7.323c-.426.224-.77.043-.773-.4l-.032-10.481a1.522 1.522 0 0 1 .766-1.213z" data-name="Path 1410" transform="translate(-472.29 -408.688)"/>
                </g>
                <path id="prefix__Path_1411" d="M487.81 407.983a.543.543 0 0 1 .128-.025h.011a.479.479 0 0 1 .124.007h.007a.368.368 0 0 1 .11.039l-.766-.4-.039-.018c-.014 0-.028-.011-.039-.014l-.028-.007h-.007a.013.013 0 0 1-.011 0 .2.2 0 0 0-.046 0h-.078a.079.079 0 0 0-.028 0 .458.458 0 0 0-.067.014l-.028.011a.084.084 0 0 1-.028.007l-.035.011a.971.971 0 0 0-.11.05l-15.987 8.423a.908.908 0 0 0-.145.092.522.522 0 0 1-.046.035l-.067.053-.028.028-.025.025a.216.216 0 0 0-.028.028c-.021.021-.043.046-.064.071l-.021.025a.05.05 0 0 0-.011.014l-.021.025a.687.687 0 0 1-.046.06.348.348 0 0 0-.039.06l-.032.05c-.011.018-.021.039-.032.06l-.028.057v.007c-.011.021-.018.043-.028.064a.379.379 0 0 0-.025.067c0 .011-.007.021-.011.035s0 .011 0 .014a.051.051 0 0 0-.007.025l-.021.082-.011.05c-.004.018 0 .018 0 .025v.021a.911.911 0 0 0-.011.138l.032 10.481a.479.479 0 0 0 .224.451l.766.4a.478.478 0 0 1-.224-.451l-.032-10.481a.81.81 0 0 1 .014-.16v-.025a1.208 1.208 0 0 1 .039-.153v-.014a1.638 1.638 0 0 1 .067-.167 1.479 1.479 0 0 1 .092-.163 1.134 1.134 0 0 1 .106-.149s.007-.011.011-.014c.035-.043.075-.085.114-.124l.025-.025c.032-.028.064-.057.1-.082a.522.522 0 0 1 .046-.035 1.266 1.266 0 0 1 .145-.092l15.987-8.423a.944.944 0 0 1 .142-.06.037.037 0 0 1 .01-.023z" data-name="Path 1411" transform="translate(-470.12 -407.55)"/>
            </g>
            <g id="prefix__Group_868" data-name="Group 868" transform="translate(5.652 7.121)">
                <g id="prefix__Group_867" data-name="Group 867">
                    <g id="prefix__Group_864" data-name="Group 864" transform="translate(3.931 3.456)">
                        <path id="prefix__Path_1412" d="M500.579 437.839a1.608 1.608 0 0 1 .114.624v.461a2.614 2.614 0 0 1-.11.745 3.051 3.051 0 0 1-.337.738 3.388 3.388 0 0 1-.554.674 3.5 3.5 0 0 1-.766.543 2.238 2.238 0 0 1-.77.266.954.954 0 0 1-.564-.085.784.784 0 0 1-.344-.38 1.5 1.5 0 0 1-.117-.624v-.461a2.536 2.536 0 0 1 .114-.745 2.921 2.921 0 0 1 .341-.745 3.652 3.652 0 0 1 .557-.674 3.358 3.358 0 0 1 .763-.543 2.181 2.181 0 0 1 .773-.266 1 1 0 0 1 .561.085.781.781 0 0 1 .339.387zm-.972 1.657v-.461a.8.8 0 0 0-.043-.273.341.341 0 0 0-.351-.241.762.762 0 0 0-.309.1 1.241 1.241 0 0 0-.309.227 1.337 1.337 0 0 0-.22.291 1.158 1.158 0 0 0-.128.319 1.276 1.276 0 0 0-.043.319v.461a.641.641 0 0 0 .053.27.4.4 0 0 0 .145.177.383.383 0 0 0 .224.057.721.721 0 0 0 .294-.089 1.281 1.281 0 0 0 .333-.241 1.193 1.193 0 0 0 .209-.284 1.107 1.107 0 0 0 .11-.309 1.454 1.454 0 0 0 .032-.319" data-name="Path 1412" transform="translate(-497.13 -437.361)"/>
                    </g>
                    <g id="prefix__Group_865" data-name="Group 865" transform="translate(1.327)">
                        <path id="prefix__Path_1413" d="M493.771 427.62l.795.028-3.981 8.827-.795-.032z" data-name="Path 1413" transform="translate(-489.79 -427.62)"/>
                    </g>
                    <g id="prefix__Group_866" data-name="Group 866" transform="translate(0 .684)">
                        <path id="prefix__Path_1414" d="M488.608 433.263a3.338 3.338 0 0 1-.77.546 2.129 2.129 0 0 1-.77.263.937.937 0 0 1-.561-.085.733.733 0 0 1-.341-.38 1.5 1.5 0 0 1-.117-.621v-.454a2.541 2.541 0 0 1 .114-.749 2.955 2.955 0 0 1 .337-.742 3.516 3.516 0 0 1 .553-.678 3.441 3.441 0 0 1 .763-.543 2.2 2.2 0 0 1 .773-.266.936.936 0 0 1 .561.089.764.764 0 0 1 .341.387 1.588 1.588 0 0 1 .114.628v.454a2.627 2.627 0 0 1-.11.742 2.933 2.933 0 0 1-.337.738 3.586 3.586 0 0 1-.55.671zm-1.3-.394a.347.347 0 0 0 .22.057.736.736 0 0 0 .309-.1 1.142 1.142 0 0 0 .305-.227 1.341 1.341 0 0 0 .213-.287 1.217 1.217 0 0 0 .124-.319 1.271 1.271 0 0 0 .043-.316v-.454a.839.839 0 0 0-.043-.277.387.387 0 0 0-.128-.188.326.326 0 0 0-.216-.06.749.749 0 0 0-.312.1 1.141 1.141 0 0 0-.305.227 1.527 1.527 0 0 0-.216.287 1.134 1.134 0 0 0-.128.323 1.3 1.3 0 0 0-.043.319v.454a.8.8 0 0 0 .043.273.36.36 0 0 0 .135.188" data-name="Path 1414" transform="translate(-486.05 -429.547)"/>
                    </g>
                </g>
            </g>
        </g>
        <g id="prefix__Group_881" data-name="Group 881" transform="translate(427.63 237.339)">
            <g id="prefix__Group_872" data-name="Group 872">
                <g id="prefix__Group_871" data-name="Group 871">
                    <g id="prefix__Group_870" data-name="Group 870" transform="translate(.816 .472)">
                        <path id="prefix__Path_1415" d="M487.841 458.68a4.508 4.508 0 0 1-2.047 3.537l-23.96 13.834L432.1 493.22c-1.128.649-2.051.131-2.051-1.171l-.117-41.434a4.5 4.5 0 0 1 2.037-3.537l32.873-18.978 20.82-12.024c1.135-.656 2.054-.131 2.058 1.171z" data-name="Path 1415" transform="translate(-429.93 -415.793)"/>
                    </g>
                    <path id="prefix__Path_1416" d="M484.629 415.019a1.751 1.751 0 0 1 .337-.075h.032a1.12 1.12 0 0 1 .33.018h.018a.924.924 0 0 1 .294.114l-.812-.472s-.007 0-.011-.007a.921.921 0 0 0-.1-.05 1 1 0 0 0-.11-.039l-.075-.018h-.018a.065.065 0 0 1-.025-.007c-.039-.007-.082-.011-.124-.014a.857.857 0 0 0-.135 0h-.074c-.025 0-.05 0-.078.007a1.652 1.652 0 0 0-.181.039.692.692 0 0 0-.078.028.57.57 0 0 0-.071.025.954.954 0 0 0-.092.032 2.67 2.67 0 0 0-.287.142l-53.7 31a2.968 2.968 0 0 0-.383.266c-.039.032-.078.071-.117.1-.06.053-.121.1-.181.156a.883.883 0 0 0-.078.085c-.021.025-.046.046-.067.071s-.053.053-.078.082c-.057.064-.114.131-.167.2l-.057.074-.028.039-.053.071c-.039.057-.082.117-.117.177s-.071.114-.106.174a18.507 18.507 0 0 0-.014.028c-.028.046-.053.092-.078.142l-.089.174c-.029.057-.05.106-.075.163a1.546 1.546 0 0 1-.007.014c-.025.06-.053.124-.074.185l-.071.2a.992.992 0 0 0-.028.1.2.2 0 0 1-.014.043l-.021.071c-.021.078-.043.156-.057.234-.011.046-.018.1-.025.142 0 .025-.011.05-.014.075s-.007.046-.011.067a3.075 3.075 0 0 0-.025.4l.117 41.434a1.95 1.95 0 0 0 .16.82 1.085 1.085 0 0 0 .436.493l.813.472a1.431 1.431 0 0 1-.6-1.313l-.117-41.434a3.051 3.051 0 0 1 .039-.468.552.552 0 0 1 .014-.075 4.057 4.057 0 0 1 .1-.447.2.2 0 0 1 .014-.043 4.927 4.927 0 0 1 .177-.483v-.007a5.045 5.045 0 0 1 .241-.479s0-.011.007-.014a4.64 4.64 0 0 1 .287-.436l.028-.039c.1-.128.2-.245.3-.362.021-.025.046-.05.067-.071.082-.085.17-.163.259-.241.039-.035.078-.071.117-.1a2.969 2.969 0 0 1 .383-.266l53.7-31a2.113 2.113 0 0 1 .38-.174z" data-name="Path 1416" transform="translate(-427.63 -414.463)"/>
                </g>
            </g>
            <g id="prefix__Group_873" data-name="Group 873" transform="translate(24.758 .468)">
                <path id="prefix__Path_1417" d="M531.378 458.674a4.508 4.508 0 0 1-2.047 3.537l-23.96 13.834c-4.893-2.657-7.94-8.551-7.962-17-.032-10.14 4.3-21.629 10.97-30.953l20.82-12.024c1.135-.656 2.054-.131 2.058 1.171z" data-name="Path 1417" transform="translate(-497.409 -415.783)"/>
            </g>
            <g id="prefix__Group_880" data-name="Group 880" transform="translate(3.381 23.279)">
                <g id="prefix__Group_874" data-name="Group 874" transform="translate(.05 23.38)">
                    <path id="prefix__Path_1418" d="M447.383 546.143c.7-.4 1.267-.082 1.27.724a2.768 2.768 0 0 1-1.26 2.182l-8.82 5.091c-.7.4-1.27.085-1.274-.72a2.778 2.778 0 0 1 1.263-2.186z" class="prefix__cls-5" data-name="Path 1418" transform="translate(-437.3 -545.969)"/>
                </g>
                <g id="prefix__Group_875" data-name="Group 875" transform="translate(0 3.928)">
                    <path id="prefix__Path_1419" d="M449.631 491.284c.568-.326 1.025-.067 1.029.585l.028 9.839a2.251 2.251 0 0 1-1.022 1.77l-11.449 6.61c-.568.326-1.025.064-1.029-.585l-.028-9.839a2.246 2.246 0 0 1 1.022-1.77z" data-name="Path 1419" transform="translate(-437.16 -491.143)"/>
                </g>
                <g id="prefix__Group_876" data-name="Group 876" transform="translate(35.963 12.311)">
                    <path id="prefix__Path_1420" d="M549.859 515.405c2.555-1.476 4.634-.291 4.641 2.643a10.162 10.162 0 0 1-4.612 7.99 3.214 3.214 0 0 1-3.367.273 9.5 9.5 0 0 1-3.356 3.608c-2.555 1.476-4.637.291-4.644-2.647a10.182 10.182 0 0 1 4.616-7.99 3.214 3.214 0 0 1 3.367-.273 9.517 9.517 0 0 1 3.355-3.604z" data-name="Path 1420" transform="translate(-538.52 -514.77)"/>
                </g>
                <g id="prefix__Group_877" data-name="Group 877" transform="translate(13.553 15.588)">
                    <path id="prefix__Path_1421" d="M485.44 524.183c.7-.4 1.267-.082 1.27.724a2.768 2.768 0 0 1-1.26 2.182l-8.82 5.091c-.7.4-1.267.082-1.27-.724a2.772 2.772 0 0 1 1.26-2.182z" class="prefix__cls-5" data-name="Path 1421" transform="translate(-475.36 -524.009)"/>
                </g>
                <g id="prefix__Group_878" data-name="Group 878" transform="translate(27.054 7.793)">
                    <path id="prefix__Path_1422" d="M523.49 502.213c.7-.4 1.267-.082 1.27.724a2.768 2.768 0 0 1-1.26 2.182l-8.82 5.091c-.7.4-1.267.082-1.27-.724a2.772 2.772 0 0 1 1.26-2.182z" class="prefix__cls-5" data-name="Path 1422" transform="translate(-513.41 -502.039)"/>
                </g>
                <g id="prefix__Group_879" data-name="Group 879" transform="translate(40.55)">
                    <path id="prefix__Path_1423" d="M561.53 480.246c.7-.4 1.267-.082 1.27.724a2.772 2.772 0 0 1-1.26 2.182l-8.82 5.091c-.7.4-1.267.082-1.27-.724a2.772 2.772 0 0 1 1.26-2.182z" class="prefix__cls-5" data-name="Path 1423" transform="translate(-551.45 -480.073)"/>
                </g>
            </g>
        </g>
        <g id="prefix__Group_884" data-name="Group 884" transform="translate(451.118 282.761)">
            <path id="prefix__Path_1424" d="M564.534 552.64l7.3 37.939-3.651 2.108-5.473-36.887z" data-name="Path 1424" transform="translate(-538.271 -549.037)" style="fill:#b7d342"/>
            <g id="prefix__Group_882" data-name="Group 882" transform="translate(9.477)">
                <path id="prefix__Path_1425" d="M521.407 559.641a.688.688 0 0 1-.678-.575c-.021-.135-2.072-13.4 7.919-16.363a3.554 3.554 0 0 1 3.5.543c.27.227 2.6 2.413 1.8 8.863a.687.687 0 0 1-1.362-.17c.2-1.643.362-6.216-1.327-7.646a2.254 2.254 0 0 0-2.225-.273c-8.845 2.625-6.975 14.7-6.954 14.824a.684.684 0 0 1-.568.788.492.492 0 0 1-.105.009z" data-name="Path 1425" transform="translate(-520.542 -542.484)"/>
            </g>
            <path id="prefix__Path_1426" d="M506.12 565.285l21.9-12.645-1.82 3.16 9.125 1.054-21.907 12.646-1.824-4.219z" data-name="Path 1426" transform="translate(-501.759 -549.037)"/>
            <path id="prefix__Path_1427" d="M526.2 555.8l.862 5.826-13.644 7.874-1.824-4.219h-5.474l21.9-12.645z" data-name="Path 1427" transform="translate(-501.759 -549.037)" style="fill:#00935c"/>
            <path id="prefix__Path_1428" d="M493.83 662.95l28.441-16.42-2.37 4.105 11.85 1.37-28.441 16.42-2.366-5.475z" data-name="Path 1428" transform="translate(-493.83 -609.614)"/>
            <path id="prefix__Path_1429" d="M548.6 564.52l3.651 31.616-25.561 14.753v-33.72z" class="prefix__cls-26" data-name="Path 1429" transform="translate(-515.031 -556.702)"/>
            <path id="prefix__Path_1430" d="M575.062 580.88a.871.871 0 1 1-1.139-.316.835.835 0 0 1 1.139.316z" data-name="Path 1430" transform="translate(-545.191 -566.988)"/>
            <path id="prefix__Path_1431" d="M541.375 600.658a.87.87 0 1 1-1.1-.422.84.84 0 0 1 1.1.422z" data-name="Path 1431" transform="translate(-523.432 -579.701)"/>
            <path id="prefix__Path_1432" d="M503.132 619.9l1.824-31.616h-5.475L495.83 619.9z" data-name="Path 1432" transform="translate(-495.12 -572.032)"/>
            <path id="prefix__Path_1433" d="M520.057 626.219l-3.647-6.319 1.824-31.616 1.824 4.219z" data-name="Path 1433" transform="translate(-508.398 -572.032)"/>
            <g id="prefix__Group_883" data-name="Group 883" transform="translate(15.44 3.085)">
                <path id="prefix__Path_1434" d="M539.044 569.853a.687.687 0 0 1-.656-.486c-.1-.341-2.519-8.4.383-13.805a8.409 8.409 0 0 1 5.223-4.187 3.912 3.912 0 0 1 3.474.5c3.417 2.334 4.094 9.98 4.123 10.307a.687.687 0 0 1-1.37.114c-.17-2.029-1.142-7.657-3.53-9.289a2.571 2.571 0 0 0-2.31-.316 7.094 7.094 0 0 0-4.4 3.52c-2.633 4.9-.305 12.677-.28 12.755a.689.689 0 0 1-.458.859.7.7 0 0 1-.199.028z" data-name="Path 1434" transform="translate(-537.347 -551.179)"/>
            </g>
        </g>
        <g id="prefix__Group_885" data-name="Group 885" transform="translate(511.761 213.835)">
            <path id="prefix__Path_1435" d="M695.883 590.158s.49 1.437 0 1.767c-1.526 1.029-2.743-.234-4.417-1.327-1.256-.82-3.342-2.572-1.863-3.218 1.323-.58 6.28 2.778 6.28 2.778z" data-name="Path 1435" transform="translate(-680.456 -502.481)"/>
            <path id="prefix__Path_1436" d="M721.033 581.918s.49 1.437 0 1.767c-1.526 1.029-2.743-.234-4.417-1.327-1.256-.82-3.342-2.572-1.863-3.218 1.323-.575 6.28 2.778 6.28 2.778z" data-name="Path 1436" transform="translate(-696.683 -497.165)"/>
            <path id="prefix__Path_1437" d="M692.268 463.28a43.156 43.156 0 0 0-.348 9.232c.38 4.822.823 13.461.82 16.548s1.235 18.627 1.235 18.627.451 1.739 3.658 1.079c0 0 1.2-17.346 1.281-19.706s.5-16.793 1.26-16.956.848.245.848 1.061.49 10.364.678 11.6c.734 4.8.976 19.283 1.228 20.43 0 0 2.274 1.71 3.658.646 0 0 .756-17.2.926-19.652s1.582-19.823.422-23.846c-.683-2.384-12.728-.699-15.666.937z" data-name="Path 1437" transform="translate(-682.21 -421.086)"/>
            <path id="prefix__Path_1438" d="M687.412 380.608s-6.415.255-8.352-.177c-2.466-.55-12.273-7.614-12.273-7.614s-1.7-.582-1.568-1.412c.085-.525-.731-2.079-.38-2.37 1.072-.887 2.338 2.537 3.1 2.984s11 5.127 12.219 5.51c1.55.49 7.11-.575 7.11-.575z" data-name="Path 1438" transform="translate(-664.751 -361.554)"/>
            <path id="prefix__Path_1439" d="M707.833 409.232c-.507 3.431.688 5.116.486 6.273-.472 2.682-7.909 3.332-12.567 2.59-.17-.025-.334-.057-.493-.085a6.569 6.569 0 0 1-2.807-1.036c-.894-.745-.383-5.776-.2-7.738.209-2.313-.1-7.433-.287-11.162a19.888 19.888 0 0 1-.021-3.764c.255-.979 1.192-2.693 6.049-4.162 3.325-1 6.557-1.1 8.576-.039.827.433 1.749 3.413 1.863 4.474.178 1.756-.351 12.982-.599 14.649z" class="prefix__cls-26" data-name="Path 1439" transform="translate(-682.249 -374.758)"/>
            <path id="prefix__Path_1440" d="M695.375 433.866a6.568 6.568 0 0 1-2.806-1.036c-.894-.745-.383-5.776-.2-7.738.209-2.313-.1-7.433-.287-11.162h4.318s-.94 6.982-1.387 10.013c-.4 2.682-1.284 7.12.362 9.923z" class="prefix__cls-36" data-name="Path 1440" transform="translate(-682.369 -390.615)"/>
            <path id="prefix__Path_1441" d="M683.741 411.536s-1.125 4.744-1.547 6.614c-.539 2.384-5.907 14.274-5.907 14.274a6.72 6.72 0 0 0-.075 2.863s-.593.433-1.437-.947.22-2.274.674-3.016 2.679-12.134 3.062-13.312c.486-1.5 1.735-7.681 1.735-7.681z" data-name="Path 1441" transform="translate(-671.015 -388.292)"/>
            <path id="prefix__Path_1442" d="M687.362 401.034a32.5 32.5 0 0 0-3.062 8.1s3.168 2.814 5.727 2.292c0 0 1.5-5.467 1.437-6.929-.118-2.406-2.509-3.956-4.102-3.463z" class="prefix__cls-36" data-name="Path 1442" transform="translate(-677.364 -382.235)"/>
            <path id="prefix__Path_1443" d="M708.9 383.061s.078 1.639-.213 1.987c0 0 3.612 1.128 4.928-.085a19.992 19.992 0 0 1 .6-3.573z" data-name="Path 1443" transform="translate(-693.1 -369.62)"/>
            <path id="prefix__Path_1444" d="M708.007 364.884c.16-.592 2.53-4.694.007-6.833s-6.642-2.26-7.951-.827-1.352 2.388-1.139 3.161.025 3.8.117 4.481A17.485 17.485 0 0 0 700 367.5a3.981 3.981 0 0 0 3.271-.252s4.367-1.008 4.736-2.364z" data-name="Path 1444" transform="translate(-686.737 -353.416)"/>
            <path id="prefix__Path_1445" d="M701.129 358.294s-.266-1.582.837-1.739a1.056 1.056 0 0 1 1.171 1.4 4.422 4.422 0 0 1-.9 1.8s1 1.629.894 2.278c0 0 2.767 0 3.74-.887s1.1-1.731 1.643-3.243 1.983-5.868-.149-6.55c0 0-.188-1.841-2.81-2.7a9.827 9.827 0 0 0-6.961.486c-1.256.546-4 2.9.99 5.2-.006.006.356 3.636 1.545 3.955z" data-name="Path 1445" transform="translate(-685.369 -348.217)"/>
        </g>
        <g id="prefix__Group_893" data-name="Group 893" transform="translate(487.485 260.992)">
            <path id="prefix__Path_1446" d="M622.337 589.432a7.081 7.081 0 0 1 6.418 0l52.486 30.5c1.767 1.025 1.76 2.689-.018 3.718l-24.357 14.061a7.08 7.08 0 0 1-6.418 0l-52.486-30.5c-1.767-1.025-1.756-2.693.021-3.718z" data-name="Path 1446" transform="translate(-596.532 -550.51)"/>
            <path id="prefix__Path_1447" d="M674.018 640.255v4.506l-11.708-6.755V633.5z" class="prefix__cls-4" data-name="Path 1447" transform="translate(-638.9 -579.439)"/>
            <path id="prefix__Path_1448" d="M695.31 652.955l3.9-2.253v-4.5l-3.9 2.249z" class="prefix__cls-4" data-name="Path 1448" transform="translate(-660.192 -587.633)"/>
            <g id="prefix__Group_886" data-name="Group 886" transform="translate(4.087 45.463)">
                <path id="prefix__Path_1449" d="M619.259 619.1a9.788 9.788 0 0 0-4.439-7.685 3.182 3.182 0 0 0-3.09-.348l2.672-1.554a3.193 3.193 0 0 1 3.069.358 9.777 9.777 0 0 1 4.439 7.685 3 3 0 0 1-1.487 2.945l-2.26 1.313a3.277 3.277 0 0 0 1.096-2.714z" data-name="Path 1449" transform="translate(-610.353 -609.266)"/>
                <path id="prefix__Path_1450" d="M609.227 613.886a3.182 3.182 0 0 1 3.09.348 9.777 9.777 0 0 1 4.439 7.685 3.26 3.26 0 0 1-1.1 2.714 3 3 0 0 1-3.374-.17 9.788 9.788 0 0 1-4.435-7.685 3.068 3.068 0 0 1 1.38-2.892z" data-name="Path 1450" transform="translate(-607.85 -612.078)"/>
                <path id="prefix__Path_1451" d="M614.107 620.824a1.792 1.792 0 0 1 1.739.2 5.506 5.506 0 0 1 2.5 4.325 1.838 1.838 0 0 1-.617 1.529 1.689 1.689 0 0 1-1.9-.1 5.506 5.506 0 0 1-2.5-4.325 1.735 1.735 0 0 1 .778-1.629z" data-name="Path 1451" transform="translate(-611.386 -616.628)"/>
                <path id="prefix__Path_1452" d="M614.323 624.061c-.039-.117-.075-.231-.1-.341.369.114.635-.11.635-.55a1.815 1.815 0 0 0-.628-1.281 1.811 1.811 0 0 1 .1-.224 1.563 1.563 0 0 0 .433.39.579.579 0 0 0 .578.057c.273-.156.319-.607.121-1.093a1.429 1.429 0 0 1 .245.021 1.813 1.813 0 0 0 .795 1.185c.387.224.713.11.8-.266.082.082.163.167.245.259a1.194 1.194 0 0 0 .114 1.228 1.661 1.661 0 0 0 .578.61.7.7 0 0 0 .433.106c.039.117.074.231.1.341-.373-.117-.635.11-.635.55a1.815 1.815 0 0 0 .628 1.281 1.614 1.614 0 0 1-.1.224 1.563 1.563 0 0 0-.433-.39.579.579 0 0 0-.578-.057c-.273.156-.319.607-.121 1.1a1.862 1.862 0 0 1-.245-.025 1.813 1.813 0 0 0-.795-1.185c-.387-.224-.713-.11-.8.266-.082-.082-.163-.167-.245-.259a1.2 1.2 0 0 0-.114-1.231 1.689 1.689 0 0 0-.578-.61.76.76 0 0 0-.433-.1" data-name="Path 1452" transform="translate(-611.96 -616.85)"/>
            </g>
            <g id="prefix__Group_887" data-name="Group 887">
                <path id="prefix__Path_1453" d="M631.448 566.522v-27.029l-35.114-20.273v27.032z" data-name="Path 1453" transform="translate(-596.33 -505.706)" style="fill:#5e97a5"/>
                <path id="prefix__Path_1454" d="M631.451 514.918l23.41-13.514-35.111-20.274-23.41 13.514z" data-name="Path 1454" transform="translate(-596.336 -481.13)" style="fill:#a0ddf5"/>
                <path id="prefix__Path_1455" d="M718.71 538.27v27.03l-23.41 13.513v-27.029z" data-name="Path 1455" transform="translate(-660.185 -517.997)" style="fill:#76b2c4"/>
            </g>
            <path id="prefix__Path_1456" d="M711.948 668.735l5.68-3.236-5.928-3.349-5.393 3.332z" data-name="Path 1456" transform="translate(-667.289 -597.924)"/>
            <g id="prefix__Group_888" data-name="Group 888" transform="translate(44.411 67.62)">
                <path id="prefix__Path_1457" d="M732.909 681.552a9.788 9.788 0 0 0-4.439-7.685 3.182 3.182 0 0 0-3.09-.348l2.672-1.554a3.193 3.193 0 0 1 3.069.358 9.777 9.777 0 0 1 4.439 7.685 3 3 0 0 1-1.487 2.945l-2.26 1.313a3.267 3.267 0 0 0 1.096-2.714z" data-name="Path 1457" transform="translate(-724.003 -671.716)"/>
                <path id="prefix__Path_1458" d="M722.877 676.326a3.182 3.182 0 0 1 3.09.348 9.777 9.777 0 0 1 4.439 7.685 3.26 3.26 0 0 1-1.1 2.714 3 3 0 0 1-3.374-.17 9.788 9.788 0 0 1-4.435-7.685 3.076 3.076 0 0 1 1.38-2.892z" data-name="Path 1458" transform="translate(-721.5 -674.522)"/>
                <path id="prefix__Path_1459" d="M727.767 683.264a1.792 1.792 0 0 1 1.739.2 5.506 5.506 0 0 1 2.5 4.325 1.838 1.838 0 0 1-.617 1.529 1.689 1.689 0 0 1-1.9-.1 5.506 5.506 0 0 1-2.5-4.325 1.726 1.726 0 0 1 .778-1.629z" data-name="Path 1459" transform="translate(-725.042 -679.072)"/>
                <path id="prefix__Path_1460" d="M727.973 686.511c-.039-.117-.075-.231-.1-.341.369.114.635-.11.635-.55a1.815 1.815 0 0 0-.628-1.281 1.815 1.815 0 0 1 .1-.224 1.562 1.562 0 0 0 .433.39.578.578 0 0 0 .578.057c.273-.156.319-.607.121-1.093a1.43 1.43 0 0 1 .245.021 1.813 1.813 0 0 0 .795 1.185c.387.223.713.11.8-.266.082.082.163.167.245.259a1.194 1.194 0 0 0 .114 1.228 1.661 1.661 0 0 0 .578.61.7.7 0 0 0 .433.106c.039.117.074.231.1.341-.373-.117-.635.11-.635.55a1.822 1.822 0 0 0 .628 1.281 1.6 1.6 0 0 1-.1.224 1.566 1.566 0 0 0-.433-.39.579.579 0 0 0-.578-.057c-.273.156-.319.607-.121 1.1a1.85 1.85 0 0 1-.245-.025 1.813 1.813 0 0 0-.795-1.185c-.387-.224-.713-.11-.8.266-.082-.082-.163-.167-.245-.259a1.2 1.2 0 0 0-.114-1.231 1.689 1.689 0 0 0-.578-.61.721.721 0 0 0-.433-.1" data-name="Path 1460" transform="translate(-725.61 -679.299)"/>
            </g>
            <path id="prefix__Path_1461" d="M615.837 606.665v4.506l-5.915-3.417a11.292 11.292 0 0 0-4.588-5.946 3.662 3.662 0 0 0-3.559-.4 2.593 2.593 0 0 0-1.04 1.04l-4.405-2.548v-4.5z" class="prefix__cls-4" data-name="Path 1461" transform="translate(-596.33 -554.857)"/>
            <path id="prefix__Path_1462" d="M651.313 629.4l3.9 2.253V629.4l-3.906-2.253z" class="prefix__cls-4" data-name="Path 1462" transform="translate(-631.803 -575.342)"/>
            <path id="prefix__Path_1463" d="M651.31 631.656l1.955-1.128v-2.253l-1.955-1.125z" class="prefix__cls-4" data-name="Path 1463" transform="translate(-631.803 -575.342)"/>
            <path id="prefix__Path_1464" d="M706.31 647l5.638 3.254a3.486 3.486 0 0 1 1.629-3.069 3.839 3.839 0 0 1 3.725.415 11.674 11.674 0 0 1 4.726 6.028l.074.206a9.636 9.636 0 0 1 .525 2.59l7.085 4.091 23.413-13.511-23.41-13.518-2.991 1.728z" data-name="Path 1464" transform="translate(-667.289 -579.432)" style="fill:#b3b3b3"/>
            <path id="prefix__Path_1465" d="M729.707 584.342V557.31l-23.417 13.514.007 27.032z" data-name="Path 1465" transform="translate(-667.276 -530.281)" style="fill:#e6e6e6"/>
            <g id="prefix__Group_889" data-name="Group 889" transform="translate(62.427 27.029)">
                <path id="prefix__Path_1466" d="M772.28 557.31v27.032l5.638 3.254v-.014a4.293 4.293 0 0 1 .632-2.118 2.662 2.662 0 0 1 1-.933 3.84 3.84 0 0 1 3.725.415 11.674 11.674 0 0 1 4.725 6.028l.075.206a9.634 9.634 0 0 1 .525 2.59l7.085 4.091V583.64a22 22 0 0 0-.319-3.743 22.663 22.663 0 0 0-.951-3.637 22.176 22.176 0 0 0-9.707-11.712l-12.425-7.227z" data-name="Path 1466" transform="translate(-772.28 -557.31)" style="fill:#f2f2f2"/>
                <path id="prefix__Path_1467" d="M783.28 580.307l18.038 10.413a19.1 19.1 0 0 0-.3-3.356 21.333 21.333 0 0 0-.887-3.4 20.806 20.806 0 0 0-3.711-6.443 20.459 20.459 0 0 0-5.35-4.485l-7.791-4.531zm11.527-3.1c.3.309.585.621.866.951a19.914 19.914 0 0 1 3.537 6.131 20.294 20.294 0 0 1 .844 3.236c.085.507.153.983.2 1.444l-5.446-3.143zm-10.548 2.53v-9.53l6.319 3.676a19.409 19.409 0 0 1 3.25 2.374v9z" data-name="Path 1467" transform="translate(-779.377 -564.536)" style="fill:#999"/>
                <path id="prefix__Path_1468" d="M818.647 596.827a19.9 19.9 0 0 1 1.526 3.278 20.279 20.279 0 0 1 .844 3.236c.085.507.153.983.2 1.444l-5.446-3.144v-8.621c.3.309.585.621.866.951a19.674 19.674 0 0 1 2.01 2.856z" data-name="Path 1468" transform="translate(-800.34 -580.35)"/>
                <path id="prefix__Path_1469" d="M792.353 576.969a19.416 19.416 0 0 1 3.25 2.374v9l-9.573-5.528v-9.53z" data-name="Path 1469" transform="translate(-781.152 -567.62)"/>
            </g>
            <path id="prefix__Path_1470" d="M724.462 582.863a22.1 22.1 0 0 0-5.734-4.808l-12.428-7.231 23.413-13.511 12.425 7.234a21.954 21.954 0 0 1 5.73 4.8l-18.155 10.488z" class="prefix__cls-3" data-name="Path 1470" transform="translate(-667.282 -530.281)"/>
            <g id="prefix__Group_891" data-name="Group 891" transform="translate(39.018 40.543)">
                <path id="prefix__Path_1471" d="M706.3 595.4v27.032l5.638 3.253v-.014a4.3 4.3 0 0 1 .632-2.118 2.663 2.663 0 0 1 1-.933 3.84 3.84 0 0 1 3.725.415 11.674 11.674 0 0 1 4.726 6.028l.075.206a9.638 9.638 0 0 1 .525 2.59l7.085 4.091v-14.224a22 22 0 0 0-.319-3.743 22.655 22.655 0 0 0-.951-3.637 22.176 22.176 0 0 0-9.707-11.712l-12.429-7.227z" data-name="Path 1471" transform="translate(-706.3 -595.4)" style="fill:#b9c4d6"/>
                <path id="prefix__Path_1472" d="M750.62 690.27l.074.206a9.636 9.636 0 0 1 .525 2.59l7.085 4.091v-2.48z" class="prefix__cls-4" data-name="Path 1472" transform="translate(-734.895 -656.61)"/>
                <path id="prefix__Path_1473" d="M706.31 664.62v2.455l5.638 3.253a4.294 4.294 0 0 1 .632-2.118z" class="prefix__cls-4" data-name="Path 1473" transform="translate(-706.306 -640.06)"/>
                <path id="prefix__Path_1474" d="M717.29 618.4l18.038 10.413a19.1 19.1 0 0 0-.3-3.356 21.341 21.341 0 0 0-.887-3.4 20.808 20.808 0 0 0-3.711-6.443 20.46 20.46 0 0 0-5.35-4.485l-7.79-4.529zm11.531-3.1c.3.309.585.621.866.951a19.913 19.913 0 0 1 3.537 6.131 20.286 20.286 0 0 1 .844 3.236c.085.507.153.983.2 1.444l-5.446-3.144zm-10.552 2.53v-9.53l6.319 3.676a19.406 19.406 0 0 1 3.25 2.374v9z" class="prefix__cls-4" data-name="Path 1474" transform="translate(-713.391 -602.626)"/>
                <path id="prefix__Path_1475" d="M752.667 634.917a19.9 19.9 0 0 1 1.526 3.278 20.294 20.294 0 0 1 .844 3.236c.085.507.153.983.2 1.444l-5.446-3.143v-8.622c.3.309.585.621.866.951a20.219 20.219 0 0 1 2.01 2.856z" data-name="Path 1475" transform="translate(-734.36 -618.44)"/>
                <path id="prefix__Path_1476" d="M726.372 615.059a19.417 19.417 0 0 1 3.25 2.374v9l-9.573-5.528v-9.53z" data-name="Path 1476" transform="translate(-715.171 -605.71)"/>
                <g id="prefix__Group_890" data-name="Group 890" transform="translate(17.91 17.857)">
                    <path id="prefix__Path_1477" d="M760.264 653.355a.245.245 0 0 0 0-.49l-2.995-.05v-6.585l1.313-.011a.245.245 0 0 0 0-.49l-1.558.014a.242.242 0 0 0-.241.245v7.068a.245.245 0 0 0 .241.245l3.232.053z" data-name="Path 1477" transform="translate(-756.78 -645.73)"/>
                </g>
                <path id="prefix__Path_1478" d="M754.78 654.458h.539a.712.712 0 0 0 .71-.71v-3.668a.712.712 0 0 0-.71-.71h-.539a.712.712 0 0 0-.71.71v3.669a.709.709 0 0 0 .71.709z" data-name="Path 1478" transform="translate(-737.121 -630.221)"/>
            </g>
            <g id="prefix__Group_892" data-name="Group 892" transform="translate(57.18 39.067)">
                <path id="prefix__Path_1479" d="M772.27 658.049v2.48l23.413-13.511V633.5l-23.4 13.518z" class="prefix__cls-3" data-name="Path 1479" transform="translate(-767.026 -618.506)"/>
                <path id="prefix__Path_1480" d="M761.467 611.662a22.027 22.027 0 0 0-3.977-6.9l5.251-3.03L780.9 591.24a22.139 22.139 0 0 1 5.251 14.291v.706L774.442 613l-11.7 6.759v-.711a22.243 22.243 0 0 0-1.275-7.386z" class="prefix__cls-4" data-name="Path 1480" transform="translate(-757.49 -591.24)"/>
                <path id="prefix__Path_1481" d="M772.27 678.108v2.48l23.413-13.511v-2.487z" class="prefix__cls-4" data-name="Path 1481" transform="translate(-767.026 -638.565)"/>
                <path id="prefix__Path_1482" d="M787.006 607.1v-.422a21.615 21.615 0 0 0-4.875-13.656l-17.8 10.282-4.751 2.739a22.513 22.513 0 0 1 4.989 14.015z" data-name="Path 1482" transform="translate(-758.838 -592.388)"/>
                <path id="prefix__Path_1483" d="M795.683 649.952v-4.712l-23.4 13.514-.007 4.715z" class="prefix__cls-4" data-name="Path 1483" transform="translate(-767.026 -626.081)"/>
                <path id="prefix__Path_1484" d="M802.764 659.14l-.635 3.459-5.109 2.963-2.689-1.554z" data-name="Path 1484" transform="translate(-781.259 -635.049)"/>
                <path id="prefix__Path_1485" d="M775.09 678.322v2.54l.983-.568 7.337-4.247-2.168-1.277-5.169 2.984z" data-name="Path 1485" transform="translate(-768.845 -645.133)"/>
                <path id="prefix__Path_1486" d="M819.06 655.807l4.836-2.8.983-.568v-2.53l-.979.568-4.272 2.466z" data-name="Path 1486" transform="translate(-797.215 -629.094)"/>
                <path id="prefix__Path_1487" d="M832.69 650.478v2.53l.983-.568v-2.53z" data-name="Path 1487" transform="translate(-806.009 -629.094)"/>
                <path id="prefix__Path_1488" d="M775.09 683.748v2.54l.983-.568v-2.54z" data-name="Path 1488" transform="translate(-768.845 -650.559)"/>
            </g>
        </g>
        <g id="prefix__Group_895" data-name="Group 895" transform="translate(546.056 220.478)">
            <path id="prefix__Path_1489" d="M799.732 389.019c-.007-.2-.014-.39-.028-.585-.011-.153-.021-.305-.036-.458v-.057a.386.386 0 0 1 0-.064c-.018-.192-.039-.387-.064-.578s-.053-.39-.082-.582l-.057-.33c-.007-.032-.011-.064-.018-.1-.011-.053-.018-.106-.028-.16-.036-.2-.078-.394-.121-.592s-.092-.4-.142-.6c-.014-.06-.032-.121-.046-.181-.007-.035-.018-.067-.028-.1-.028-.106-.053-.213-.085-.319-.057-.2-.114-.4-.174-.6s-.124-.4-.192-.6c0-.007-.007-.018-.011-.025s-.007-.018-.011-.028c-.06-.174-.117-.348-.181-.522-.067-.192-.138-.38-.213-.568-.057-.145-.117-.291-.174-.433a.421.421 0 0 0-.025-.06c-.011-.021-.018-.046-.028-.067-.078-.184-.156-.369-.238-.553s-.174-.39-.266-.582c-.039-.085-.082-.167-.121-.252l-.06-.124c-.039-.078-.074-.16-.114-.238-.124-.248-.252-.5-.383-.742-.05-.092-.106-.185-.156-.277l-.234-.415-.234-.419c-.078-.139-.156-.241-.231-.365-.167-.27-.333-.539-.5-.8-.071-.11-.138-.227-.209-.334-.085-.128-.177-.248-.263-.372-.117-.17-.234-.341-.355-.507-.067-.1-.131-.2-.2-.287-.188-.255-.38-.507-.575-.752l-.021-.025a.608.608 0 0 0-.042-.05c-.156-.2-.309-.39-.468-.578l-.511-.6-.011-.011c-.17-.2-.341-.383-.515-.571s-.341-.358-.511-.536c-.007-.007-.011-.014-.018-.018l-.011-.011c-.188-.192-.373-.376-.564-.557-.142-.138-.287-.27-.429-.4-.028-.025-.053-.05-.082-.075a.682.682 0 0 0-.053-.05c-.188-.17-.376-.333-.564-.493-.121-.1-.241-.2-.358-.294-.032-.028-.067-.057-.1-.082s-.053-.043-.078-.064c-.174-.135-.344-.27-.518-.394-.135-.1-.266-.192-.4-.284-.018-.011-.036-.025-.053-.035a.281.281 0 0 1-.039-.028c-.152-.1-.305-.206-.454-.3s-.291-.181-.436-.266c-.032-.021-.067-.039-.1-.057-.121-.071-.241-.135-.362-.2q-.234-.128-.468-.245c-.1-.05-.209-.1-.312-.145-.025-.011-.05-.025-.078-.036l-.092-.043c-.16-.071-.323-.142-.483-.206s-.333-.128-.5-.188l-.064-.021-.067-.021c-.124-.043-.252-.085-.376-.124-.174-.053-.348-.1-.521-.142-.06-.014-.121-.025-.181-.039-.039-.011-.082-.018-.121-.028l-.234-.053c-.185-.035-.365-.067-.55-.089-.078-.011-.153-.014-.231-.025-.05-.007-.1-.011-.149-.014-.067-.007-.138-.018-.206-.021-.206-.014-.411-.021-.614-.021-.05 0-.1.007-.153.007s-.121.007-.184.007c-.106 0-.216.007-.319.014-.181.018-.358.046-.536.078-.046.007-.1.011-.138.021-.018 0-.035 0-.05.007a6.075 6.075 0 0 0-.88.241l-.021.011a5.905 5.905 0 0 0-.961.443L771 372.216a5.909 5.909 0 0 1 .962-.444 6.588 6.588 0 0 1 .951-.259c.046-.011.1-.014.142-.021a7.5 7.5 0 0 1 .855-.092c.06 0 .121-.007.184-.007a8.175 8.175 0 0 1 .972.035c.05 0 .1.011.149.014a9.438 9.438 0 0 1 1.015.167c.039.007.082.018.121.028a10.513 10.513 0 0 1 1.078.309l.068.021c.376.131.756.284 1.135.454.025.011.05.025.074.035.383.177.763.373 1.142.592.341.2.685.415 1.029.656.018.011.036.025.053.035.33.227.66.475.993.742.032.025.067.053.1.082.3.245.607.5.908.777l-7.142 4.151a2.6 2.6 0 0 0-.475.365c-.046.043-.085.089-.128.135a3 3 0 0 0-.28.348c-.021.032-.05.057-.071.089s-.039.071-.06.106c-.035.057-.068.117-.1.181-.025.046-.05.085-.075.131-.032.067-.06.142-.089.213-.014.032-.028.06-.039.092s-.014.032-.021.046c-.043.117-.082.234-.121.358a.924.924 0 0 0-.025.1l-.021.089c-.014.05-.025.1-.039.145-.025.11-.05.224-.067.341l-.011.064c0 .021-.007.046-.011.067-.011.064-.021.128-.028.192-.014.11-.025.22-.036.33a.525.525 0 0 0 0 .074v.067c0 .06-.007.121-.011.184 0 .106-.007.216-.007.326v.33c0 .11.007.22.014.33 0 .064.011.124.014.188 0 .021 0 .046.007.067s0 .053.007.078c.011.11.021.224.039.337l.043.3v.025a.021.021 0 0 0 0 .014c.018.114.039.227.06.341s.046.227.071.341c0 .018.007.035.011.05l.011.053c.018.082.035.16.057.241.028.11.057.22.089.334.014.046.028.1.043.142l.021.071.032.117q.048.165.106.33c.032.1.067.192.1.291 0 .007 0 .011.007.018a.027.027 0 0 0 .007.014c.032.085.064.17.1.259s.075.192.117.287c.028.071.06.142.092.209a.126.126 0 0 0 .014.032.362.362 0 0 1 .014.035c.039.092.082.184.124.273s.085.181.131.273c.021.046.046.089.071.135l.053.1c.028.053.053.106.085.16.082.149.163.3.252.443.021.036.042.071.064.1.131.22.27.44.415.656.1.142.2.28.3.419.014.021.032.039.046.06a.187.187 0 0 0 .021.028c.05.067.1.135.152.2.067.085.135.167.2.248s.131.156.2.234.138.156.209.231c.039.043.078.082.117.121l.025.025c.028.028.053.057.082.085.078.078.156.156.238.234s.167.156.252.234.174.156.262.231c.06.05.121.1.185.149l.028.021.06.05c.092.071.184.142.28.213s.188.135.284.2.192.131.291.192.17.106.255.156l.121.067c.1.053.188.1.284.145l.27.128c.057.025.11.046.163.071.011 0 .021.011.032.014s.039.018.06.025c.085.032.167.064.248.092s.163.057.241.078.146.043.216.06h.022c.082.021.16.039.238.053s.16.028.238.039.145.018.216.021h.028a2.045 2.045 0 0 0 .255.007 2.309 2.309 0 0 0 .273-.014l.1-.011a.06.06 0 0 0 .025 0 3.213 3.213 0 0 0 .33-.05c.06-.014.117-.032.174-.05a.838.838 0 0 0 .089-.025c.021-.007.046-.011.067-.018a2.5 2.5 0 0 0 .419-.2l7.65-4.446a2.59 2.59 0 0 1-.486.213.824.824 0 0 1-.089.025 2.824 2.824 0 0 1-.532.1 3.527 3.527 0 0 1-.646.014h-.014a4.508 4.508 0 0 1-.706-.117h-.011a5.694 5.694 0 0 1-.763-.259c-.011 0-.021-.011-.032-.014-.266-.114-.546-.248-.837-.408a9.7 9.7 0 0 1-1.171-.816l-.028-.021a11.043 11.043 0 0 1-1.018-.933l-.025-.025a11.508 11.508 0 0 1-.88-1.036.2.2 0 0 0-.021-.028 12.613 12.613 0 0 1-.759-1.135c-.142-.234-.273-.468-.4-.71l-.053-.1q-.181-.357-.341-.713a.125.125 0 0 0-.014-.032c-.11-.252-.209-.5-.3-.756 0 0 0-.011-.007-.014-.092-.252-.17-.5-.245-.752l-.021-.067c-.071-.241-.131-.479-.184-.717l-.011-.053c-.057-.252-.1-.5-.142-.749v-.025q-.053-.362-.085-.713c0-.021 0-.046-.007-.067-.018-.224-.028-.44-.032-.656v-.061c0-.213 0-.422.018-.628v-.067c.014-.206.039-.4.067-.6 0-.021.007-.046.011-.067.032-.188.071-.369.114-.546l.021-.089a5.17 5.17 0 0 1 .163-.5 1 1 0 0 1 .039-.092c.05-.121.106-.234.163-.344.032-.06.064-.121.1-.181a2.315 2.315 0 0 1 .131-.2 2.99 2.99 0 0 1 .28-.348c.043-.046.082-.092.128-.135l.025-.021.011.011c.028.025.053.05.082.075.337.309.671.628 1 .969.007.007.011.014.018.018.344.351.688.72 1.025 1.1l.011.011c.334.38.66.773.983 1.181a.528.528 0 0 0 .039.046c.27.344.536.7.795 1.064.121.167.238.333.355.5.163.234.319.472.475.71.17.263.341.532.5.8s.316.518.465.784l.234.415c.227.412.447.83.653 1.256l.06.124c.231.479.451.965.653 1.455a.434.434 0 0 0 .025.06q.309.756.571 1.522c0 .011.007.018.011.028.17.507.323 1.022.458 1.54l.028.1c.131.507.241 1.022.333 1.533.007.032.011.064.018.1.089.518.163 1.036.209 1.558a.305.305 0 0 1 0 .057c.046.532.071 1.064.071 1.6a21.514 21.514 0 0 1-.131 2.274c0 .05-.011.1-.014.149-.085.72-.206 1.416-.355 2.093-.007.028-.011.057-.018.085-.142.614-.316 1.206-.5 1.785-.053.16-.1.319-.16.479-.135.387-.287.752-.44 1.121-.114.27-.22.543-.341.8-.1.206-.2.4-.305.6-.3.6-.617 1.174-.954 1.724-.142.231-.28.468-.426.692-.071.11-.146.216-.217.323-.309.451-.621.887-.944 1.3l-.085.106c-.305.387-.614.752-.922 1.1l-.224.255c-.326.362-.653.706-.976 1.032-.053.053-.106.106-.163.16-.291.287-.578.557-.859.813l-.192.174q-.468.415-.9.777c-.06.05-.117.1-.177.142-.255.206-.5.4-.731.571-.046.035-.092.071-.138.1-.255.192-.5.362-.717.518-.053.035-.1.071-.153.1l-.525.355c-.014.011-.036.021-.05.032-.17.11-.309.2-.422.266-.025.018-.053.032-.074.046-.085.05-.16.1-.192.114l7.65-4.446.192-.114c.028-.018.043-.025.075-.046.114-.067.248-.153.422-.266a.587.587 0 0 1 .05-.032c.156-.1.337-.224.532-.358.05-.032.092-.064.145-.1.224-.156.461-.326.72-.522l.131-.1c.234-.177.475-.369.731-.575.06-.05.117-.092.177-.145.291-.241.593-.5.9-.777l.192-.174c.28-.255.568-.525.859-.812.053-.053.107-.1.163-.16.323-.323.649-.671.979-1.033.075-.082.149-.167.224-.252q.468-.527.926-1.107l.085-.106c.323-.412.635-.848.944-1.3.071-.106.145-.213.216-.323s.167-.241.245-.365c.064-.1.117-.224.181-.326.337-.55.653-1.125.954-1.721.064-.131.146-.241.206-.373.036-.074.064-.156.1-.231.121-.259.227-.532.341-.8.1-.252.22-.49.316-.749.046-.121.082-.252.124-.376.057-.16.106-.319.16-.479.06-.181.128-.358.181-.543.113-.39.22-.788.312-1.192 0-.014.007-.032.011-.046s.011-.057.018-.085c.071-.319.138-.639.2-.969.053-.309.1-.621.142-.937l.021-.188c.007-.06.011-.1.014-.149.021-.192.046-.383.06-.582.021-.27.039-.539.05-.812s.018-.55.021-.83v-.05c0-.146-.004-.334-.007-.515z" data-name="Path 1489" transform="translate(-767.597 -366.94)" style="fill:#197795"/>
            <g id="prefix__Group_894" data-name="Group 894" transform="translate(0 4.45)">
                <path id="prefix__Path_1490" d="M773.665 381.145c5.517 3.186 12.262 12.283 12.237 20.962-.036 12.979-11.7 19.741-12.319 20.1-.61-1.05-12.209-21.029-12.173-34.238.025-8.68 6.408-10.202 12.255-6.824zm2.984 21.583c4.566-.376 3.6-10.829-2.945-14.611-6.056-3.495-7.387 4.19-3.967 9.824a11.338 11.338 0 0 0 3.9 4 5.009 5.009 0 0 0 3.009.788" data-name="Path 1490" transform="translate(-761.41 -379.482)" style="fill:#288eb7"/>
            </g>
        </g>
    </g>
</svg>
