<?xml version="1.0" encoding="UTF-8"?>
<svg width="104px" height="70px" viewBox="0 0 104 70" version="1.1" xmlns="http://www.w3.org/2000/svg" xmlns:xlink="http://www.w3.org/1999/xlink">
    <!-- Generator: Sketch 59.1 (86144) - https://sketch.com -->
    <title>Develop</title>
    <desc>Created with Sketch.</desc>
    <g id="Page-1" stroke="none" stroke-width="1" fill="none" fill-rule="evenodd">
        <g id="01-HomePage-02" transform="translate(-948.000000, -1821.000000)">
            <g id="Develop" transform="translate(948.000000, 1821.000000)">
                <path d="M63.6947791,3.91973244 L64,4 L63.6947791,4.08026756 C61.9129853,4.52173913 60.5220884,5.91304348 60.0749665,7.69230769 L59.9986613,8 L59.9250335,7.69230769 C59.4779116,5.91304348 58.085676,4.52173913 56.3052209,4.08026756 L56,4 L56.3052209,3.91973244 C58.085676,3.47826087 59.4779116,2.08695652 59.9250335,0.307692308 L59.9986613,0 L60.0749665,0.307692308 C60.5220884,2.08695652 61.9129853,3.47826087 63.6947791,3.91973244" id="Fill-3270" fill="#330D84"></path>
                <path d="M12.5062775,36.3776151 L13,36.5 L12.5062775,36.6223849 C9.61194811,37.3430962 7.35007324,39.6004184 6.62377066,42.4968619 L6.50136012,43 L6.37758945,42.4968619 C5.65128688,39.6004184 3.38941201,37.3430962 0.495082653,36.6223849 L0,36.5 L0.495082653,36.3776151 C3.38941201,35.6433054 5.65128688,33.3859833 6.37758945,30.4895397 L6.50136012,30 L6.62377066,30.4895397 C7.35007324,33.3859833 9.61194811,35.6433054 12.5062775,36.3776151" id="Fill-3271" fill="#FFBE1B"></path>
                <path d="M103.620412,13.9095967 L104,13.9930459 L103.620412,14.0904033 C101.391546,14.6467316 99.6535039,16.3852573 99.0959399,18.6244784 L99.0013904,19 L98.9040601,18.6244784 C98.3464961,16.3852573 96.6070634,14.6467316 94.3795884,14.0904033 L94,13.9930459 L94.3795884,13.9095967 C96.6070634,13.3393602 98.3464961,11.6008345 98.9040601,9.37552156 L99.0013904,9 L99.0959399,9.37552156 C99.6535039,11.6008345 101.391546,13.3393602 103.620412,13.9095967" id="Fill-3272" fill="#5D8EF9"></path>
                <path d="M83.0069427,70 L21.9944063,70 C18.1323069,70 15,66.8078358 15,62.8726679 L15,18.1273321 C15,14.1921642 18.1323069,11 21.9944063,11 L83.0069427,11 C86.870391,11 90,14.1921642 90,18.1273321 L90,62.8726679 C90,66.8078358 86.870391,70 83.0069427,70" id="Fill-3273" fill="#332967"></path>
                <path d="M68,16.9935275 C68,18.1067961 67.1044969,19 66.000647,19 C64.8967972,19 64,18.1067961 64,16.9935275 C64,15.8932039 64.8967972,15 66.000647,15 C67.1044969,15 68,15.8932039 68,16.9935275" id="Fill-3274" fill="#FFFFFE"></path>
                <path d="M76,16.9935275 C76,18.1067961 75.1034929,19 74,19 C72.8952135,19 72,18.1067961 72,16.9935275 C72,15.8932039 72.8952135,15 74,15 C75.1034929,15 76,15.8932039 76,16.9935275" id="Fill-3275" fill="#FFFFFE"></path>
                <path d="M84,16.9935275 C84,18.1067961 83.105791,19 81.999353,19 C80.8955031,19 80,18.1067961 80,16.9935275 C80,15.8932039 80.8955031,15 81.999353,15 C83.105791,15 84,15.8932039 84,16.9935275" id="Fill-3276" fill="#FFFFFE"></path>
                <path d="M83.0069427,70 L21.9944063,70 C18.1323069,70 15,66.8313539 15,62.9251781 L15,24 L90,24 L90,62.9251781 C90,66.8313539 86.870391,70 83.0069427,70" id="Fill-3277" fill="#6857E5"></path>
                <path d="M44,49.0066262 C44,55.6327996 38.6260351,61 32,61 C25.3726399,61 20,55.6327996 20,49.0066262 C20,42.3672004 25.3726399,37 32,37 C38.6260351,37 44,42.3672004 44,49.0066262" id="Fill-3278" fill="#F4B831"></path>
                <path d="M41,49.0066225 C41,53.9735099 36.9702876,58 32.0006619,58 C27.0310363,58 23,53.9735099 23,49.0066225 C23,44.0264901 27.0310363,40 32.0006619,40 C36.9702876,40 41,44.0264901 41,49.0066225" id="Fill-3279" fill="#FFE37B"></path>
                <polyline id="Fill-3280" fill="#8AC9F9" points="48 62 54 61.4523674 54 38 48 38 48 62"></polyline>
                <polygon id="Fill-3281" fill="#8AC9F9" points="58 61 64 61 64 44 58 44"></polygon>
                <polygon id="Fill-3282" fill="#8AC9F9" points="67 62 73 62 73 50 67 50"></polygon>
                <polygon id="Fill-3283" fill="#8AC9F9" points="77 61 83 61 83 55 77 55"></polygon>
                <path d="M83.4648832,41.8911039 C83.3960935,41.1511444 82.730685,40.5961748 81.9806123,40.6622427 C81.2318624,40.741524 80.6815445,41.4022021 80.7516571,42.1421616 L80.9381831,44.1374093 L66.1748464,33.9233263 C65.6430488,33.5533465 64.9260481,33.6062008 64.4577487,34.0554619 L62.3530472,36.0639232 L52.1205732,29.2325119 C51.4961741,28.8096779 50.6495311,28.9814542 50.2301782,29.6024916 C49.8121483,30.223529 49.9788311,31.069197 50.6058761,31.4920309 L61.7458454,38.9312661 C62.2749973,39.2880323 62.981415,39.235178 63.4444229,38.7859169 L65.5358956,36.7906691 L79.247543,46.2780063 L76.6639591,46.2647928 C75.9019804,46.2647928 75.3000702,46.8726166 75.2974244,47.6257896 C75.2961015,48.3789626 75.905949,48.9867864 76.6586675,49 L82.6354377,49 C82.6367606,49 82.6367606,49 82.6380835,49 C83.0217186,49 83.3855105,48.8414373 83.643472,48.5639525 C83.9040793,48.2732541 84.0297528,47.9032744 83.9940351,47.5200811 L83.4648832,41.8911039" id="Fill-3284" fill="#FFFFFF"></path>
            </g>
        </g>
    </g>
</svg>