<?xml version="1.0" encoding="UTF-8"?>
<svg width="105px" height="72px" viewBox="0 0 105 72" version="1.1" xmlns="http://www.w3.org/2000/svg" xmlns:xlink="http://www.w3.org/1999/xlink">
    <!-- Generator: Sketch 59.1 (86144) - https://sketch.com -->
    <title>entry</title>
    <desc>Created with Sketch.</desc>
    <g id="Page-1" stroke="none" stroke-width="1" fill="none" fill-rule="evenodd">
        <g id="01-HomePage-02" transform="translate(-668.000000, -1819.000000)">
            <g id="entry" transform="translate(668.000000, 1819.000000)">
                <path d="M14.4281372,29.3631625 L15,29.5065161 L14.4281372,29.6498697 C11.0881459,30.483927 8.48024316,33.0903562 7.64264003,36.4396177 L7.50065132,37 L7.35605732,36.4396177 C6.52105949,33.0903562 3.91055145,30.483927 0.56925749,29.6498697 L0,29.5065161 L0.56925749,29.3631625 C3.91055145,28.516073 6.52105949,25.9096438 7.35605732,22.5734144 L7.50065132,22 L7.64264003,22.5734144 C8.48024316,25.9096438 11.0881459,28.516073 14.4281372,29.3631625" id="Fill-3256" fill="#5D8EF9"></path>
                <path d="M104.391943,39.8433931 L105,40 L104.391943,40.1435563 C100.827108,41.0440457 98.0451802,43.8238173 97.1500571,47.3866232 L96.9986952,48 L96.8460284,47.3866232 C95.9561246,43.8238173 93.1702822,41.0440457 89.6054477,40.1435563 L89,40 L89.6054477,39.8433931 C93.1702822,38.9559543 95.9561246,36.1631321 96.8460284,32.6003263 L96.9986952,32 L97.1500571,32.6003263 C98.0451802,36.1631321 100.827108,38.9559543 104.391943,39.8433931" id="Fill-3257" fill="#FFBE1B"></path>
                <path d="M98.5433287,58.8831615 L99,58.9931271 L98.5433287,59.1168385 C95.8707015,59.7766323 93.784044,61.8659794 93.1127923,64.532646 L92.9986245,65 L92.8858322,64.532646 C92.215956,61.8659794 90.1292985,59.7766323 87.4539202,59.1168385 L87,58.9931271 L87.4539202,58.8831615 C90.1292985,58.209622 92.215956,56.1340206 92.8858322,53.4536082 L92.9986245,53 L93.1127923,53.4536082 C93.784044,56.1340206 95.8707015,58.209622 98.5433287,58.8831615" id="Fill-3258" fill="#FFBE1B"></path>
                <path d="M34.9160758,12.6388889 C34.9160758,9.45576132 37.4518745,6.88786008 40.5785262,6.88786008 L69,6.88786008 L69,5.75102881 C69,2.56790123 66.4642013,0 63.3375497,0 L25.6637662,0 C22.5357987,0 20,2.56790123 20,5.75102881 L20,59.2489712 C20,62.4187243 22.5357987,65 25.6637662,65 L34.9160758,65 L34.9160758,12.6388889" id="Fill-3259" fill="#5D8EF9"></path>
                <path d="M34.8570093,12.3398058 C34.8570093,11.8737864 34.9088785,11.4368932 35,11 L27.4453271,11 C26.6462617,11 26,11.6699029 26,12.5 C26,13.3300971 26.6462617,14 27.4453271,14 L34.8570093,14 L34.8570093,12.3398058" id="Fill-3260" fill="#FFFFFE"></path>
                <path d="M34,21 L27.3054764,21 C26.583729,21 26,21.6699029 26,22.5 C26,23.3300971 26.583729,24 27.3054764,24 L34,24 L34,21" id="Fill-3261" fill="#FFFFFE"></path>
                <path d="M34,31 L27.3054764,31 C26.583729,31 26,31.6699029 26,32.5 C26,33.3300971 26.583729,34 27.3054764,34 L34,34 L34,31" id="Fill-3262" fill="#FFFFFE"></path>
                <path d="M34,41 L27.3054764,41 C26.583729,41 26,41.6699029 26,42.5 C26,43.3300971 26.583729,44 27.3054764,44 L34,44 L34,41" id="Fill-3263" fill="#FFFFFE"></path>
                <path d="M34,51 L27.3054764,51 C26.583729,51 26,51.6699029 26,52.5 C26,53.3300971 26.583729,54 27.3054764,54 L34,54 L34,51" id="Fill-3264" fill="#FFFFFE"></path>
                <path d="M78.3387136,72 L40.6626024,72 C37.5358668,72 35,69.4187243 35,66.2489712 L35,12.7510288 C35,9.56790123 37.5358668,7 40.6626024,7 L78.3387136,7 C81.4654492,7 84,9.56790123 84,12.7510288 L84,66.2489712 C84,69.4187243 81.4654492,72 78.3387136,72" id="Fill-3265" fill="#8AC9F9"></path>
                <path d="M75.6225211,43 L43.3774789,43 C42.6151847,43 42,42.3300971 42,41.5 C42,40.6699029 42.6151847,40 43.3774789,40 L75.6225211,40 C76.3834779,40 77,40.6699029 77,41.5 C77,42.3300971 76.3834779,43 75.6225211,43" id="Fill-3266" fill="#FFFFFE"></path>
                <path d="M75.6225211,53 L43.3774789,53 C42.6151847,53 42,52.3300971 42,51.5 C42,50.6699029 42.6151847,50 43.3774789,50 L75.6225211,50 C76.3834779,50 77,50.6699029 77,51.5 C77,52.3300971 76.3834779,53 75.6225211,53" id="Fill-3267" fill="#FFFFFE"></path>
                <path d="M75.6225211,63 L43.3774789,63 C42.6151847,63 42,62.3300971 42,61.5 C42,60.6699029 42.6151847,60 43.3774789,60 L75.6225211,60 C76.3834779,60 77,60.6699029 77,61.5 C77,62.3300971 76.3834779,63 75.6225211,63" id="Fill-3268" fill="#FFFFFE"></path>
                <path d="M70,25 C70,31.0689655 65.0749908,36 58.9986455,36 C52.9250092,36 48,31.0689655 48,25 C48,18.9174877 52.9250092,14 58.9986455,14 C65.0749908,14 70,18.9174877 70,25" id="Fill-3269" fill="#F4B831"></path>
            </g>
        </g>
    </g>
</svg>