<svg xmlns="http://www.w3.org/2000/svg" width="54" height="61" viewBox="0 0 54 61">
    <g fill="none" fill-rule="evenodd">
        <g>
            <g>
                <g>
                    <g fill-rule="nonzero">
                        <path fill="#E6E6E6" d="M36 46H2c-1.105 0-2-.895-2-2V2C0 .895.895 0 2 0h24l12 12v32c0 1.105-.895 2-2 2z" transform="translate(-391 -319) translate(279 137) translate(112 182) translate(16 8)"/>
                        <path fill="#B3B3B3" d="M26 0v10c0 1.105.895 2 2 2h10L26 0z" transform="translate(-391 -319) translate(279 137) translate(112 182) translate(16 8)"/>
                        <path fill="#2B3F6E" d="M33 23h-1.1c-.7 0-1.3-.4-1.6-1-.3-.6-.1-1.4.4-1.8l.7-.7c.4-.4.4-1 0-1.4L30 16.7c-.4-.4-1-.4-1.4 0l-.7.7c-.5.5-1.2.6-1.8.4-.6-.3-1-.9-1-1.6V15c0-.6-.4-1-1-1h-2c-.6 0-1 .4-1 1v1.1c0 .7-.4 1.3-1 1.6-.8.2-1.5 0-2-.4l-.8-.8c-.4-.4-1-.4-1.4 0l-1.4 1.4c-.4.4-.4 1 0 1.4l.7.7c.5.5.6 1.2.4 1.8-.3.6-.9 1-1.6 1h-1c-.6 0-1 .4-1 1v2c0 .6.4 1 1 1h1.1c.7 0 1.3.4 1.6 1 .3.6.1 1.4-.4 1.8l-.7.7c-.4.4-.4 1 0 1.4l1.4 1.4c.4.4 1 .4 1.4 0l.7-.7c.5-.5 1.2-.6 1.8-.4.6.3 1 .9 1 1.6V35c0 .6.4 1 1 1h2c.6 0 1-.4 1-1v-1.1c0-.7.4-1.3 1-1.6.6-.3 1.4-.1 1.8.4l.7.7c.4.4 1 .4 1.4 0l1.4-1.4c.4-.4.4-1 0-1.4l-.7-.7c-.5-.5-.6-1.2-.4-1.8.3-.6.9-1 1.6-1H33c.6 0 1-.4 1-1v-2c0-.7-.4-1.1-1-1.1zm-10 5c-1.7 0-3-1.3-3-3s1.3-3 3-3 3 1.3 3 3-1.3 3-3 3z" transform="translate(-391 -319) translate(279 137) translate(112 182) translate(16 8)"/>
                    </g>
                    <g>
                        <path fill="#2B3F6E" d="M13.125 0C8.784 0 5.25 3.533 5.25 7.875c0 4.342 3.534 7.875 7.875 7.875S21 12.217 21 7.875C21 3.533 17.466 0 13.125 0" transform="translate(-391 -319) translate(279 137) translate(112 182)"/>
                        <path fill="#18233D" d="M7.876 18.375C3.526 18.375 0 21.89 0 26.255v13.12c0 .602.41 1.127.995 1.273l4.338 1.084 1.235 17.44c.056.68.623 1.203 1.307 1.203h10.5c.684 0 1.25-.522 1.307-1.204l1.235-17.439 4.338-1.084c.585-.146.995-.67.995-1.273v-13.12c0-4.352-3.513-7.88-7.876-7.88H7.876z" transform="translate(-391 -319) translate(279 137) translate(112 182)"/>
                    </g>
                </g>
            </g>
        </g>
    </g>
</svg>
