<?xml version="1.0" encoding="UTF-8"?>
<svg width="92px" height="81px" viewBox="0 0 92 81" version="1.1" xmlns="http://www.w3.org/2000/svg" xmlns:xlink="http://www.w3.org/1999/xlink">
    <!-- Generator: Sketch 59.1 (86144) - https://sketch.com -->
    <title>connections2</title>
    <desc>Created with Sketch.</desc>
    <g id="Page-1" stroke="none" stroke-width="1" fill="none" fill-rule="evenodd" stroke-linecap="round" stroke-linejoin="round">
        <g id="01-HomePage-02" transform="translate(-674.000000, -961.000000)" stroke="#0E91BE" stroke-width="3">
            <g id="connections2" transform="translate(676.000000, 963.000000)">
                <path d="M28,31 C28.1304452,28.8930925 28.6813643,26.8337441 29.6201984,24.9436614 C30.4605884,23.1684912 32.0011959,21.8238435 33.8721699,21.2325254 C35.9466095,20.6175021 38.0698695,20.1816107 40.2186467,19.929635 C35.6655628,17.8413619 33.2361877,12.8087049 34.4304248,7.93884109 C35.3144311,4.26113414 38.1329487,1.35996957 41.7800814,0.373671414 C47.0201578,-1.06514872 52.4853109,1.76671809 54.3385686,6.88107621 C56.1918264,11.9954343 53.8118182,17.6775128 48.8694989,19.9380408 C50.9913784,20.1923927 53.087831,20.6268519 55.1362249,21.2367282 C57.0043215,21.8289953 58.5428079,23.1715963 59.383999,24.9436614 C60.3196773,26.8346939 60.869072,28.8936778 61,31" id="Path"></path>
                <path d="M55,76.9789788 C55.131519,74.8720613 55.6810245,72.8125148 56.6164122,70.9206665 C57.464033,69.1524326 59.0077494,67.8167682 60.8778626,67.2335465 C62.9521194,66.6145678 65.0761244,66.1770855 67.2259542,65.9260273 C62.7680667,63.8863298 60.3321375,59.0114973 61.3744282,54.215831 C62.4167189,49.4201647 66.6554838,46 71.5566794,46 C76.457875,46 80.6966399,49.4201647 81.7389306,54.215831 C82.7812213,59.0114973 80.3452921,63.8863298 75.8874046,65.9260273 C78.00299,66.1843837 80.092909,66.6217881 82.1347328,67.2335465 C84.0022335,67.8261129 85.5397585,69.169298 86.3793893,70.9416877 C87.3179289,72.8325884 87.8689588,74.8924979 88,77" id="Path"></path>
                <path d="M0,76.9789848 C0.132969746,74.8724123 0.683544537,72.8134812 1.61958042,70.9223969 C2.46311778,69.1551696 4.00315005,67.819593 5.86993007,67.2363264 C7.94297104,66.6179338 10.06559,66.1805834 12.213986,65.9291794 C7.75643611,63.889913 5.32019275,59.0144204 6.36187635,54.2177399 C7.40355995,49.4210593 11.6415455,46 16.541958,46 C21.4423705,46 25.6803561,49.4210593 26.7220397,54.2177399 C27.7637233,59.0144204 25.32748,63.889913 20.8699301,65.9291794 C22.9926149,66.1863365 25.0896617,66.6236237 27.1384615,67.2363264 C29.004775,67.8287241 30.5413225,69.1715269 31.3804196,70.9434121 C32.3164555,72.8344964 32.8670303,74.8934276 33,77" id="Path"></path>
                <line x1="35" y1="50" x2="43" y2="44" id="Path"></line>
                <line x1="44" y1="44" x2="44" y2="35" id="Path"></line>
                <line x1="53" y1="50" x2="45" y2="44" id="Path"></line>
            </g>
        </g>
    </g>
</svg>