<svg xmlns="http://www.w3.org/2000/svg" width="37.207" height="41.158" viewBox="0 0 37.207 41.158">
  <g id="Group_655" data-name="Group 655" transform="translate(-10948.95 -918.372)">
    <path id="Shape" d="M31,41.158H6.2A6.2,6.2,0,0,1,0,34.984V6.174A6.2,6.2,0,0,1,6.2,0H24.879a6.27,6.27,0,0,1,4.707,2.144l2.64,3.061,3.411,3.827a6.2,6.2,0,0,1,1.569,4.094V34.984A6.2,6.2,0,0,1,31,41.158ZM6.2,4.114A2.066,2.066,0,0,0,4.133,6.174v28.81A2.065,2.065,0,0,0,6.2,37.041H31a2.065,2.065,0,0,0,2.069-2.057V14.405H24.805a2.066,2.066,0,0,1-2.069-2.059V4.114H6.2Zm20.67,1.2v4.978h4.357L29.113,7.914ZM24.805,30.867H12.4a2.058,2.058,0,1,1,0-4.117h12.4a2.058,2.058,0,1,1,0,4.117Zm0-8.233H12.4a2.057,2.057,0,1,1,0-4.114h12.4a2.057,2.057,0,1,1,0,4.114Z" transform="translate(10948.95 918.372)" fill="#049ad0"/>
  </g>
</svg>
