<svg xmlns="http://www.w3.org/2000/svg" width="32.452" height="46.993" viewBox="0 0 32.452 46.993">
  <g id="Group_657" data-name="Group 657" transform="translate(-10951.151 -927)">
    <path id="Shape" d="M9.239,46.993a1.916,1.916,0,0,1-1.127-.317,2.077,2.077,0,0,1-1.118-2.033v-14.7A16.567,16.567,0,0,1,0,16.448,16.356,16.356,0,0,1,16.225,0,16.357,16.357,0,0,1,32.452,16.448a16.565,16.565,0,0,1-6.995,13.5v14.7a2.052,2.052,0,0,1-1.118,1.99,1.855,1.855,0,0,1-1.142.359,2.835,2.835,0,0,1-1.1-.234l-6.436-3.151-5.315,3.078A1.907,1.907,0,0,1,9.239,46.993Zm6.4-8.393a3.123,3.123,0,0,1,1.143.234l4.195,2.061V32.213a16.9,16.9,0,0,1-9.51,0v8.382l3.077-1.687A1.93,1.93,0,0,1,15.644,38.6Zm.581-33.9A11.258,11.258,0,0,0,8.078,8.139a12.05,12.05,0,0,0,0,16.616A11.257,11.257,0,0,0,16.225,28.2a11.75,11.75,0,1,0,0-23.5Zm0,16.45a4.791,4.791,0,0,1-4.754-4.7,4.755,4.755,0,0,1,9.51,0A4.792,4.792,0,0,1,16.225,21.148Z" transform="translate(10951.151 927)" fill="#049ad0"/>
  </g>
</svg>
