<svg xmlns="http://www.w3.org/2000/svg" width="40.122" height="40.123" viewBox="0 0 40.122 40.123">
  <g id="Group_656" data-name="Group 656" transform="translate(-10948.881 -933)">
    <path id="Shape" d="M18.127,40.123a18.06,18.06,0,0,1-2.175-36V2.417A2.514,2.514,0,0,1,18.368,0,21.66,21.66,0,0,1,40.122,21.658,2.514,2.514,0,0,1,37.7,24.074h-1.69A18.058,18.058,0,0,1,18.127,40.123ZM15.952,8.165a14.139,14.139,0,0,0-12.084,13.9A13.866,13.866,0,0,0,8.007,32a14.279,14.279,0,0,0,10.12,4.112,13.836,13.836,0,0,0,9.155-3.466,14.079,14.079,0,0,0,4.623-8.569H20.061a4.116,4.116,0,0,1-4.109-4.013Zm4.109-4.081V20.061H36.015A17.607,17.607,0,0,0,20.061,4.085Z" transform="translate(10948.881 933)" fill="#049ad0"/>
  </g>
</svg>
