<?xml version="1.0" encoding="UTF-8"?>
<svg width="87px" height="65px" viewBox="0 0 87 65" version="1.1" xmlns="http://www.w3.org/2000/svg" xmlns:xlink="http://www.w3.org/1999/xlink">
    <!-- Generator: Sketch 59.1 (86144) - https://sketch.com -->
    <title>handshake</title>
    <desc>Created with Sketch.</desc>
    <g id="Page-1" stroke="none" stroke-width="1" fill="none" fill-rule="evenodd" stroke-linecap="round" stroke-linejoin="round">
        <g id="01-HomePage-02" transform="translate(-921.000000, -1161.000000)" stroke="#5E8FF4" stroke-width="3">
            <g id="handshake" transform="translate(923.000000, 1163.000000)">
                <path d="M12,12.0243488 C12,17.6793488 29.6175536,10.8743488 29.6175536,10.8743488 L30,10.7293488" id="Path"></path>
                <path d="M43,58.09172 C33.4088187,66.5354092 22.8573762,54.9447384 15.7735438,44.3474427 C13.945862,41.9164624 10.9797381,40.6682998 8,41.0762893" id="Path"></path>
                <path d="M31,45 L42.6994014,58 C43.0675386,57.6757094 51.2622735,57.2906143 50.9935333,50.1967571" id="Path"></path>
                <path d="M39,38 L53.0192678,52 C53.4046243,51.6593862 60.9421965,51.1716892 61,44.5800387" id="Path"></path>
                <path d="M46,15 C47.9119041,16.3279577 70.141238,31.9705178 69.9993234,40.032002 C69.9007717,45.7226912 62.3280548,46 62.3280548,46 L49.5557473,32.7477636" id="Path"></path>
                <path d="M64,3.99081306 L63.2047864,3.65485149 C56.389279,0.513430545 48.7813725,-0.638910229 41.3046029,0.337713677 C38.3145996,0.77021593 34.9747024,4.55461064 32.9866683,6.74801492 C30.3941047,9.69123268 28.4266228,13.1034703 27.197513,16.7882458 C26.833866,17.8706603 26.9769269,19.0534836 27.5889443,20.0245879 C28.2009617,20.9956923 29.2204444,21.657508 30.3783675,21.8353926 C33.7190437,22.3789628 37.142821,21.563366 39.8453859,19.5802023 L48.7080418,12.7296755" id="Path"></path>
                <line x1="70" y1="4" x2="83" y2="39" id="Path"></line>
                <line x1="13" y1="8" x2="0" y2="43" id="Path"></line>
                <line x1="81" y1="34.7225" x2="69.9588106" y2="37.9934524" id="Path"></line>
            </g>
        </g>
    </g>
</svg>