<?xml version="1.0" encoding="UTF-8"?>
<svg width="402px" height="359px" viewBox="0 0 402 359" version="1.1" xmlns="http://www.w3.org/2000/svg" xmlns:xlink="http://www.w3.org/1999/xlink">
    <!-- Generator: Sketch 59.1 (86144) - https://sketch.com -->
    <title>Illustration_Digital Process</title>
    <desc>Created with Sketch.</desc>
    <g id="Page-1" stroke="none" stroke-width="1" fill="none" fill-rule="evenodd">
        <g id="01-HomePage-02" transform="translate(-301.000000, -3858.000000)">
            <g id="Illustration_Digital-Process" transform="translate(301.000000, 3858.000000)">
                <path d="M189.668232,347.963523 C39.7949005,350.475679 -4.0210138,222.543079 17.6791041,176.319412 C39.3961884,130.095745 38.9974763,146.292763 12.4619139,94.5849317 C-14.0651653,42.8856163 2.31596354,-0.0850220287 56.2778282,10.4319693 C104.12328,19.7567511 127.282514,44.2651731 170.699716,20.9063818 C214.116918,-2.46092534 254.564988,-15.4049147 299.398891,51.2906936 C321.175358,83.7017617 342.926375,82.8416677 361.241682,81.9900894 C376.791453,81.2577321 389.86412,80.5253748 398.355839,100.196832 C416.849294,143.005671 359.129356,179.89604 355.345833,218.549177 C350.586737,267.140232 337.989132,345.476915 189.668232,347.963523" id="Fill-160" fill="#F6F6F6"></path>
                <g id="MAXICONS1_mailsend" transform="translate(103.000000, 40.000000)" fill="#9BD7EE" fill-rule="nonzero">
                    <path d="M23,36.4166667 C21.5625,36.4166667 20.125,38.0138889 20.125,39.6111111 L20.125,42.8055556 C20.125,44.4027778 21.5625,46 23,46 C24.4375,46 25.875,44.4027778 25.875,42.8055556 L25.875,39.6111111 C25.875,38.0138889 24.4375,36.4166667 23,36.4166667 Z" id="Shape"></path>
                    <path d="M43.125,0 L2.875,0 C1.15,0 0,1.15 0,2.875 L0,31.625 C0,33.35 1.15,34.5 2.875,34.5 L8.625,34.5 L8.625,43.125 C8.625,44.5625 10.0625,46 11.5,46 C12.9375,46 14.375,44.5625 14.375,43.125 L14.375,34.5 L31.625,34.5 L31.625,43.125 C31.625,44.5625 33.0625,46 34.5,46 C35.9375,46 37.375,44.5625 37.375,43.125 L37.375,34.5 L43.125,34.5 C44.85,34.5 46,33.35 46,31.625 L46,2.875 C46,1.15 44.85,0 43.125,0 Z M35.65,5.75 L23,16.3875 L10.35,5.75 L35.65,5.75 Z M40.25,28.75 L5.75,28.75 L5.75,9.4875 L21.275,22.425 C22.425,23.2875 23.8625,23.2875 25.0125,22.425 L40.25,9.4875 L40.25,28.75 Z" id="Shape"></path>
                </g>
                <path d="M258.96313,199.309244 L258.96313,199.453815 L258.662631,201.418272 L246.634325,290.176033 L239.622682,341.473036 C239.397308,342.459517 238.512505,343.131344 237.552578,342.97827 L236.959927,342.757162 L236,340.945779 L237.035052,331.693269 L237.035052,331.395624 L240.724512,297.242978 L240.799636,297.098407 L246.926476,240.154652 L249.438982,217.287007 L249.438982,217.210469 L251.141809,201.418272 L251.500738,198.331267 C251.801237,196.298777 253.645967,194.793543 255.716071,195.023155 C257.777828,195.3208 259.255281,197.200216 258.96313,199.309244" id="Fill-161" fill="#BFA175"></path>
                <path d="M315.980638,340.94534 C316.13075,341.923526 315.388529,342.901711 314.429478,342.978265 C313.470428,343.131372 312.586434,342.459401 312.369605,341.47271 L303.663096,277.746039 L293.330371,201.388014 L293.038486,199.423136 C292.746601,197.322164 294.147649,195.365792 296.132466,195.059578 C298.200679,194.685315 300.11878,196.114317 300.419004,198.223796 L300.485721,198.300349 L300.861001,201.388014 L308.458348,271.349555 L308.458348,271.426109 L315.980638,340.94534" id="Fill-162" fill="#BFA175"></path>
                <path d="M85.9619757,199.39492 L66.6016963,341.437185 C66.4432106,342.449221 65.5173204,343.138086 64.5330408,342.976501 C63.5654439,342.82342 62.8897944,341.913437 63.0149147,340.926915 L78.5381719,198.340361 C78.7967538,196.248253 80.6652168,194.759964 82.7171895,195.032109 C84.7691623,195.287244 86.228899,197.192253 85.970317,199.284362 L85.9619757,199.39492" id="Fill-163" fill="#BFA175"></path>
                <path d="M126.450541,198.345454 L141.987292,340.926779 C142.104047,341.938778 141.403517,342.857231 140.4111,342.984794 C139.435362,343.112357 138.55136,342.423517 138.401246,341.437031 L119.04494,199.399974 C118.728033,197.32495 120.120753,195.37749 122.163965,195.045826 C124.207177,194.722667 126.116955,196.142867 126.433862,198.226395 L126.450541,198.345454" id="Fill-164" fill="#BFA175"></path>
                <path d="M312,189.320141 L312,192.671064 C312,197.262093 308.399904,201 303.986611,201 L71.7931482,201 C67.447621,201 64,197.341249 64,192.908531 L64,189.091469 C64,184.579595 67.447621,181 71.7931482,181 L303.986611,181 C308.399904,181 312,184.737907 312,189.320141" id="Fill-165" fill="#616161"></path>
                <path d="M190.837677,169.220704 C190.466574,170.387016 189.648461,171.263818 188.45081,171.636045 L188.223088,171.702218 L186.738676,172 L95.7256889,172 L94.0051209,171.702218 L93.7858328,171.636045 C91.3989664,170.966036 89.1554806,168.997368 88.4891822,166.656473 L72.2281277,111.343527 C71.3256729,108.41534 73.1896216,106 76.2512205,106 L167.264208,106 C170.401714,106 173.606694,108.41534 174.500715,111.343527 L189.943656,163.728287 L190.761769,166.656473 C191.065399,167.60772 191.065399,168.484522 190.837677,169.220704" id="Fill-166" fill="#5C5C5C"></path>
                <path d="M186.531902,168 L95.6243536,168 C93.8297302,168 91.9749998,166.608853 91.4769703,164.893389 L76.1239244,112.106611 C75.6258949,110.391147 76.6734741,109 78.4680975,109 L169.375646,109 C171.161683,109 173.025,110.391147 173.52303,112.106611 L188.876076,164.893389 C189.374105,166.608853 188.326526,168 186.531902,168" id="Fill-167" fill="#FFFFFF"></path>
                <path d="M219,172 C219,176.943878 214.444628,181 208.892231,181 L141,181 L141,172 L219,172" id="Fill-168" fill="#A3A3A3"></path>
                <path d="M142.053341,181 L99.9466594,181 C94.4544836,181 90,176.969466 90,172 L152,172 C152,176.969466 147.553953,181 142.053341,181" id="Fill-169" fill="#D4D4D4"></path>
                <path d="M109.860873,133 L96.3949734,133 C94.1929509,133 91.9581846,131.337754 91.4179115,129.27763 L88.1189707,116.72237 C87.5786976,114.662246 88.9293805,113 91.1395889,113 L104.605488,113 C106.807511,113 109.034091,114.662246 109.574364,116.72237 L112.881491,129.27763 C113.421764,131.337754 112.062895,133 109.860873,133" id="Fill-170" fill="#9BD7EE"></path>
                <path d="M136.634451,118.195 L115.895452,118.195 C114.933594,118.195 113.971736,117.405 113.735491,116.425 L113.052066,113.575 C112.81582,112.595 113.406434,111.805 114.359854,111.805 L135.107291,111.805 C136.060712,111.805 137.031007,112.595 137.258815,113.575 L137.950677,116.425 C138.178486,117.405 137.596309,118.195 136.634451,118.195" id="Fill-171" fill="#CBEBF5"></path>
                <path d="M160.650304,133 L119.565912,133 C118.61124,133 117.656568,132.298817 117.422087,131.428994 L115.052156,122.571006 C114.817675,121.701183 115.395503,121 116.350175,121 L157.434567,121 C158.380865,121 159.343911,121.701183 159.578392,122.571006 L161.948323,131.428994 C162.182804,132.298817 161.596602,133 160.650304,133" id="Fill-172" fill="#CBEBF5"></path>
                <path d="M110.23982,160 L110.23982,160 C104.069899,160 97.8403231,155.519222 96.3319307,150.004419 C94.8235383,144.480778 98.5987803,140 104.76018,140 C110.930101,140 117.151155,144.480778 118.668069,150.004419 C120.176462,155.519222 116.40122,160 110.23982,160" id="Fill-173" fill="#9BD7EE"></path>
                <path d="M144.639688,144.195 L123.893709,144.195 C122.931527,144.195 121.969346,143.405 121.733021,142.425 L121.049366,139.575 C120.821481,138.595 121.403853,137.805 122.357595,137.805 L143.112014,137.805 C144.065755,137.805 145.036377,138.595 145.272702,139.575 L145.947917,142.425 C146.184242,143.405 145.593429,144.195 144.639688,144.195" id="Fill-174" fill="#CBEBF5"></path>
                <path d="M168.650305,158 L127.565937,158 C126.611266,158 125.656595,157.290466 125.422114,156.421286 L123.052184,147.578714 C122.817703,146.700665 123.395531,146 124.341828,146 L165.43457,146 C166.380867,146 167.343913,146.700665 167.570019,147.578714 L169.948323,156.421286 C170.182804,157.290466 169.596602,158 168.650305,158" id="Fill-175" fill="#CBEBF5"></path>
                <path d="M304.38,277 L304.38,277 L302.46,265.056841 C303.17,264.713153 303.87,264.360872 304.55,264 L307.54,273.752148 C306.54,274.877726 305.5,275.960344 304.38,277" id="Fill-177" fill="#987F5B"></path>
                <path d="M249.511475,216 L250,212.5 L251.239014,201 L255.42,201 C256.34,203.944581 257.15,206.848825 257.79,209.591722 L255.8,221.240968 C253.53,221.837952 250.942168,222.789898 248.722168,224 L249.511475,216 Z" id="Fill-179" fill="#987F5B"></path>
                <path d="M255,201 L246.883167,201 C246.358955,197.262093 245.834743,193.445031 245.462721,189.795075 C243.348962,190.437115 241.226749,190.788918 239.11299,190.788918 C238.166026,190.788918 237.219062,190.718558 236.263643,190.569041 C235.891622,190.797713 235.071483,190.885664 233.946964,190.885664 C226.540354,190.885664 204.405073,186.523307 189,181 L249.216756,181 C250.451191,184.966579 251.727902,188.968338 252.928517,192.917326 C253.65565,195.591029 254.357417,198.308707 255,201" id="Fill-180" fill="#424242"></path>
                <path d="M190.307078,172.04 L157.740096,172.04 L156.732422,171.51 C153.891823,168.11 159.720696,165.96 167.208757,165.96 C171.230766,165.96 175.739239,166.58 179.630945,167.97 L179.787309,168.32 L179.86549,167.88 L193,169.04 C192.617779,170.45 191.775155,171.51 190.541623,171.96 L190.307078,172.04" id="Fill-181" fill="#002897"></path>
                <path d="M207.871927,181 L188.141131,181 C183.800528,179.645408 179.916377,178.298469 177.09154,176.875 C176.824559,176.966837 176.514516,177.012755 176.170024,177.012755 C172.837061,177.012755 166.515627,172.941327 165.81803,172.941327 C163.234338,172.880102 159.574108,172.673469 157.291846,172.27551 L156,172 L218,172 C218,176.943878 213.435477,181 207.871927,181" id="Fill-182" fill="#8C8C8C"></path>
                <path d="M250.942435,325.91226 L251.567717,336.739794 C247.138636,338.766829 243.960119,341.861601 240,344.10552 C247.833394,346.566323 256.995513,343.746827 266.861073,338.132859 C268.129006,335.096478 260.226136,331.659695 263.057274,322 L250.942435,325.91226" id="Fill-186" fill="#F9D2B2"></path>
                <path d="M266.424657,335.009726 C262.099795,334.733689 255.530493,340.451614 250.825803,337.1155 C244.411886,339.678708 233.629944,346.098558 234.009772,348.196445 C234.786693,350.680785 265.535514,346.887237 268.591405,343.842935 C269.774052,341.595199 268.185679,337.391538 266.424657,335.009726" id="Fill-187" fill="#4D4D4D"></path>
                <path d="M299.262535,261.470159 C284.696933,268.442312 260.532249,264.351982 253.373611,267.35212 L264.37702,332.011446 C261.782442,333.794627 255.180397,337.014494 250.984544,335.687672 L250.248129,335.620063 C238.311358,297.632393 224.927445,266.076005 228.626645,255.351566 C231.623683,247.128651 254.418293,232.651926 278.420281,225.460044 C288.764341,222.214824 299.485172,220.440094 308.878743,221.158437 C319.942093,233.505486 311.387692,254.210668 299.262535,261.470159" id="Fill-188" fill="#009AD0"></path>
                <path d="M240,304 C239.449883,302.462727 238.899767,300.951364 238.358974,299.457273 C235.5338,291.615455 232.969697,284.404091 230.937063,278.004545 C229.818182,274.187273 228.792541,270.37 228,266.820455 C229.920746,266.561364 232.083916,266.293636 234.414918,266 C234.414918,266.492273 234.405594,267.001818 234.405594,267.528636 C234.358974,273.055909 237.948718,297.92 240,304" id="Fill-191" fill="#007EAA"></path>
                <path d="M209.059398,329.505261 L207.461739,340.39726 C202.853754,341.530434 199.212774,343.982826 195,345.445804 C201.928794,349.420369 211.186807,348.414043 221.680903,344.777739 C223.505597,341.995543 216.702934,337.031565 221.344553,328 L209.059398,329.505261" id="Fill-192" fill="#F9D2B2"></path>
                <path d="M222.849948,339.944598 C218.768389,338.682017 211.254612,343.900684 207.468208,339 C200.772428,340.571212 189.08433,345.687003 189,348.212164 C189.202391,351.279768 219.443027,353.552414 223.02704,350.681212 C224.637738,348.324394 224.013698,343.087021 222.849948,339.944598" id="Fill-193" fill="#4D4D4D"></path>
                <path d="M268.944925,261.395184 C253.686765,265.375412 231.832282,267.455017 224.411419,268.989152 L222.104372,335.059234 C219.272617,336.303588 212.343147,338.161596 208.611894,336.02233 L207.920612,335.800733 C204.064429,295.887653 197.568051,262.034407 203.206574,252.181851 C207.687409,244.647543 232.273702,234.914309 256.57682,232.613106 C267.079299,231.462505 277.640078,231.854562 286.443503,234.445545 C294.547319,248.849369 281.929353,256.647888 268.944925,261.395184" id="Fill-194" fill="#009AD0"></path>
                <path d="M204.99536,306 C204.843774,306 202.169374,291.941282 201,278 C201.83372,285.675255 203.230472,294.583583 204.767981,304.339125 C204.789637,304.490114 204.811292,304.632714 204.832947,304.758538 C204.962877,305.605752 205.017015,306 204.99536,306" id="Fill-195" fill="#D3D8E5"></path>
                <path d="M204.285262,304 C203.109334,294.340296 202.04106,285.519482 201.403409,277.919629 C200.707789,267.055576 200.724352,256.266276 202.976835,252.379138 C202.976835,252.379138 202.985116,252.370832 202.985116,252.362526 C206.380403,246.772688 221.377633,239.936973 239,236 C238.900626,236.157811 238.809533,236.315622 238.710158,236.473433 C236.374864,240.310737 234.842844,244.571638 234.635814,248.79101 C227.464306,249.148162 219.911863,249.580066 215.862362,252.080127 C208.906165,256.374252 208.136014,260.60193 206.43009,268.60877 C205.328692,273.824844 203.664173,297.936729 204.285262,304" id="Fill-196" fill="#007EAA"></path>
                <path d="M257.116629,223.055076 C270.221045,243.966038 312.578334,240.77212 314,226.725573 C314,226.725573 306.256101,133.491615 271.082408,123.190814 C260.11049,121.593855 246.947534,130.122116 242.925055,144.971323 C237.230028,166.0077 259.801069,200.806349 257.116629,223.055076" id="Fill-197" fill="#9BD7EE"></path>
                <path d="M264,125.546476 L263.340369,126.981842 C260.473175,131.46952 250.842568,133 250.842568,133 C251.10642,131.996974 249.523307,129.619109 247.614776,125.771293 C246.436236,123.064851 244.993843,119.709901 244,115.671855 L256.858399,113 C258.960422,119.398617 260.350044,120.289235 264,125.546476" id="Fill-198" fill="#F9D2B2"></path>
                <path d="M263.392713,126.76 L263.060729,126.71 C261.805668,126.49 260.696356,125.82 259.635628,125.42 C257.862348,124.68 256.024291,124.33 254.186235,124.33 C252.688259,124.33 251.198381,124.56 249.732794,125 L248.91498,125.36 C248.623482,124.52 248.315789,123.63 248,122.68 C251.692308,121.55 255.765182,119.13 259.651822,117.24 C260.744939,119.67 262.008097,121.5 264,125.1 L263.392713,126.76" id="Fill-199" fill="#E0BDA0"></path>
                <path d="M264.506535,85 L265,116.680996 C264.116958,116.984972 263.121371,117.305835 262.134442,117.618254 C254.593954,120.43847 246.265654,125.040321 240.880828,122.000566 C238.162443,117.60981 236.751307,111.108113 236.205899,104.766848 C235.573917,96.9479236 236.45696,89.0530059 238.032584,85.3884131 L264.506535,85" id="Fill-200" fill="#F9D2B2"></path>
                <path d="M262.134627,119 C259.390448,116.659332 258.464179,112.892053 256.3,109.970489 C253.867463,106.860989 249.833433,105.14393 245.756119,104.827854 C245.262687,104.793684 244.77791,104.776598 244.293134,104.776598 C242.258806,104.776598 240.198507,105.049961 238.103582,105.485633 L236.207761,105.998188 C236.069254,104.238416 236,102.478644 236,100.753042 C236,94.7476055 236.813731,89.2803521 238.034328,86.3929588 L264.506567,86 L265,118.051773 C264.117015,118.359306 263.121493,118.683924 262.134627,119" id="Fill-201" fill="#E0BDA0"></path>
                <path d="M259.727471,224 C259.777471,220.810829 259.187471,216.700535 258.187471,212.155749 L258.377471,211 C259.437471,215.588235 259.997471,219.967914 259.757471,223.99131 C259.747471,224 259.737471,224 259.727471,224" id="Fill-204" fill="#D3D8E5"></path>
                <path d="M258.09,211 C257.45,207.807512 256.64,204.42723 255.72,201 L256.02,201 C256.9,203.976526 257.67,206.896714 258.28,209.751174 L258.09,211" id="Fill-205" fill="#002488"></path>
                <path d="M256.375,200.595 L256.075,200.595 C255.315,197.535 254.485,194.445 253.625,191.405 C254.605,194.495 255.535,197.565 256.375,200.595" id="Fill-206" fill="#6F84C8"></path>
                <path d="M270.087388,222 C267.442702,222 264.357234,221.81373 260.735915,221.449657 C260.346991,221.415789 259.949424,221.390389 259.543214,221.390389 C259.033291,221.390389 258.514725,221.424256 257.987516,221.483524 C258.194942,217.563387 257.710948,213.29611 256.794814,208.825629 C256.267606,206.251716 255.602113,203.618535 254.841549,200.934554 C254.115557,198.369108 253.31178,195.769794 252.464789,193.153547 C250.226312,185.389474 247.745839,178.040275 246,173.222654 C248.169334,171.199085 250.31274,168.074828 252.179577,166.042792 C257.019526,160.801831 264.772087,155.05286 265.757362,148 C264.72023,155.645538 263.579385,172.206636 259.767926,178.870023 C259.041933,179.987643 258.315941,181.105263 257.901088,182.316018 C255.109475,189.309611 260.908771,196.709611 261.107554,204.109611 C261.107554,205.828375 260.908771,207.555606 261.107554,209.274371 C261.634763,212.220824 263.700384,214.650801 265.973431,216.572769 C268.246479,218.401602 270.588668,220.205034 273,221.906865 C272.09251,221.966133 271.12452,222 270.087388,222" id="Fill-207" fill="#7EB1C5"></path>
                <path d="M260.937419,271.012506 L243.486873,358.004589 L242.001539,359 L241,357.570692 L254.351026,269.838432 C254.639605,268.009259 256.337129,266.758614 258.161967,267.039371 C259.986805,267.31162 261.234485,269.021685 260.962881,270.850858 L260.937419,271.012506" id="Fill-208" fill="#616161"></path>
                <path d="M272.801065,266.085946 L279,353.670161 L277.8069,355 L276.440886,353.897412 L266.022872,266.700365 C265.80673,264.882357 267.146807,263.232684 269.014268,263.022266 C270.873084,262.811848 272.567633,264.116437 272.783774,265.934445 L272.801065,266.085946" id="Fill-209" fill="#616161"></path>
                <path d="M293.590283,271.623382 L312,357.509621 L311.03552,359 L309.554959,358.099037 L287.109656,273.164282 C286.644337,271.387616 287.701881,269.577269 289.487014,269.105736 C291.263687,268.651044 293.082662,269.703572 293.547981,271.480238 L293.590283,271.623382" id="Fill-210" fill="#616161"></path>
                <path d="M311.589885,263.625915 L330,349.509808 L329.035499,351 L327.554907,350.082311 L305.109119,265.158203 C304.643789,263.390179 305.709816,261.580058 307.486528,261.108585 C309.263239,260.645531 311.090714,261.706346 311.556043,263.47437 L311.589885,263.625915" id="Fill-211" fill="#616161"></path>
                <path d="M262.900146,271.944618 C233.281757,267.284257 232.310383,249.568096 240.217709,236.656605 C245.423933,228.091388 254.541216,221.639887 261.775397,222.386903 C288.454101,225.094836 285.676312,217.836897 288.24108,198.618215 C289.817433,187.209245 304.353961,176.666134 314.527826,182.812037 C321.463778,187.022491 327.718064,195.061401 329.22625,206.393972 C334.884078,248.591882 309.185269,279.151624 262.900146,271.944618" id="Fill-212" fill="#FFFFFF"></path>
                <path d="M276.004543,273 C275.595551,273 275.186559,272.991529 274.777567,272.983059 C272.672963,272.949176 270.517235,272.830588 268.301862,272.618824 C266.538084,272.457882 264.731703,272.229176 262.89976,271.941176 C262.661181,271.907294 262.422602,271.864941 262.184024,271.831059 C259.815279,271.432941 257.633988,270.950118 255.631632,270.399529 C251.916622,269.366118 248.8151,268.078588 246.250379,266.587765 C238.871483,262.301647 235.991498,256.372235 236,250.248 C236,245.64 237.635987,240.930353 240.217748,236.728941 C245.261982,238.448471 249.036637,243.251294 253.262887,246.910588 C260.181667,252.916235 269.383986,255.982588 278.560743,255.982588 C281.176587,255.982588 283.783911,255.728471 286.34011,255.237176 C297.953777,252.984 308.348989,245.944941 315.429662,236.576471 C317.619473,233.654118 319.579226,230.435294 320.559103,226.911529 C321.462293,223.692706 321.615665,220.321412 321.692351,217.026353 C321.913888,206.082353 321.308921,194.172706 315.583034,184.431529 L314.526472,183 C321.462293,187.201412 327.716462,195.223059 329.224619,206.531294 C329.74438,210.385412 330,214.137882 330,217.780235 C330,236.195294 323.481691,251.611765 311.527197,261.429176 C309.874188,262.792941 308.10189,264.046588 306.235864,265.190118 C305.656459,265.545882 305.060012,265.893176 304.455045,266.232 C301.345002,267.951529 297.979339,269.366118 294.358056,270.450353 C292.287535,271.068706 290.131806,271.585412 287.890871,271.983529 C284.150299,272.652706 280.179669,273 276.004543,273" id="Fill-213" fill="#E5F0FF"></path>
                <path d="M176.062299,162.294115 C164.998746,160.741398 150.075428,165.659831 154.950046,169.474309 C155.840121,170.165403 161.796139,169.69869 165.497854,169.079398 C166.238197,168.96272 174.373652,173.279812 176.969011,171.619392 C182.018317,168.406255 176.062299,162.294115 176.062299,162.294115" id="Fill-214" fill="#F9D2B2"></path>
                <path d="M237.173345,177.332076 C259.304326,174.304062 273.597602,146.514176 263.922672,139.54809 C256.742324,134.782691 249.106882,136.958559 244.016588,143.932919 L230.65878,159.983046 L177,165.220021 L177.691066,173.923492 C193.189495,179.177013 230.439661,178.151129 237.173345,177.332076" id="Fill-215" fill="#9BD7EE"></path>
                <path d="M78.5,5.99009083 C73.250826,5.99009083 68.9832048,10.2565373 68.9832048,15.5042664 C68.9832048,20.7519956 73.250826,25.0184421 78.5,25.0184421 C83.749174,25.0184421 88.0167952,20.7519956 88.0167952,15.5042664 C88.0167952,10.2565373 83.749174,5.99009083 78.5,5.99009083 Z M78.5,31 C69.9476872,31 63,24.0456923 63,15.5042664 C63,6.95430773 69.9476872,0 78.5,0 C87.0437775,0 94,6.95430773 94,15.5042664 C94,24.0456923 87.0437775,31 78.5,31 L78.5,31 Z" id="Fill-216" fill="#9AD6ED"></path>
                <path d="M336,126.859348 C332.61235,126.859348 329.867925,129.61235 329.867925,133 C329.867925,136.38765 332.61235,139.140652 336,139.140652 C339.379074,139.140652 342.132075,136.38765 342.132075,133 C342.132075,129.61235 339.379074,126.859348 336,126.859348 Z M336,143 C330.48542,143 326,138.51458 326,133 C326,127.48542 330.48542,123 336,123 C341.506003,123 346,127.48542 346,133 C346,138.51458 341.506003,143 336,143 L336,143 Z" id="Fill-217" fill="#9AD6ED"></path>
                <path d="M16.5039548,223.051243 C12.9446328,223.051243 10.0576271,225.947249 10.0576271,229.5 C10.0576271,233.052751 12.9446328,235.940844 16.5039548,235.940844 C20.0553672,235.940844 22.9423729,233.052751 22.9423729,229.5 C22.9423729,225.947249 20.0553672,223.051243 16.5039548,223.051243 Z M16.5039548,240 C10.7141243,240 6,235.284099 6,229.5 C6,223.700075 10.7141243,219 16.5039548,219 C22.2858757,219 27,223.700075 27,229.5 C27,235.284099 22.2858757,240 16.5039548,240 L16.5039548,240 Z" id="Fill-218" fill="#9AD6ED"></path>
                <path d="M234.735054,96.4469851 C228.306085,90.5795039 231.703736,71.5092671 236.502028,76.7873729 C241.300319,82.0654787 263.126639,68.1547981 274.192698,87.6220082 C282.461974,102.160059 262.666562,121.520372 259.615526,119.762503 C254.15514,116.579335 254.748397,112.303438 254.748397,112.303438 C254.748397,112.303438 260.814147,105.865837 258.598514,103.442828 C256.733992,101.399899 252.799124,105.842082 252.799124,105.842082 L250.934602,104.131723 L253.682956,96.4469851 C253.682956,96.4469851 241.139808,102.326344 234.735054,96.4469851 Z" id="Fill-204" fill="#756060" transform="translate(253.696985, 97.874192) rotate(-6.000000) translate(-253.696985, -97.874192) "></path>
            </g>
        </g>
    </g>
</svg>