<svg xmlns="http://www.w3.org/2000/svg" width="33.223" height="41.496" viewBox="0 0 33.223 41.496">
  <path id="Path_1848" data-name="Path 1848" d="M30893.906,385.323a4.283,4.283,0,0,0-4.121,4.151h-4.117a6.123,6.123,0,0,0-6.168,6.224v24.895a6.123,6.123,0,0,0,6.168,6.227h20.875a6.318,6.318,0,0,0,6.18-6.227V395.7a6.317,6.317,0,0,0-6.18-6.224h-4.109a4.341,4.341,0,0,0-4.41-4.151Zm7.93,8.3a6.034,6.034,0,0,1-5.875,4.151,6.338,6.338,0,0,1-5.879-4.151h-4.414a2.042,2.042,0,0,0-2.055,2.075v24.895a2.042,2.042,0,0,0,2.055,2.076,10.058,10.058,0,0,1,4.707-8.6,7.582,7.582,0,0,1-2.645-5.927,8.379,8.379,0,0,1,16.758,0,8.7,8.7,0,0,1-2.652,5.927,10.05,10.05,0,0,1,4.707,8.6,2.046,2.046,0,0,0,2.063-2.076V395.7a2.046,2.046,0,0,0-2.062-2.075Zm-7.93-4.148h4.117v2.073a2.059,2.059,0,1,1-4.117,0Zm2.055,26.97a6.38,6.38,0,0,1,6.473,6.224h-12.648A6.317,6.317,0,0,1,30895.961,416.444Zm4.117-8.3a4.085,4.085,0,0,1-4.117,4.151,4.15,4.15,0,0,1,0-8.3A4.084,4.084,0,0,1,30900.078,408.145Z" transform="translate(-30879.5 -385.323)" fill="#0f1f2b" fill-rule="evenodd"/>
</svg>
