<svg xmlns="http://www.w3.org/2000/svg" width="40.564" height="40.55" viewBox="0 0 40.564 40.55">
  <path id="Path_270" data-name="Path 270" d="M3334.89,261.116a1.99,1.99,0,0,1,2.011,1.979v5.53l5.229-2.379a2.082,2.082,0,0,1,1.953.126,2,2,0,0,1,.948,1.666v7.912h4.051V264.084a1.987,1.987,0,0,1,2.01-1.976h10.142a2.013,2.013,0,0,1,2.04,1.976V297.71h2.01a1.979,1.979,0,1,1,0,3.956H3328.8a1.979,1.979,0,1,1,0-3.956h2.04V272.656a2,2,0,0,1,1.149-1.793l.861-.391V263.1A2.016,2.016,0,0,1,3334.89,261.116Zm24.333,36.594V266.063h-6.091v9.888a2.015,2.015,0,0,1,2.04,1.979V297.71Zm-8.13-17.8h-8.1v17.8h8.1Zm-12.152,17.8V277.931a2.015,2.015,0,0,1,2.039-1.979v-4.806l-6.09,2.769v23.8Z" transform="translate(-3326.76 -261.116)" fill="#0f1f2b" fill-rule="evenodd"/>
</svg>
