<?xml version="1.0" encoding="UTF-8"?>
<svg width="88px" height="64px" viewBox="0 0 88 64" version="1.1" xmlns="http://www.w3.org/2000/svg" xmlns:xlink="http://www.w3.org/1999/xlink">
    <!-- Generator: Sketch 59.1 (86144) - https://sketch.com -->
    <title>laptop-chart</title>
    <desc>Created with Sketch.</desc>
    <g id="Page-1" stroke="none" stroke-width="1" fill="none" fill-rule="evenodd" stroke-linecap="round">
        <g id="01-HomePage-02" transform="translate(-452.000000, -1162.000000)" stroke="#5AA1DA" stroke-width="3">
            <g id="laptop-chart" transform="translate(454.000000, 1164.000000)">
                <path d="M8,42 L8,8 C8,3.581722 11.581722,0 16,0 L68,0 C72.418278,0 76,3.581722 76,8 L76,42" id="Path" stroke-linejoin="round"></path>
                <path d="M56.1,48 L84,48 C84,52.4200018 80,60 67.156,60 L16.844,60 C4,60 0,52.4200018 0,48 L27.9,48 C28.7272035,47.9990202 29.534075,48.256324 30.208,48.7360026 L33.808,51.264002 C34.481925,51.7436806 35.2887965,52.0009845 36.116,52 L47.916,52 C48.7432035,52.0009845 49.550075,51.7436806 50.224,51.264002 L53.824,48.7360026 C54.4890148,48.2626261 55.2837289,48.005636 56.1,48 Z" id="Path" stroke-linejoin="round"></path>
                <path d="M29.4060952,10.6007859 C27.4249066,10.2375201 25.4181948,10.0366116 23.4053333,10 C17.4137143,10 15.2895238,12.1089444 15.2895238,13.914399 C15.2895238,16.7015502 19.4281905,17.3642728 23.0761905,17.9619619 C28.5619048,18.8600439 31,19.6745114 31,22.1333982 C31,24.0782103 28.8179048,25.4872701 25.1607619,25.9022459 C21.7454181,26.1816266 18.3082362,25.8610619 15,24.9546145" id="Path"></path>
                <line x1="38.5" y1="19.5" x2="65.5" y2="19.5" id="Line-2"></line>
                <line x1="38.5" y1="11.5" x2="65.5" y2="11.5" id="Line-2-Copy"></line>
            </g>
        </g>
    </g>
</svg>