<?xml version="1.0" encoding="UTF-8"?>
<svg width="18px" height="17px" viewBox="0 0 18 17" version="1.1" xmlns="http://www.w3.org/2000/svg" xmlns:xlink="http://www.w3.org/1999/xlink">
    <!-- Generator: Sketch 59.1 (86144) - https://sketch.com -->
    <title>Linkedin</title>
    <desc>Created with Sketch.</desc>
    <g id="Page-1" stroke="none" stroke-width="1" fill="none" fill-rule="evenodd">
        <g id="01-HomePage-02" transform="translate(-344.000000, -4443.000000)" fill="#00253E" fill-rule="nonzero">
            <g id="Group-10" transform="translate(135.000000, 4429.000000)">
                <g id="Linkedin" transform="translate(209.000000, 14.000000)">
                    <path d="M0,1.99134199 C0,1.41412987 0.186672,0.937939394 0.56,0.562770563 C0.933328,0.187584416 1.418672,0 2.016,0 C2.602672,0 3.077328,0.184692641 3.44,0.554112554 C3.813328,0.935064935 4,1.43144589 4,2.04329004 C4,2.5974026 3.818672,3.05915152 3.456,3.42857143 C3.082672,3.80952381 2.592,4 1.984,4 L1.968,4 C1.381328,4 0.906672,3.80952381 0.544,3.42857143 C0.181328,3.04761905 0,2.5685368 0,1.99134199 Z M0,17 L0,6 L4,6 L4,17 L0,17 Z M6,17 L9.92920354,17 L9.92920354,10.4561404 C9.92920354,10.0467719 9.97640708,9.73098246 10.0707965,9.50877193 C10.2359823,9.11110526 10.4867257,8.77484211 10.8230088,8.5 C11.159292,8.22514035 11.581115,8.0877193 12.0884956,8.0877193 C13.4100354,8.0877193 14.0707965,8.97075439 14.0707965,10.7368421 L14.0707965,17 L18,17 L18,10.2807018 C18,8.54970175 17.5870265,7.23684211 16.7610619,6.34210526 C15.9350973,5.44736842 14.8436637,5 13.4867257,5 C11.9646018,5 10.7787611,5.64912281 9.92920354,6.94736842 L9.92920354,6.98245614 L9.91150442,6.98245614 L9.92920354,6.94736842 L9.92920354,5.28070175 L6,5.28070175 C6.02359292,5.65496491 6.03539823,6.81870175 6.03539823,8.77192982 C6.03539823,10.7251404 6.02359292,13.4678246 6,17 Z" id="Shape"></path>
                </g>
            </g>
        </g>
    </g>
</svg>