<?xml version="1.0" encoding="UTF-8"?>
<svg width="104px" height="71px" viewBox="0 0 104 71" version="1.1" xmlns="http://www.w3.org/2000/svg" xmlns:xlink="http://www.w3.org/1999/xlink">
    <!-- Generator: Sketch 59.1 (86144) - https://sketch.com -->
    <title>Money</title>
    <desc>Created with Sketch.</desc>
    <g id="Page-1" stroke="none" stroke-width="1" fill="none" fill-rule="evenodd">
        <g id="01-HomePage-02" transform="translate(-388.000000, -1820.000000)">
            <g id="Money" transform="translate(388.000000, 1820.000000)">
                <path d="M103.467584,43.8724696 L104,44 L103.467584,44.1417004 C100.348134,44.9210526 97.9154445,47.3582996 97.1338121,50.4757085 L96.999292,51 L96.8661879,50.4757085 C96.0845555,47.3582996 93.6504501,44.9210526 90.5310003,44.1417004 L90,44 L90.5310003,43.8724696 C93.6504501,43.0931174 96.0845555,40.6558704 96.8661879,37.5384615 L96.999292,37 L97.1338121,37.5384615 C97.9154445,40.6558704 100.348134,43.0931174 103.467584,43.8724696" id="Fill-3244" fill="#FFBE1B"></path>
                <path d="M23.391099,7.84741144 L24,7.99273388 L23.391099,8.15258856 C19.8277929,9.0390554 17.0463215,11.8292461 16.1525886,15.3896458 L16,16 L15.8474114,15.3896458 C14.9536785,11.8292461 12.1707539,9.0390554 8.60599455,8.15258856 L8,7.99273388 L8.60599455,7.84741144 C12.1707539,6.94641235 14.9536785,4.17075386 15.8474114,0.59582198 L16,0 L16.1525886,0.59582198 C17.0463215,4.17075386 19.8277929,6.94641235 23.391099,7.84741144" id="Fill-3245" fill="#5D8EF9"></path>
                <path d="M36.6186139,11.9075391 L37,11.9928876 L36.6186139,12.0924609 C34.39149,12.6472262 32.6524833,14.3826458 32.094635,16.6159317 L31.9992885,17 L31.9039419,16.6159317 C31.3460936,14.3826458 29.607087,12.6472262 27.379963,12.0924609 L27,11.9928876 L27.379963,11.9075391 C29.607087,11.3385491 31.3460936,9.60312945 31.9039419,7.38406828 L31.9992885,7 L32.094635,7.38406828 C32.6524833,9.60312945 34.39149,11.3385491 36.6186139,11.9075391" id="Fill-3246" fill="#5D8EF9"></path>
                <path d="M73,27 C69.4498197,25.6885246 66.579767,22.7741348 65.3776808,19 L14,26.9854281 C14,26.9854281 14,26.9854281 14,27 L73,27" id="Fill-3247" fill="#8AC9F9"></path>
                <path d="M4.92015395,33.4490319 C4.92015395,29.9894064 7.73776622,27.1640455 11.2011712,27.1640455 L13.8763926,27.1640455 C13.8763926,27.1496304 13.8763926,27.1496304 13.8763926,27.1496304 L65.2679719,19.2501521 C66.4703833,22.9836647 69.3412123,25.866686 72.8923531,27.1640455 L79.2625444,27.1640455 C79.8651883,27.1640455 80.4476962,27.2505362 81,27.4091023 L79.7659462,19.3366428 C79.24097,15.9058474 76.029266,13.54177 72.6046948,14.0751289 L5.32862863,24.4107602 C1.9069341,24.929704 -0.451863305,28.1586879 0.0731129466,31.5894832 L4.76913339,62.2936598 C4.80652896,62.5243015 4.85830744,62.7693583 4.92015395,63 L4.92015395,33.4490319" id="Fill-3248" fill="#5D8EF9"></path>
                <path d="M63.7059126,64.6271735 C61.8990535,64.6271735 60.4347749,63.3898099 60.4347749,61.8613021 L60.4347749,60.6821674 C60.4347749,59.1391023 61.8990535,57.9017388 63.7059126,57.9017388 C61.8990535,57.9017388 60.4347749,56.6643753 60.4347749,55.1213101 L60.4347749,53.9421755 C60.4347749,52.4136676 61.8990535,51.1617469 63.7059126,51.1617469 L82,51.1617469 L82,41.4520825 C76.6806067,40.5932066 72.4814661,36.3570562 71.6257376,31 L19.3757079,31 C18.5199794,36.3570562 14.3208388,40.5932066 9,41.4520825 L9,56.5624747 C14.3208388,57.4213506 18.5199794,61.6429438 19.3757079,67 L60.473803,67 C60.7065265,65.6607359 62.0623936,64.6271735 63.7059126,64.6271735" id="Fill-3249" fill="#6857E5"></path>
                <path d="M59,48.5 C59,55.9541623 52.9568379,62 45.5007115,62 C38.044585,62 32,55.9541623 32,48.5 C32,41.0458377 38.044585,35 45.5007115,35 C52.9568379,35 59,41.0458377 59,48.5" id="Fill-3250" fill="#330D84"></path>
                <path d="M62.1732406,71 C62.0489698,70.9418758 61.929034,70.8837517 61.8163233,70.8110964 C61.8018732,70.7965654 61.7888681,70.7965654 61.775863,70.7820343 C61.6776024,70.7239102 61.5851218,70.665786 61.4955312,70.5931308 C61.4796361,70.5785997 61.462296,70.5640687 61.4464009,70.5495376 C61.2513246,70.4042272 61.0808135,70.2153236 60.9377576,70.0264201 C60.9204174,70.011889 60.9045223,69.9828269 60.8900723,69.9537649 C60.8308269,69.8811096 60.7773615,69.7939234 60.7311212,69.7067371 C60.7210062,69.6922061 60.7094461,69.677675 60.702221,69.6486129 C60.6487557,69.5468956 60.6025154,69.4451783 60.5649451,69.32893 C60.5577201,69.3143989 60.550495,69.2853369 60.54327,69.2562748 C60.5158148,69.1690885 60.4926947,69.0819022 60.4753546,68.994716 C60.4695745,68.9656539 60.4637945,68.9365918 60.4594595,68.8929987 C60.4421193,68.7767503 60.4291143,68.660502 60.4291143,68.5442536 L60.4291143,67.3672391 C60.4291143,67.2945839 60.4348943,67.2219287 60.4421193,67.1492734 C60.4493444,67.0911493 60.4580145,67.0330251 60.4681295,66.9603699 C60.4681295,66.9603699 60.4681295,66.9603699 60.4695745,66.9603699 L19.3836232,66.9603699 C18.5281777,61.6129458 14.3304255,57.3989432 9.011346,56.5416116 L9.011346,41.4583884 C14.3304255,40.6010568 18.5281777,36.3725231 19.3836232,31.0250991 L71.6163768,31.0250991 C72.4718223,36.3725231 76.6695745,40.6010568 81.987209,41.4583884 L81.987209,51.1505945 L86,51.1505945 L86,33.335535 C86,29.8480845 83.1692267,27 79.6896441,27 L11.3103559,27 C7.83077335,27 5,29.8480845 5,33.335535 L5,64.6499339 C5,68.1519155 7.83077335,71 11.3103559,71 L62.1746856,71 C62.1746856,71 62.1746856,71 62.1732406,71" id="Fill-3251" fill="#330D84"></path>
                <path d="M47.6408891,53.25 C48.0590414,52.8944611 48.2702014,52.4535928 48.2702014,51.9273952 C48.2702014,51.386976 48.1048854,50.9603293 47.7770317,50.6474551 C47.4491781,50.3345808 46.835147,50.0501497 45.9404955,49.7657186 L45.9404955,53.8899701 C46.6573281,53.8188623 47.224126,53.6055389 47.6408891,53.25 Z M42.9300764,43.1953593 C42.5480435,43.5508982 42.3591109,43.9775449 42.3591109,44.489521 C42.3591109,45.001497 42.5077564,45.3997006 42.8064367,45.6983533 C43.1051169,45.997006 43.6719148,46.2814371 44.5082195,46.5658683 L44.5082195,42.5980539 C43.8372308,42.6549401 43.3093309,42.8540419 42.9300764,43.1953593 Z M44.5082195,58 L44.5082195,56.3218563 C42.4633017,56.1085329 40.6281547,55.2836826 39,53.8188623 L40.6351007,51.8278443 C41.8881686,52.9513473 43.1801343,53.6055389 44.5082195,53.8188623 L44.5082195,49.3817365 C42.821718,48.9693114 41.5853207,48.4288922 40.8031952,47.7462575 C40.0182913,47.0778443 39.6265339,46.0823353 39.6265339,44.7597305 C39.6265339,43.4371257 40.0780273,42.3562874 40.9824033,41.5172156 C41.8840009,40.6781437 43.0606622,40.2230539 44.5082195,40.1377246 L44.5082195,39 L45.9404955,39 L45.9404955,40.1661677 C47.5825423,40.2941617 49.1356796,40.863024 50.597129,41.886976 L49.1426256,43.9917665 C48.1576754,43.2806886 47.0907618,42.8398204 45.9404955,42.6691617 L45.9404955,46.9782934 L46.0085668,46.9782934 C47.7242417,47.3907186 48.9856448,47.9453593 49.7913869,48.6422156 C50.597129,49.3532934 51,50.363024 51,51.6998503 C51,53.0366766 50.5373929,54.1317365 49.6121787,54.9708084 C48.6855754,55.8098802 47.4630702,56.2649701 45.9404955,56.3502994 L45.9404955,58 L44.5082195,58 L44.5082195,58 Z" id="Fill-3252" fill="#FFFFFE"></path>
                <path d="M60,68.112311 L60,66.887689 C60,65.300216 61.4839094,64 63.314992,64 L88.685008,64 C90.5160906,64 92,65.300216 92,66.887689 L92,68.112311 C92,69.7149028 90.5160906,71 88.685008,71 L63.314992,71 C61.4839094,71 60,69.7149028 60,68.112311" id="Fill-3253" fill="#FFBE1B"></path>
                <path d="M60,61.1212121 L60,59.8939394 C60,58.2878788 61.4839094,57 63.314992,57 L88.685008,57 C90.5160906,57 92,58.2878788 92,59.8939394 L92,61.1212121 C92,62.7121212 90.5160906,64 88.685008,64 L63.314992,64 C61.4839094,64 60,62.7121212 60,61.1212121" id="Fill-3254" fill="#FFCA45"></path>
                <path d="M60,55.112311 L60,53.887689 C60,52.300216 61.4839094,51 63.314992,51 L88.685008,51 C90.5160906,51 92,52.300216 92,53.887689 L92,55.112311 C92,56.7149028 90.5160906,58 88.685008,58 L63.314992,58 C61.4839094,58 60,56.7149028 60,55.112311" id="Fill-3255" fill="#FFE37B"></path>
            </g>
        </g>
    </g>
</svg>