<svg xmlns="http://www.w3.org/2000/svg" width="59" height="59" viewBox="0 0 59 59">
  <g id="Group_836" data-name="Group 836" transform="translate(-1259 -994)">
    <rect id="Rectangle_1623" data-name="Rectangle 1623" width="59" height="59" rx="10" transform="translate(1259 994)" fill="#00263e"/>
    <g id="Group_709" data-name="Group 709" transform="translate(0 64.631)">
      <path id="Path" d="M8.941,14.307a5.37,5.37,0,0,0-5.364,5.364v7.152a1.788,1.788,0,0,1-3.576,0V19.671a8.949,8.949,0,0,1,3.943-7.409A7.151,7.151,0,1,1,16.05,6.349,7.159,7.159,0,0,1,25.336,16.9a6.372,6.372,0,0,1,3.275,5.584v4.343a1.788,1.788,0,0,1-3.576,0V22.481a2.8,2.8,0,0,0-2.8-2.809H17.881v7.152a1.788,1.788,0,0,1-3.576,0V19.671A5.357,5.357,0,0,0,8.941,14.307Z" transform="translate(1274 944.369)" fill="#eff1f2"/>
      <path id="Path-2" data-name="Path" d="M3.576,7.155A3.577,3.577,0,1,0,0,3.578,3.573,3.573,0,0,0,3.576,7.155Z" transform="translate(1290.095 953.309)" fill="#00263e"/>
      <path id="Path-3" data-name="Path" d="M3.576,7.155A3.577,3.577,0,1,1,7.153,3.576,3.587,3.587,0,0,1,3.576,7.155Z" transform="translate(1279.365 947.945)" fill="#00263e"/>
    </g>
  </g>
</svg>
