<svg xmlns="http://www.w3.org/2000/svg" width="60" height="62" viewBox="0 0 60 62">
    <g fill="none" fill-rule="evenodd">
        <g fill="#18233D" fill-rule="nonzero">
            <g>
                <g>
                    <path fill-opacity=".305" d="M45 6H31V1c0-.553-.447-1-1-1-.553 0-1 .447-1 1v5H15c-.553 0-1 .447-1 1v30h9c1.654 0 3 1.346 3 3v22h8V33c0-1.654 1.346-3 3-3h9V7c0-.553-.447-1-1-1zm-8 17H23c-.553 0-1-.447-1-1 0-.553.447-1 1-1h14c.553 0 1 .447 1 1 0 .553-.447 1-1 1zm0-7H23c-.553 0-1-.447-1-1 0-.553.447-1 1-1h14c.553 0 1 .447 1 1 0 .553-.447 1-1 1z" transform="translate(-388 -320) translate(279 137) translate(109 183)"/>
                    <path fill-opacity=".502" d="M59 32H37c-.553 0-1 .447-1 1v28c0 .553.447 1 1 1h22c.553 0 1-.447 1-1V33c0-.553-.447-1-1-1zm-7 23h-8c-.553 0-1-.447-1-1 0-.553.447-1 1-1h8c.553 0 1 .447 1 1 0 .553-.447 1-1 1zm0-7h-8c-.553 0-1-.447-1-1 0-.553.447-1 1-1h8c.553 0 1 .447 1 1 0 .553-.447 1-1 1zm0-7h-8c-.553 0-1-.447-1-1 0-.553.447-1 1-1h8c.553 0 1 .447 1 1 0 .553-.447 1-1 1z" transform="translate(-388 -320) translate(279 137) translate(109 183)"/>
                    <path d="M23 39H1c-.553 0-1 .447-1 1v21c0 .553.447 1 1 1h22c.553 0 1-.447 1-1V40c0-.553-.447-1-1-1zm-7 16H8c-.553 0-1-.447-1-1 0-.553.447-1 1-1h8c.553 0 1 .447 1 1 0 .553-.447 1-1 1zm0-7H8c-.553 0-1-.447-1-1 0-.553.447-1 1-1h8c.553 0 1 .447 1 1 0 .553-.447 1-1 1z" transform="translate(-388 -320) translate(279 137) translate(109 183)"/>
                </g>
            </g>
        </g>
    </g>
</svg>
