<svg xmlns="http://www.w3.org/2000/svg" width="625.64" height="434.408" viewBox="0 0 625.64 434.408">
    <defs>
        <style>
            .prefix__cls-11,.prefix__cls-13,.prefix__cls-14,.prefix__cls-17,.prefix__cls-20,.prefix__cls-25,.prefix__cls-26,.prefix__cls-27,.prefix__cls-3,.prefix__cls-30,.prefix__cls-4,.prefix__cls-7,.prefix__cls-9{fill-rule:evenodd}.prefix__cls-14,.prefix__cls-2,.prefix__cls-3{fill:#fff}.prefix__cls-2,.prefix__cls-3,.prefix__cls-7{stroke:#18233d}.prefix__cls-4{fill:#0acc94}.prefix__cls-26,.prefix__cls-30,.prefix__cls-7{fill:none}.prefix__cls-30,.prefix__cls-7{stroke-linecap:round}.prefix__cls-13,.prefix__cls-6{fill:#18233d}.prefix__cls-25,.prefix__cls-8{fill:#85a9ff}.prefix__cls-10,.prefix__cls-9{fill:#e5e9f3}.prefix__cls-11{fill:#ffd1ab}.prefix__cls-17{fill:#58627a}.prefix__cls-20{fill:#febe89}.prefix__cls-26,.prefix__cls-30{stroke:#fff}.prefix__cls-27{fill:#ffb391}
        </style>
    </defs>
    <g id="prefix__Page-1" transform="translate(0 -.6)">
        <g id="prefix__Desktop-HD" transform="translate(-87 -97)">
            <g id="prefix__Upload-the-portofolio-online" transform="translate(87 98)">
                <path id="prefix__Rectangle" d="M164-34h164a98 98 0 0 0 98-98 98 98 0 0 0-98-98H4v36A160 160 0 0 0 164-34z" transform="rotate(180 215 0)" style="fill-rule:evenodd;fill:#e7f4f8"/>
                <g id="prefix__Group-9" transform="translate(338 45)">
                    <ellipse id="prefix__Oval" cx="36" cy="36.5" class="prefix__cls-2" rx="36" ry="36.5" transform="translate(.5 .5)"/>
                    <path id="prefix__Path-187" d="M39.266 11.651h-4.493L18.914 36.393h11.307v21.224H50.5V36.393h9.431z" class="prefix__cls-3"/>
                    <path id="prefix__Path-187-2" d="M34.5 11.151L13 36.893h11.721v21.224H46V36.893h10z" class="prefix__cls-4" data-name="Path-187"/>
                </g>
                <g id="prefix__Group-4" transform="translate(202)">
                    <path id="prefix__Rectangle-2" d="M52 0h33a26 26 0 0 1 26 26 26 26 0 0 1-26 26H0A52 52 0 0 1 52 0z" data-name="Rectangle" style="stroke-width:.8px;stroke-linecap:round;fill:none;stroke:#18233d;fill-rule:evenodd"/>
                    <circle id="prefix__Oval-2" cx="5" cy="5" r="5" class="prefix__cls-6" data-name="Oval" transform="translate(29 21)"/>
                    <circle id="prefix__Oval-3" cx="5" cy="5" r="5" class="prefix__cls-6" data-name="Oval" transform="translate(51 21)"/>
                    <circle id="prefix__Oval-4" cx="5" cy="5" r="5" class="prefix__cls-6" data-name="Oval" transform="translate(73 21)"/>
                </g>
                <path id="prefix__Path-82" d="M209.432 415.625L611.5 416" class="prefix__cls-7"/>
                <g id="prefix__Group-5" transform="rotate(180 263.5 77.5)">
                    <path id="prefix__Path-79" d="M76.495-225.5H65.4l-42.694-23.3 2.877-4.587 45.351 17.721 49.828-17.7 1.618 4.5z" class="prefix__cls-3"/>
                    <circle id="prefix__Oval-5" cx="4.5" cy="4.5" r="4.5" class="prefix__cls-8" data-name="Oval" transform="translate(110 -261)"/>
                    <circle id="prefix__Oval-6" cx="4.5" cy="4.5" r="4.5" class="prefix__cls-8" data-name="Oval" transform="translate(27 -261)"/>
                    <path id="prefix__Path-77" d="M26.5-80.5v-17.1a81.677 81.677 0 0 1 15.522-47.9h18.922a81.319 81.319 0 0 0-18.05 49.226L42.529-80.5z" class="prefix__cls-3"/>
                    <path id="prefix__Rectangle-3" d="M34-.5A33.5 33.5 0 0 1 .5-34v-26A22.5 22.5 0 0 1 23-82.5h39A22.5 22.5 0 0 1 84.5-60v26A33.5 33.5 0 0 1 51-.5z" class="prefix__cls-3" data-name="Rectangle"/>
                    <path id="prefix__Rectangle-4" d="M43 0h17a34 34 0 0 0 34-34v-26a23 23 0 0 0-23-23H32A23 23 0 0 0 9-60v26A34 34 0 0 0 43 0z" class="prefix__cls-9" data-name="Rectangle"/>
                    <rect id="prefix__Rectangle-5" width="74" height="15" class="prefix__cls-10" data-name="Rectangle" rx="5" transform="translate(65 -160)"/>
                    <path id="prefix__Rectangle-6" d="M0 0H11V53H0z" class="prefix__cls-2" data-name="Rectangle" transform="translate(65.5 -224.5)"/>
                    <path id="prefix__Rectangle-7" d="M0 0H16V8H0z" class="prefix__cls-10" data-name="Rectangle" transform="translate(64 -226)"/>
                    <path id="prefix__Rectangle-8" d="M56-152h31l-7.009-31H63.009z" class="prefix__cls-9" data-name="Rectangle"/>
                    <rect id="prefix__Rectangle-9" width="73" height="14" class="prefix__cls-2" data-name="Rectangle" rx="5" transform="translate(12.5 -159.5)"/>
                </g>
                <g id="prefix__Group-6" transform="rotate(180 250 47)">
                    <path id="prefix__Path-17" d="M89.414-121.831L132-126.043q20.937-1.6 23.745-7.957H89.414z" class="prefix__cls-11"/>
                    <path id="prefix__Path-16" d="M38.057-70.419q16.059-1.691 30.072-21.175T84.4-114.617l11.136 1.134 5.257-19.618q-14.4-3.417-21.442 0C69.475-128.31 62.3-119 50.623-103.509c-5.785 7.673-10.245 12.846-12.566 17.879q-6.143 13.322 0 15.211z" transform="rotate(-14.98 67.805 -102.574)" style="fill:#c6cbda;fill-rule:evenodd"/>
                    <path id="prefix__Path-80" d="M172.257 140.361l4.2 17.874a74 74 0 0 1 .478 31.635l-.128.63a20.37 20.37 0 0 1-20.186 16.316L81.942 206l-56.734 94.5L6 293.67l45.36-108.8a37 37 0 0 1 28.418-22.315l49.375-7.744 6.515-14.451z" class="prefix__cls-13" transform="rotate(180 93.076 0)"/>
                    <path id="prefix__Path-80-2" d="M202.257 140.361l4.2 17.874a74 74 0 0 1 .478 31.635l-.128.63a20.37 20.37 0 0 1-20.186 16.316L111.942 206l-56.734 94.5L36 293.67l45.36-108.8a37 37 0 0 1 28.418-22.315l49.375-7.744 6.515-14.451z" class="prefix__cls-13" data-name="Path-80" transform="rotate(180 123.076 0)"/>
                    <path id="prefix__Path-9" d="M26.4-60.957Q1.338-70.375 1.338-80.176t12.529-36.412q-3.04-20.959-3.04-24.985c0-4.026 41.118-6.864 55.474 3.192 6.283 3.85-2.341 22.718-2.341 35.274 4.94 5.776 4.54 11.524-3.86 26.418Q51.7-61.8 37.549-60.957z" class="prefix__cls-14"/>
                    <g id="prefix__Group-3" transform="translate(6)">
                        <path id="prefix__Path-5" d="M5.707-58.577Q.349-19.493 8.26-9.871t23.632 5.817q5.767 1.266 8.771-1.655c3-2.921 4.355-9.608-2.121-14.512C35.2-22.749 41.59-41.48 46.4-52.449q-2.576-4.105-40.693-6.128z" class="prefix__cls-13" transform="rotate(-7 24.973 -30.778)"/>
                        <path id="prefix__Path-2" d="M20.556-34Q24.972-60.037 16-64.768c11.438-12.253 18.229-15.01 23.735-12.253q5.506 2.757-2.374 16.984L34-36z" class="prefix__cls-11"/>
                        <path id="prefix__Combined-Shape" d="M20.954-33.907l12.275 2.889.081-.044 2.2-15.721Q24.5-41.119 20.954-33.907z" style="fill:#cf8b54;fill-rule:evenodd"/>
                        <path id="prefix__Path" d="M44.074-15.717q6.332-23.917-1.038-27.539c-7.37-3.623-21.061 7.083-22.693 8.595q-5.284-1.8-7.245 1.177c-1.96 2.98-1.7 6.531 4.122 6.531s18.448 6.4 19.73 14.428q4.45 1.925 7.124-3.192z" class="prefix__cls-11"/>
                        <path id="prefix__Path-4" d="M42.624-19q-4.331-1.113-1.513-5.814Q43.082-27.864 45-31h-2.907" class="prefix__cls-7"/>
                        <path id="prefix__Path-6" d="M14-31l5-1" class="prefix__cls-7"/>
                        <path id="prefix__Path-7" d="M29.544-21.863q3.269 1.594 5.442.432" transform="rotate(16 32.267 -21.401)" style="stroke-linecap:round;fill:none;stroke:#18233d;fill-rule:evenodd"/>
                        <circle id="prefix__Oval-7" cx="1" cy="1" r="1" class="prefix__cls-6" data-name="Oval" transform="translate(34 -25)"/>
                        <circle id="prefix__Oval-8" cx="1" cy="1" r="1" class="prefix__cls-6" data-name="Oval" transform="translate(42 -23)"/>
                        <path id="prefix__Path-8" d="M39-35h5a1.906 1.906 0 0 0-2.133-2A2.954 2.954 0 0 0 39-35z" class="prefix__cls-14"/>
                    </g>
                    <path id="prefix__Combined-Shape-2" d="M65.422-114.427c1.376-6.7 3.219-13.491 3.171-18.247a63.286 63.286 0 0 0-15.238-2.6q-21.887-1.29-45.073 31.19-.732 1.75-1.386 3.4 26.236-4.285 28.07-4.285 1.434-.005 30.456-9.458z" class="prefix__cls-17" data-name="Combined-Shape"/>
                    <path id="prefix__Path-12" d="M68.422-100.291l35.4 31.424L114.7-53.2l8.3 9.622a1.656 1.656 0 0 0 2.328.179 1.918 1.918 0 0 0 .388-2.468L118.13-58.14q4.174.89 4.617-3.112c.443-4 2.635-2.242 2.635-5.711s.856-4.469-1.308-5.877q-2.165-1.408-11.328-5.814l-30.493-33.759z" class="prefix__cls-11"/>
                    <path id="prefix__Path-11" d="M1.338-77.807c-3.078-6.115-3.55-24.668 29.527-44.16q33.078-19.492 56.1 12.551L70.67-96.451l-14.938-12.965Q35.214-93.432 24.905-85.032c-10.305 8.4-20.489 13.34-23.567 7.225z" class="prefix__cls-14"/>
                    <path id="prefix__Path-14" d="M60.689-104.195L51.5-110.18l-1.291-6.732" class="prefix__cls-7"/>
                    <path id="prefix__Path-15" d="M51.5-110.553q-1.837 1.7-35.638 30.03" class="prefix__cls-7"/>
                </g>
                <path id="prefix__Rectangle-10" d="M0 0H115V180H0z" data-name="Rectangle" transform="translate(323 236)" style="fill:#dae0f4"/>
                <path id="prefix__Rectangle-11" d="M0 0H115V180H0z" data-name="Rectangle" transform="translate(237 236)" style="fill:#f6f8ff"/>
                <path id="prefix__Rectangle-12" d="M193.417 231.874l2.2 177.188a3.786 3.786 0 0 0 7.571 0l2.141-177.188z" class="prefix__cls-3" data-name="Rectangle" transform="rotate(8 199.37 322.338)"/>
                <path id="prefix__Rectangle-13" d="M141.741 231.874l2.2 177.188a3.786 3.786 0 0 0 7.571 0l2.141-177.188z" class="prefix__cls-3" data-name="Rectangle" transform="rotate(8 147.694 322.337)"/>
                <g id="prefix__Group-15" transform="rotate(146 104.608 232.225)">
                    <path id="prefix__Path-44" d="M29.49 0l-2.42-7.281L6.08-21.556H27.8a15 15 0 0 1 14.755 12.3l1.421 7.769" class="prefix__cls-20"/>
                    <path id="prefix__Path-26" d="M.068 10.255l7.382 1.121A13.818 13.818 0 0 0 19.015 7.76l24.91 15.466a6.415 6.415 0 0 1-6.83 3.418l-22.98-4.034v3.717H5.128A22.647 22.647 0 0 1 .05 10.543z" class="prefix__cls-13" transform="rotate(180 21.962 0)"/>
                </g>
                <path id="prefix__Path-74" d="M109.669 240l87.222 52.265L298 383.839 283.626 399 52 242.352l7.249-.282z" style="fill:#779cf7;fill-rule:evenodd"/>
                <g id="prefix__Group-15-2" data-name="Group-15" transform="rotate(180 122.5 203.5)">
                    <path id="prefix__Path-44-2" d="M29.63 0L27.2-7.355 6.109-21.774H27.98A15 15 0 0 1 42.738-9.459L44.186-1.5" class="prefix__cls-20" data-name="Path-44"/>
                    <path id="prefix__Path-26-2" d="M.069 10.359l7.4 1.131a13.859 13.859 0 0 0 11.636-3.65l25.03 15.621a6.452 6.452 0 0 1-6.882 3.449l-23.071-4.071v3.754h-9.03a22.927 22.927 0 0 1-5.1-15.925z" class="prefix__cls-13" data-name="Path-26" transform="rotate(180 22.067 0)"/>
                </g>
                <g id="prefix__Group" transform="translate(243 130)">
                    <path id="prefix__Rectangle-14" d="M4.966 0h105.221a3 3 0 0 1 2.991 2.769l5.183 66.965a3 3 0 0 1-2.76 3.223q-.116.009-.231.009H10.148A3 3 0 0 1 7.157 70.2L1.975 3.231A3 3 0 0 1 4.734.009Q4.85 0 4.966 0z" class="prefix__cls-13" data-name="Rectangle"/>
                    <path id="prefix__Rectangle-15" d="M3.241 0h105.221a3 3 0 0 1 2.991 2.769l5.183 66.965a3 3 0 0 1-2.76 3.223q-.116.009-.231.009H8.424A3 3 0 0 1 5.433 70.2L.25 3.231A3 3 0 0 1 3.01.009Q3.125 0 3.241 0z" class="prefix__cls-9" data-name="Rectangle"/>
                    <path id="prefix__Path-93" d="M69.909 49.991L80 72.965H40.973l4.341-21.345z" style="opacity:.3;fill:#58627a;fill-rule:evenodd"/>
                    <path id="prefix__Combined-Shape-3" d="M41.452 49.991h28.457L63.422 97H34.966zm12.054 27.266a5.58 5.58 0 1 0-5.605-5.58 5.592 5.592 0 0 0 5.605 5.58z" class="prefix__cls-13" data-name="Combined-Shape"/>
                    <path id="prefix__Combined-Shape-4" d="M39.554 49.788h28.457L61.7 97H33.241zm11.365 27.469a5.58 5.58 0 1 0-5.605-5.58 5.592 5.592 0 0 0 5.605 5.58z" class="prefix__cls-9" data-name="Combined-Shape"/>
                </g>
                <g id="prefix__Group-2" transform="translate(25 386)">
                    <path id="prefix__Path-79-2" d="M61.854.5H49.23L3.42 25.681q-.07.038-.138.081a2.936 2.936 0 0 0-.94 4.044 3.855 3.855 0 0 0 4.685 1.55l48.5-19.091L109.5 31.576a2.766 2.766 0 0 0 3.535-1.676 3.229 3.229 0 0 0-1.568-3.958z" class="prefix__cls-3" data-name="Path-79"/>
                    <ellipse id="prefix__Oval-9" cx="5.149" cy="5.234" class="prefix__cls-8" data-name="Oval" rx="5.149" ry="5.234" transform="translate(99.736 30.244)"/>
                    <ellipse id="prefix__Oval-10" cx="5.149" cy="5.234" class="prefix__cls-8" data-name="Oval" rx="5.149" ry="5.234" transform="translate(5.333 30.244)"/>
                </g>
                <path id="prefix__Path-77-2" d="M29.5 222.5v21.2a87.5 87.5 0 0 0 16.843 51.612l.868 1.188h21.723l-.158-.19a88.5 88.5 0 0 1-20.436-54.535l-.448-19.275z" class="prefix__cls-3" data-name="Path-77"/>
                <rect id="prefix__Rectangle-16" width="112" height="14" data-name="Rectangle" rx="4" transform="translate(341 225)" style="fill:#a7c0ff"/>
                <rect id="prefix__Rectangle-17" width="223" height="14" data-name="Rectangle" rx="4" transform="translate(136 225)" style="fill:#d7e3ff"/>
                <path id="prefix__Rectangle-18" d="M34 132.5A33.5 33.5 0 0 0 .5 166v37A22.5 22.5 0 0 0 23 225.5h50A22.5 22.5 0 0 0 95.5 203v-37A33.5 33.5 0 0 0 62 132.5z" class="prefix__cls-3" data-name="Rectangle"/>
                <path id="prefix__Rectangle-19" d="M44 132h28a34 34 0 0 1 34 34v37a23 23 0 0 1-23 23H33a23 23 0 0 1-23-23v-37a34 34 0 0 1 34-34z" class="prefix__cls-9" data-name="Rectangle"/>
                <rect id="prefix__Rectangle-20" width="84" height="17" class="prefix__cls-10" data-name="Rectangle" rx="5" transform="translate(73 296)"/>
                <path id="prefix__Rectangle-21" d="M0 0H12V60H0z" class="prefix__cls-2" data-name="Rectangle" transform="translate(74.5 325.5)"/>
                <path id="prefix__Rectangle-22" d="M0 0H18V9H0z" class="prefix__cls-10" data-name="Rectangle" transform="translate(72 378)"/>
                <path id="prefix__Rectangle-23" d="M63 304h35l-7.914 35H70.914z" class="prefix__cls-9" data-name="Rectangle"/>
                <rect id="prefix__Rectangle-24" width="83" height="16" class="prefix__cls-2" data-name="Rectangle" rx="5" transform="translate(13.5 296.5)"/>
                <path id="prefix__Path-73" d="M43.437 242a56.232 56.232 0 0 0 48.849 62.753q2.23.278 4.477.377l69.454 3.06L193.905 410H218l-19.162-109.765a41 41 0 0 0-33.167-33.308l-68.788-12.31-7.794-11.1z" class="prefix__cls-25"/>
                <path id="prefix__Path-81" d="M266.467 79h10.879a12.5 12.5 0 0 1 12.5 12.5H247.5z" class="prefix__cls-25"/>
                <path id="prefix__Rectangle-25" d="M144.437 194.411l79.489 1.127a50.972 50.972 0 0 0 25.025-38.48l5.089-46.271A41.8 41.8 0 0 1 274.109 79.5h-61.93a34.5 34.5 0 0 0-34.217 30.092l-5.852 45.421a51.717 51.717 0 0 1-27.673 39.398z" class="prefix__cls-3" data-name="Rectangle"/>
                <g id="prefix__Group-7" transform="translate(190.578 97.382)">
                    <path id="prefix__Path-17-2" d="M1.422 32.118h24" class="prefix__cls-7" data-name="Path-17"/>
                    <path id="prefix__Path-17-3" d="M1.422 55.118h24" class="prefix__cls-7" data-name="Path-17"/>
                    <path id="prefix__Path-17-4" d="M.422 36.118h10" class="prefix__cls-7" data-name="Path-17"/>
                    <path id="prefix__Path-17-5" d="M15.422 36.118h10" class="prefix__cls-7" data-name="Path-17"/>
                    <path id="prefix__Path-17-6" d="M5.422 1.118h45" class="prefix__cls-7" data-name="Path-17"/>
                    <path id="prefix__Path-17-7" d="M3.422 10.118h24" class="prefix__cls-7" data-name="Path-17"/>
                    <path id="prefix__Path-17-8" d="M2.422 14.118h10" class="prefix__cls-7" data-name="Path-17"/>
                    <path id="prefix__Path-17-9" d="M17.422 14.118h10" class="prefix__cls-7" data-name="Path-17"/>
                    <path id="prefix__Rectangle-26" d="M39.282 8.618h10.14l-1.86 11h-10.14z" class="prefix__cls-4" data-name="Rectangle"/>
                    <path id="prefix__Rectangle-27" d="M34.282 30.618h10.14l-1.86 11h-10.14z" class="prefix__cls-4" data-name="Rectangle"/>
                    <path id="prefix__Rectangle-28" d="M30.282 52.618h10.14l-1.86 11h-10.14z" class="prefix__cls-4" data-name="Rectangle"/>
                </g>
                <g id="prefix__Group-14" transform="translate(20 71)">
                    <path id="prefix__Path-62" d="M50.61 67.127L13.776 82.4l9.653 49.971v24.555a21.035 21.035 0 0 0 5.943 14.652h65.01a21.524 21.524 0 0 0 4.064-13.669l-2.382-48.917V76.355z" class="prefix__cls-13"/>
                    <path id="prefix__Path-76" d="M69.538 171.581l24.6 10.891a11.866 11.866 0 0 0 13.05-2.318l-9.181-25.591-3.32-78.063-24.532-5.518z" class="prefix__cls-13"/>
                    <path id="prefix__Path-75" d="M68.7 120.139l1.14 51.724-17.4 21.708a24 24 0 0 1-29.878 6.24l-4.323-2.268 5.422-60.474-9.885-53.948 23.067-10.263z" class="prefix__cls-13"/>
                    <path id="prefix__Path-70" d="M73.175 78.5l5.807 11.373 7.62 9.921-17.064 20.43.1 51.358" class="prefix__cls-26"/>
                    <path id="prefix__Shape" d="M15.322 81.751A25.083 25.083 0 0 0 2.7 95.335l-.77 1.987a26.139 26.139 0 0 0 1.4 21.942l24.563 45.188a16.73 16.73 0 0 0 12.364 8.585 21.556 21.556 0 0 0 15.265-3.619l47.959-33.162-13.8-17.273-46.112 24.532L26.9 107.059" class="prefix__cls-13"/>
                    <path id="prefix__Shape-2" d="M27.892 164.452a16.73 16.73 0 0 0 12.364 8.585 21.556 21.556 0 0 0 15.265-3.619l47.959-33.162-13.8-17.273-46.111 24.532-16.245-35.52" class="prefix__cls-26" data-name="Shape"/>
                    <path id="prefix__Path-64" d="M72.19 71.5l4.827 18.373-7.479 31.214-22.2-31.214L43.91 69.97z" class="prefix__cls-14"/>
                    <path id="prefix__Path-69" d="M79.477 72.858L86.6 93.384l-7.62-3.511" class="prefix__cls-26"/>
                    <path id="prefix__Path-68" d="M45.554 77.552l-1.985 16.41-6.726 8.715 33 17.463" class="prefix__cls-26"/>
                    <path id="prefix__Path-63" d="M43.569 70.156l3.773 19.717 13.368-5.857 16.307 5.856L72.19 71.5l-2.652-2.533-22.2-1.84z" class="prefix__cls-9"/>
                    <g id="prefix__Group-3-2" data-name="Group-3" transform="rotate(11 24.009 253.803)">
                        <path id="prefix__Path-58" d="M7.876 36.527Q-5.441 19.768 4.137 13.565C2.779 4.574 10.858 1.911 20.714 1.045S41.608 1.8 39.333 8.71s6.6 5.77-.171 13.474q-6.774 7.7-28.115 16.8z" class="prefix__cls-13"/>
                        <path id="prefix__Path-2-2" d="M10.264 40.97q4.922 13.134-.4 28.939L33.705 88.8l1.418-21.657-5.549-26.173z" class="prefix__cls-27" data-name="Path-2"/>
                        <path id="prefix__Path-2-3" d="M29.574 40.97l2.8 15.854c-10.611-2.6-18.691-9.977-21.62-15.854z" data-name="Path" style="fill:#ff9d60;fill-rule:evenodd"/>
                        <path id="prefix__Path-3" d="M37.305 19.2q7.215 27.487-1.182 31.651c-8.4 4.163-24-8.14-25.858-9.878q-6.021 2.072-8.255-1.352c-2.234-3.424-.506-7.5 6.125-7.5 1 0 3.754 6.246 5.043 5.928 1.328-.328-.227-7.232 1.247-7.857 6.684-.9-.7-9.915.573-12.524 1.714-3.512 8.241-1.005 14.19-2.131q5.337-1.644 8.117 3.663z" class="prefix__cls-27" data-name="Path"/>
                        <path id="prefix__Path-57" d="M12.594-44.913q1.214-3.58 7.414-2.06c6.2 1.521 5.608 7.15 11.06 6.955q5.452-.2 6.423 5.557l2.362 3.65q.506-4.991.508-7.2c0-2.211-5.332-11.365-14.815-16.249-3.372-1.74-8.816-1.215-11.046.673q-1.954 1.653-1.906 8.674z" transform="rotate(165.02 20.806 .002)" style="fill:#49505e;fill-rule:evenodd"/>
                        <path id="prefix__Path-8-2" d="M31.579 38.409h6.028Q37.443 41 35.033 41a3.574 3.574 0 0 1-3.454-2.591z" class="prefix__cls-14" data-name="Path-8" transform="rotate(-13 34.592 39.7)"/>
                        <path id="prefix__Path-59" d="M28.029-39.622c.551-1.082 4.129.091 4.833.78 1.282-.238 5.383-.746 6.789.224s-1.015 1.135-3.1 1.564a12.47 12.47 0 0 1-4.156.16q-4.917-1.646-4.366-2.728z" class="prefix__cls-13" transform="rotate(160 27.246 0)"/>
                        <path id="prefix__Path-4-2" d="M35.9 23.086q-4.89 1.234-1.709 6.45 2.226 3.383 4.391 6.862H35.3" class="prefix__cls-7" data-name="Path-4"/>
                        <path id="prefix__Path-6-2" d="M4.25 36.662l3.767 1.116" class="prefix__cls-7" data-name="Path-6"/>
                        <path id="prefix__Path-7-2" d="M21.738 27.1q3.715-1.809 6.184-.488" class="prefix__cls-7" data-name="Path-7" transform="rotate(-16.05 24.776 26.562)"/>
                        <circle id="prefix__Oval-11" cx="1" cy="1" r="1" class="prefix__cls-6" data-name="Oval" transform="translate(25.691 27.939)"/>
                        <circle id="prefix__Oval-12" cx="1" cy="1" r="1" class="prefix__cls-6" data-name="Oval" transform="translate(35.162 25.348)"/>
                    </g>
                    <path id="prefix__Path-65" d="M57.935 85.337l9.2.23 3.017 1.823-3.017 5.557-5.2.436-8.252-6.3z" class="prefix__cls-13"/>
                    <path id="prefix__Path-66" d="M61.918 92.52v17l7.62 10.7 2.652-12.01-5.55-16.673z" class="prefix__cls-13"/>
                    <path id="prefix__Path-67" d="M36.9 72.858l-2.106 22.936 8.775-2.41" class="prefix__cls-26"/>
                    <g id="prefix__Group-8" transform="scale(-1) rotate(-43.01 -149.309 221.801)">
                        <path id="prefix__Path-38" d="M97.57-29.051L28.313-5.465 3.133-.233A1.889 1.889 0 0 1 .9-1.682a2.061 2.061 0 0 1 1.387-2.4L15.484-8.3q-2.636-1.656-2.636-3.181c0-1.525-1.8-3.592-1.527-5.285s.679-3.562 1.1-6.665q.4-2.95 10.365-5.369a1.513 1.513 0 0 1 1.638.665 1.385 1.385 0 0 1-.172 1.7l-.783.817q7.134-2.21 12.738 1.331l41.869-19.457a13.833 13.833 0 0 1 18.374 6.716 13.833 13.833 0 0 1 1.12 7.977z" class="prefix__cls-27"/>
                        <path id="prefix__Path-41" d="M12.048-13.15L26-21.339q2.081-1.923 1.3-3.59t-3.2-.663" class="prefix__cls-30"/>
                        <path id="prefix__Path-41-2" d="M14.631-7.968l12.757-8.5a2.922 2.922 0 0 0 .8-3.283q-.7-1.667-2.929-.971" class="prefix__cls-30" data-name="Path-41"/>
                        <path id="prefix__Path-40" d="M30.5-8.832h-4.137a8.918 8.918 0 0 1-8.248-5.527L16.5-18.282a1.9 1.9 0 0 1 .876-2.407 2.049 2.049 0 0 1 2.583.577l4.507 5.944a26.679 26.679 0 0 1 9.1-5.718" style="fill:#ffb391;stroke:#fff;stroke-linecap:round;fill-rule:evenodd"/>
                        <path id="prefix__Path-41-3" d="M12.532-19.7l11.107-5.707" class="prefix__cls-30" data-name="Path-41"/>
                    </g>
                    <path id="prefix__Path-72" d="M158.006 93.384l5.352-8.756 17.035 8.756-5.581 10.31z" class="prefix__cls-14"/>
                    <ellipse id="prefix__Oval-13" cx="1.292" cy="1.295" class="prefix__cls-10" data-name="Oval" rx="1.292" ry="1.295" transform="translate(172.326 94.136)"/>
                    <path id="prefix__Path-71" d="M91.947 75.525a21.736 21.736 0 0 1 16.658 10.883l26.307 46.306 23.474-41.177 20.307 12.583-29.219 53.139a15.164 15.164 0 0 1-13.288 7.858 20.016 20.016 0 0 1-14.937-6.692l-26.466-29.669z" class="prefix__cls-13"/>
                    <path id="prefix__Rectangle-29" d="M120.219 70.812h42.447a2 2 0 0 1 1.977 2.305l-8.562 55.4a2 2 0 0 1-1.977 1.695h-42.447a2 2 0 0 1-1.977-2.305l8.562-55.4a2 2 0 0 1 1.977-1.695z" data-name="Rectangle" style="fill:#4385ff;fill-rule:evenodd"/>
                    <path id="prefix__Rectangle-30" d="M121.941 70.812h42.447a2 2 0 0 1 1.977 2.305l-8.562 55.4a2 2 0 0 1-1.977 1.695h-42.447a2 2 0 0 1-1.979-2.312l8.562-55.4a2 2 0 0 1 1.979-1.688z" class="prefix__cls-25" data-name="Rectangle"/>
                    <ellipse id="prefix__Oval-14" cx="2.153" cy="2.159" data-name="Oval" rx="2.153" ry="2.159" transform="translate(138.747 84.636)" style="fill:#fff"/>
                    <path id="prefix__Path-78" d="M98.813 114.052l7.32-5.852 9.331-16.662v7.309l13.752-4.884 8.794-6.063a1.469 1.469 0 0 1 2.132.52 2.1 2.1 0 0 1-.458 2.552l-7.484 6.649-7.3 3.759 10.412-2.534 7.591-4.605a2.037 2.037 0 0 1 2.543.348 1.479 1.479 0 0 1-.192 2.2l-9.225 6.909-8.828 3.4 8.112-1.211 7.278-2.742a1.923 1.923 0 0 1 2.447 1.046 1.835 1.835 0 0 1-.969 2.408h-.007l-8.033 3.383-6.821 2.095 12.348-.775a1.335 1.335 0 0 1 1.416 1.248v.084a1.781 1.781 0 0 1-1.386 1.737l-26.133 5.953-11.983 9.2z" class="prefix__cls-27"/>
                    <path id="prefix__Path-72-2" d="M89.2 123.094l4.54-8.746 14.494 8.769-4.733 10.3z" class="prefix__cls-14" data-name="Path-72" transform="rotate(25 98.712 123.881)"/>
                    <ellipse id="prefix__Oval-15" cx="1.292" cy="1.295" class="prefix__cls-10" data-name="Oval" rx="1.292" ry="1.295" transform="translate(99.141 126.091)"/>
                </g>
                <path id="prefix__Path-187-3" d="M143.734 81.5l-20.665 24.742h11.152v21.223H154.5v-21.223h9.555L147.235 81.5z" class="prefix__cls-3" data-name="Path-187"/>
                <path id="prefix__Path-187-4" d="M147.5 81L126 106.742h11.721v21.223H159v-21.223h10z" class="prefix__cls-4" data-name="Path-187"/>
                <g id="prefix__Group-10" transform="translate(517 122)">
                    <ellipse id="prefix__Oval-16" cx="10.395" cy="16.984" class="prefix__cls-10" data-name="Oval" rx="10.395" ry="16.984" transform="rotate(-13 41.581 -166.122)"/>
                    <path id="prefix__Path-50" d="M48.195 3.076l12.7 49.981L38.46 292.625" class="prefix__cls-7"/>
                    <path id="prefix__Path-55" d="M26.605 294.241l-3.577-23.773H60.89l-8.505 23.773z" class="prefix__cls-17"/>
                    <ellipse id="prefix__Oval-17" cx="15.374" cy="25.063" class="prefix__cls-10" data-name="Oval" rx="15.374" ry="25.063" transform="rotate(29 -8.408 170.725)"/>
                    <path id="prefix__Path-52" d="M57.521 96.3l39.017-61.819" class="prefix__cls-7"/>
                    <ellipse id="prefix__Oval-18" cx="15.361" cy="25.084" class="prefix__cls-10" data-name="Oval" rx="15.361" ry="25.084" transform="rotate(-18 512.95 79.082)"/>
                    <ellipse id="prefix__Oval-19" cx="15.355" cy="25.094" class="prefix__cls-10" data-name="Oval" rx="15.355" ry="25.094" transform="rotate(-10 425.793 -115.799)"/>
                    <ellipse id="prefix__Oval-20" cx="15.368" cy="25.073" class="prefix__cls-10" data-name="Oval" rx="15.368" ry="25.073" transform="rotate(24 -283.004 228.63)"/>
                    <path id="prefix__Path-51" d="M41.724 69.509l10.661 74.761" class="prefix__cls-7"/>
                    <path id="prefix__Path-53" d="M46.056 213.485l36.987-71.333" class="prefix__cls-7"/>
                    <path id="prefix__Path-54" d="M41.724 253.775l-26.405-94.61" class="prefix__cls-7"/>
                </g>
            </g>
        </g>
    </g>
</svg>
