<svg xmlns="http://www.w3.org/2000/svg" width="16" height="16" viewBox="0 0 16 16">
    <g fill="none" fill-rule="evenodd">
        <g fill="#18233D" fill-rule="nonzero">
            <g>
                <g>
                    <path d="M111.086 17.4l-3.137-1.391c-.638-.283-1.386-.101-1.824.442l-.947 1.185c-1.535-.977-2.837-2.278-3.813-3.812l1.184-.946c.545-.438.727-1.188.444-1.826L101.6 7.915c-.306-.689-1.065-1.055-1.793-.865l-2.652.689c-.758.197-1.247.93-1.14 1.706 1.008 7.018 6.523 12.532 13.542 13.54.07.01.14.016.212.016.702 0 1.315-.475 1.493-1.154l.688-2.653c.192-.73-.175-1.49-.864-1.793z" transform="translate(-347 -715) translate(135 200) translate(116 508)"/>
                </g>
            </g>
        </g>
    </g>
</svg>
