<svg xmlns="http://www.w3.org/2000/svg" width="161.604" height="47.824" viewBox="0 0 161.604 47.824">
    <defs>
        <style>
            .prefix__cls-1{fill:#049ad0}.prefix__cls-2{fill:#0f1f2b}
        </style>
    </defs>
    <g id="prefix__PTway_CMYK" transform="translate(-287.3 -258.1)">
        <g id="prefix__Group_3" data-name="Group 3" transform="translate(287.3 258.1)">
            <g id="prefix__Group_2" data-name="Group 2">
                <g id="prefix__Group_1" data-name="Group 1">
                    <path id="prefix__Path_1" d="M315.9 258.1h-24.065a4.535 4.535 0 1 0 0 9.069H315.9a4.438 4.438 0 0 1 4.414 4.414 4.326 4.326 0 0 1-1.693 3.386 6.277 6.277 0 0 1 3.379 5.562 6.185 6.185 0 0 1-1.088 3.507A13.447 13.447 0 0 0 315.9 258.1z" class="prefix__cls-1" data-name="Path 1" transform="translate(-287.3 -258.1)"/>
                </g>
                <path id="prefix__Path_2" d="M315.777 287.7h-23.942a4.535 4.535 0 1 0 0 9.069h7.437v16.324a4.535 4.535 0 0 0 9.069 0v-16.324h7.437a4.535 4.535 0 0 0 0-9.069z" class="prefix__cls-1" data-name="Path 2" transform="translate(-287.3 -269.804)"/>
            </g>
        </g>
        <g id="prefix__Group_6" data-name="Group 6" transform="translate(338.026 264.448)">
            <g id="prefix__Group_5" data-name="Group 5">
                <g id="prefix__Group_4" data-name="Group 4">
                    <path id="prefix__Path_3" d="M382.325 277.3a10.493 10.493 0 0 1 4.172.846 9.278 9.278 0 0 1 3.325 2.358 11.762 11.762 0 0 1 0 15.72 11.855 11.855 0 0 1-3.325 2.358 10.493 10.493 0 0 1-4.172.846 10.88 10.88 0 0 1-4.414-.907 8.423 8.423 0 0 1-3.325-2.6v9.19a1.69 1.69 0 0 1-1.693 1.693 1.69 1.69 0 0 1-1.693-1.693v-25.7a1.6 1.6 0 0 1 1.572-1.572 1.6 1.6 0 0 1 1.572 1.572v1.874a8.234 8.234 0 0 1 3.386-2.842 9.259 9.259 0 0 1 4.595-1.143zm-.423 3.083a8.607 8.607 0 0 0-2.721.484 5.946 5.946 0 0 0-2.358 1.451 7.493 7.493 0 0 0-1.693 2.479 8.988 8.988 0 0 0-.6 3.567 9.507 9.507 0 0 0 .6 3.628 6.691 6.691 0 0 0 1.693 2.479 6.4 6.4 0 0 0 2.358 1.451 8.607 8.607 0 0 0 2.721.484 6.839 6.839 0 0 0 2.963-.6 7.173 7.173 0 0 0 3.93-4.172 9.707 9.707 0 0 0 0-6.409 8.839 8.839 0 0 0-1.512-2.539 7.337 7.337 0 0 0-2.358-1.693 8.42 8.42 0 0 0-3.025-.61z" class="prefix__cls-2" data-name="Path 3" transform="translate(-371.2 -272.04)"/>
                    <path id="prefix__Path_4" d="M420.871 277.367h-5.079v11.548a5.642 5.642 0 0 0 .3 1.935 3.183 3.183 0 0 0 .907 1.209 3.314 3.314 0 0 0 1.391.665 8.376 8.376 0 0 0 1.814.181 10.249 10.249 0 0 0 1.33-.06 1.387 1.387 0 0 1 1.512 1.33v.242a1.364 1.364 0 0 1-1.088 1.33c-.181.06-.363.06-.544.121a16.087 16.087 0 0 1-1.814.121 7.928 7.928 0 0 1-5.139-1.632c-1.33-1.088-2-2.842-2-5.2v-11.73h-2.056a1.5 1.5 0 0 1-1.512-1.512 1.5 1.5 0 0 1 1.512-1.512h2.056v-4.111a1.69 1.69 0 0 1 1.693-1.693 1.69 1.69 0 0 1 1.693 1.693v4.108h5.079a1.5 1.5 0 0 1 1.512 1.512 1.582 1.582 0 0 1-1.567 1.455z" class="prefix__cls-2" data-name="Path 4" transform="translate(-386.107 -268.6)"/>
                    <path id="prefix__Path_5" d="M458.887 297.126l6.832-18.38a.529.529 0 0 1 .544-.363h.181a.565.565 0 0 1 .544.786l-6.832 19.771a.983.983 0 0 1-.907.665 1.058 1.058 0 0 1-.907-.6L450.6 280.56 442.925 299a.931.931 0 0 1-.907.6.908.908 0 0 1-.907-.665l-6.831-19.765a.588.588 0 0 1 .544-.786h.181a.612.612 0 0 1 .544.363l6.772 18.38L450 278.384a.707.707 0 0 1 .665-.484.707.707 0 0 1 .665.484z" class="prefix__cls-2" data-name="Path 5" transform="translate(-396.129 -272.277)"/>
                    <path id="prefix__Path_6" d="M499.167 277.9a9.221 9.221 0 0 1 2.963.484 6.863 6.863 0 0 1 2.358 1.512 6.712 6.712 0 0 1 1.572 2.539 10.174 10.174 0 0 1 .544 3.507v12.636a.606.606 0 0 1-.6.6h-.121a.606.606 0 0 1-.6-.6v-3.144a8.114 8.114 0 0 1-3.144 3.083 9.553 9.553 0 0 1-4.595 1.088 12.236 12.236 0 0 1-2.6-.3 7.214 7.214 0 0 1-2.3-1.028 5.661 5.661 0 0 1-1.644-1.755 4.5 4.5 0 0 1-.6-2.418 4.655 4.655 0 0 1 1.935-3.93 8.482 8.482 0 0 1 5.139-1.451h7.739v-2.842a6.9 6.9 0 0 0-1.753-5.079 6.463 6.463 0 0 0-4.535-1.693 6.878 6.878 0 0 0-3.809 1.028 10.006 10.006 0 0 0-2.358 2.177.584.584 0 0 1-.846.06l-.06-.06a.584.584 0 0 1-.06-.846 11.9 11.9 0 0 1 2.963-2.6 10.3 10.3 0 0 1 4.412-.968zm-1.512 20.436a9.507 9.507 0 0 0 2.963-.484 7.119 7.119 0 0 0 2.479-1.391 8.158 8.158 0 0 0 1.693-2.116 5.975 5.975 0 0 0 .6-2.721v-1.632h-7.739a7.015 7.015 0 0 0-4.293 1.088 3.481 3.481 0 0 0-1.451 2.963 3.516 3.516 0 0 0 .544 2 4.646 4.646 0 0 0 1.33 1.33 6.11 6.11 0 0 0 1.814.786 11.308 11.308 0 0 0 2.06.177z" class="prefix__cls-2" data-name="Path 6" transform="translate(-418.331 -272.277)"/>
                    <path id="prefix__Path_7" d="M531.867 303.268a7.548 7.548 0 0 1-2.539 3.446 6.184 6.184 0 0 1-3.446.967 11.177 11.177 0 0 1-1.391-.06c-.3-.06-.665-.121-.967-.181a.581.581 0 0 1-.423-.544.638.638 0 0 1 .726-.6c.242.06.484.06.726.121a8.934 8.934 0 0 0 1.27.06 5.028 5.028 0 0 0 2.842-.786 7.1 7.1 0 0 0 2.177-2.963l1.451-3.507-8.827-19.771a.611.611 0 0 1 .544-.846h.121a.581.581 0 0 1 .544.363l8.283 18.561 7.92-18.561a.581.581 0 0 1 .544-.363h.121a.6.6 0 0 1 .544.846z" class="prefix__cls-2" data-name="Path 7" transform="translate(-431.261 -272.554)"/>
                </g>
            </g>
        </g>
    </g>
</svg>
