<?xml version="1.0" encoding="UTF-8"?>
<svg width="101px" height="86px" viewBox="0 0 101 86" version="1.1" xmlns="http://www.w3.org/2000/svg" xmlns:xlink="http://www.w3.org/1999/xlink">
    <!-- Generator: Sketch 59.1 (86144) - https://sketch.com -->
    <title>Security</title>
    <desc>Created with Sketch.</desc>
    <g id="Page-1" stroke="none" stroke-width="1" fill="none" fill-rule="evenodd">
        <g id="01-HomePage-02" transform="translate(-670.000000, -1541.000000)">
            <g id="Security" transform="translate(670.000000, 1541.000000)">
                <path d="M74,49 C74,63.6292398 62.1400661,75.5 47.4992249,75.5 C32.8661344,75.5 21,63.6292398 21,49 C21,34.3707602 32.8661344,22.5 47.4992249,22.5 C62.1400661,22.5 74,34.3707602 74,49" id="Fill-445" fill="#8AC9F9"></path>
                <path d="M35.2070021,25.96875 L35.2070021,19.140625 C35.2070021,12.3125 40.7205451,6.75 47.4984486,6.75 C54.2779036,6.75 59.7929979,12.3125 59.7929979,19.140625 L59.7929979,25.96875 C62.0797065,27.171875 64.1678407,28.703125 66,30.5 L66,19.140625 C66,8.859375 57.701761,0.5 47.4984486,0.5 C37.298239,0.5 29,8.859375 29,19.140625 L29,30.5 C30.8321593,28.703125 32.9202935,27.171875 35.2070021,25.96875" id="Fill-446" fill="#6857E5"></path>
                <path d="M67,49 C67,59.7672552 58.2689838,68.5 47.4984347,68.5 C36.7325815,68.5 28,59.7672552 28,49 C28,38.2327448 36.7325815,29.5 47.4984347,29.5 C58.2689838,29.5 67,38.2327448 67,49" id="Fill-447" fill="#FFBE1B"></path>
                <path d="M62,49 C62,57.002139 55.5090365,63.5 47.4984494,63.5 C39.4909635,63.5 33,57.002139 33,49 C33,40.9823529 39.4909635,34.5 47.4984494,34.5 C55.5090365,34.5 62,40.9823529 62,49" id="Fill-448" fill="#FFE37B"></path>
                <path d="M19.2389006,25.3042287 L20,25.4921691 L19.2389006,25.6801096 C14.7834939,26.8077525 11.3053011,30.2846515 10.1902748,34.7325764 L9.99765093,35.5 L9.80815911,34.7325764 C8.69156683,30.2846515 5.2149401,26.8077525 0.75796727,25.6801096 L0,25.4921691 L0.75796727,25.3042287 C5.2149401,24.1922475 8.69156683,20.7153485 9.80815911,16.2517619 L9.99765093,15.5 L10.1902748,16.2517619 C11.3053011,20.7153485 14.7834939,24.1922475 19.2389006,25.3042287" id="Fill-449" fill="#FFBE1B"></path>
                <path d="M24.5428571,8.38888889 L25,8.5 L24.5428571,8.61111111 C21.8698413,9.27777778 19.784127,11.3730159 19.1142857,14.0396825 L19,14.5 L18.884127,14.0396825 C18.2142857,11.3730159 16.1285714,9.27777778 13.4539683,8.61111111 L13,8.5 L13.4539683,8.38888889 C16.1285714,7.72222222 18.2142857,5.62698413 18.884127,2.96031746 L19,2.5 L19.1142857,2.96031746 C19.784127,5.62698413 21.8698413,7.72222222 24.5428571,8.38888889" id="Fill-450" fill="#FFBE1B"></path>
                <path d="M90.4687673,60.3758315 L91,60.5 L90.4687673,60.6396896 C87.3497171,61.4157428 84.9156774,63.8525499 84.1343615,66.9567627 L84.0007767,67.5 L83.8671918,66.9567627 C83.0843226,63.8525499 80.6487296,61.4157428 77.5312327,60.6396896 L77,60.5 L77.5312327,60.3758315 C80.6487296,59.5842572 83.0843226,57.1474501 83.8671918,54.0432373 L84.0007767,53.5 L84.1343615,54.0432373 C84.9156774,57.1474501 87.3497171,59.5842572 90.4687673,60.3758315" id="Fill-451" fill="#5D8EF9"></path>
                <path d="M100.239264,43.3159509 L101,43.5 L100.239264,43.6993865 C95.7837423,44.8190184 92.3067485,48.2852761 91.1886503,52.7484663 L90.9984663,53.5 L90.8067485,52.7484663 C89.6932515,48.2852761 86.2131902,44.8190184 81.756135,43.6993865 L81,43.5 L81.756135,43.3159509 C86.2131902,42.196319 89.6932515,38.7147239 90.8067485,34.2668712 L90.9984663,33.5 L91.1886503,34.2668712 C92.3067485,38.7147239 95.7837423,42.196319 100.239264,43.3159509" id="Fill-452" fill="#5D8EF9"></path>
                <path d="M47.4976504,83.296875 C45.7166682,83.296875 44.2708928,81.859375 44.2708928,80.078125 C44.2708928,78.296875 45.7166682,76.859375 47.4976504,76.859375 C49.2817654,76.859375 50.7275408,78.296875 50.7275408,80.078125 C50.7275408,81.859375 49.2817654,83.296875 47.4976504,83.296875 Z M39,77.03125 C39,81.703125 42.8031881,85.5 47.4976504,85.5 C52.1936792,85.5 56,81.703125 56,77.03125 C56,73.703125 54.0811757,70.828125 51.2883074,69.4375 L50.3265457,55.078125 L47.4976504,52.5 L44.671888,55.078125 L44.6703216,55.09375 L46.1803188,56.59375 L44.5340459,58.234375 L46.1803188,59.875 L44.2192021,61.84375 L43.7085598,69.4375 C40.9172579,70.828125 39,73.703125 39,77.03125 L39,77.03125 Z" id="Fill-453" fill="#330D84"></path>
            </g>
        </g>
    </g>
</svg>