<svg xmlns="http://www.w3.org/2000/svg" width="37.073" height="39.954" viewBox="0 0 37.073 39.954">
  <g id="Group_821" data-name="Group 821" transform="translate(-10949.315 -919.234)">
    <path id="Shape" d="M30.894,39.954H6.179A6.248,6.248,0,0,1,0,33.961V9.988A6.248,6.248,0,0,1,6.179,3.994H8.4V2a1.9,1.9,0,0,1,1.977-2,1.9,1.9,0,0,1,1.977,2v2H24.714V2a2.067,2.067,0,0,1,1.977-2,2.122,2.122,0,0,1,2.224,2v2h1.977A6.237,6.237,0,0,1,35.28,5.75a5.875,5.875,0,0,1,1.793,4.238V33.961A5.875,5.875,0,0,1,35.28,38.2,6.237,6.237,0,0,1,30.894,39.954ZM4.2,15.981v17.98a2.067,2.067,0,0,0,1.977,2H30.894a1.9,1.9,0,0,0,1.977-2V15.981ZM6.179,7.99a2.067,2.067,0,0,0-1.977,2v2H32.871v-2a1.9,1.9,0,0,0-1.977-2H6.179Zm8.4,19.977h-4.2a1.9,1.9,0,0,1-1.977-2v-4a1.9,1.9,0,0,1,1.977-2h4.2a2.066,2.066,0,0,1,1.975,2v4A2.067,2.067,0,0,1,14.583,27.968Z" transform="translate(10949.315 919.234)" fill="#049ad0"/>
  </g>
</svg>
