<svg xmlns="http://www.w3.org/2000/svg" width="16" height="16" viewBox="0 0 16 16">
    <g fill="none" fill-rule="evenodd">
        <g fill="#059BD2" fill-rule="nonzero">
            <g>
                <g>
                    <g>
                        <path d="M15.637 2.162L8.137.02c-.09-.026-.185-.026-.274 0l-7.5 2.142C.148 2.223 0 2.42 0 2.643c0 10.41 7.753 13.3 7.832 13.328.109.039.227.039.336 0C8.247 15.943 16 13.053 16 2.643c0-.223-.148-.42-.363-.481zM10.274 10.5L8 9.3l-2.274 1.2.435-2.531-1.842-1.795 2.544-.369L8 3.5l1.137 2.3 2.544.369-1.842 1.8.435 2.531z" transform="translate(-1008 -742) translate(557 137) translate(127 551) translate(324 54)"/>
                    </g>
                </g>
            </g>
        </g>
    </g>
</svg>
