<?xml version="1.0" encoding="UTF-8"?>
<svg width="65px" height="70px" viewBox="0 0 65 70" version="1.1" xmlns="http://www.w3.org/2000/svg" xmlns:xlink="http://www.w3.org/1999/xlink">
    <!-- Generator: Sketch 59.1 (86144) - https://sketch.com -->
    <title>signing</title>
    <desc>Created with Sketch.</desc>
    <g id="Page-1" stroke="none" stroke-width="1" fill="none" fill-rule="evenodd" stroke-linecap="round">
        <g id="01-HomePage-02" transform="translate(-221.000000, -970.000000)" stroke="#5E8FF4" stroke-width="3">
            <g id="signing" transform="translate(223.000000, 972.000000)">
                <path d="M34,31.7228228 L20.1419684,45.5839989 C13.7465122,51.9809063 6.85742261,53.6218836 3.61613863,50.3834947 L3.61613863,50.3834947 C0.378484304,47.1451057 2.01908941,40.2508225 8.4145456,33.8539151 L22.2689476,20" id="Path"></path>
                <path d="M26,16.1220137 L39.8565054,2.23391721 C42.8289371,-0.74463907 47.647511,-0.74463907 50.6199427,2.23391721 L52.7711643,4.39004327 C55.7429452,7.36925175 55.7429452,12.1988113 52.7711643,15.1780198 L38.9806247,29" id="Path"></path>
                <line x1="0" y1="55" x2="4" y2="51" id="Path"></line>
                <line x1="25" y1="16" x2="38" y2="29" id="Path"></line>
                <path d="M53.3763511,14 C54.9112845,15.2408737 55.8621375,17.11394 55.9861703,19.1410305 C56.110203,21.1681211 55.395412,23.1530619 54.0242738,24.5891245 L46,33" id="Path"></path>
                <path d="M2,61.8142364 C6.29950172,63.5731379 10.8212471,64.7509353 15.441969,65.3155208 C50.4145871,69.6045037 46.7722945,30.6278743 30.741801,55.1729975 C19.7268032,72.0651586 51.1856369,67.0065435 61,54.8839337" id="Path"></path>
            </g>
        </g>
    </g>
</svg>