<?xml version="1.0" encoding="UTF-8"?>
<svg width="18px" height="15px" viewBox="0 0 18 15" version="1.1" xmlns="http://www.w3.org/2000/svg" xmlns:xlink="http://www.w3.org/1999/xlink">
    <!-- Generator: Sketch 59.1 (86144) - https://sketch.com -->
    <title>twitter</title>
    <desc>Created with Sketch.</desc>
    <g id="Page-1" stroke="none" stroke-width="1" fill="none" fill-rule="evenodd">
        <g id="01-HomePage-02" transform="translate(-213.000000, -4444.000000)" fill="#00253E" fill-rule="nonzero">
            <g id="Group-10" transform="translate(135.000000, 4429.000000)">
                <path d="M96.0803787,17.4106993 C95.5893067,18.1249858 94.9754667,18.7611473 94.2723408,19.2745408 C94.2835016,19.430791 94.2835016,19.5870412 94.2835016,19.7432913 C94.2835016,24.508922 90.6562651,30 84.0267929,30 C81.9843797,30 80.0870561,29.4084814 78.491072,28.3816945 C78.7812509,28.4151767 79.0602691,28.4263374 79.3616088,28.4263374 C81.0468786,28.4263374 82.5982198,27.8571403 83.8370605,26.886157 C82.2522372,26.8526748 80.9241106,25.8147272 80.4665208,24.386154 C80.6897353,24.4196362 80.9129499,24.4419577 81.1473252,24.4419577 C81.4709863,24.4419577 81.7946474,24.3973147 82.095987,24.3191897 C80.5053767,23.9967686 79.297691,22.639416 79.2104147,20.9746502 L79.2053586,20.7365961 L79.2053586,20.7365961 C79.6852699,21.0044536 80.2433062,21.1718645 80.8348248,21.1941859 C79.8638415,20.5468637 79.22768,19.4419517 79.22768,18.1919502 C79.22768,17.5223066 79.4062517,16.9084665 79.718752,16.3727516 C81.4933077,18.5602542 84.1607216,19.9888274 87.1517966,20.1450775 C87.095993,19.8772201 87.0625108,19.5982019 87.0625108,19.3191837 C87.0625108,17.3325742 88.6696556,15.7142687 90.6674258,15.7142687 C91.7053735,15.7142687 92.6428746,16.1495371 93.3013575,16.8526629 C94.1160906,16.6964127 94.8973416,16.3950731 95.5893067,15.9821261 C95.3214492,16.8191807 94.7522521,17.5223066 94.0044834,17.9687357 C94.7299307,17.8906106 95.4330565,17.6897175 96.0803787,17.4106993 Z" id="twitter"></path>
            </g>
        </g>
    </g>
</svg>