<svg xmlns="http://www.w3.org/2000/svg" width="31" height="31" viewBox="0 0 31 31">
  <g id="Twitter" transform="translate(0.498)">
    <path id="Shape" d="M15.5,31A15.5,15.5,0,1,1,31,15.5,15.518,15.518,0,0,1,15.5,31ZM7.013,21.069v0a10.093,10.093,0,0,0,5.452,1.6,9.7,9.7,0,0,0,7.516-3.3,10.47,10.47,0,0,0,2.608-6.824c0-.144,0-.295-.011-.46a7.187,7.187,0,0,0,1.774-1.841,7.118,7.118,0,0,1-2.042.559,3.561,3.561,0,0,0,1.564-1.967,7.125,7.125,0,0,1-2.259.864,3.559,3.559,0,0,0-6.155,2.433,3.526,3.526,0,0,0,.092.811A10.133,10.133,0,0,1,8.218,9.227a3.56,3.56,0,0,0,1.1,4.749,3.534,3.534,0,0,1-1.611-.444c0,.014,0,.03,0,.045a3.565,3.565,0,0,0,2.854,3.488,3.586,3.586,0,0,1-.937.126,3.525,3.525,0,0,1-.668-.064A3.556,3.556,0,0,0,12.279,19.6a7.174,7.174,0,0,1-5.266,1.473Z" transform="translate(-0.498 0)" fill="#00263e"/>
  </g>
</svg>
