<svg xmlns="http://www.w3.org/2000/svg" xmlns:xlink="http://www.w3.org/1999/xlink" id="prefix__Page-1" width="402.482" height="289.59" viewBox="0 0 402.482 289.59">
    <defs>
        <linearGradient id="prefix__linear-gradient" x1=".5" x2=".554" y1=".451" y2=".568" gradientUnits="objectBoundingBox">
            <stop offset="0" stop-color="#7eabef"/>
            <stop offset="1" stop-color="#fff" stop-opacity="0"/>
        </linearGradient>
        <linearGradient id="prefix__linear-gradient-2" x2=".554" y1=".332" y2=".732" xlink:href="#prefix__linear-gradient"/>
        <style>
            .prefix__cls-1{fill:#ceebf6}.prefix__cls-1,.prefix__cls-10,.prefix__cls-12,.prefix__cls-18,.prefix__cls-19,.prefix__cls-21,.prefix__cls-24,.prefix__cls-25,.prefix__cls-26,.prefix__cls-4,.prefix__cls-8{fill-rule:evenodd}.prefix__cls-12,.prefix__cls-25,.prefix__cls-5,.prefix__cls-6,.prefix__cls-9{fill:#fff}.prefix__cls-23,.prefix__cls-24,.prefix__cls-25,.prefix__cls-4,.prefix__cls-6,.prefix__cls-9{stroke:#18233d}.prefix__cls-18,.prefix__cls-23,.prefix__cls-24,.prefix__cls-4,.prefix__cls-6{stroke-linecap:round}.prefix__cls-3{fill:#d7e3ff}.prefix__cls-10,.prefix__cls-18,.prefix__cls-23,.prefix__cls-24,.prefix__cls-4,.prefix__cls-8{fill:none}.prefix__cls-26{fill:#0acc94}.prefix__cls-8{stroke:#0acc94;stroke-width:8px}.prefix__cls-10,.prefix__cls-18{stroke:#fff}.prefix__cls-15{fill:#e5e9f3}.prefix__cls-19,.prefix__cls-20{fill:#18233d}.prefix__cls-21{fill:#ffd1ab}.prefix__cls-24{stroke-width:3px}
        </style>
    </defs>
    <g id="prefix__Desktop-HD" transform="translate(0 .5)">
        <g id="prefix__congratulations-go-to-the-next-stage">
            <path id="prefix__Rectangle" d="M175.414 121H338.7a83.212 83.212 0 0 1 83.212 83.212 83.212 83.212 0 0 1-83.212 83.212H64v-55.01A111.414 111.414 0 0 1 175.414 121z" class="prefix__cls-1" transform="translate(-19.435 -36.395)"/>
            <path id="prefix__Rectangle-2" d="M50.136 50.136h32.032a25.068 25.068 0 0 0 25.068-25.068A25.068 25.068 0 0 0 82.168 0H0a50.136 50.136 0 0 0 50.136 50.136z" class="prefix__cls-1" data-name="Rectangle" transform="rotate(180 53.618 41.258)"/>
            <path id="prefix__Path-238" d="M161.586 175.951l6.782-5.167a16.364 16.364 0 0 1 9.916-3.347h73.947a16.364 16.364 0 0 1 15.3 10.558l.7 1.839z" transform="translate(-49.068 -50.497)" style="stroke-linecap:round;stroke:#18233d;fill:#fff;fill-rule:evenodd"/>
            <rect id="prefix__Rectangle-3" width="110.717" height="62.67" class="prefix__cls-3" data-name="Rectangle" rx="10" transform="translate(110.021 122.903)"/>
            <g id="prefix__Group-10" transform="rotate(180 171.762 120.562)">
                <ellipse id="prefix__Oval" cx="7.239" cy="11.827" class="prefix__cls-3" rx="7.239" ry="11.827" transform="rotate(13 -642.966 213.82)"/>
                <path id="prefix__Path-50" d="M2.583 156.817l8.84-34.8L0 0" class="prefix__cls-4" transform="translate(30.511 17.753)"/>
                <ellipse id="prefix__Oval-2" cx="10.706" cy="17.452" class="prefix__cls-5" data-name="Oval" rx="10.706" ry="17.452" transform="rotate(-29 268.077 -12.22)"/>
                <path id="prefix__Path-52" d="M0 0l27.169 43.046" class="prefix__cls-4" transform="translate(39.589 109.656)"/>
                <ellipse id="prefix__Oval-3" cx="10.696" cy="17.467" class="prefix__cls-5" data-name="Oval" rx="10.696" ry="17.467" transform="rotate(18 -90.625 49.287)"/>
                <ellipse id="prefix__Oval-4" cx="10.692" cy="17.474" class="prefix__cls-5" data-name="Oval" rx="10.692" ry="17.474" transform="rotate(10 -513.927 183.807)"/>
                <ellipse id="prefix__Oval-5" cx="10.701" cy="17.459" class="prefix__cls-5" data-name="Oval" rx="10.701" ry="17.459" transform="rotate(-24 136.158 -52.256)"/>
                <path id="prefix__Path-51" d="M0 52.059L7.423 0" class="prefix__cls-4" transform="translate(28.589 76.252)"/>
                <path id="prefix__Path-53" d="M0 0l25.755 49.672" class="prefix__cls-4" transform="translate(31.605 28.055)"/>
                <path id="prefix__Path-54" d="M18.387 0L0 65.88" class="prefix__cls-4" transform="translate(10.202)"/>
            </g>
            <g id="prefix__Group-5" transform="translate(44.565)">
                <rect id="prefix__Rectangle-4" width="220.738" height="61.278" class="prefix__cls-3" data-name="Rectangle" rx="30.639" transform="translate(0 .348)"/>
                <rect id="prefix__Rectangle-5" width="221.435" height="61.974" class="prefix__cls-6" data-name="Rectangle" rx="30.987" transform="translate(10.793)"/>
                <g id="prefix__Group" transform="translate(24.72 14.623)">
                    <path id="prefix__Rectangle-6" d="M0 0H175.276V16.532H0z" class="prefix__cls-3" data-name="Rectangle" transform="translate(12.648 8.098)"/>
                    <path id="prefix__Rectangle-7" d="M0 0H116.817V10.849H0z" data-name="Rectangle" transform="translate(12.648 10.681)" style="fill:#0acc94"/>
                    <ellipse id="prefix__Oval-6" cx="16.236" cy="16.364" class="prefix__cls-6" data-name="Oval" rx="16.236" ry="16.364"/>
                    <path id="prefix__Path-229" d="M8.214 11.613l7 9.183L33.188 2.724" class="prefix__cls-8" transform="translate(-2.146 -.479)"/>
                    <ellipse id="prefix__Oval-7" cx="16.236" cy="16.364" class="prefix__cls-6" data-name="Oval" rx="16.236" ry="16.364" transform="translate(84.05)"/>
                    <path id="prefix__Path-229-2" d="M129.861 11.108l7 9.183 17.975-18.072" class="prefix__cls-8" data-name="Path-229" transform="translate(-39.086 -.326)"/>
                    <ellipse id="prefix__Oval-8" cx="16.236" cy="16.364" class="prefix__cls-6" data-name="Oval" rx="16.236" ry="16.364" transform="translate(160.413)"/>
                </g>
            </g>
            <g id="prefix__Group-2" transform="translate(25.764 51.404)">
                <path id="prefix__Rectangle-8" d="M0 0H337.026V11.141H0z" class="prefix__cls-9" data-name="Rectangle" transform="translate(1.045 198.804)"/>
                <g id="prefix__Path-119" transform="translate(0 127.778)">
                    <g id="prefix__Path-119-_-Path-120-Mask" data-name="Path-119-+-Path-120-Mask">
                        <path id="prefix__Mask" d="M45.552 0h248.012l45.552 67.545H0z" class="prefix__cls-3" transform="translate(0 3.83)"/>
                        <path id="prefix__Path-122" d="M131.793 36.457c6.719 5.078 32.426-6.056 30.688-9.724s-14.226 2.477-21.223 2.477-16.183 2.169-9.465 7.247z" class="prefix__cls-10" transform="translate(-39.31 -3.933)"/>
                        <path id="prefix__Path-230" d="M206.984 50.937l18.86 31.335h88.915L287.422 48.5z" transform="translate(-62.854 -10.898)"/>
                        <path id="prefix__Path-121" d="M266.479 30.062c9.958 1.432 36.811-5.672 54.752-11.012S310.555 6.674 284.1 13.71s-27.578 14.919-17.621 16.352z" class="prefix__cls-10" transform="translate(-79.165 .565)"/>
                        <path id="prefix__Path-119-2" d="M25 23.266Q51.659 41.9 85.423 26.693c33.764-15.2 66.032-19.908 60.877-7.906s-45 18.636-45 39.268 112.91-30.264 127.043 15.41" class="prefix__cls-10" data-name="Path-119" transform="translate(-7.592 .186)"/>
                        <path id="prefix__Path-120" d="M261.761-5.5c-2.359 0-67.394 27.471-39.842 37.6q27.552 10.131 149.075-21.534 85.7 28.04 26.627 38.02c-59.068 9.98-100.235-8.546-64.977 35.532s-23.873 3.055-23.873-13.018 11.376-30.575 62.223-30.575 25.242-23.3 6.236-18.321-2.742 12.941-30.773 12.941S221.148 45.9 203.332 40.522 196.14 28.62 235.1-3.759" class="prefix__cls-10" transform="translate(-59.202 5.5)"/>
                        <path id="prefix__Path-3" d="M9.26 56.956q15.459 3.65 58.076-3.586C109.953 46.133 60.471 82.8 101 85.741" class="prefix__cls-10" transform="translate(-2.812 -12.09)"/>
                        <path id="prefix__Path-4" d="M46.633 11.565q15.083 9.744 51.385-2.79T161.145-5.5" class="prefix__cls-10" transform="translate(-14.161 5.5)"/>
                    </g>
                </g>
                <g id="prefix__Group-9" transform="translate(41.084 141.83)">
                    <path id="prefix__Path-168" d="M0 0l26.33 34.817h54.445L48.777 0z" class="prefix__cls-12"/>
                    <path id="prefix__Path-179" d="M19 7.574l24.372-.261" class="prefix__cls-4" transform="translate(-5.77 -2.221)"/>
                    <path id="prefix__Path-179-2" d="M32 20.574l24.372-.261" class="prefix__cls-4" data-name="Path-179" transform="translate(-9.717 -6.168)"/>
                    <path id="prefix__Path-179-3" d="M37 26.574l24.372-.261" class="prefix__cls-4" data-name="Path-179" transform="translate(-11.236 -7.99)"/>
                </g>
                <g id="prefix__Group-15" transform="translate(79.382 152.971)">
                    <path id="prefix__Path-168-2" d="M0 0v35.513h54.314L48.574 0z" data-name="Path-168" style="fill:#f1f5ff;fill-rule:evenodd"/>
                    <path id="prefix__Path-178" d="M9 39.5h32.728" class="prefix__cls-4" transform="translate(-2.733 -11.995)"/>
                    <path id="prefix__Path-178-2" d="M9 32.5h14.623" class="prefix__cls-4" data-name="Path-178" transform="translate(-2.733 -9.869)"/>
                    <path id="prefix__Path-178-3" d="M8 21.5h21.586" class="prefix__cls-4" data-name="Path-178" transform="translate(-2.429 -6.529)"/>
                    <path id="prefix__Path-178-4" d="M9 14.5h9.052" class="prefix__cls-4" data-name="Path-178" transform="translate(-2.733 -4.403)"/>
                </g>
                <g id="prefix__Group-3" transform="translate(55.395)">
                    <path id="prefix__Path-111" d="M42.24 118.575a79.858 79.858 0 0 1 37.388-9.182c12.428 0 29.135 3.1 42.268 11.25q13.133 8.146 21.442 44.082H37.784Q21.033 172.694 12 168.343t-6.343-19.1q24.598-24.314 36.583-30.668z" transform="translate(-1.916 -33.219)" style="fill:#85a9ff;fill-rule:evenodd"/>
                    <circle id="prefix__Oval-9" cx="1.741" cy="1.741" r="1.741" class="prefix__cls-15" data-name="Oval" transform="translate(78.998 98.88)"/>
                    <circle id="prefix__Oval-10" cx="1.741" cy="1.741" r="1.741" class="prefix__cls-15" data-name="Oval" transform="translate(78.998 112.806)"/>
                    <circle id="prefix__Oval-11" cx="1.741" cy="1.741" r="1.741" class="prefix__cls-15" data-name="Oval" transform="translate(78.998 126.037)"/>
                    <path id="prefix__Path-117" d="M52.06 181.267l15.879-17.4-4.149 17.292z" transform="translate(-16.193 -49.761)" style="fill:#4873db;opacity:.219;fill-rule:evenodd"/>
                    <path id="prefix__Path-116" d="M4.511 158.3c-4.87 6.016-5.674 13.5 0 20.737s15.68 9.96 23.176 1.421.594-19.043-4.8-24.2-13.506-3.975-18.376 2.042z" transform="translate(-.552 -46.462)" style="fill:#a5c0ff;fill-rule:evenodd"/>
                    <path id="prefix__Path-115" d="M110.494 139.5l-1.159 34.367" class="prefix__cls-18" transform="translate(-33.586 -42.361)"/>
                    <path id="prefix__Path-2" d="M94.82 106.633c-2.884.93-6.715 1.612-7.452 5.359q-.737 3.747 0 20.469l16.647-6.23 16.325 5.262q.479-20.328-1.78-23.021t-9.237-2.332q-11.623-.44-14.503.493z" class="prefix__cls-19" transform="translate(-26.803 -32.188)"/>
                    <g id="prefix__Group-8" transform="translate(60.197)">
                        <g id="prefix__Group-2-2" data-name="Group">
                            <ellipse id="prefix__Oval-12" cx="11.701" cy="11.771" class="prefix__cls-20" data-name="Oval" rx="11.701" ry="11.771" transform="translate(11.415)"/>
                            <ellipse id="prefix__Oval-13" cx="9.132" cy="9.187" class="prefix__cls-15" data-name="Oval" rx="9.132" ry="9.187" transform="translate(12.557 13.78)"/>
                            <path id="prefix__Path-103" d="M10.278 70.173a40.645 40.645 0 0 1 1.061 15.94c-1.061 7.929-2.524 9.777-4.782 10.745l12.177 21.607 12.937-22.182q-6.385-.444-6.385-9.477a175.29 175.29 0 0 1 1.272-20.017z" class="prefix__cls-21" transform="translate(-1.991 -20.282)"/>
                            <path id="prefix__Path-105" d="M3.6 53.826C-.818 46.969-2.659 32.2 6.957 29.353c10.265-12.223 24.123-7.019 26.907 3.368s-.659 23.113-8.718 24.879S8.014 60.682 3.6 53.826z" class="prefix__cls-19" transform="translate(0 -6.761)"/>
                            <path id="prefix__Path" d="M28.167 76.163c-.148 1.181-.327 3.852-.624 8.57a32.737 32.737 0 0 0 .246 8.57q-12.561-5.7-14.026-9a44.478 44.478 0 0 0-.215-6.242z" transform="translate(-4.114 -23.128)" style="fill:#cf8b54;fill-rule:evenodd"/>
                            <path id="prefix__Path-2-2" d="M5.074 52.079q3.96-2.311 6.6-10.026c-1.029 5.082 10.182 10.19 18.547 11.1a2.987 2.987 0 0 1 .868-.128 3.185 3.185 0 0 1 0 6.367 3.013 3.013 0 0 1-2.062-.819c-2.49 7.466-7.737 17.045-13.627 16.149Q9.01 73.75 5.37 58.354a2.994 2.994 0 0 1-.649.071 3.185 3.185 0 0 1 0-6.367 3.012 3.012 0 0 1 .355.021z" class="prefix__cls-21" data-name="Path" transform="translate(-.498 -12.77)"/>
                            <path id="prefix__Path-104" d="M21.637 59.771q.6 2.3-1.711 8.415l2.432.868" class="prefix__cls-4" transform="translate(-6.051 -18.15)"/>
                            <path id="prefix__Path-109" d="M27.3 55.807a5.288 5.288 0 0 1 5.463.494" class="prefix__cls-4" transform="translate(-8.291 -16.781)"/>
                            <path id="prefix__Path-109-2" d="M0 .545a5.287 5.287 0 0 1 5.463.491" class="prefix__cls-4" data-name="Path-109" transform="rotate(-6 373.749 -56.478)"/>
                            <ellipse id="prefix__Oval-14" cx=".856" cy=".861" class="prefix__cls-20" data-name="Oval" rx=".856" ry=".861" transform="translate(20.548 40.766)"/>
                            <ellipse id="prefix__Oval-15" cx=".856" cy=".861" class="prefix__cls-20" data-name="Oval" rx=".856" ry=".861" transform="translate(10.274 40.766)"/>
                            <path id="prefix__Path-110" d="M18.852 76.257l5.224-.4q-.742 2.643-2.612 2.643t-2.612-2.243z" class="prefix__cls-12" transform="translate(-5.725 -23.036)"/>
                            <path id="prefix__Path-107" d="M42.623 63.241l1.712-.574" class="prefix__cls-4" transform="translate(-12.943 -19.03)"/>
                            <path id="prefix__Path-107-2" d="M0 0l1.712.574" class="prefix__cls-4" data-name="Path-107" transform="rotate(180 2.283 21.532)"/>
                            <path id="prefix__Path-108" d="M20.492 39.579q4.543 7.933 14.269 9.761" class="prefix__cls-18" transform="translate(-6.223 -12.019)"/>
                        </g>
                    </g>
                    <g id="prefix__Group-6" transform="translate(62.286 36.683)">
                        <circle id="prefix__Oval-16" cx="6.267" cy="6.267" r="6.267" class="prefix__cls-23" data-name="Oval" transform="translate(14.623)"/>
                        <circle id="prefix__Oval-17" cx="6.267" cy="6.267" r="6.267" class="prefix__cls-23" data-name="Oval"/>
                        <path id="prefix__Path-132" d="M16.926 3.867a3.531 3.531 0 0 1 3.533 0" class="prefix__cls-4" transform="translate(-5.14 -1.031)"/>
                    </g>
                    <path id="prefix__Path-118" d="M166.969 160.349q-2.744 17.958-6.035 19.742" class="prefix__cls-18" transform="translate(-49.254 -48.692)"/>
                </g>
                <path id="prefix__Path-235" d="M146 210.992l12.646 23.775" class="prefix__cls-24" transform="translate(-44.335 -64.071)"/>
                <g id="prefix__Group-10-2" data-name="Group-10" transform="rotate(180 117.677 61.228)">
                    <path id="prefix__Path-60" d="M0 73.525l67.257.757L82.672 0H23.78A10.793 10.793 0 0 0 13.2 8.641z" class="prefix__cls-25" transform="rotate(180 48.162 37.141)"/>
                    <g id="prefix__Path-88" transform="translate(25.303 17.531)">
                        <path id="prefix__Path-173" d="M0 .118L29.93 0" class="prefix__cls-4" transform="translate(22.078 32.821)"/>
                        <path id="prefix__Path-173-2" d="M0 .118L36.893 0" class="prefix__cls-4" data-name="Path-173" transform="translate(16.053 28.643)"/>
                        <path id="prefix__Path-173-3" d="M0 .118L29.93 0" class="prefix__cls-4" data-name="Path-173" transform="translate(24.238 19.591)"/>
                        <path id="prefix__Path-173-4" d="M0 .118L16 0" class="prefix__cls-4" data-name="Path-173" transform="translate(39.104 15.413)"/>
                        <path id="prefix__Path-173-5" d="M0 .118L29.93 0" class="prefix__cls-4" data-name="Path-173" transform="translate(27.872 4.968)"/>
                        <path id="prefix__Path-173-6" d="M0 .118L12.521 0" class="prefix__cls-4" data-name="Path-173" transform="translate(46.219 .79)"/>
                        <path id="prefix__Rectangle-9" d="M0 6.963h6.963L8.115 0H1.152z" class="prefix__cls-26" data-name="Rectangle" transform="translate(0 27.853)"/>
                        <path id="prefix__Rectangle-10" d="M0 6.963h6.963L8.115 0H1.152z" class="prefix__cls-26" data-name="Rectangle" transform="translate(3.482 13.927)"/>
                        <path id="prefix__Rectangle-11" d="M0 6.963h6.963L8.115 0H1.152z" class="prefix__cls-26" data-name="Rectangle" transform="translate(6.963)"/>
                    </g>
                    <path id="prefix__Path-135" d="M0 0a9.3 9.3 0 0 1 9.266 8.5l.259 2.992h62.33A8.473 8.473 0 0 0 63.938 0z" transform="rotate(180 36.206 37.316)" style="fill:#4385ff;fill-rule:evenodd"/>
                </g>
                <g id="prefix__Group-7" transform="translate(130.825 115.244)">
                    <path id="prefix__Path-131" d="M12.636 60.357H93.6L76.545 34.415.5 32.513v4.45z" class="prefix__cls-25" transform="translate(-.5 -10.221)"/>
                    <path id="prefix__Path-131-2" d="M13.937 58.189H93.7L76.9 32.251H.813z" class="prefix__cls-25" data-name="Path-131" transform="translate(-.595 -10.142)"/>
                    <path id="prefix__Rectangle-12" d="M27.889.5l-9.735 50.41 1.207 1.81 79.617-2.077 11.115-48.334L108.887.5z" class="prefix__cls-25" data-name="Rectangle" transform="translate(-5.861 -.5)"/>
                    <path id="prefix__Rectangle-13" d="M29.441 3h81.471L101.1 53.832H19.624z" class="prefix__cls-26" data-name="Rectangle" transform="translate(-6.307 -1.259)"/>
                    <circle id="prefix__Oval-18" cx="3.83" cy="3.83" r="3.83" class="prefix__cls-5" data-name="Oval" transform="translate(55.793 23.327)"/>
                </g>
                <g id="prefix__Path-236-_-Path-237-Mask" data-name="Path-236-+-Path-237-Mask" transform="translate(53.305 114.12)">
                    <path id="prefix__Mask-2" d="M22.339 15.4Q19.114-1.764 10.062.2C1.009 2.168-1.718 13.665 1.009 22.54q2.727 8.875 33.424 31.281 9.862 5.348 17.143 5.348t7.479-8.741q1.922-2.875-2.778-5.958t-14.88 0L21.258 18.984z" data-name="Mask" style="fill:#ffd1ab"/>
                    <path id="prefix__Path-239" d="M27.165 22.772a58.019 58.019 0 0 0-7.715-10.3" class="prefix__cls-18" transform="translate(-5.906 -3.788)"/>
                    <path id="prefix__Path-236" d="M80.609 79.793a12.424 12.424 0 0 1-8.16 1.381" class="prefix__cls-18" transform="translate(-22 -24.23)"/>
                    <path id="prefix__Path-237" d="M81.712 76.969q-5.271.9-8.262 0" class="prefix__cls-18" transform="translate(-22.304 -23.373)"/>
                    <path id="prefix__Path-237-2" d="M8.262 0Q2.991.9 0 0" class="prefix__cls-18" data-name="Path-237" transform="rotate(10 -260.682 317.926)"/>
                </g>
                <path id="prefix__Path-233" d="M367 213.459l12.788 18.974h21.068l-14.427-19.643z" transform="translate(-111.445 -64.617)"/>
                <g id="prefix__Group-4" transform="translate(248.592 123.377)">
                    <path id="prefix__Path-231" d="M7 3l1.968 22.835a13.255 13.255 0 0 0 9.761 3.626q6.1 0 9.789-3.4L30.675 3z" transform="translate(-2.126 -1.259)" style="fill:#19243d"/>
                    <path id="prefix__Path-232" d="M6.092 11q-5.4.214-6.028 5.587c-.626 5.373 3.456 7.643 6.9 7.643" transform="translate(0 -3.688)" style="stroke:#19243d;stroke-width:4px;fill:none;fill-rule:evenodd"/>
                    <ellipse id="prefix__Oval-19" cx="11.49" cy="1.741" class="prefix__cls-9" data-name="Oval" rx="11.49" ry="1.741" transform="translate(5.223)"/>
                </g>
                <path id="prefix__Path-235-2" d="M146 210.992l7.335 14.057" class="prefix__cls-24" data-name="Path-235" transform="translate(-44.335 -64.071)"/>
                <path id="prefix__Path-234" d="M157.721 233.077c-.5 0-4.781-3.054-6.721-4.4" class="prefix__cls-18" transform="translate(-45.853 -69.442)"/>
            </g>
        </g>
    </g>
</svg>
