<svg xmlns="http://www.w3.org/2000/svg" width="359.701" height="298.388" viewBox="0 0 359.701 298.388">
    <defs>
        <style>
            .prefix__cls-1{fill:#ceebf6}.prefix__cls-1,.prefix__cls-12,.prefix__cls-15,.prefix__cls-20,.prefix__cls-3,.prefix__cls-5,.prefix__cls-6,.prefix__cls-7{fill-rule:evenodd}.prefix__cls-12,.prefix__cls-20,.prefix__cls-3{fill:none}.prefix__cls-12,.prefix__cls-3{stroke:#18233d;stroke-linecap:round}.prefix__cls-3{stroke-width:.8px}.prefix__cls-4,.prefix__cls-7{fill:#18233d}.prefix__cls-5{fill:#ffb391}.prefix__cls-6{fill:#ff9b6f}.prefix__cls-8{fill:#2760cb}.prefix__cls-9{fill:#fff}.prefix__cls-13{fill:#19243d}.prefix__cls-15{fill:#779cf7}.prefix__cls-20{stroke:#fff;stroke-width:3px}
        </style>
    </defs>
    <g id="prefix__Page-1" transform="translate(0 .4)">
        <g id="prefix__Desktop-HD">
            <g id="prefix__Searching-Job-online-via-mobile">
                <path id="prefix__Rectangle" d="M98.157 103.891h46.211a51.946 51.946 0 0 0 51.946-51.946A51.946 51.946 0 0 0 144.368 0H0v5.735a98.157 98.157 0 0 0 98.157 98.156z" class="prefix__cls-1" transform="rotate(180 98.156 64.168)"/>
                <path id="prefix__Rectangle-2" d="M301.644 202h57.717a59.754 59.754 0 0 1 59.754 59.754 59.754 59.754 0 0 1-59.754 59.754H193v-10.864A108.644 108.644 0 0 1 301.644 202z" class="prefix__cls-1" data-name="Rectangle" transform="translate(-61.948 -64.836)"/>
                <rect id="prefix__Rectangle-3" width="122" height="34" data-name="Rectangle" rx="17" transform="translate(198.971 75)" style="stroke-width:.8px;stroke-linecap:round;stroke:#18233d;fill:none"/>
                <path id="prefix__Rectangle-4" d="M179.272 0h22.068a16.636 16.636 0 0 1 16.636 16.636 16.636 16.636 0 0 1-16.636 16.636H146A33.272 33.272 0 0 1 179.272 0z" class="prefix__cls-3" data-name="Rectangle" transform="translate(-46.862)"/>
                <g id="prefix__Group-3" transform="translate(118.151 12.902)">
                    <circle id="prefix__Oval" cx="3.5" cy="3.5" r="3.5" class="prefix__cls-4" transform="translate(-.179 .098)"/>
                    <circle id="prefix__Oval-2" cx="3.5" cy="3.5" r="3.5" class="prefix__cls-4" data-name="Oval" transform="translate(14.821 .098)"/>
                    <circle id="prefix__Oval-3" cx="3.5" cy="3.5" r="3.5" class="prefix__cls-4" data-name="Oval" transform="translate(29.821 .098)"/>
                </g>
                <path id="prefix__Path-83" d="M102.49 326.079q31.019-176.065 32.338-150.272 61.565-49.432 70.586-56.56 7.774-6.143 24.157-27.768a10 10 0 0 1 13.291-2.43 9.268 9.268 0 0 1 2.94 12.742l-18.3 29.419-22.092 24.484 48.3-46.386a9.1 9.1 0 0 1 12.769.153 9.778 9.778 0 0 1 .528 13.2l-49.01 58 9.506 23.413q1.346 20.782-7.477 27.948t-43.45 43.088l-12.845 50.967z" class="prefix__cls-5" transform="translate(-32.897 -28.09)"/>
                <path id="prefix__Path-97" d="M283 181.764l.439-39.058 25.765-22.66a12.108 12.108 0 0 1 14.64-1.031 8.189 8.189 0 0 1 1.772 12.119z" class="prefix__cls-6" transform="translate(-90.835 -37.563)"/>
                <path id="prefix__Path-94" d="M146.01 320.929l-12.772 13.721 63.744-8.92z" class="prefix__cls-6" transform="translate(-42.766 -103.009)"/>
                <g id="prefix__Mobile" transform="rotate(180 100.022 111.36)">
                    <path id="prefix__Rectangle-5" d="M6.465 174.51h79.758a6.111 6.111 0 0 0 6.111-6.111v-.013L91.981 6.1A6.111 6.111 0 0 0 85.869 0H6.111A6.111 6.111 0 0 0 0 6.111v.013l.354 162.288a6.111 6.111 0 0 0 6.111 6.098z" class="prefix__cls-7" data-name="Rectangle" transform="translate(6.451)"/>
                    <rect id="prefix__Rectangle-6" width="2.716" height="36.667" class="prefix__cls-8" data-name="Rectangle" rx="1.358" transform="translate(93.36 120.188)"/>
                    <rect id="prefix__Rectangle-7" width="2.716" height="36.667" class="prefix__cls-9" data-name="Rectangle" rx="1.358" transform="translate(94.039 120.188)"/>
                    <path id="prefix__Rectangle-8" d="M6.125 173.831a5.772 5.772 0 0 1-5.772-5.759L0 5.784v-.013A5.772 5.772 0 0 1 5.772 0H85.53a5.772 5.772 0 0 1 5.77 5.759l.354 162.288v.013a5.772 5.772 0 0 1-5.772 5.772z" data-name="Rectangle" transform="translate(0 .34)" style="fill:#fff;stroke:#18233d;fill-rule:evenodd"/>
                    <g id="prefix__Oval-4" data-name="Oval" transform="translate(39.716 2.716)">
                        <circle id="prefix__Mask" cx="4.753" cy="4.753" r="4.753" class="prefix__cls-8"/>
                        <circle id="prefix__Ellipse_96" cx="4.753" cy="4.753" r="4.753" class="prefix__cls-9" data-name="Ellipse 96" transform="translate(1.358)"/>
                    </g>
                    <g id="prefix__Rectangle-_-Rectangle-_-Rectangle-_-Rectangle-Mask" data-name="Rectangle-+-Rectangle-+-Rectangle-+-Rectangle-Mask" transform="translate(2.377 14.939)">
                        <path id="prefix__Mask-2" d="M6.111 156.855h20.426a2.641 2.641 0 0 0 2.525-1.865 2.641 2.641 0 0 1 2.525-1.865h21.135a4.936 4.936 0 0 1 3.864 1.865 4.936 4.936 0 0 0 3.864 1.865h20.035a6.111 6.111 0 0 0 6.111-6.1L86.9 6.124A6.111 6.111 0 0 0 80.8 0H6.417A6.111 6.111 0 0 0 .306 6.1L0 150.731a6.111 6.111 0 0 0 6.1 6.124z" data-name="Mask" style="fill:#d7e3ff"/>
                        <path id="prefix__Rectangle-9" d="M3.4 35.309h73.33a3.4 3.4 0 0 0 3.4-3.4V3.4a3.4 3.4 0 0 0-3.4-3.4H3.4A3.4 3.4 0 0 0 0 3.4v28.514a3.4 3.4 0 0 0 3.4 3.395z" class="prefix__cls-3" data-name="Rectangle" transform="translate(3.466 55.68)"/>
                        <g id="prefix__Group-2" transform="translate(13.047 63.15)">
                            <g id="prefix__Group_534" data-name="Group 534" transform="rotate(180 30.538 10.186)">
                                <path id="prefix__Path-96" d="M0 0h19.215" class="prefix__cls-12" transform="translate(28.279 3.735)"/>
                                <path id="prefix__Path-96-2" d="M0 0h32.8" class="prefix__cls-12" data-name="Path-96" transform="translate(28.279 10.525)"/>
                                <path id="prefix__Path-96-3" d="M0 0h6.79" class="prefix__cls-12" data-name="Path-96" transform="translate(28.279 17.315)"/>
                                <circle id="prefix__Oval-5" cx="10.185" cy="10.185" r="10.185" class="prefix__cls-9" data-name="Oval"/>
                            </g>
                        </g>
                        <path id="prefix__Rectangle-10" d="M3.4 35.309h73.33a3.4 3.4 0 0 0 3.4-3.4V3.4a3.4 3.4 0 0 0-3.4-3.4H3.4A3.4 3.4 0 0 0 0 3.4v28.514a3.4 3.4 0 0 0 3.4 3.395z" class="prefix__cls-3" data-name="Rectangle" transform="translate(3.466 99.817)"/>
                        <path id="prefix__Rectangle-11" d="M3.4 35.309h73.33a3.4 3.4 0 0 0 3.4-3.4V3.4a3.4 3.4 0 0 0-3.4-3.4H3.4A3.4 3.4 0 0 0 0 3.4v28.514a3.4 3.4 0 0 0 3.4 3.395z" class="prefix__cls-3" data-name="Rectangle" transform="translate(3.466 11.543)"/>
                        <g id="prefix__Group-2-2" data-name="Group-2" transform="translate(13.047 19.013)">
                            <g id="prefix__Group_535" data-name="Group 535" transform="rotate(180 30.538 10.186)">
                                <path id="prefix__Path-96-4" d="M0 0h19.215" class="prefix__cls-12" data-name="Path-96" transform="translate(28.279 3.735)"/>
                                <path id="prefix__Path-96-5" d="M0 0h32.8" class="prefix__cls-12" data-name="Path-96" transform="translate(28.279 10.525)"/>
                                <path id="prefix__Path-96-6" d="M0 0h6.79" class="prefix__cls-12" data-name="Path-96" transform="translate(28.279 17.315)"/>
                                <circle id="prefix__Oval-6" cx="10.185" cy="10.185" r="10.185" class="prefix__cls-9" data-name="Oval"/>
                            </g>
                        </g>
                    </g>
                    <rect id="prefix__Rectangle-12" width="14.939" height=".679" class="prefix__cls-13" data-name="Rectangle" rx=".34" transform="translate(39.037 170.436)"/>
                    <circle id="prefix__Oval-7" cx="1.019" cy="1.019" r="1.019" class="prefix__cls-13" data-name="Oval" transform="translate(34.284 169.757)"/>
                    <path id="prefix__Path-106" d="M0 0h2.716" transform="translate(94.039 138.522)" style="stroke:#85b0ff;stroke-width:1.8px;fill:none;fill-rule:evenodd"/>
                </g>
                <path id="prefix__Path-84" d="M120.418 253.664q11.858-15.21 11.858-41.118t-11.858-43.421V145.6a67.9 67.9 0 0 0-4.476-24.244l-4.369-11.431a7.874 7.874 0 0 0-7.355-5.062 5.42 5.42 0 0 0-5.42 5.42v61.562q-1.812 63.483-15.113 98.793t-23.973 61.009h46.12l3.807-66.347z" class="prefix__cls-5" transform="translate(-19.166 -33.659)"/>
                <path id="prefix__Path-85" d="M280.676 200.5l14.05 12.332a8.909 8.909 0 0 1 1.767 11.271l-1.283 2.143a19.692 19.692 0 0 1-6.757 6.767l-27.208 16.343a7.062 7.062 0 0 1-9.466-2.069 7.694 7.694 0 0 1 1.144-10l27.752-25.52z" class="prefix__cls-5" transform="translate(-80.384 -64.355)"/>
                <path id="prefix__Path-98" d="M123.137 385.922q25.619 3.158 41.392-7.779l1.669-5.957q3.77 3.383.576 16.846c-3.195 13.463-28.418 17.937-45.9 15.539S82 389.938 79.33 378.143c-.916-4.053-1.438-4.569 2.077-13.431q3.515-8.862 6.71-9.321l-2.089 6.272q11.49 21.101 37.109 24.259z" class="prefix__cls-15" transform="translate(-25.245 -114.071)"/>
                <path id="prefix__Combined-Shape" d="M136.606 386.589v18.344a73.875 73.875 0 0 1-15.732-.361c-17.482-2.4-38.879-14.634-41.545-26.429-.916-4.053-1.438-4.569 2.077-13.431q3.515-8.862 6.71-9.321l-2.089 6.272q11.491 21.1 37.109 24.259a86.819 86.819 0 0 0 13.47.667z" transform="translate(-25.245 -114.071)" style="fill:#497af3;fill-rule:evenodd"/>
                <path id="prefix__Path-102" d="M83.363 384.544a9.791 9.791 0 0 1 12.864-1.644q11.166 7.585 18.8 9.711z" class="prefix__cls-7" transform="translate(-26.757 -122.357)"/>
                <circle id="prefix__Oval-8" cx="2" cy="2" r="2" class="prefix__cls-4" data-name="Oval" transform="translate(123.971 276)"/>
                <path id="prefix__Path-101" d="M122.1 393.551s-11.1-1.489-20.03-5.415a91.256 91.256 0 0 1-13.181-7.246 6.453 6.453 0 0 0-8.894 1.8 8 8 0 0 0 1.09 10.218q12.59 12.143 22.254 15.482c11.445 3.955 20.045 4.641 30.139 4.641l4.628-4.641v-12.403z" class="prefix__cls-15" transform="translate(-25.24 -121.917)"/>
                <path id="prefix__Path-99" d="M141.809 400.034h13.124c2.242 0 5.724 1.867 4.741 10.391s-2.822 10.35-5.337 10.35q-2.515 0-14.293-1.881l12.648-1.259a2.716 2.716 0 0 0 2.437-2.465l.853-9.724a2.716 2.716 0 0 0-2.149-2.9z" transform="translate(-44.95 -128.4)" style="fill:#fff;fill-rule:evenodd"/>
                <ellipse id="prefix__Oval-9" cx="2.5" cy="3" class="prefix__cls-4" data-name="Oval" rx="2.5" ry="3" transform="translate(102.971 279)"/>
                <circle id="prefix__Oval-10" cx="2" cy="2" r="2" class="prefix__cls-4" data-name="Oval" transform="translate(83.971 276)"/>
                <path id="prefix__Path-100" d="M152.857 414.4a1.142 1.142 0 0 0 1.077 1.312l6.916.317a.932.932 0 0 0 .967-.817.874.874 0 0 0-.749-.973l-6.764-.922a1.287 1.287 0 0 0-1.447 1.083z" transform="translate(-49.059 -132.66)" style="fill:#d7e3ff;fill-rule:evenodd"/>
                <circle id="prefix__Oval-11" cx="2" cy="2" r="2" class="prefix__cls-4" data-name="Oval" transform="translate(65.971 268)"/>
                <path id="prefix__Path-85-2" d="M286.848 238.5l12.043 10.57a7.636 7.636 0 0 1 1.515 9.661l-.738 1.233a19.692 19.692 0 0 1-6.757 6.767l-22.717 13.646a6.053 6.053 0 0 1-8.114-1.773 6.6 6.6 0 0 1 .981-8.576l23.788-21.874z" class="prefix__cls-5" data-name="Path-85" transform="translate(-83.751 -76.552)"/>
                <path id="prefix__Path-86" d="M269.729 263.153l26.5-16.6" class="prefix__cls-12" transform="translate(-86.576 -79.137)"/>
                <path id="prefix__Path-87" d="M146.01 320.929l-12.772 13.721" class="prefix__cls-12" transform="translate(-42.766 -103.009)"/>
                <path id="prefix__Rectangle-13" d="M225.4 96h89.632a3.4 3.4 0 0 1 3.4 3.4v28.519a3.4 3.4 0 0 1-3.4 3.4H225.4a3.4 3.4 0 0 1-3.4-3.4V99.4a3.4 3.4 0 0 1 3.4-3.4z" data-name="Rectangle" transform="translate(-71.256 -30.813)" style="fill:#0acc94;fill-rule:evenodd"/>
                <path id="prefix__Path-96-7" d="M273.647 112.5h19.215" class="prefix__cls-20" data-name="Path-96" transform="translate(-87.833 -36.109)"/>
                <path id="prefix__Path-96-8" d="M273.647 122.5h32.8" class="prefix__cls-20" data-name="Path-96" transform="translate(-87.833 -39.319)"/>
                <path id="prefix__Path-96-9" d="M273.647 132.5h6.79" class="prefix__cls-20" data-name="Path-96" transform="translate(-87.833 -42.529)"/>
                <circle id="prefix__Oval-12" cx="10" cy="10" r="10" class="prefix__cls-9" data-name="Oval" transform="translate(157.971 73)"/>
                <g id="prefix___1063299" data-name="1063299" transform="translate(162.967 78.088)">
                    <path id="prefix__Shape" d="M4.2 5.07h1.79v.63H4.2zm4.063.63a.9.9 0 0 0 .849-.65l1.073-3.418v6.92a.925.925 0 0 1-.9.951H.9a.925.925 0 0 1-.9-.947V1.635l1.073 3.419a.9.9 0 0 0 .849.65H3.6v.317a.308.308 0 0 0 .3.317h2.386a.308.308 0 0 0 .3-.317V5.7zM6.286 0a.925.925 0 0 1 .9.951v.317h2.486L8.547 4.853a.3.3 0 0 1-.283.217H6.585v-.317a.308.308 0 0 0-.3-.317H3.9a.308.308 0 0 0-.3.317v.317H1.922a.3.3 0 0 1-.283-.217L.513 1.268H3V.951A.925.925 0 0 1 3.9 0zM3.6 1.268h2.985V.951a.308.308 0 0 0-.3-.317H3.9a.308.308 0 0 0-.3.317z" class="prefix__cls-7"/>
                </g>
                <g id="prefix__Group" transform="translate(200.313 81.483)">
                    <path id="prefix__Path-88" d="M77.235 215.963L66.1 173.385a59.755 59.755 0 0 0-11.148-22.209l-22.717-28.4a23.766 23.766 0 0 1-4.568-20.318L32.3 82.89.58 9.7A7.021 7.021 0 0 1 3.243.991a6.3 6.3 0 0 1 8.518 1.649l36.758 51.48a12.247 12.247 0 0 1 20.676-2.832l5.325 6.49a10.526 10.526 0 0 1 17.38-1.312l7.467 9.416a13.925 13.925 0 0 1 15.509 7.107l.742 1.419a55.7 55.7 0 0 1 6.286 23.364L124 145.436l35.388 70.527z" class="prefix__cls-5"/>
                    <path id="prefix__Path-95" d="M57.483 146.045l6.3 10.519-8.353-4.3a9.506 9.506 0 0 1-5.078-7.232L47.567 123.5z" class="prefix__cls-6" transform="translate(-15.268 -39.64)"/>
                    <path id="prefix__Path-89" d="M47.567 122.072l9.916 23.515" class="prefix__cls-12" transform="translate(-15.268 -39.182)"/>
                    <path id="prefix__Path-90" d="M56.869 142.387v3.258a9.506 9.506 0 0 0 3.692 7.521l1.266.979z" class="prefix__cls-7" transform="translate(-18.253 -45.702)"/>
                    <path id="prefix__Path-91" d="M71.453 78.7l10.208 18.556" class="prefix__cls-12" transform="translate(-22.934 -25.261)"/>
                    <path id="prefix__Path-92" d="M109.744 85.089l4.9 8.564" class="prefix__cls-12" transform="translate(-35.225 -27.311)"/>
                    <path id="prefix__Path-92-2" d="M145.453 96.2l4.9 8.564" class="prefix__cls-12" data-name="Path-92" transform="translate(-46.686 -30.878)"/>
                </g>
            </g>
        </g>
    </g>
</svg>
