<svg xmlns="http://www.w3.org/2000/svg" width="402.779" height="322.4" viewBox="0 0 402.779 322.4">
    <defs>
        <style>
            .prefix__cls-13,.prefix__cls-14,.prefix__cls-15,.prefix__cls-16,.prefix__cls-2,.prefix__cls-3,.prefix__cls-4,.prefix__cls-5{fill-rule:evenodd}.prefix__cls-2{fill:#fff}.prefix__cls-16,.prefix__cls-2,.prefix__cls-4{stroke:#18233d;stroke-linecap:round}.prefix__cls-16,.prefix__cls-3,.prefix__cls-4{fill:none}.prefix__cls-3{stroke:#0acc94;stroke-width:5px}.prefix__cls-5{fill:#4873db;opacity:.219}.prefix__cls-15,.prefix__cls-7{fill:#18233d}.prefix__cls-13{fill:#ffb391}.prefix__cls-14{fill:#ff9b6f}
        </style>
    </defs>
    <g id="prefix__Page-1" transform="translate(0 -.6)">
        <g id="prefix__Desktop-HD" transform="translate(0 1)">
            <g id="prefix__increase-your-skill-to-make-easier-getting-job">
                <path id="prefix__Rectangle" d="M107.738 160.934h157.9a80.467 80.467 0 0 0 80.467-80.467A80.467 80.467 0 0 0 265.642 0H0v53.2a107.738 107.738 0 0 0 107.738 107.734z" transform="rotate(180 184.165 101.341)" style="fill-rule:evenodd;fill:#ceebf6"/>
                <path id="prefix__Rectangle-2" d="M389.856 28.5h114.112l8.133 95.618H397.622L389.49 28.5z" class="prefix__cls-2" data-name="Rectangle" transform="translate(-127.222 -9.309)"/>
                <path id="prefix__Rectangle-3" d="M1.226 12.121h12.986L12.986 0H0z" class="prefix__cls-2" data-name="Rectangle" transform="rotate(180 180.648 35.52)"/>
                <path id="prefix__Path-210" d="M513 79.7l7.43 8.754 17.21-18.64" class="prefix__cls-3" transform="translate(-167.565 -22.805)"/>
                <path id="prefix__Rectangle-4" d="M1.226 12.121h12.986L12.986 0H0z" class="prefix__cls-2" data-name="Rectangle" transform="rotate(180 181.994 47.64)"/>
                <path id="prefix__Path-210-2" d="M515 116.7l7.43 8.754 17.21-18.64" class="prefix__cls-3" data-name="Path-210" transform="translate(-168.218 -34.891)"/>
                <path id="prefix__Path-213" d="M423.593 80.976h49.975" class="prefix__cls-4" transform="translate(-138.361 -26.45)"/>
                <path id="prefix__Path-213-2" d="M424.593 98.976h29.774" class="prefix__cls-4" data-name="Path-213" transform="translate(-138.688 -32.329)"/>
                <path id="prefix__Path-213-3" d="M424.593 125.976h43.241" class="prefix__cls-4" data-name="Path-213" transform="translate(-138.688 -41.149)"/>
                <path id="prefix__Rectangle-5" d="M399.856 188.5h114.112l8.133 95.618H407.622L399.49 188.5z" class="prefix__cls-2" data-name="Rectangle" transform="translate(-130.488 -61.571)"/>
                <path id="prefix__Path-207" d="M402.535 188.318l8.911 95.4h-95.723l-3.723-95.4z" class="prefix__cls-5" transform="translate(-101.911 -61.512)"/>
                <g id="prefix__Group-13" transform="translate(317.536)">
                    <path id="prefix__Rectangle-6" d="M39.728 0H64.98a19.864 19.864 0 0 1 19.864 19.864A19.864 19.864 0 0 1 64.98 39.728H0A39.728 39.728 0 0 1 39.728 0z" data-name="Rectangle" style="stroke-width:.8px;fill:none;stroke-linecap:round;stroke:#18233d;fill-rule:evenodd"/>
                    <g id="prefix__Group-3" transform="translate(21.548 16.161)">
                        <ellipse id="prefix__Oval" cx="3.783" cy="3.703" class="prefix__cls-7" rx="3.783" ry="3.703"/>
                        <ellipse id="prefix__Oval-2" cx="3.783" cy="3.703" class="prefix__cls-7" data-name="Oval" rx="3.783" ry="3.703" transform="translate(16.754)"/>
                        <ellipse id="prefix__Oval-3" cx="3.783" cy="3.703" class="prefix__cls-7" data-name="Oval" rx="3.783" ry="3.703" transform="translate(33.509)"/>
                    </g>
                </g>
                <path id="prefix__Rectangle-7" d="M218.856 255.5h114.112l8.133 95.618H226.622l-8.133-95.618z" class="prefix__cls-2" data-name="Rectangle" transform="translate(-71.367 -83.456)"/>
                <path id="prefix__Path-207-2" d="M341.535 228.318l8.911 95.4h-92.039l-7.407-95.4z" class="prefix__cls-5" data-name="Path-207" transform="translate(-81.986 -74.577)"/>
                <path id="prefix__Rectangle-8" d="M203.856 92.5h114.112l8.133 95.618H211.622L203.489 92.5z" class="prefix__cls-2" data-name="Rectangle" transform="translate(-66.467 -30.214)"/>
                <path id="prefix__Rectangle-9" d="M21.822 168.5h114.113l8.133 95.618H29.588L21.456 168.5z" class="prefix__cls-2" data-name="Rectangle" transform="translate(-7.008 -55.038)"/>
                <path id="prefix__Path-211" d="M41.572 181.5l5.94 75.074h89.936" class="prefix__cls-4" transform="translate(-13.579 -59.285)"/>
                <path id="prefix__Path-212" d="M125.121 267.358l-5.531-52.845" class="prefix__cls-4" transform="translate(-39.062 -70.068)"/>
                <path id="prefix__Path-212-2" d="M170.121 262.358l-5.531-52.845" class="prefix__cls-4" data-name="Path-212" transform="translate(-53.761 -68.435)"/>
                <path id="prefix__Path-212-3" d="M88.4 279.848l-2.9-27.1" class="prefix__cls-4" data-name="Path-212" transform="translate(-27.927 -82.558)"/>
                <path id="prefix__Path" d="M141.314 204.81l-10.852 13.082-18.533-15.669-46.018 53.326-20.367-14.07-14.427 13.256-.9-11.975 14.492-13.315 19.6 13.537L110.889 189l18.393 15.551 10.889-13.127z" class="prefix__cls-5" transform="translate(-9.87 -61.734)"/>
                <path id="prefix__Path-2" d="M135.922 161.046l-4.12-3.553L151.281 151l-3.342 20.409-4.877-4.205-24.49 29.523-18.533-15.669-46.018 53.326-20.367-14.07-27.276 25.061L0 238.433l32.819-30.154 19.6 13.537L99 167.833l18.393 15.551z" data-name="Path" transform="translate(0 -49.322)" style="fill:#85a9ff;fill-rule:evenodd"/>
                <circle id="prefix__Oval-4" cx="11" cy="11" r="11" data-name="Oval" transform="translate(75 128)" style="fill:#0acc94"/>
                <g id="prefix__Group-10" transform="rotate(180 195.768 145.532)">
                    <path id="prefix__Path-60" d="M9.847 156.757h131.292L129.48 0H20.538A20.538 20.538 0 0 0 0 20.538q0 .745.054 1.489z" transform="rotate(180 115.692 108.329)" style="stroke:#18233d;fill:#fff;fill-rule:evenodd"/>
                    <g id="prefix__Path-88">
                        <path id="prefix__Path_5229" d="M38.1 0L24.787 40.585A59.256 59.256 0 0 1 18.9 53.262L1.174 81.951A7.86 7.86 0 0 0 4.75 93.3L2.7 99.5v2.6a6.157 6.157 0 0 0 9.654 5.068L10.856 112a6.551 6.551 0 0 0 2.568 7.344 6.349 6.349 0 0 0 7.683-.4l4.483-3.8-13.974 43.11a4.232 4.232 0 0 0 2.313 5.174 3.916 3.916 0 0 0 5.124-1.9l24.875-52.494a10.12 10.12 0 0 0 11.27-5.164l.539-1.03a36.644 36.644 0 0 0 4.173-16.983V54.284L87.539 0z" data-name="Path 5229" transform="rotate(-44 75.255 30.405)" style="fill:#e5e9f3;mix-blend-mode:multiply;isolation:isolate;fill-rule:evenodd"/>
                    </g>
                    <path id="prefix__Rectangle-10" d="M1.226 12.121h12.986L12.986 0H0z" class="prefix__cls-2" data-name="Rectangle" transform="translate(113.063 142.588)"/>
                    <path id="prefix__Rectangle-11" d="M1.226 12.121h12.986L12.986 0H0z" class="prefix__cls-2" data-name="Rectangle" transform="translate(111.717 118.347)"/>
                    <path id="prefix__Path-148" d="M0 0h36.416" class="prefix__cls-4" transform="translate(139.697 152.407)"/>
                    <path id="prefix__Path-148-2" d="M0 0h9.932" class="prefix__cls-4" data-name="Path-148" transform="translate(138.35 142.98)"/>
                    <path id="prefix__Rectangle-12" d="M1.53 12.121h12.682L12.986 0H0l1.226 12.121z" class="prefix__cls-2" data-name="Rectangle" transform="translate(109.697 91.413)"/>
                    <path id="prefix__Path-148-3" d="M0 0h36.416" class="prefix__cls-4" data-name="Path-148" transform="translate(134.31 101.905)"/>
                    <path id="prefix__Path-148-4" d="M0 0h9.932" class="prefix__cls-4" data-name="Path-148" transform="translate(132.963 92.478)"/>
                    <path id="prefix__Rectangle-13" d="M1.53 12.121h12.682L12.986 0H0l1.226 12.121z" class="prefix__cls-2" data-name="Rectangle" transform="translate(115.757 166.156)"/>
                    <path id="prefix__Path-210-3" d="M0 9.886l7.43 8.754L24.64 0" class="prefix__cls-3" data-name="Path-210" transform="rotate(180 65.472 95.091)"/>
                    <path id="prefix__Path-210-4" d="M0 9.886l7.43 8.754L24.64 0" class="prefix__cls-3" data-name="Path-210" transform="rotate(180 64.462 83.644)"/>
                    <path id="prefix__Path-210-5" d="M0 9.886l7.43 8.754L24.64 0" class="prefix__cls-3" data-name="Path-210" transform="rotate(180 63.788 71.187)"/>
                    <path id="prefix__Path-210-6" d="M0 9.886l7.43 8.754L24.64 0" class="prefix__cls-3" data-name="Path-210" transform="rotate(180 63.115 57.72)"/>
                    <path id="prefix__Path-148-5" d="M0 0h56.941" class="prefix__cls-4" data-name="Path-148" transform="translate(142.39 176.648)"/>
                    <path id="prefix__Path-148-6" d="M0 0h51.558" class="prefix__cls-4" data-name="Path-148" transform="translate(141.717 167.221)"/>
                    <path id="prefix__Path-148-7" d="M0 0h56.941" class="prefix__cls-4" data-name="Path-148" transform="translate(136.33 127.493)"/>
                    <path id="prefix__Path-148-8" d="M0 0h26.484" class="prefix__cls-4" data-name="Path-148" transform="translate(134.983 118.066)"/>
                    <path id="prefix__Path-135" d="M0 0a17.987 17.987 0 0 1 17.92 16.434l.5 5.787h120.549A16.386 16.386 0 0 0 123.657 0z" transform="rotate(180 107.557 108.498)" style="fill:#4385ff;fill-rule:evenodd"/>
                </g>
                <g id="prefix__Group" transform="translate(266.652 115.145)">
                    <path id="prefix__Path-88-2" d="M66.665 189.888l-17.692-61.473a59.256 59.256 0 0 0-10.673-20.63l-12.955-16.19a23.568 23.568 0 0 1-4.531-20.151l2.656-11.226L.422 7.048A5.1 5.1 0 0 1 2.356.72a4.579 4.579 0 0 1 6.19 1.2l26.709 37.4a8.9 8.9 0 0 1 15.023-2.058l3.87 4.716a7.649 7.649 0 0 1 12.632-.953l5.426 6.841a10.12 10.12 0 0 1 11.27 5.164l.539 1.03a36.644 36.644 0 0 1 4.173 16.983v45.994l39.751 72.855z" class="prefix__cls-13" data-name="Path-88"/>
                    <path id="prefix__Path-95" d="M42 106.529l4.449 7.712-4.721-2.523a9.427 9.427 0 0 1-4.911-7.148L35 90z" class="prefix__cls-14" transform="translate(-11.432 -29.397)"/>
                    <path id="prefix__Path-89" d="M35 90l7.407 16.834" class="prefix__cls-4" transform="translate(-11.432 -29.397)"/>
                    <path id="prefix__Path-90" d="M42 104v3.4a5.387 5.387 0 0 0 1.9 4.109l1.463 1.24z" class="prefix__cls-15" transform="translate(-13.719 -33.97)"/>
                    <path id="prefix__Path-91" d="M52 58l7.407 13.467" class="prefix__cls-4" transform="translate(-16.985 -18.945)"/>
                    <path id="prefix__Path-92" d="M80 62l3.641 6.533" class="prefix__cls-4" transform="translate(-26.131 -20.251)"/>
                    <path id="prefix__Path-92-2" d="M106 70l3.641 6.533" class="prefix__cls-4" data-name="Path-92" transform="translate(-34.624 -22.865)"/>
                </g>
                <g id="prefix__Group-2" data-name="Group" transform="scale(-1) rotate(-73.02 -260.23 85.345)">
                    <path id="prefix__Path-88-3" d="M121.972 0l-80.52 88.638q-1.245 1.37-2.4 2.816L23.166 111.3a23.568 23.568 0 0 0-4.534 20.157l2.018 8.522L.371 186.742a4.486 4.486 0 0 0 1.7 5.566 4.03 4.03 0 0 0 5.447-1.054l23.5-32.893a7.83 7.83 0 0 0 13.218 1.811l3.406-4.148a6.731 6.731 0 0 0 11.114.839l4.774-6.017a8.906 8.906 0 0 0 9.917-4.544l.473-.9a32.3 32.3 0 0 0 3.68-14.937l.026-22.936 62.087-49.491z" class="prefix__cls-13" data-name="Path-88"/>
                    <path id="prefix__Path-95-2" d="M6.158 6.783L10.072 0 6.437 1.942A9.427 9.427 0 0 0 1.525 9.09L0 21.32z" class="prefix__cls-14" data-name="Path-95" transform="translate(20.736 118.32)"/>
                    <path id="prefix__Path-89-2" d="M0 14.806L6.517 0" class="prefix__cls-16" data-name="Path-89" transform="translate(20.736 124.834)"/>
                    <path id="prefix__Path-90-2" d="M0 7.7V5.006A5.387 5.387 0 0 1 1.9.9L2.962 0z" class="prefix__cls-15" data-name="Path-90" transform="translate(24.883 123.65)"/>
                    <path id="prefix__Path-91-2" d="M0 11.845L6.517 0" class="prefix__cls-16" data-name="Path-91" transform="translate(30.808 146.747)"/>
                    <path id="prefix__Path-92-3" d="M0 5.746L3.2 0" class="prefix__cls-16" data-name="Path-92" transform="translate(47.397 150.477)"/>
                    <path id="prefix__Path-92-4" d="M0 5.746L3.2 0" class="prefix__cls-16" data-name="Path-92" transform="translate(62.801 145.739)"/>
                </g>
            </g>
        </g>
    </g>
</svg>
