<svg xmlns="http://www.w3.org/2000/svg" width="59" height="59" viewBox="0 0 59 59">
  <g id="Group_835" data-name="Group 835" transform="translate(-1259 -1068)">
    <rect id="Rectangle_1624" data-name="Rectangle 1624" width="59" height="59" rx="10" transform="translate(1259 1068)" fill="#00263e"/>
    <path id="Shape" d="M25.75,25.94H2.859A2.811,2.811,0,0,1,.843,25.1,2.928,2.928,0,0,1,0,23.058V2.882A2.873,2.873,0,0,1,2.859,0h9.3a2.829,2.829,0,0,1,2.55,1.594l1.361,2.73H25.75a2.874,2.874,0,0,1,2.86,2.882V23.058A2.874,2.874,0,0,1,25.75,25.94ZM2.859,7.205V23.058H25.75V7.205H2.859Zm0-4.324V4.324H12.884L12.16,2.882h-9.3ZM13.716,19.455h0a1.436,1.436,0,0,1-1.125-.546l-2.273-2.883A1.458,1.458,0,0,1,10.558,14a1.409,1.409,0,0,1,.886-.311,1.442,1.442,0,0,1,1.129.547l1.085,1.4L16.725,11.4a1.432,1.432,0,0,1,1.157-.593,1.407,1.407,0,0,1,.841.278,1.449,1.449,0,0,1,.31,2.013l-4.168,5.765a1.436,1.436,0,0,1-1.119.592Z" transform="translate(1274 1083)" fill="#eff1f2"/>
  </g>
</svg>
