<svg xmlns="http://www.w3.org/2000/svg" width="28.6" height="24.941" viewBox="0 0 28.6 24.941">
  <path id="Shape" d="M24.294,24.941H4.308a4.36,4.36,0,0,1-3.059-1.218A4.066,4.066,0,0,1,0,20.784V9.7A4.068,4.068,0,0,1,1.249,6.76,4.359,4.359,0,0,1,4.308,5.542H8.615V4.157A4.066,4.066,0,0,1,9.864,1.218,4.357,4.357,0,0,1,12.921,0h2.757a4.36,4.36,0,0,1,3.059,1.218,4.066,4.066,0,0,1,1.249,2.939V5.542h4.308A4.356,4.356,0,0,1,27.351,6.76,4.068,4.068,0,0,1,28.6,9.7V20.784a4.066,4.066,0,0,1-1.249,2.939A4.357,4.357,0,0,1,24.294,24.941ZM22.915,8.313V22.171h1.378a1.323,1.323,0,0,0,1.378-1.387V9.7a1.324,1.324,0,0,0-1.378-1.388Zm-14.3,0V22.171H19.986V8.313H8.615Zm-4.308,0A1.324,1.324,0,0,0,2.929,9.7V20.784a1.323,1.323,0,0,0,1.378,1.387H5.686V8.313ZM12.921,2.77a1.481,1.481,0,0,0-1.551,1.387V5.542h5.858V4.157A1.481,1.481,0,0,0,15.678,2.77Z" fill="#eff1f2"/>
</svg>
